<svg width="32" height="32" viewBox="0 0 32 32" fill="none" xmlns="http://www.w3.org/2000/svg">
<path d="M27 4H5C2.79086 4 1 5.79086 1 8V24C1 26.2091 2.79086 28 5 28H27C29.2091 28 31 26.2091 31 24V8C31 5.79086 29.2091 4 27 4Z" fill="black"/>
<path d="M16 17.658L8.065 15.013L12.109 14.239L8.67 11.976L12.702 12.808L10.39 9.402L13.796 11.714L12.964 7.682L15.227 11.121L16.001 7.077L16.775 11.121L19.038 7.682L18.206 11.714L21.612 9.402L19.3 12.808L23.332 11.976L19.893 14.239L23.937 15.013L16.002 17.658H16Z" fill="#FCD116"/>
<path d="M2 15H30V20H2V15Z" fill="#0072C6"/>
<path d="M5 19H27V28H5V19Z" fill="white"/>
<path d="M1 8V24C1 26.209 2.791 28 5 28H16L1.922 5.475C1.355 6.165 1 7.037 1 8Z" fill="#CE1126"/>
<path d="M16 28H27C29.209 28 31 26.209 31 24V8C31 7.037 30.646 6.165 30.078 5.475L16 28Z" fill="#CE1126"/>
<path opacity="0.15" d="M27 4H5C2.791 4 1 5.791 1 8V24C1 26.209 2.791 28 5 28H27C29.209 28 31 26.209 31 24V8C31 5.791 29.209 4 27 4ZM30 24C30 25.654 28.654 27 27 27H5C3.346 27 2 25.654 2 24V8C2 6.346 3.346 5 5 5H27C28.654 5 30 6.346 30 8V24Z" fill="black"/>
<path opacity="0.2" d="M27 5H5C3.343 5 2 6.343 2 8V9C2 7.343 3.343 6 5 6H27C28.657 6 30 7.343 30 9V8C30 6.343 28.657 5 27 5Z" fill="white"/>
</svg>
