<svg width="32" height="32" viewBox="0 0 32 32" fill="none" xmlns="http://www.w3.org/2000/svg">
<path d="M27 4H5C2.79086 4 1 5.79086 1 8V24C1 26.2091 2.79086 28 5 28H27C29.2091 28 31 26.2091 31 24V8C31 5.79086 29.2091 4 27 4Z" fill="#EA3323"/>
<path opacity="0.15" d="M27 4H5C2.791 4 1 5.791 1 8V24C1 26.209 2.791 28 5 28H27C29.209 28 31 26.209 31 24V8C31 5.791 29.209 4 27 4ZM30 24C30 25.654 28.654 27 27 27H5C3.346 27 2 25.654 2 24V8C2 6.346 3.346 5 5 5H27C28.654 5 30 6.346 30 8V24Z" fill="black"/>
<path d="M23.605 19.588C23.359 19.299 23.085 19.278 22.741 19.648C22.381 19.659 22.129 19.665 21.769 19.678C21.962 19.515 22.065 19.39 22.259 19.227C22.871 19.505 22.847 18.77 23.422 18.771C23.252 18.629 23.11 18.577 22.803 18.719C22.35 18.515 22.312 18.804 22.231 18.994C21.924 19.196 21.676 19.366 21.369 19.568C20.743 19.385 20.235 19.283 19.609 19.101C20.855 18.226 18.042 18.439 17.946 16.876C17.955 15.673 18.493 17.458 18.997 17.647C19.985 17.772 18.822 17.16 18.794 16.523C19.229 15.549 19.444 17.386 19.768 17.539C20.095 18.131 21.256 18.088 20.671 17.472C19.873 17.361 19.437 15.857 20.146 16.19C20.987 16.936 22.031 18.971 23.303 17.979C23.554 17.696 23.465 17.389 23.07 17.456C22.18 17.53 21.505 17.097 20.767 15.929C20.621 15.663 20.581 15.286 20.902 15.567C21.38 16.266 22.758 17.153 23.384 16.573C23.569 16.256 23.527 15.907 23.192 16.022C22.612 16.597 19.977 14.832 21.058 14.511C21.79 15.119 22.734 15.61 23.217 15.314C23.571 15.097 23.578 14.543 23.128 14.578C22.221 14.701 21.878 14.503 21.008 13.751C20.282 12.882 22.98 14.477 23.262 13.875C24.185 12.502 22.047 14.044 20.913 12.772C20.242 11.692 23.142 13.739 23.466 12.111C23.715 10.951 22.02 12.918 21.019 11.788C20.108 10.983 23.431 12.014 23.46 10.665C23.65 9.512 21.928 11.278 21.152 10.871C19.967 10.241 23.636 10.17 23.536 8.835C23.406 7.115 22.037 10.07 20.848 9.792C20.375 9.215 19.334 10.235 18.655 10.449C18.545 10.736 18.868 11.502 18.522 11.705C17.709 12.336 17.047 11.142 17.793 10.346C18.178 9.522 19.737 9.72 20.287 9.099C20.011 9.22 19.563 9.324 19.348 9.076C19.868 9.038 20.723 9.196 21.022 8.632C21.075 8.378 20.905 8.332 20.746 8.496C20.41 8.925 20.007 8.981 19.48 8.902C19.665 8.685 20.084 8.376 20.302 8.762C20.347 8.483 20.268 8.17 19.51 8.3C19.52 8.091 19.068 8 18.796 8.004C18.238 8.088 17.603 8.421 16.961 8.422C17.203 8.625 17.25 8.637 17.494 8.81C17.125 8.944 16.838 9.223 16.71 9.405C17.033 9.42 17.139 9.393 17.249 9.44C16.8 9.57 16.596 9.646 16.359 9.884C17.043 9.88 16.134 10.422 16.002 10.667C15.87 10.421 14.962 9.88 15.645 9.884C15.408 9.646 15.204 9.57 14.755 9.44C14.865 9.393 14.971 9.42 15.294 9.405C15.166 9.223 14.88 8.945 14.51 8.81C14.754 8.637 14.802 8.625 15.043 8.422C14.402 8.422 13.765 8.088 13.208 8.004C12.936 8 12.484 8.091 12.494 8.3C11.736 8.17 11.657 8.483 11.702 8.762C11.92 8.376 12.339 8.685 12.524 8.902C11.997 8.981 11.594 8.926 11.258 8.496C11.099 8.333 10.929 8.379 10.982 8.632C11.28 9.196 12.136 9.039 12.656 9.076C12.44 9.324 11.993 9.219 11.717 9.099C12.268 9.721 13.826 9.522 14.211 10.346C14.957 11.142 14.295 12.336 13.482 11.705C13.136 11.5 13.459 10.737 13.349 10.449C12.669 10.234 11.63 9.215 11.156 9.791C9.964 10.068 8.601 7.116 8.468 8.834C8.374 10.175 12.032 10.235 10.852 10.87C10.071 11.277 8.357 9.51 8.543 10.663C8.58 12.017 11.89 10.977 10.985 11.786C10.524 12.117 9.699 12.44 8.972 11.782C8.639 11.527 8.415 11.741 8.538 12.109C8.861 13.068 10.094 12.866 10.941 12.394C11.159 12.272 11.357 12.555 11.091 12.77C9.957 14.041 7.82 12.501 8.742 13.874C9.038 14.478 11.715 12.88 10.997 13.75C10.127 14.502 9.784 14.7 8.877 14.577C8.427 14.542 8.434 15.096 8.788 15.313C9.271 15.609 10.214 15.118 10.946 14.51C12.027 14.829 9.393 16.597 8.812 16.021C8.476 15.906 8.434 16.255 8.619 16.572C9.247 17.151 10.622 16.266 11.101 15.566C11.422 15.285 11.382 15.662 11.236 15.928C10.498 17.095 9.822 17.529 8.933 17.455C8.539 17.388 8.449 17.695 8.7 17.978C9.959 19.582 12.185 14.712 12.169 16.676C12.331 17.087 10.409 17.718 11.522 17.988C12.4 18.18 12.816 15.36 13.21 16.52C13.186 17.159 12.016 17.769 13.007 17.645C13.517 17.46 14.042 15.666 14.058 16.874C13.958 18.442 11.149 18.219 12.394 19.099C11.769 19.281 11.26 19.383 10.634 19.566C10.327 19.365 10.079 19.194 9.772 18.992C9.691 18.803 9.653 18.514 9.2 18.717C8.893 18.575 8.751 18.627 8.581 18.769C9.156 18.769 9.133 19.504 9.744 19.225C9.937 19.388 10.04 19.513 10.234 19.676C9.873 19.664 9.622 19.657 9.262 19.646C8.918 19.277 8.644 19.297 8.398 19.586C8.21 19.615 8.131 19.619 8.003 19.847C8.458 19.633 8.899 20.23 9.205 19.83C9.558 19.852 9.875 19.87 10.228 19.893C10.098 20.003 9.92 20.062 9.791 20.173C9.025 19.915 8.784 20.624 8.819 21.198C8.87 21.027 8.953 20.881 9.104 20.789C9.576 20.909 9.753 20.716 9.779 20.434C10.006 20.248 10.349 20.207 10.577 20.02C10.842 20.105 10.971 20.158 11.238 20.242C11.277 20.806 12.356 20.356 12.273 20.891C12.383 20.695 12.38 20.505 12.124 20.331C12.031 20.078 11.824 19.963 11.554 20.109C11.299 20.037 11.232 19.933 10.979 19.861C11.621 19.656 12.076 19.61 12.718 19.406C13.551 20.546 13.826 18.674 14.339 18.323C14.62 17.863 15.363 17.638 15.276 18.451C15.185 19.218 14.551 19.872 13.997 20.188C13.626 20.43 13.469 20.324 13.182 20.309C12.268 20.465 13.432 21.1 13.763 20.909C15.336 19.703 14.324 21.564 13.443 21.455C12.998 21.515 13.081 21.765 13.377 21.887C13.909 22.106 14.389 21.695 14.633 21.425C14.821 21.219 14.955 21.211 14.922 21.53C14.899 22.522 13.367 22.143 13.969 22.765C14.532 23.155 14.94 22.491 15.131 22.09C15.748 21.456 15.5 23.048 14.837 23.33C15.206 23.918 15.636 24.516 16.005 25.105C16.374 24.515 16.804 23.917 17.173 23.33C16.509 23.051 16.264 21.452 16.879 22.09C17.069 22.491 17.477 23.155 18.04 22.765C18.643 22.147 17.109 22.52 17.087 21.53C17.054 21.211 17.187 21.219 17.375 21.425C17.619 21.695 18.099 22.106 18.631 21.887C18.926 21.765 19.01 21.515 18.565 21.455C17.682 21.563 16.674 19.704 18.245 20.909C18.575 21.1 19.74 20.465 18.826 20.309C18.539 20.324 18.382 20.43 18.011 20.188C17.457 19.872 16.825 19.22 16.732 18.451C16.647 17.64 17.387 17.861 17.669 18.323C18.182 18.672 18.458 20.546 19.29 19.406C19.931 19.61 20.387 19.656 21.029 19.861C20.775 19.933 20.708 20.037 20.454 20.109C20.183 19.963 19.977 20.078 19.884 20.331C19.628 20.504 19.625 20.695 19.735 20.891C19.653 20.356 20.731 20.806 20.77 20.242C21.037 20.157 21.166 20.105 21.431 20.02C21.658 20.208 22.001 20.249 22.229 20.434C22.255 20.716 22.432 20.909 22.904 20.789C23.055 20.881 23.138 21.028 23.189 21.198C23.223 20.624 22.983 19.916 22.217 20.173C22.087 20.062 21.909 20.003 21.78 19.893C22.133 19.87 22.451 19.852 22.803 19.83C23.11 20.23 23.548 19.634 24.005 19.847C23.877 19.619 23.797 19.615 23.61 19.586L23.605 19.588Z" fill="black"/>
<path opacity="0.2" d="M27 5H5C3.343 5 2 6.343 2 8V9C2 7.343 3.343 6 5 6H27C28.657 6 30 7.343 30 9V8C30 6.343 28.657 5 27 5Z" fill="white"/>
</svg>
