<svg width="32" height="32" viewBox="0 0 32 32" fill="none" xmlns="http://www.w3.org/2000/svg">
<path d="M1 11H31V21H1V11Z" fill="white"/>
<path d="M5 4H27C29.208 4 31 5.792 31 8V12H1V8C1 5.792 2.792 4 5 4Z" fill="#81ACDC"/>
<path d="M27 28L5 28C2.792 28 1 26.208 1 24V20L31 20V24C31 26.208 29.208 28 27 28Z" fill="#81ACDC"/>
<path opacity="0.15" d="M27 4H5C2.791 4 1 5.791 1 8V24C1 26.209 2.791 28 5 28H27C29.209 28 31 26.209 31 24V8C31 5.791 29.209 4 27 4ZM30 24C30 25.654 28.654 27 27 27H5C3.346 27 2 25.654 2 24V8C2 6.346 3.346 5 5 5H27C28.654 5 30 6.346 30 8V24Z" fill="black"/>
<path d="M19.511 15.935C19.491 15.928 19.47 15.928 19.47 15.928L17.532 15.855C17.617 15.831 17.697 15.802 17.775 15.773C17.954 15.707 18.122 15.644 18.331 15.663C18.653 15.692 18.871 15.571 19.031 15.483C19.088 15.452 19.137 15.424 19.179 15.411C19.267 15.382 19.334 15.405 19.382 15.421C19.419 15.434 19.464 15.449 19.485 15.406C19.491 15.393 19.498 15.368 19.473 15.334C19.427 15.272 19.294 15.217 19.11 15.244C19.026 15.256 18.962 15.286 18.894 15.318C18.767 15.377 18.624 15.444 18.286 15.417C18.02 15.396 17.857 15.449 17.699 15.501C17.608 15.531 17.521 15.559 17.417 15.572L19.231 14.739C19.231 14.739 19.251 14.731 19.267 14.717C19.293 14.694 19.302 14.665 19.29 14.637C19.283 14.621 19.271 14.609 19.256 14.602C19.222 14.588 19.181 14.604 19.177 14.606L17.358 15.28C17.427 15.226 17.49 15.168 17.551 15.111C17.691 14.981 17.822 14.859 18.022 14.796C18.33 14.7 18.486 14.504 18.6 14.362C18.641 14.311 18.676 14.267 18.709 14.238C18.779 14.178 18.85 14.173 18.901 14.17C18.94 14.167 18.988 14.164 18.991 14.117C18.991 14.103 18.988 14.077 18.953 14.055C18.887 14.015 18.743 14.015 18.584 14.111C18.511 14.155 18.463 14.207 18.413 14.262C18.319 14.365 18.212 14.482 17.889 14.586C17.635 14.668 17.505 14.78 17.379 14.888C17.307 14.95 17.237 15.01 17.146 15.062L18.503 13.599C18.535 13.567 18.553 13.517 18.519 13.482C18.507 13.47 18.491 13.463 18.474 13.463C18.437 13.463 18.406 13.494 18.403 13.497L16.981 14.816C17.024 14.739 17.06 14.662 17.095 14.586C17.174 14.413 17.249 14.249 17.41 14.115C17.658 13.908 17.727 13.668 17.778 13.493C17.796 13.43 17.812 13.376 17.832 13.337C17.874 13.254 17.937 13.223 17.983 13.201C18.018 13.184 18.061 13.163 18.046 13.118C18.041 13.105 18.028 13.082 17.987 13.076C17.911 13.064 17.778 13.12 17.667 13.269C17.616 13.338 17.592 13.404 17.567 13.474C17.519 13.605 17.465 13.754 17.206 13.974C17.003 14.147 16.925 14.3 16.85 14.448C16.807 14.533 16.765 14.615 16.701 14.698L17.395 12.827C17.412 12.785 17.41 12.732 17.365 12.713C17.349 12.706 17.332 12.706 17.316 12.713C17.282 12.727 17.265 12.768 17.263 12.771L16.454 14.534C16.465 14.447 16.468 14.362 16.471 14.278C16.478 14.088 16.485 13.908 16.582 13.722C16.732 13.436 16.704 13.188 16.684 13.006C16.677 12.941 16.67 12.886 16.674 12.841C16.681 12.749 16.727 12.696 16.761 12.657C16.787 12.628 16.819 12.592 16.787 12.556C16.778 12.546 16.756 12.53 16.716 12.539C16.641 12.557 16.539 12.659 16.494 12.84C16.473 12.923 16.476 12.993 16.479 13.067C16.485 13.207 16.492 13.365 16.337 13.667C16.215 13.904 16.202 14.076 16.19 14.241C16.183 14.336 16.176 14.428 16.148 14.529L16.073 12.535C16.073 12.49 16.051 12.441 16.001 12.441C15.971 12.441 15.947 12.46 15.936 12.493C15.929 12.513 15.929 12.532 15.929 12.534L15.856 14.472C15.832 14.387 15.803 14.307 15.774 14.229C15.708 14.05 15.645 13.882 15.664 13.673C15.693 13.351 15.572 13.133 15.484 12.973C15.453 12.916 15.425 12.867 15.412 12.825C15.383 12.737 15.406 12.67 15.422 12.622C15.435 12.585 15.45 12.54 15.407 12.519C15.394 12.513 15.368 12.506 15.335 12.531C15.273 12.577 15.218 12.71 15.245 12.894C15.257 12.978 15.287 13.042 15.319 13.11C15.378 13.237 15.445 13.38 15.418 13.718C15.397 13.984 15.45 14.147 15.502 14.305C15.532 14.396 15.56 14.483 15.573 14.587L14.74 12.773C14.723 12.731 14.684 12.695 14.638 12.714C14.61 12.726 14.595 12.752 14.598 12.787C14.599 12.808 14.607 12.827 14.607 12.827L15.281 14.645C15.227 14.576 15.169 14.513 15.112 14.452C14.982 14.312 14.86 14.181 14.797 13.981C14.701 13.673 14.505 13.517 14.363 13.403C14.312 13.362 14.268 13.327 14.239 13.294C14.179 13.224 14.174 13.153 14.171 13.102C14.168 13.063 14.165 13.015 14.118 13.012C14.104 13.012 14.078 13.015 14.056 13.05C14.016 13.116 14.016 13.26 14.112 13.419C14.156 13.492 14.208 13.54 14.263 13.59C14.366 13.684 14.483 13.791 14.587 14.114C14.669 14.368 14.781 14.498 14.889 14.624C14.951 14.696 15.011 14.766 15.063 14.858L13.6 13.501C13.568 13.469 13.518 13.451 13.483 13.486C13.462 13.507 13.458 13.538 13.474 13.569C13.483 13.588 13.498 13.602 13.498 13.602L14.817 15.024C14.74 14.981 14.663 14.945 14.587 14.91C14.414 14.831 14.25 14.756 14.116 14.595C13.909 14.347 13.669 14.278 13.493 14.227C13.431 14.209 13.377 14.193 13.337 14.173C13.254 14.131 13.223 14.068 13.201 14.022C13.184 13.987 13.163 13.944 13.118 13.96C13.105 13.965 13.082 13.978 13.076 14.019C13.064 14.095 13.12 14.228 13.269 14.339C13.338 14.39 13.404 14.414 13.474 14.439C13.605 14.487 13.754 14.541 13.974 14.8C14.147 15.003 14.3 15.081 14.448 15.156C14.533 15.199 14.615 15.241 14.698 15.305L12.827 14.611C12.785 14.594 12.732 14.596 12.713 14.641C12.706 14.657 12.706 14.674 12.713 14.69C12.727 14.724 12.768 14.741 12.771 14.743L14.534 15.552C14.447 15.541 14.362 15.538 14.278 15.535C14.088 15.528 13.908 15.521 13.722 15.424C13.436 15.274 13.187 15.302 13.006 15.323C12.941 15.33 12.886 15.337 12.841 15.333C12.749 15.326 12.696 15.279 12.657 15.246C12.628 15.22 12.592 15.189 12.556 15.22C12.546 15.229 12.53 15.251 12.539 15.291C12.557 15.366 12.659 15.468 12.84 15.513C12.923 15.534 12.993 15.531 13.067 15.528C13.207 15.522 13.365 15.515 13.667 15.67C13.904 15.792 14.076 15.805 14.241 15.817C14.336 15.824 14.428 15.831 14.529 15.859L12.535 15.934C12.49 15.934 12.442 15.956 12.441 16.006C12.441 16.023 12.447 16.039 12.459 16.051C12.485 16.077 12.529 16.078 12.533 16.078L14.471 16.151C14.386 16.174 14.306 16.204 14.228 16.233C14.049 16.299 13.881 16.362 13.672 16.343C13.35 16.314 13.132 16.435 12.972 16.523C12.915 16.554 12.866 16.582 12.824 16.595C12.736 16.624 12.669 16.601 12.621 16.585C12.584 16.572 12.539 16.557 12.518 16.6C12.512 16.613 12.505 16.638 12.53 16.672C12.576 16.734 12.709 16.789 12.893 16.762C12.977 16.75 13.041 16.72 13.109 16.688C13.236 16.629 13.379 16.562 13.717 16.589C13.983 16.61 14.146 16.557 14.304 16.505C14.395 16.475 14.482 16.447 14.586 16.434L12.772 17.267C12.73 17.284 12.694 17.323 12.713 17.369C12.724 17.395 12.747 17.409 12.778 17.409C12.78 17.409 12.783 17.409 12.785 17.409C12.806 17.408 12.825 17.4 12.825 17.4L14.643 16.726C14.574 16.78 14.511 16.838 14.45 16.895C14.31 17.025 14.179 17.147 13.979 17.21C13.671 17.306 13.515 17.502 13.401 17.644C13.36 17.695 13.325 17.739 13.292 17.768C13.222 17.828 13.151 17.833 13.1 17.836C13.061 17.838 13.013 17.842 13.01 17.889C13.01 17.903 13.013 17.929 13.048 17.951C13.114 17.991 13.258 17.991 13.417 17.895C13.49 17.851 13.538 17.799 13.588 17.744C13.682 17.641 13.789 17.524 14.112 17.42C14.366 17.338 14.496 17.226 14.622 17.118C14.694 17.056 14.764 16.996 14.855 16.944L13.498 18.407C13.466 18.439 13.448 18.489 13.483 18.524C13.495 18.537 13.511 18.543 13.528 18.543C13.54 18.543 13.553 18.54 13.566 18.533C13.585 18.524 13.599 18.509 13.599 18.509L15.021 17.19C14.978 17.267 14.942 17.344 14.907 17.42C14.828 17.593 14.753 17.757 14.592 17.891C14.344 18.098 14.275 18.338 14.224 18.514C14.206 18.577 14.19 18.63 14.17 18.67C14.128 18.753 14.065 18.784 14.019 18.807C13.984 18.824 13.941 18.845 13.957 18.89C13.962 18.903 13.975 18.926 14.016 18.932C14.092 18.944 14.225 18.888 14.336 18.739C14.387 18.671 14.411 18.604 14.436 18.534C14.484 18.403 14.538 18.254 14.797 18.034C15 17.861 15.078 17.708 15.153 17.56C15.196 17.475 15.238 17.393 15.302 17.31L14.608 19.181C14.591 19.223 14.593 19.276 14.638 19.295C14.646 19.298 14.655 19.3 14.663 19.3C14.671 19.3 14.679 19.298 14.687 19.295C14.721 19.281 14.738 19.24 14.74 19.237L15.549 17.474C15.538 17.561 15.535 17.646 15.532 17.73C15.525 17.92 15.518 18.1 15.421 18.286C15.271 18.572 15.299 18.821 15.32 19.002C15.327 19.067 15.334 19.122 15.33 19.167C15.323 19.259 15.276 19.312 15.243 19.351C15.217 19.38 15.186 19.416 15.217 19.452C15.226 19.462 15.248 19.478 15.288 19.468C15.363 19.45 15.465 19.348 15.51 19.167C15.531 19.084 15.528 19.014 15.525 18.94C15.519 18.8 15.512 18.642 15.667 18.34C15.789 18.103 15.802 17.931 15.814 17.766C15.821 17.671 15.828 17.579 15.856 17.478L15.931 19.472C15.931 19.517 15.953 19.566 16.003 19.566C16.033 19.566 16.057 19.547 16.068 19.514C16.075 19.494 16.075 19.475 16.075 19.473L16.148 17.535C16.172 17.62 16.201 17.7 16.23 17.778C16.296 17.957 16.359 18.125 16.34 18.334C16.311 18.656 16.432 18.874 16.52 19.034C16.551 19.091 16.579 19.14 16.592 19.182C16.621 19.27 16.598 19.337 16.582 19.385C16.569 19.422 16.554 19.467 16.597 19.488C16.603 19.491 16.611 19.494 16.622 19.494C16.635 19.494 16.651 19.49 16.669 19.477C16.731 19.431 16.786 19.298 16.759 19.114C16.747 19.03 16.717 18.966 16.685 18.898C16.626 18.771 16.559 18.628 16.586 18.29C16.607 18.024 16.554 17.861 16.502 17.703C16.472 17.612 16.444 17.525 16.431 17.421L17.264 19.235C17.264 19.235 17.272 19.255 17.286 19.271C17.309 19.297 17.338 19.306 17.366 19.294C17.382 19.287 17.394 19.275 17.401 19.26C17.415 19.226 17.399 19.185 17.397 19.181L16.723 17.363C16.777 17.432 16.835 17.495 16.892 17.556C17.022 17.696 17.144 17.827 17.207 18.027C17.303 18.335 17.499 18.491 17.641 18.605C17.692 18.646 17.736 18.681 17.765 18.714C17.825 18.784 17.83 18.855 17.833 18.906C17.835 18.945 17.839 18.993 17.886 18.996H17.889C17.903 18.996 17.928 18.99 17.948 18.958C17.988 18.892 17.988 18.748 17.892 18.589C17.848 18.516 17.796 18.468 17.741 18.418C17.638 18.324 17.521 18.217 17.417 17.894C17.335 17.64 17.223 17.51 17.115 17.384C17.053 17.312 16.993 17.242 16.942 17.151L18.405 18.508C18.437 18.54 18.487 18.558 18.522 18.523C18.543 18.502 18.547 18.472 18.531 18.44C18.522 18.421 18.507 18.407 18.507 18.407L17.188 16.985C17.265 17.028 17.342 17.064 17.418 17.099C17.591 17.178 17.755 17.253 17.889 17.414C18.096 17.662 18.336 17.731 18.511 17.782C18.574 17.8 18.627 17.816 18.667 17.836C18.75 17.878 18.781 17.941 18.804 17.987C18.819 18.017 18.836 18.053 18.869 18.053C18.875 18.053 18.881 18.052 18.887 18.05C18.9 18.045 18.923 18.032 18.929 17.991C18.941 17.915 18.885 17.782 18.736 17.671C18.668 17.62 18.601 17.596 18.531 17.571C18.4 17.523 18.251 17.469 18.031 17.21C17.858 17.007 17.705 16.929 17.557 16.854C17.472 16.811 17.39 16.769 17.307 16.705L19.178 17.399C19.22 17.416 19.273 17.414 19.292 17.369C19.299 17.353 19.299 17.336 19.292 17.32C19.278 17.286 19.237 17.269 19.234 17.267L17.471 16.458C17.558 16.469 17.643 16.472 17.727 16.475C17.917 16.482 18.097 16.489 18.283 16.586C18.569 16.736 18.818 16.708 18.999 16.688C19.064 16.681 19.119 16.674 19.164 16.678C19.257 16.685 19.309 16.731 19.348 16.765C19.368 16.783 19.392 16.804 19.417 16.804C19.428 16.804 19.438 16.8 19.449 16.791C19.459 16.782 19.475 16.76 19.465 16.72C19.447 16.645 19.345 16.543 19.164 16.498C19.081 16.477 19.011 16.48 18.937 16.483C18.797 16.489 18.639 16.496 18.337 16.341C18.1 16.219 17.928 16.206 17.763 16.194C17.668 16.187 17.576 16.18 17.475 16.152L19.469 16.077C19.514 16.077 19.562 16.055 19.562 16.005C19.562 15.975 19.543 15.951 19.51 15.94L19.511 15.935Z" fill="#EDB840"/>
<path opacity="0.2" d="M27 5H5C3.343 5 2 6.343 2 8V9C2 7.343 3.343 6 5 6H27C28.657 6 30 7.343 30 9V8C30 6.343 28.657 5 27 5Z" fill="white"/>
</svg>
