<svg width="32" height="32" viewBox="0 0 32 32" fill="none" xmlns="http://www.w3.org/2000/svg">
<path d="M27 4H5C2.79086 4 1 5.79086 1 8V24C1 26.2091 2.79086 28 5 28H27C29.2091 28 31 26.2091 31 24V8C31 5.79086 29.2091 4 27 4Z" fill="#061B65"/>
<path d="M6.5 13.774V16H10.5V13.773L13.537 16H16V14.759L12.238 12H16V8H13.26L16 5.991V4H14.559L10.5 6.977V4H6.5V6.794L3.243 4.405C2.476 4.779 1.854 5.388 1.457 6.143L3.989 8.001H1V12.001H4.763L1 14.761V16.001H3.464L6.5 13.774Z" fill="white"/>
<path d="M1.805 5.589L5.09 8H6.454L2.359 4.995C2.155 5.175 1.969 5.372 1.805 5.589Z" fill="#D22D32"/>
<path d="M1 16L6.454 12V13L2.363 16H1Z" fill="#D22D32"/>
<path d="M6.838 18.741L7.374 20.407L9.01 19.787L8.042 21.244L9.547 22.137L7.804 22.289L8.044 24.022L6.839 22.754L5.634 24.022L5.874 22.289L4.131 22.137L5.636 21.244L4.668 19.787L6.304 20.407L6.84 18.741H6.838Z" fill="white"/>
<path d="M23.113 21.755L23.404 22.661L24.294 22.324L23.767 23.117L24.586 23.603L23.638 23.685L23.769 24.628L23.113 23.938L22.457 24.628L22.588 23.685L21.64 23.603L22.459 23.117L21.932 22.324L22.822 22.661L23.113 21.755Z" fill="white"/>
<path d="M20.166 13.127L20.457 14.033L21.347 13.696L20.82 14.489L21.639 14.975L20.691 15.057L20.822 16L20.166 15.31L19.51 16L19.641 15.057L18.693 14.975L19.512 14.489L18.985 13.696L19.875 14.033L20.166 13.127Z" fill="white"/>
<path d="M23.43 7.127L23.721 8.033L24.611 7.696L24.084 8.489L24.903 8.975L23.955 9.057L24.086 10L23.43 9.31L22.774 10L22.905 9.057L21.957 8.975L22.776 8.489L22.249 7.696L23.139 8.033L23.43 7.127Z" fill="white"/>
<path d="M28.132 10.817L28.423 11.723L29.313 11.386L28.786 12.179L29.605 12.665L28.657 12.747L28.788 13.69L28.132 13L27.476 13.69L27.607 12.747L26.659 12.665L27.478 12.179L26.951 11.386L27.841 11.723L28.132 10.817Z" fill="white"/>
<path d="M25.742 16L25.972 16.565L26.58 16.61L26.114 17.003L26.26 17.595L25.742 17.274L25.224 17.595L25.37 17.003L24.904 16.61L25.512 16.565L25.742 16Z" fill="white"/>
<path d="M9.5 16H7.5V11H1V9H7.5V4H9.5V9H16V11H9.5V16Z" fill="#D22D32"/>
<path d="M16 15.667L11 12V13L15.091 16H16V15.667Z" fill="#D22D32"/>
<path d="M16 4H15.752L10.291 8.004H11.655L16 4.818V4Z" fill="#D22D32"/>
<path opacity="0.15" d="M27 4H5C2.791 4 1 5.791 1 8V24C1 26.209 2.791 28 5 28H27C29.209 28 31 26.209 31 24V8C31 5.791 29.209 4 27 4ZM30 24C30 25.654 28.654 27 27 27H5C3.346 27 2 25.654 2 24V8C2 6.346 3.346 5 5 5H27C28.654 5 30 6.346 30 8V24Z" fill="black"/>
<path opacity="0.2" d="M27 5H5C3.343 5 2 6.343 2 8V9C2 7.343 3.343 6 5 6H27C28.657 6 30 7.343 30 9V8C30 6.343 28.657 5 27 5Z" fill="white"/>
</svg>
