<svg width="32" height="32" viewBox="0 0 32 32" fill="none" xmlns="http://www.w3.org/2000/svg">
<path d="M27 4H5C2.79086 4 1 5.79086 1 8V24C1 26.2091 2.79086 28 5 28H27C29.2091 28 31 26.2091 31 24V8C31 5.79086 29.2091 4 27 4Z" fill="#4091DF"/>
<path d="M31 18H1V20H31V18Z" fill="#FFD203"/>
<path d="M31 22H1V24H31V22Z" fill="#FFD203"/>
<path opacity="0.15" d="M27 4H5C2.7909 4 1 5.7908 1 8V24C1 26.2092 2.7909 28 5 28H27C29.2092 28 31 26.2092 31 24V8C31 5.7908 29.2092 4 27 4ZM30 24C30 25.6543 28.6543 27 27 27H5C3.3457 27 2 25.6543 2 24V8C2 6.3457 3.3457 5 5 5H27C28.6543 5 30 6.3457 30 8V24Z" fill="black"/>
<path opacity="0.2" d="M27 5H5C3.3431 5 2 6.3431 2 8V9C2 7.3431 3.3431 6 5 6H27C28.6569 6 30 7.3431 30 9V8C30 6.3431 28.6569 5 27 5Z" fill="white"/>
<path d="M7.2397 12.7031L3.2451 11.4717L7.2397 10.2402L8.4712 6.2451L9.7026 10.2402L13.6973 11.4717L9.7026 12.7031L8.4712 16.6973L7.2397 12.7031Z" fill="white"/>
<path d="M8.4712 7.9424L9.3029 10.6394L11.9999 11.4711L9.3029 12.3028L8.4712 14.9998L7.6395 12.3029L4.9425 11.471L7.6395 10.6393L8.4712 7.9424Z" fill="#DB4647"/>
</svg>
