<svg width="32" height="32" viewBox="0 0 32 32" fill="none" xmlns="http://www.w3.org/2000/svg">
<path d="M1 11H31V21H1V11Z" fill="#DD4446"/>
<path d="M5 4H27C29.208 4 31 5.792 31 8V12H1V8C1 5.792 2.792 4 5 4Z" fill="#52B4DE"/>
<path d="M27 28L5 28C2.792 28 1 26.208 1 24V20L31 20V24C31 26.208 29.208 28 27 28Z" fill="#649E3F"/>
<path opacity="0.15" d="M27 4H5C2.791 4 1 5.791 1 8V24C1 26.209 2.791 28 5 28H27C29.209 28 31 26.209 31 24V8C31 5.791 29.209 4 27 4ZM30 24C30 25.654 28.654 27 27 27H5C3.346 27 2 25.654 2 24V8C2 6.346 3.346 5 5 5H27C28.654 5 30 6.346 30 8V24Z" fill="black"/>
<path d="M15.593 19.056C13.905 19.056 12.537 17.688 12.537 16C12.537 14.312 13.905 12.944 15.593 12.944C16.415 12.944 17.161 13.269 17.71 13.797C17.041 12.908 15.977 12.332 14.778 12.332C12.753 12.332 11.111 13.974 11.111 15.999C11.111 18.024 12.753 19.666 14.778 19.666C15.977 19.666 17.041 19.091 17.71 18.201C17.161 18.729 16.415 19.054 15.593 19.054V19.056Z" fill="white"/>
<path d="M18.852 13.963L19.242 15.059L20.293 14.56L19.794 15.611L20.89 16.001L19.794 16.391L20.293 17.442L19.242 16.943L18.852 18.039L18.462 16.943L17.411 17.442L17.91 16.391L16.814 16.001L17.91 15.611L17.411 14.56L18.462 15.059L18.852 13.963Z" fill="white"/>
<path opacity="0.2" d="M27 5H5C3.343 5 2 6.343 2 8V9C2 7.343 3.343 6 5 6H27C28.657 6 30 7.343 30 9V8C30 6.343 28.657 5 27 5Z" fill="white"/>
</svg>
