<svg width="32" height="32" viewBox="0 0 32 32" fill="none" xmlns="http://www.w3.org/2000/svg">
<path d="M27 4H5C2.79086 4 1 5.79086 1 8V24C1 26.2091 2.79086 28 5 28H27C29.2091 28 31 26.2091 31 24V8C31 5.79086 29.2091 4 27 4Z" fill="#091C91"/>
<path d="M27 4H5C2.79086 4 1 5.79086 1 8V24C1 26.2091 2.79086 28 5 28H27C29.2091 28 31 26.2091 31 24V8C31 5.79086 29.2091 4 27 4Z" fill="#091C91"/>
<path d="M24 28L8 4H24V28Z" fill="#F6CE46"/>
<path d="M5 4C4.458 4 3.942 4.11 3.471 4.306L3.913 4.627L3.386 6.25L4.767 5.247L6.148 6.25L5.621 4.627L6.483 4H5Z" fill="white"/>
<path d="M8.713 9.377L10.094 8.373H8.387L7.859 6.75L7.332 8.373H5.625L7.006 9.377L6.478 11L7.859 9.997L9.24 11L8.713 9.377Z" fill="white"/>
<path d="M11.807 14.127L13.187 13.123H11.481L10.953 11.5L10.426 13.123H8.71899L10.1 14.127L9.57199 15.75L10.953 14.747L12.334 15.75L11.807 14.127Z" fill="white"/>
<path d="M14.9 18.877L16.281 17.873H14.574L14.047 16.25L13.519 17.873H11.813L13.193 18.877L12.666 20.5L14.047 19.497L15.428 20.5L14.9 18.877Z" fill="white"/>
<path d="M17.994 23.627L19.375 22.623H17.668L17.141 21L16.613 22.623H14.906L16.287 23.627L15.76 25.25L17.141 24.247L18.522 25.25L17.994 23.627Z" fill="white"/>
<path d="M21.606 28L22.469 27.373H20.762L20.234 25.75L19.707 27.373H18L18.862 28H21.606Z" fill="white"/>
<path opacity="0.15" d="M27 4H5C2.791 4 1 5.791 1 8V24C1 26.209 2.791 28 5 28H27C29.209 28 31 26.209 31 24V8C31 5.791 29.209 4 27 4ZM30 24C30 25.654 28.654 27 27 27H5C3.346 27 2 25.654 2 24V8C2 6.346 3.346 5 5 5H27C28.654 5 30 6.346 30 8V24Z" fill="black"/>
<path opacity="0.2" d="M27 5H5C3.343 5 2 6.343 2 8V9C2 7.343 3.343 6 5 6H27C28.657 6 30 7.343 30 9V8C30 6.343 28.657 5 27 5Z" fill="white"/>
</svg>
