<svg width="32" height="32" viewBox="0 0 32 32" fill="none" xmlns="http://www.w3.org/2000/svg">
<path d="M10 6H22V30H10V6Z" fill="#F8DC51"/>
<path d="M5 6H11V30H5C2.792 30 1 28.208 1 26V10C1 7.792 2.792 6 5 6Z" fill="black"/>
<path d="M27 30H21L21 6H27C29.208 6 31 7.792 31 10L31 26C31 28.208 29.208 30 27 30Z" fill="#DD4446"/>
<path opacity="0.15" d="M27 6H5C2.791 6 1 7.791 1 10V26C1 28.209 2.791 30 5 30H27C29.209 30 31 28.209 31 26V10C31 7.791 29.209 6 27 6ZM30 26C30 27.654 28.654 29 27 29H5C3.346 29 2 27.654 2 26V10C2 8.346 3.346 7 5 7H27C28.654 7 30 8.346 30 10V26Z" fill="black"/>
<path opacity="0.2" d="M27 7H5C3.343 7 2 8.343 2 10V11C2 9.343 3.343 8 5 8H27C28.657 8 30 9.343 30 11V10C30 8.343 28.657 7 27 7Z" fill="white"/>
</svg>
