<svg width="32" height="32" viewBox="0 0 32 32" fill="none" xmlns="http://www.w3.org/2000/svg">
<path d="M27 4H5C2.79086 4 1 5.79086 1 8V24C1 26.2091 2.79086 28 5 28H27C29.2091 28 31 26.2091 31 24V8C31 5.79086 29.2091 4 27 4Z" fill="#62AF3F"/>
<path d="M16 16L29.684 5.053C28.973 4.405 28.037 4 27 4H5C3.963 4 3.026 4.405 2.316 5.053L16 16Z" fill="#B92932"/>
<path d="M16 16L2.316 26.947C3.027 27.595 3.963 28 5 28H27C28.037 28 28.974 27.595 29.684 26.947L16 16Z" fill="#B92932"/>
<path d="M28.304 4.236L19.594 11.204C18.592 10.452 17.35 10 16 10C14.65 10 13.409 10.451 12.406 11.204L3.696 4.236C2.693 4.584 1.877 5.311 1.416 6.255L10.529 13.545C10.192 14.295 10 15.125 10 16C10 16.875 10.192 17.705 10.529 18.455L1.417 25.745C1.878 26.689 2.694 27.416 3.697 27.764L12.407 20.796C13.409 21.548 14.651 22 16.001 22C17.351 22 18.592 21.549 19.595 20.796L28.305 27.764C29.308 27.416 30.124 26.689 30.585 25.745L21.472 18.455C21.809 17.705 22.001 16.875 22.001 16C22.001 15.125 21.809 14.295 21.472 13.545L30.585 6.255C30.124 5.311 29.307 4.584 28.304 4.236Z" fill="white"/>
<path d="M16.477 12.325L16 11.5L15.523 12.325H14.57L15.047 13.151L14.57 13.976H15.523L16 14.802L16.477 13.976H17.43L16.953 13.151L17.43 12.325H16.477Z" fill="#B92932"/>
<path d="M19.529 17.693L20.005 16.868L19.052 16.867L18.575 16.042L18.099 16.867H17.146L17.622 17.693L17.146 18.518L18.099 18.519L18.575 19.344L19.052 18.519L20.005 18.518L19.529 17.693Z" fill="#B92932"/>
<path d="M13.901 16.867L13.425 16.042L12.948 16.867L11.995 16.868L12.471 17.693L11.995 18.518L12.948 18.519L13.425 19.344L13.901 18.519L14.854 18.518L14.378 17.693L14.854 16.867H13.901Z" fill="#B92932"/>
<path opacity="0.15" d="M27 4H5C2.791 4 1 5.791 1 8V24C1 26.209 2.791 28 5 28H27C29.209 28 31 26.209 31 24V8C31 5.791 29.209 4 27 4ZM30 24C30 25.654 28.654 27 27 27H5C3.346 27 2 25.654 2 24V8C2 6.346 3.346 5 5 5H27C28.654 5 30 6.346 30 8V24Z" fill="black"/>
<path opacity="0.2" d="M27 5H5C3.343 5 2 6.343 2 8V9C2 7.343 3.343 6 5 6H27C28.657 6 30 7.343 30 9V8C30 6.343 28.657 5 27 5Z" fill="white"/>
</svg>
