<svg width="32" height="32" viewBox="0 0 32 32" fill="none" xmlns="http://www.w3.org/2000/svg">
<path d="M27.5892 12V20.0298C27.5892 22.1746 23.3015 22.8715 23.3015 22.8715C23.3015 22.8715 19.0138 22.1746 19.0138 20.0298V12H27.5892Z" fill="white"/>
<path d="M27.0002 4H5.0002C2.79106 4 1.0002 5.79086 1.0002 8V24C1.0002 26.2091 2.79106 28 5.0002 28H27.0002C29.2093 28 31.0002 26.2091 31.0002 24V8C31.0002 5.79086 29.2093 4 27.0002 4Z" fill="#CA0A2B"/>
<path d="M5 4H16V16H1V8C1 5.7923 2.7923 4 5 4Z" fill="#001B69"/>
<path d="M6.5002 13.7737V16H10.5002V13.7728L13.5373 16H16.0002V14.7589L12.2383 12H16.0002V8H13.2602L16.0002 5.9907V4H14.5592L10.5002 6.9769V4H6.5002V6.7935L3.2436 4.4043C2.4761 4.7784 1.8541 5.3877 1.458 6.1422L3.9901 8H1.0002V12H4.7634L1.0002 14.7599V16H3.4644L6.5002 13.7737Z" fill="white"/>
<path d="M1.8057 5.5891L5.0911 8H6.4547L2.3595 4.9953C2.1552 5.1748 1.9699 5.3718 1.8057 5.5891Z" fill="#CA0A2B"/>
<path d="M0.999802 16L6.4544 12V13L2.3635 16H0.999802Z" fill="#CA0A2B"/>
<path d="M9.5002 16H7.5002V11H1.0002V9H7.5002V4H9.5002V9H16.0002V11H9.5002V16Z" fill="#CA0A2B"/>
<path d="M16.0002 15.6667L11.0002 12V13L15.0911 16H16.0002V15.6667Z" fill="#CA0A2B"/>
<path d="M16.0002 4H15.7518L10.2913 8.0044H11.6549L16.0002 4.8179V4Z" fill="#CA0A2B"/>
<path d="M27.5754 12V20.0298C27.5754 22.1746 23.2877 22.8715 23.2877 22.8715C23.2877 22.8715 19 22.1746 19 20.0298V12H27.5754Z" fill="white"/>
<path d="M19.1144 20.6154C19.7945 22.3035 23.2877 22.8715 23.2877 22.8715C23.2877 22.8715 26.781 22.3035 27.461 20.6154H19.1144Z" fill="#2B911D"/>
<path d="M27.0273 18.3301C26.2165 18.4034 26.8331 16.8361 25.3945 17.3269C25.4681 16.8915 25.9402 16.4112 26.2264 16.7891C25.5233 15.286 27.2267 14.8694 24.7253 15.3242C24.7555 15.3074 24.6872 15.0338 24.5731 15.0855C24.5892 15.0684 24.6231 15.3853 24.4927 15.2785C24.4416 15.3198 24.4815 14.4378 24.3024 14.8423C24.1421 14.6569 24.7516 14.5491 24.5398 14.3354C24.3451 14.1235 24.3904 14.1173 24.334 14.3494C24.2055 14.0434 24.4318 14.224 24.5978 13.9597C24.7233 13.9633 24.3461 13.3626 24.4166 13.7798C24.0031 13.8063 24.4615 13.586 24.3952 13.3677C23.7546 13.6363 24.5151 12.8464 23.9651 12.8738C24.0883 12.7755 24.1093 12.5485 23.8211 12.6663C23.8948 12.4967 23.1772 12.2232 23.1277 12.5348C23.0301 12.4332 22.7875 12.3735 22.9113 12.6766C22.7075 12.5643 22.5251 12.6284 22.6616 12.8807C22.0151 12.7578 22.7334 13.3891 22.3344 13.4202C22.2022 13.3728 22.0833 13.2941 22.2524 13.5883C22.3972 13.747 22.1892 13.8875 22.0853 13.6773C21.9047 13.8235 22.0541 14.2515 22.4246 14.0371C22.5067 14.4124 21.6313 13.9866 22.2161 14.6291C22.3741 14.7364 22.028 14.8449 22.1712 15.1019C22.0605 15.2502 21.7647 14.9979 21.827 15.3253C21.2269 15.4777 21.0074 14.8621 20.3873 15.2214C20.5442 16.0426 20.6141 16.0754 20.322 16.7953C20.5846 16.3693 21.1862 17.0204 21.1531 17.3246C20.6705 17.1737 19.792 17.3098 20.0069 18.1572C19.8815 18.3548 19.1604 18.3494 19.8041 18.5327C19.7038 18.8463 19.9058 19.8037 20.0151 18.7377C20.1554 19.4255 20.4766 19.475 20.2791 18.6288C20.444 18.7865 20.495 19.43 20.6057 18.847C20.9317 19.8524 20.9466 20.1593 21.8819 20.1478C21.429 20.4236 20.8472 20.3324 20.4411 20.7729C20.4165 21.2386 20.4665 21.5464 20.7959 21.189C20.939 21.9294 21.256 21.5163 21.3213 21.0548C21.493 22.5031 21.7293 20.26 22.5093 20.6844C23.6232 21.539 23.2181 21.0449 24.3324 20.5383C24.8158 21.0521 25.1469 22.1571 25.2261 21.0548C25.2918 21.5172 25.6086 21.9284 25.7515 21.189C25.9865 21.2826 26.0192 21.6349 26.094 21.0536C26.2553 20.1907 24.8159 20.6062 24.6717 20.0023C25.5163 20.4103 25.6832 19.588 25.9488 18.8608C26.0641 19.425 26.1112 18.7778 26.2744 18.6288C26.0769 19.4767 26.3984 19.4239 26.5384 18.7379C26.6473 19.8048 26.85 18.8453 26.7494 18.5328C26.9827 18.5418 27.0268 18.3323 27.0273 18.3301ZM25.6742 15.6413C25.6744 15.6454 25.674 15.6491 25.6691 15.6463C25.6708 15.6446 25.6727 15.6432 25.6742 15.6413ZM25.5602 15.8054C25.5576 15.8068 25.5549 15.8083 25.5522 15.8097C25.554 15.8068 25.5569 15.8057 25.5602 15.8054ZM25.3836 17.5753C25.3822 17.5461 25.3817 17.5173 25.3822 17.4894L25.3836 17.5753Z" fill="#CA0A2B"/>
<path opacity="0.15" d="M27.0002 4H5.0002C2.7911 4 1.0002 5.7908 1.0002 8V24C1.0002 26.2092 2.7911 28 5.0002 28H27.0002C29.2094 28 31.0002 26.2092 31.0002 24V8C31.0002 5.7908 29.2094 4 27.0002 4ZM30.0002 24C30.0002 25.6543 28.6545 27 27.0002 27H5.0002C3.3459 27 2.0002 25.6543 2.0002 24V8C2.0002 6.3457 3.3459 5 5.0002 5H27.0002C28.6545 5 30.0002 6.3457 30.0002 8V24Z" fill="black"/>
<path opacity="0.2" d="M27 5H5C3.3431 5 2 6.3431 2 8V9C2 7.3431 3.3431 6 5 6H27C28.6569 6 30 7.3431 30 9V8C30 6.3431 28.6569 5 27 5Z" fill="white"/>
</svg>
