<svg width="32" height="32" viewBox="0 0 32 32" fill="none" xmlns="http://www.w3.org/2000/svg">
<path d="M27 4H5C2.79086 4 1 5.79086 1 8V24C1 26.2091 2.79086 28 5 28H27C29.2091 28 31 26.2091 31 24V8C31 5.79086 29.2091 4 27 4Z" fill="#F4E24E"/>
<path d="M31 19L1 13V8L31 14V19Z" fill="white"/>
<path d="M31 24L1 18V13L31 19V24Z" fill="black"/>
<path d="M15.186 21.96C14.545 21.875 13.958 21.671 13.549 21.392C13.47 21.338 13.395 21.293 13.384 21.293C13.372 21.293 13.362 21.353 13.362 21.428C13.362 21.639 13.277 21.745 13.064 21.8C12.86 21.853 12.549 21.746 12.297 21.537C12.036 21.32 11.734 21.155 11.479 21.088C11.269 21.033 10.99 21.042 10.788 21.11C10.694 21.141 10.588 21.186 10.551 21.209C10.514 21.232 10.473 21.25 10.46 21.25C10.424 21.25 10.429 21.023 10.467 20.951C10.516 20.856 10.638 20.762 10.779 20.711C10.851 20.685 10.909 20.651 10.909 20.637C10.909 20.623 10.885 20.567 10.855 20.516C10.759 20.348 10.798 20.185 10.966 20.057C11.137 19.926 11.428 19.903 11.684 20.001C11.749 20.025 11.809 20.046 11.818 20.046C11.852 20.046 11.831 19.999 11.738 19.863C11.631 19.706 11.61 19.629 11.623 19.442C11.64 19.206 11.833 19.012 12.069 18.995C12.262 18.981 12.381 19.046 12.666 19.317C13.515 20.127 14.438 20.573 15.515 20.694C15.787 20.724 16.334 20.708 16.654 20.66C17.623 20.514 18.599 20.027 19.362 19.309C19.573 19.11 19.675 19.057 19.848 19.057C19.999 19.057 20.104 19.105 20.212 19.224C20.31 19.333 20.344 19.437 20.333 19.603C20.326 19.709 20.309 19.762 20.246 19.865C20.153 20.017 20.169 20.031 20.353 19.959C20.603 19.862 20.91 19.907 21.076 20.064C21.222 20.203 21.236 20.341 21.122 20.529C21.081 20.598 21.047 20.662 21.047 20.673C21.047 20.692 21.078 20.701 21.23 20.725C21.428 20.757 21.542 20.904 21.542 21.129C21.542 21.197 21.534 21.251 21.523 21.251C21.513 21.251 21.438 21.224 21.356 21.19C21.125 21.095 20.994 21.07 20.723 21.072C20.517 21.073 20.447 21.083 20.303 21.13C20.084 21.202 19.849 21.34 19.657 21.511C19.446 21.699 19.313 21.758 19.108 21.757C18.917 21.755 18.787 21.7 18.718 21.591C18.681 21.533 18.676 21.497 18.685 21.366C18.691 21.28 18.69 21.21 18.683 21.21C18.676 21.21 18.602 21.257 18.518 21.315C18.298 21.466 18.158 21.541 17.907 21.64C17.14 21.944 16.032 22.075 15.185 21.963L15.186 21.96Z" fill="#BF2A2C"/>
<path d="M15.537 20.486C14.26 20.363 13.038 19.698 12.295 18.644C11.488 17.544 11.234 16.091 11.48 14.763C11.611 14.158 11.875 13.553 12.326 13.123C11.967 13.884 11.845 14.757 12.037 15.582C12.335 17.229 13.726 18.623 15.392 18.864C16.051 19.055 16.732 18.853 17.362 18.649C18.75 18.16 19.808 16.842 19.937 15.369C20.047 14.572 19.925 13.743 19.566 13.021C19.771 13.129 20.029 13.554 20.181 13.839C20.711 14.865 20.735 16.095 20.423 17.19C20 18.584 18.935 19.804 17.526 20.248C16.887 20.457 16.207 20.52 15.538 20.485L15.537 20.486Z" fill="#BF2A2C"/>
<path d="M8.126 13.128C8.283 13.055 8.93 13.231 9.01 13.295C9.09 13.359 9.223 13.674 9.23 14.017C9.35 14.017 9.442 14.124 9.582 14.287C9.722 14.45 9.924 14.763 10.132 14.824C10.34 14.885 10.5 15.183 10.505 15.558C10.51 15.933 10.524 17.901 10.551 18.032C10.578 18.163 10.731 18.582 10.774 18.704C10.817 18.826 10.839 18.847 10.589 18.992C10.339 19.137 9.201 19.133 8.998 18.857C8.85 18.654 8.989 18.576 9.079 18.479C9.169 18.382 9.201 18.149 9.229 18.017C9.257 17.885 9.33 17.753 9.349 17.51C9.368 17.267 9.325 16.19 9.286 15.896C9.247 15.602 8.58 15.347 8.422 14.977C8.264 14.607 7.916 13.225 8.125 13.127L8.126 13.128Z" fill="#BF2A2C"/>
<path d="M23.874 13.128C23.717 13.055 23.07 13.231 22.99 13.295C22.91 13.359 22.777 13.674 22.77 14.017C22.65 14.017 22.558 14.124 22.418 14.287C22.278 14.45 22.076 14.763 21.868 14.824C21.66 14.885 21.5 15.183 21.495 15.558C21.49 15.933 21.476 17.901 21.449 18.032C21.422 18.163 21.269 18.582 21.226 18.704C21.183 18.826 21.161 18.847 21.411 18.992C21.661 19.137 22.799 19.133 23.002 18.857C23.15 18.654 23.011 18.576 22.921 18.479C22.831 18.382 22.799 18.149 22.771 18.017C22.743 17.885 22.67 17.753 22.651 17.51C22.632 17.267 22.675 16.19 22.714 15.896C22.753 15.602 23.42 15.347 23.578 14.977C23.736 14.607 24.084 13.225 23.875 13.127L23.874 13.128Z" fill="#BF2A2C"/>
<path d="M18.651 11.757C18.147 11.519 17.708 11.232 17.221 11.168C16.769 11.108 16.38 11.441 16.21 11.633V10.835L16.314 10.577L16.596 10.907L16.841 10.636L17.235 10.887C17.235 10.887 16.923 10.434 16.931 9.846C16.931 9.714 16.592 9.605 16.156 9.591V9.087L16.877 9.416L16.469 8.871L17.025 8.691L16.187 8.249C16.252 8.224 16.295 8.184 16.295 8.137C16.295 8.062 16.183 8.001 16.046 8.001C15.909 8.001 15.797 8.062 15.797 8.137C15.797 8.192 15.857 8.239 15.943 8.261V9.593C15.516 9.61 15.187 9.717 15.187 9.848C15.187 9.848 15.087 10.645 14.861 10.935L15.228 10.594L15.484 10.898L15.761 10.589L15.888 10.836V11.613C15.709 11.419 15.332 11.111 14.896 11.169C14.409 11.233 13.97 11.52 13.466 11.758C12.962 11.996 12.414 12.225 11.912 12.028C11.973 12.68 13.571 13.327 14.068 13.478C14.565 13.629 15.179 13.328 15.402 13.253C15.625 13.177 15.713 13.393 15.647 13.575C15.581 13.756 15.665 13.862 15.777 13.972C15.802 13.844 15.844 13.778 15.888 13.746V14.196C15.8 14.12 15.614 13.988 15.402 14.004C15.437 14.12 15.752 14.175 15.672 14.634C15.592 15.092 15.447 15.611 15.667 16.016C15.401 15.899 15.296 16.086 15.296 16.086C15.296 16.086 15.677 16.223 15.575 16.599C15.473 16.975 15.117 17.766 15.619 18.313C15.186 18.112 14.996 18.251 14.858 18.065C14.86 18.538 15.565 18.85 15.887 18.85H16.209C16.531 18.85 17.255 18.537 17.258 18.065C17.12 18.252 16.93 18.113 16.497 18.313C16.999 17.766 16.644 16.976 16.541 16.599C16.439 16.223 16.82 16.086 16.82 16.086C16.82 16.086 16.715 15.899 16.449 16.016C16.669 15.611 16.524 15.092 16.444 14.634C16.364 14.176 16.679 14.12 16.714 14.004C16.485 13.986 16.287 14.142 16.209 14.213V13.734C16.261 13.76 16.311 13.826 16.339 13.971C16.45 13.861 16.535 13.755 16.469 13.574C16.403 13.393 16.491 13.177 16.714 13.252C16.937 13.328 17.55 13.629 18.048 13.477C18.546 13.325 20.144 12.679 20.204 12.027C19.702 12.224 19.155 11.995 18.651 11.757Z" fill="#BF2A2C"/>
<path opacity="0.15" d="M27 4H5C2.791 4 1 5.791 1 8V24C1 26.209 2.791 28 5 28H27C29.209 28 31 26.209 31 24V8C31 5.791 29.209 4 27 4ZM30 24C30 25.654 28.654 27 27 27H5C3.346 27 2 25.654 2 24V8C2 6.346 3.346 5 5 5H27C28.654 5 30 6.346 30 8V24Z" fill="black"/>
<path opacity="0.2" d="M27 5H5C3.343 5 2 6.343 2 8V9C2 7.343 3.343 6 5 6H27C28.657 6 30 7.343 30 9V8C30 6.343 28.657 5 27 5Z" fill="white"/>
</svg>
