<svg width="32" height="32" viewBox="0 0 32 32" fill="none" xmlns="http://www.w3.org/2000/svg">
<path d="M2.316 26.947L29.684 5.053C28.973 4.405 28.037 4 27 4H5C2.791 4 1 5.791 1 8V24C1 25.172 1.513 26.216 2.316 26.947Z" fill="#F8D047"/>
<path d="M29.684 5.053L2.31599 26.947C3.02699 27.595 3.96299 28 4.99999 28H27C29.209 28 31 26.209 31 24V8C31 6.828 30.487 5.784 29.684 5.053Z" fill="#ED7135"/>
<path opacity="0.15" d="M27 4H5C2.791 4 1 5.791 1 8V24C1 26.209 2.791 28 5 28H27C29.209 28 31 26.209 31 24V8C31 5.791 29.209 4 27 4ZM30 24C30 25.654 28.654 27 27 27H5C3.346 27 2 25.654 2 24V8C2 6.346 3.346 5 5 5H27C28.654 5 30 6.346 30 8V24Z" fill="black"/>
<path opacity="0.2" d="M27 5H5C3.343 5 2 6.343 2 8V9C2 7.343 3.343 6 5 6H27C28.657 6 30 7.343 30 9V8C30 6.343 28.657 5 27 5Z" fill="white"/>
<path d="M27.084 10.205C26.344 10.22 25.854 10.134 25.076 10.395C25.369 9.939 26.117 10.014 26.285 9.501C25.79 9.804 25.268 9.417 24.891 9.964C25.08 9.164 25.528 8.561 25.666 7.891C24.955 8.514 24.81 9.742 24.147 10.19C23.494 10.34 23.005 9.377 22.458 9.652C21.242 9.555 20.018 8.23 18.781 8.539C19.175 8.509 19.489 8.636 19.733 8.802C19.505 8.843 19.224 8.602 19.073 8.77C19.395 8.79 19.684 8.915 19.531 9.22C18.799 8.703 17.947 8.76 17.429 9.206C17.81 9.009 18.166 9.171 18.463 9.296C18.24 9.481 17.841 9.276 17.713 9.531C17.835 9.474 17.992 9.47 18.231 9.516C18.19 9.604 18.166 9.723 18.178 9.886C17.111 9.006 15.571 10.605 16.977 10.385C15.943 10.013 17.642 9.779 18.637 10.457C18.289 10.383 17.583 10.525 17.439 10.095C17.382 10.263 17.39 10.412 17.511 10.503C16.881 10.783 15.742 10.709 15.453 11.307C15.917 10.849 16.653 11.216 17.169 11.113C17.123 11.207 17.108 11.295 17.125 11.363C16.969 11.385 16.876 11.727 16.953 11.847C16.852 12.327 15.454 13.191 16.788 12.594C16.754 13.047 16.231 13.207 16.498 13.72C16.535 13.289 16.876 13.239 17.212 13.161C17.121 13.4 17.34 13.739 17.605 13.686C17.496 13.879 17.6 14.225 17.854 14.276C17.735 14.622 17.261 14.268 17.128 14.613C17.488 14.497 17.711 14.987 18.09 14.809C18.042 14.96 18.075 15.051 18.174 15.201C17.935 15.175 17.56 15.29 17.447 15.012C17.263 15.333 17.839 15.335 17.833 15.566C17.791 15.434 17.552 15.334 17.45 15.457C17.389 15.08 16.927 15.053 16.744 15.163C16.824 14.923 16.351 14.745 16.244 14.897C16.124 14.517 15.706 14.236 15.541 13.937C15.359 14.192 15.694 14.29 15.617 14.56C15.523 14.457 15.314 14.415 15.212 14.535C15.148 14.381 14.859 14.312 14.75 14.471C14.684 14.325 14.399 14.278 14.295 14.425C14.192 13.969 13.588 14.21 13.441 13.853C13.324 14.171 13.803 14.202 13.73 14.52C13.437 14.319 13.026 14.57 13.128 14.917C12.916 14.717 12.499 14.915 12.566 15.212C12.248 14.946 11.537 15.275 11.391 15.534C11.598 15.416 11.843 15.494 12.051 15.551C11.962 15.682 11.848 15.916 11.967 16.086C11.631 16.086 11.52 16.527 11.65 16.782C11.239 16.884 10.944 17.477 10.472 17.324C10.678 17.689 11.127 17.346 11.409 17.387C11.29 17.467 11.172 17.908 11.317 18.06C11.152 18.142 11.004 18.385 11.025 18.525C10.758 18.554 10.638 18.881 10.365 18.785C10.407 18.909 10.578 18.986 10.776 19.028C10.647 19.116 10.543 19.269 10.365 19.199C10.37 19.298 10.417 19.401 10.514 19.477C10.322 19.467 10.089 19.572 9.91399 19.5C9.91199 19.594 9.935 19.698 9.994 19.795C9.669 19.711 9.20899 19.637 9.02999 19.906C9.19499 19.889 9.358 19.942 9.40699 20.033C8.55199 20.187 7.281 19.265 6.757 19.901C7.335 19.862 8.14799 20.098 8.679 20.345C8.183 20.378 7.03 20.548 6.712 20.913C7.137 20.882 7.741 20.75 8.113 20.733C7.259 21.231 6.227 21.493 5.403 22.006C5.994 22.135 6.695 21.636 7.304 21.501C6.49 21.896 5.81099 22.589 4.89799 22.953C6.37499 22.96 7.875 21.854 9.017 21.099C8.699 21.273 8.69 21.734 8.274 21.785C8.802 21.972 9.05 21.236 9.604 21.29C9.321 21.745 8.93 21.534 8.805 22.012C10.342 21.698 10.874 19.876 12.401 19.892C12.404 19.948 12.406 20.006 12.4 20.062C12.395 20.16 12.375 20.259 12.341 20.351C11.86 20.256 11.782 20.334 12.148 20.599C11.924 20.661 11.883 20.969 11.613 21.028C11.741 21.197 12.059 21.087 12.177 20.957C12.184 21.083 12.325 21.194 12.253 21.328C12.486 21.348 12.378 20.935 12.634 20.933C12.545 21.032 12.631 21.206 12.788 21.184C12.709 21.264 12.766 21.366 12.877 21.369C12.805 21.507 12.883 21.671 12.834 21.843C11.615 21.981 12.415 24.124 13.332 24.107C14.232 24.095 14.648 22.64 14.161 22.017C14.24 22.027 14.324 22.004 14.388 21.954C14.438 22.051 14.562 22.117 14.687 22.111C14.835 22.344 15.026 22.561 14.929 22.892C15.424 22.341 14.829 21.036 14.115 21.518C14.023 21.432 13.892 21.407 13.797 21.421C13.824 21.207 13.784 21.111 13.625 21.078C13.371 20.603 13.127 20.202 13.383 19.646C16.186 21.563 16.662 17.64 14.228 18.458C14.273 18.392 14.286 18.267 14.253 18.207C14.347 18.163 14.443 18.044 14.46 17.951C14.59 17.973 14.781 17.875 14.899 17.911C14.458 17.284 13.568 17.866 13.691 18.529C13.049 18.941 13.201 17.924 13.228 17.594C13.319 17.54 13.319 17.309 13.275 17.243C13.355 17.219 13.443 17.086 13.437 16.992C13.587 17.011 13.708 16.829 13.718 16.706C13.87 16.789 14.118 16.718 14.175 16.55C14.287 16.641 14.591 16.644 14.666 16.521C15.836 16.923 17.087 17.212 18.375 17.367C18.299 17.521 18.29 17.639 18.347 17.728C18.053 17.785 17.763 17.597 17.541 17.755C17.803 17.778 17.719 17.946 18.06 17.981C17.704 18.02 17.764 18.505 17.432 18.483C17.738 18.822 17.914 18.287 18.189 18.319C18.18 18.454 18.304 18.587 18.177 18.777C18.378 18.784 18.479 18.56 18.522 18.403C18.63 18.503 18.744 18.78 18.981 18.67C18.984 18.846 19.294 18.969 19.425 18.903C19.487 19.072 19.834 19.135 19.953 19.036C19.983 19.135 20.113 19.184 20.221 19.216L20.219 19.222C20.456 19.304 20.679 19.107 20.871 19.243C20.969 19.295 21.06 19.387 21.171 19.376C20.403 20.763 23.732 21.684 23.762 19.931C23.594 19.266 23.596 18.114 22.594 18.443C22.571 18.413 22.534 18.408 22.488 18.418C22.61 18.331 22.653 18.223 22.616 18.099C22.918 18.111 22.93 17.729 23.276 17.86C22.974 17.502 21.976 17.632 22.011 18.152C21.838 18.083 21.636 18.237 21.645 18.422C21.537 18.396 21.387 18.448 21.307 18.597C20.905 18.355 20.479 18.217 20.031 18.277C19.98 18.158 19.768 18.019 19.61 18.065C20.177 17.053 20.427 15.705 20.975 14.966C21.421 14.803 21.493 15.413 21.092 15.515C21.248 15.626 21.456 15.537 21.57 15.39C21.448 15.712 21.513 16.097 21.855 16.178C21.703 15.929 21.98 15.796 21.929 15.581C22.115 15.678 22.256 15.914 22.241 16.072C22.489 15.834 22.17 15.512 22.15 15.252C22.587 15.336 22.961 15.026 23.266 14.827C23.347 14.771 23.431 14.739 23.496 14.728C27.518 16.77 25.17 10.153 23.48 13.848C22.228 14.05 20.642 13.841 19.781 12.727C20.434 12.656 20.702 13.458 21.265 13.359C20.83 13.236 20.819 12.709 20.331 12.626C21.054 12.114 22.09 12.287 22.607 12.989C22.442 13.079 22.383 13.355 22.167 13.34C22.366 13.465 22.578 13.424 22.743 13.267C22.699 13.448 22.743 13.616 22.972 13.689C22.824 13.525 23.011 13.401 23.108 13.277C23.178 13.401 23.351 13.484 23.26 13.645C23.512 13.609 23.573 13.162 23.376 13.007C23.569 12.784 23.348 12.472 23.107 12.391C23.604 11.974 23.83 12.758 23.606 13.201C23.857 13.04 23.857 12.745 23.858 12.493C24.534 12.901 26.183 11.807 26.317 12.862C26.637 12.451 26.149 12.209 25.636 12.157C25.654 11.88 25.311 11.577 25.073 11.799C25.355 11.76 25.431 12.168 25.096 12.284C25.172 11.979 24.824 11.725 24.547 11.877C25.017 12.033 24.665 12.476 24.263 12.392C24.27 12.023 24.675 11.724 24.391 11.33C24.491 11.316 24.488 11.218 24.401 11.17C24.524 11.189 24.581 11.077 24.463 11.011C24.539 11.021 24.623 10.978 24.58 10.905C25.361 10.607 26.462 10.552 27.101 10.2L27.082 10.206L27.084 10.205ZM22.165 11.656C22.304 11.248 22.939 11.049 22.751 11.613C22.931 11.288 23.597 11.251 23.16 11.684C23.32 11.724 23.524 11.6 23.69 11.612C23.509 12.41 22.626 11.665 22.162 11.663C22.162 11.661 22.164 11.658 22.165 11.656Z" fill="white"/>
</svg>
