<svg width="32" height="32" viewBox="0 0 32 32" fill="none" xmlns="http://www.w3.org/2000/svg">
<path d="M1 8V21H31V8C31 5.791 29.209 4 27 4H5C2.791 4 1 5.791 1 8Z" fill="#BE2D27"/>
<path d="M27 28L5 28C2.792 28 1 26.208 1 24V20L31 20V24C31 26.208 29.208 28 27 28Z" fill="#367B37"/>
<path d="M4 13L5 16L4 19L3 16L4 13Z" fill="white"/>
<path d="M2.5 8L3.5 11L2.5 14L1.5 11L2.5 8Z" fill="white"/>
<path d="M5.5 8L6.5 11L5.5 14L4.5 11L5.5 8Z" fill="white"/>
<path d="M2.5 18L3.5 21L2.5 24L1.5 21L2.5 18Z" fill="white"/>
<path d="M5.5 18L6.5 21L5.5 24L4.5 21L5.5 18Z" fill="white"/>
<path d="M1 13V19L2 16L1 13Z" fill="white"/>
<path d="M7 13L6 16L7 19V13Z" fill="white"/>
<path d="M5 6L4.355 4.065C4.085 4.109 3.825 4.178 3.576 4.273L3 6L4 9L5 6Z" fill="white"/>
<path d="M1.853 5.558C1.327 6.235 1 7.076 1 8V9L2 6L1.853 5.558Z" fill="white"/>
<path d="M6.667 4L6 6L7 9V4H6.667Z" fill="white"/>
<path d="M5 26L4.355 27.935C4.085 27.891 3.825 27.822 3.576 27.727L3 26L4 23L5 26Z" fill="white"/>
<path d="M1.853 26.442C1.327 25.765 1 24.924 1 24V23L2 26L1.853 26.442Z" fill="white"/>
<path d="M6.667 28L6 26L7 23V28H6.667Z" fill="white"/>
<path opacity="0.15" d="M27 4H5C2.791 4 1 5.791 1 8V24C1 26.209 2.791 28 5 28H27C29.209 28 31 26.209 31 24V8C31 5.791 29.209 4 27 4ZM30 24C30 25.654 28.654 27 27 27H5C3.346 27 2 25.654 2 24V8C2 6.346 3.346 5 5 5H27C28.654 5 30 6.346 30 8V24Z" fill="black"/>
<path opacity="0.2" d="M27 5H5C3.343 5 2 6.343 2 8V9C2 7.343 3.343 6 5 6H27C28.657 6 30 7.343 30 9V8C30 6.343 28.657 5 27 5Z" fill="white"/>
</svg>
