<svg width="32" height="32" viewBox="0 0 32 32" fill="none" xmlns="http://www.w3.org/2000/svg">
<path d="M27 4H5C2.79086 4 1 5.79086 1 8V24C1 26.2091 2.79086 28 5 28H27C29.2091 28 31 26.2091 31 24V8C31 5.79086 29.2091 4 27 4Z" fill="#387EF7"/>
<path d="M9.295 11.069L11.895 9.181H8.682L7.689 6.125L6.696 9.181H3.483L6.082 11.069L5.089 14.125L7.689 12.236L10.288 14.125L9.295 11.069Z" fill="#F2D84B"/>
<path d="M31 8.00001C31 6.36001 30.011 4.95501 28.599 4.33701L1 21.816V24C1 25.64 1.989 27.045 3.401 27.663L31 10.184V8.00001Z" fill="#F2D84B"/>
<path d="M29.534 4.929L1 23V24C1 25.242 1.578 26.338 2.466 27.071L31 9V8C31 6.758 30.422 5.662 29.534 4.929Z" fill="#BE2A28"/>
<path opacity="0.15" d="M1 8V24C1 26.209 2.791 28 5 28H27C29.209 28 31 26.209 31 24V8C31 5.791 29.209 4 27 4H5C2.791 4 1 5.791 1 8ZM2 8C2 6.346 3.346 5 5 5H27C28.654 5 30 6.346 30 8V24C30 25.654 28.654 27 27 27H5C3.346 27 2 25.654 2 24V8Z" fill="black"/>
<path opacity="0.2" d="M27 5H5C3.343 5 2 6.343 2 8V9C2 7.343 3.343 6 5 6H27C28.657 6 30 7.343 30 9V8C30 6.343 28.657 5 27 5Z" fill="white"/>
</svg>
