<svg width="32" height="32" viewBox="0 0 32 32" fill="none" xmlns="http://www.w3.org/2000/svg">
<path d="M1 15H31V22H1V15Z" fill="#4B9638"/>
<path d="M1 9H31V16H1V9Z" fill="white"/>
<path d="M5 4H27C29.208 4 31 5.792 31 8V10H1V8C1 5.792 2.792 4 5 4Z" fill="#0F2C7E"/>
<path d="M27 28L5 28C2.792 28 1 26.208 1 24V22L31 22V24C31 26.208 29.208 28 27 28Z" fill="#F8D147"/>
<path d="M7.575 7.472L8.875 6.528H7.269L6.772 5L6.276 6.528H4.669L5.969 7.472L5.472 9L6.772 8.056L8.072 9L7.575 7.472Z" fill="#F8D147"/>
<path d="M13 4H19V28H13V4Z" fill="#C22B38"/>
<path opacity="0.15" d="M27 4H5C2.791 4 1 5.791 1 8V24C1 26.209 2.791 28 5 28H27C29.209 28 31 26.209 31 24V8C31 5.791 29.209 4 27 4ZM30 24C30 25.654 28.654 27 27 27H5C3.346 27 2 25.654 2 24V8C2 6.346 3.346 5 5 5H27C28.654 5 30 6.346 30 8V24Z" fill="black"/>
<path opacity="0.2" d="M27 5H5C3.343 5 2 6.343 2 8V9C2 7.343 3.343 6 5 6H27C28.657 6 30 7.343 30 9V8C30 6.343 28.657 5 27 5Z" fill="white"/>
</svg>
