<svg width="32" height="32" viewBox="0 0 32 32" fill="none" xmlns="http://www.w3.org/2000/svg">
<path d="M31 24V8C31 5.791 29.209 4 27 4H26L6 28H27C29.209 28 31 26.209 31 24Z" fill="#C93039"/>
<path d="M5 4H26L6 28H5C2.791 28 1 26.209 1 24V8C1 5.791 2.791 4 5 4Z" fill="#42944B"/>
<path d="M27 4H21L2.07401 26.711C2.80501 27.499 3.84001 28 5.00001 28H11L29.926 5.289C29.195 4.501 28.16 4 27 4Z" fill="#F7E065"/>
<path opacity="0.15" d="M27 4H5C2.791 4 1 5.791 1 8V24C1 26.209 2.791 28 5 28H27C29.209 28 31 26.209 31 24V8C31 5.791 29.209 4 27 4ZM30 24C30 25.654 28.654 27 27 27H5C3.346 27 2 25.654 2 24V8C2 6.346 3.346 5 5 5H27C28.654 5 30 6.346 30 8V24Z" fill="black"/>
<path opacity="0.2" d="M27 5H5C3.343 5 2 6.343 2 8V9C2 7.343 3.343 6 5 6H27C28.657 6 30 7.343 30 9V8C30 6.343 28.657 5 27 5Z" fill="white"/>
</svg>
