<svg width="32" height="32" viewBox="0 0 32 32" fill="none" xmlns="http://www.w3.org/2000/svg">
<path d="M27 4H5C2.79086 4 1 5.79086 1 8V24C1 26.2091 2.79086 28 5 28H27C29.2091 28 31 26.2091 31 24V8C31 5.79086 29.2091 4 27 4Z" fill="#DB362F"/>
<path opacity="0.15" d="M27 4H5C2.791 4 1 5.791 1 8V24C1 26.209 2.791 28 5 28H27C29.209 28 31 26.209 31 24V8C31 5.791 29.209 4 27 4ZM30 24C30 25.654 28.654 27 27 27H5C3.346 27 2 25.654 2 24V8C2 6.346 3.346 5 5 5H27C28.654 5 30 6.346 30 8V24Z" fill="black"/>
<path d="M7.958 10.152L7.19 7.786L6.421 10.152H3.934L5.946 11.614L5.177 13.979L7.19 12.517L9.202 13.979L8.433 11.614L10.446 10.152H7.958Z" fill="#FFFF00"/>
<path d="M12.725 8.18699L13.152 8.89799L13.224 8.07199L14.032 7.88599L13.269 7.56199L13.342 6.73599L12.798 7.36099L12.035 7.03699L12.461 7.74799L11.917 8.37299L12.725 8.18699Z" fill="#FFFF00"/>
<path d="M14.865 10.372L14.982 11.193L15.37 10.46L16.187 10.602L15.61 10.007L15.997 9.27401L15.253 9.63901L14.675 9.04401L14.793 9.86501L14.048 10.23L14.865 10.372Z" fill="#FFFF00"/>
<path d="M15.597 13.612L16.25 13.101L15.421 13.13L15.137 12.352L14.909 13.149L14.081 13.179L14.769 13.642L14.541 14.439L15.194 13.928L15.881 14.391L15.597 13.612Z" fill="#FFFF00"/>
<path d="M13.26 15.535L13.298 14.707L12.78 15.354L12.005 15.062L12.46 15.754L11.942 16.402L12.742 16.182L13.198 16.875L13.236 16.047L14.036 15.827L13.26 15.535Z" fill="#FFFF00"/>
<path opacity="0.2" d="M27 5H5C3.343 5 2 6.343 2 8V9C2 7.343 3.343 6 5 6H27C28.657 6 30 7.343 30 9V8C30 6.343 28.657 5 27 5Z" fill="white"/>
</svg>
