<svg width="32" height="32" viewBox="0 0 32 32" fill="none" xmlns="http://www.w3.org/2000/svg">
<path d="M27 4H5C2.79086 4 1 5.79086 1 8V24C1 26.2091 2.79086 28 5 28H27C29.2091 28 31 26.2091 31 24V8C31 5.79086 29.2091 4 27 4Z" fill="#13348F"/>
<path d="M1 17H31V21H1V17Z" fill="#BF312D"/>
<path d="M1 16H31V18H1V16Z" fill="white"/>
<path d="M1 20H31V22H1V20Z" fill="white"/>
<path opacity="0.15" d="M27 4H5C2.791 4 1 5.791 1 8V24C1 26.209 2.791 28 5 28H27C29.209 28 31 26.209 31 24V8C31 5.791 29.209 4 27 4ZM30 24C30 25.654 28.654 27 27 27H5C3.346 27 2 25.654 2 24V8C2 6.346 3.346 5 5 5H27C28.654 5 30 6.346 30 8V24Z" fill="black"/>
<path d="M6.97701 19.855L7.21901 20.6H8.00401L7.36901 21.06L7.61201 21.805L6.97701 21.344L6.34201 21.805L6.58501 21.06L5.95001 20.6H6.73401L6.97701 19.855Z" fill="#F7D116"/>
<path d="M6.91201 15.959L7.15501 16.703H7.93901L7.30401 17.163L7.54701 17.908L6.91201 17.448L6.27701 17.908L6.52001 17.163L5.88501 16.703H6.67001L6.91201 15.959Z" fill="#F7D116"/>
<path d="M18.005 15.961L18.248 16.704H19.033L18.398 17.163L18.64 17.906L18.006 17.447L17.371 17.906L17.613 17.163L16.978 16.704H17.763L18.005 15.961Z" fill="#F7D116"/>
<path d="M17.933 19.857L18.175 20.6H18.96L18.325 21.059L18.567 21.802L17.932 21.343L17.297 21.802L17.539 21.059L16.904 20.6H17.688L17.93 19.857H17.933Z" fill="#F7D116"/>
<path d="M12.458 11.952L12.7 12.698H13.485L12.85 13.159L13.093 13.905L12.458 13.444L11.823 13.905L12.065 13.159L11.43 12.698H12.214L12.457 11.952H12.458Z" fill="#F7D116"/>
<path d="M12.46 23.644L12.702 24.39H13.487L12.852 24.851L13.094 25.597L12.459 25.136L11.824 25.597L12.067 24.851L11.432 24.39H12.216L12.459 23.644H12.46Z" fill="#F7D116"/>
<path d="M9.028 13.065L9.27 13.811H10.055L9.42 14.272L9.663 15.018L9.028 14.557L8.393 15.018L8.635 14.272L8 13.811H8.784L9.028 13.065Z" fill="#F7D116"/>
<path d="M15.883 22.534L16.125 23.28H16.91L16.275 23.741L16.518 24.487L15.883 24.026L15.248 24.487L15.491 23.741L14.856 23.28H15.64L15.883 22.534Z" fill="#F7D116"/>
<path d="M9.148 22.622L9.391 23.368H10.175L9.54 23.829L9.783 24.576L9.148 24.114L8.513 24.576L8.756 23.829L8.121 23.368H8.906L9.148 22.622Z" fill="#F7D116"/>
<path d="M15.783 12.98L16.026 13.726H16.811L16.176 14.187L16.418 14.933L15.784 14.472L15.149 14.933L15.391 14.187L14.757 13.726H15.541L15.783 12.98Z" fill="#F7D116"/>
<path opacity="0.2" d="M27 5H5C3.343 5 2 6.343 2 8V9C2 7.343 3.343 6 5 6H27C28.657 6 30 7.343 30 9V8C30 6.343 28.657 5 27 5Z" fill="white"/>
</svg>
