<svg width="32" height="32" viewBox="0 0 32 32" fill="none" xmlns="http://www.w3.org/2000/svg">
<path d="M27 4H5C2.79086 4 1 5.79086 1 8V24C1 26.2091 2.79086 28 5 28H27C29.2091 28 31 26.2091 31 24V8C31 5.79086 29.2091 4 27 4Z" fill="white"/>
<path opacity="0.15" d="M27 4H5C2.791 4 1 5.791 1 8V24C1 26.209 2.791 28 5 28H27C29.209 28 31 26.209 31 24V8C31 5.791 29.209 4 27 4ZM30 24C30 25.654 28.654 27 27 27H5C3.346 27 2 25.654 2 24V8C2 6.346 3.346 5 5 5H27C28.654 5 30 6.346 30 8V24Z" fill="black"/>
<path d="M10.094 19.888C10.077 19.888 10.06 19.891 10.043 19.894C10.076 20.265 10.344 20.504 10.564 20.639C10.712 20.729 10.871 20.799 11.037 20.846C10.867 20.461 10.676 20.187 10.469 20.029C10.307 19.906 10.172 19.887 10.107 19.887C10.102 19.887 10.098 19.887 10.094 19.887V19.888Z" fill="#4E5B31"/>
<path d="M9.396 19.483C9.577 19.587 9.741 19.658 9.834 19.674C9.837 19.674 9.841 19.674 9.844 19.674C9.85 19.674 9.856 19.673 9.861 19.671C9.868 19.667 9.873 19.661 9.876 19.653C9.883 19.63 9.883 19.605 9.876 19.583C9.858 19.504 9.831 19.428 9.796 19.356C9.726 19.198 9.636 19.036 9.625 19.017V19.015C9.534 18.905 9.439 18.799 9.339 18.699C9.26 18.619 9.174 18.546 9.082 18.481C8.981 18.412 8.907 18.38 8.837 18.379C8.819 18.379 8.802 18.381 8.785 18.387C8.776 18.481 8.775 18.576 8.782 18.671C8.797 18.88 8.849 19.036 8.936 19.135C9.031 19.244 9.195 19.368 9.396 19.483Z" fill="#4E5B31"/>
<path d="M11.609 20.826C11.468 20.378 11.304 20.05 11.119 19.85C10.958 19.676 10.812 19.636 10.717 19.634C10.711 19.634 10.705 19.634 10.699 19.634C10.695 19.634 10.691 19.634 10.687 19.634C10.647 19.636 10.609 19.646 10.573 19.662C10.717 20.018 10.944 20.335 11.235 20.586C11.348 20.684 11.474 20.765 11.61 20.827L11.609 20.826Z" fill="#4E5B31"/>
<path d="M9.893 20.242C9.882 20.139 9.838 20.043 9.766 19.968C9.65 19.842 9.402 19.688 8.876 19.673C8.889 19.758 8.913 19.841 8.947 19.921C8.998 20.037 9.094 20.181 9.264 20.212C9.41 20.237 9.557 20.25 9.705 20.25C9.818 20.25 9.892 20.242 9.893 20.242Z" fill="#4E5B31"/>
<path d="M10.254 20.898C10.244 20.898 10.235 20.898 10.225 20.898C10.085 20.899 9.946 20.917 9.811 20.951C9.81 20.966 9.81 20.98 9.811 20.994C9.817 21.03 9.831 21.064 9.852 21.094C9.9 21.167 10.013 21.267 10.275 21.332C10.43 21.37 10.589 21.389 10.748 21.389C10.91 21.389 11.071 21.371 11.228 21.333C11.071 21.127 10.846 20.984 10.593 20.931C10.481 20.909 10.368 20.898 10.254 20.898Z" fill="#4E5B31"/>
<path d="M13.322 21.63C13.088 20.927 12.63 20.813 12.378 20.807C12.371 20.807 12.363 20.807 12.356 20.807C12.349 20.807 12.342 20.807 12.335 20.807C12.283 20.807 12.231 20.814 12.181 20.826C12.224 20.955 12.295 21.073 12.387 21.172C12.537 21.339 12.821 21.554 13.322 21.631V21.63Z" fill="#4E5B31"/>
<path d="M15.29 22.497C14.84 21.645 14.372 21.553 14.19 21.553C14.155 21.553 14.119 21.557 14.085 21.565C14.074 21.705 14.111 21.844 14.189 21.96C14.312 22.151 14.603 22.399 15.291 22.498L15.29 22.497Z" fill="#4E5B31"/>
<path d="M11.503 21.014H11.488C11.436 21.014 11.384 21.022 11.334 21.037C11.342 21.071 11.354 21.103 11.37 21.134C11.412 21.216 11.469 21.289 11.538 21.35C11.7 21.495 12.023 21.672 12.646 21.694C12.142 21.103 11.714 21.015 11.504 21.015L11.503 21.014Z" fill="#4E5B31"/>
<path d="M14.173 22.524C13.949 22.524 13.81 22.592 13.734 22.649C13.688 22.682 13.649 22.723 13.62 22.772C13.858 22.914 14.13 22.99 14.408 22.992C14.667 22.993 14.921 22.924 15.143 22.792C14.768 22.614 14.443 22.524 14.178 22.524H14.173Z" fill="#4E5B31"/>
<path d="M12.133 21.864C12.113 21.864 12.094 21.864 12.075 21.864C11.868 21.871 11.662 21.898 11.46 21.946C11.725 22.212 12.151 22.306 12.46 22.306H12.484C12.652 22.303 12.771 22.276 12.838 22.226C12.867 22.208 12.883 22.175 12.88 22.141C12.866 22.095 12.835 22.056 12.794 22.031C12.646 21.92 12.423 21.864 12.133 21.864Z" fill="#4E5B31"/>
<path d="M13.217 22.211C13.364 22.311 13.588 22.361 13.881 22.361C14.034 22.36 14.186 22.349 14.337 22.328C13.973 21.975 13.628 21.901 13.401 21.901C13.385 21.901 13.37 21.901 13.355 21.902C13.249 21.906 13.145 21.928 13.048 21.967C13.052 21.995 13.059 22.022 13.071 22.047C13.104 22.114 13.154 22.17 13.217 22.21V22.211Z" fill="#4E5B31"/>
<path d="M19.613 21.172C19.706 21.073 19.776 20.955 19.819 20.826C19.768 20.814 19.717 20.808 19.665 20.807C19.658 20.807 19.651 20.807 19.644 20.807C19.637 20.807 19.63 20.807 19.622 20.807C19.37 20.813 18.912 20.927 18.678 21.63C19.179 21.554 19.463 21.339 19.613 21.172Z" fill="#4E5B31"/>
<path d="M19.355 21.693C19.978 21.671 20.301 21.494 20.463 21.349C20.532 21.288 20.589 21.215 20.631 21.133C20.647 21.102 20.659 21.07 20.667 21.036C20.617 21.021 20.565 21.013 20.513 21.013H20.498C20.288 21.013 19.86 21.101 19.356 21.692L19.355 21.693Z" fill="#4E5B31"/>
<path d="M21.436 20.64C21.655 20.505 21.924 20.266 21.957 19.895C21.94 19.891 21.923 19.889 21.906 19.889C21.902 19.889 21.897 19.889 21.893 19.889C21.827 19.889 21.693 19.907 21.531 20.031C21.325 20.188 21.134 20.463 20.963 20.847C21.129 20.8 21.289 20.73 21.436 20.64Z" fill="#4E5B31"/>
<path d="M22.156 19.674C22.156 19.674 22.163 19.674 22.166 19.674C22.259 19.658 22.423 19.587 22.604 19.483C22.805 19.368 22.969 19.244 23.064 19.135C23.151 19.036 23.203 18.879 23.218 18.671C23.225 18.577 23.223 18.482 23.215 18.387C23.198 18.382 23.181 18.379 23.163 18.379C23.093 18.38 23.019 18.412 22.918 18.481C22.826 18.546 22.74 18.619 22.661 18.699C22.56 18.799 22.465 18.904 22.376 19.015V19.017C22.364 19.036 22.274 19.198 22.204 19.356C22.169 19.429 22.142 19.505 22.124 19.583C22.117 19.606 22.117 19.63 22.124 19.653C22.127 19.66 22.132 19.667 22.139 19.671C22.144 19.673 22.15 19.674 22.156 19.674Z" fill="#4E5B31"/>
<path d="M19.925 21.865C19.906 21.865 19.886 21.865 19.867 21.865C19.577 21.865 19.355 21.921 19.207 22.032C19.166 22.057 19.135 22.096 19.121 22.142C19.118 22.176 19.134 22.209 19.163 22.227C19.23 22.277 19.349 22.304 19.517 22.307H19.541C19.851 22.307 20.276 22.212 20.541 21.947C20.339 21.899 20.134 21.872 19.926 21.865H19.925Z" fill="#4E5B31"/>
<path d="M18.598 21.901C18.371 21.901 18.026 21.975 17.662 22.328C17.813 22.349 17.966 22.36 18.118 22.361C18.412 22.361 18.635 22.31 18.782 22.211C18.845 22.171 18.895 22.114 18.928 22.048C18.94 22.023 18.948 21.996 18.951 21.968C18.853 21.928 18.749 21.906 18.644 21.903C18.629 21.903 18.614 21.902 18.597 21.902L18.598 21.901Z" fill="#4E5B31"/>
<path d="M16.332 22.875L16.556 22.77L16.436 22.635L16.024 22.811L16 22.816L15.976 22.811L15.564 22.635L15.444 22.77L15.668 22.875L15.702 22.885L15.148 23.293C15.148 23.293 15.231 23.362 15.312 23.436C15.348 23.469 15.394 23.511 15.426 23.546C15.439 23.56 15.452 23.575 15.463 23.591C15.47 23.602 15.476 23.614 15.481 23.626C15.486 23.624 15.491 23.62 15.495 23.616L15.5 23.611C15.522 23.59 15.543 23.569 15.563 23.546C15.616 23.486 15.686 23.398 15.749 23.321C15.872 23.167 15.974 23.035 15.993 23.01L16 23.001L16.007 23.01C16.026 23.035 16.128 23.167 16.251 23.321C16.313 23.398 16.384 23.486 16.437 23.546C16.457 23.569 16.478 23.59 16.5 23.611L16.505 23.616C16.505 23.616 16.514 23.624 16.519 23.626C16.525 23.614 16.531 23.602 16.537 23.591C16.548 23.575 16.561 23.56 16.574 23.546C16.606 23.511 16.652 23.469 16.688 23.436C16.769 23.362 16.851 23.294 16.852 23.293L16.298 22.885L16.332 22.875Z" fill="#4E5B31"/>
<path d="M17.827 22.524H17.822C17.557 22.524 17.232 22.614 16.857 22.792C17.079 22.924 17.333 22.993 17.592 22.992C17.869 22.989 18.141 22.913 18.38 22.772C18.351 22.723 18.312 22.681 18.266 22.649C18.189 22.593 18.051 22.525 17.827 22.524Z" fill="#4E5B31"/>
<path d="M17.812 21.96C17.89 21.844 17.927 21.705 17.916 21.566C17.881 21.558 17.846 21.554 17.811 21.554C17.628 21.554 17.161 21.646 16.71 22.498C17.397 22.4 17.688 22.152 17.812 21.96Z" fill="#4E5B31"/>
<path d="M22.233 19.968C22.161 20.043 22.117 20.139 22.106 20.242C22.106 20.242 22.181 20.249 22.294 20.249C22.442 20.249 22.589 20.237 22.735 20.211C22.905 20.18 23.001 20.036 23.052 19.92C23.086 19.841 23.11 19.758 23.123 19.672C22.597 19.687 22.349 19.841 22.233 19.967V19.968Z" fill="#4E5B31"/>
<path d="M21.774 20.899C21.765 20.899 21.755 20.899 21.745 20.899C21.631 20.899 21.518 20.91 21.406 20.932C21.153 20.985 20.927 21.127 20.771 21.333C20.928 21.371 21.089 21.39 21.251 21.389C21.41 21.389 21.57 21.371 21.724 21.333C21.986 21.267 22.099 21.167 22.147 21.095C22.168 21.065 22.182 21.031 22.188 20.995C22.19 20.981 22.191 20.967 22.189 20.953C22.054 20.919 21.913 20.9 21.774 20.899Z" fill="#4E5B31"/>
<path d="M21.314 19.633C21.314 19.633 21.306 19.633 21.302 19.633C21.296 19.633 21.29 19.633 21.284 19.633C21.189 19.636 21.043 19.675 20.882 19.849C20.697 20.049 20.532 20.377 20.391 20.825C20.527 20.763 20.654 20.682 20.767 20.584C21.058 20.333 21.285 20.017 21.429 19.66C21.393 19.643 21.354 19.634 21.315 19.632L21.314 19.633Z" fill="#4E5B31"/>
<path d="M27.038 7.682C26.381 7.932 25.86 8.155 25.214 8.407C24.781 8.653 24.311 9.087 23.752 9.073C23.15 9.332 22.324 10.181 21.424 10.31C19.864 10.579 18.682 11.19 17.057 11.172C15.687 10.92 14.249 11.114 13.036 10.513C13.328 11.322 13.315 13.36 11.991 12.985C11.339 12.498 10.482 12.584 9.919 12.836C8.704 15.755 6.859 11.963 7.888 14.476C8.031 14.975 7.82 15.664 8.433 15.891C8.786 16.074 8.493 16.779 8.887 16.843C9.473 17.343 10.349 17.495 11.131 17.846C12.382 17.69 12.896 17.275 13.288 18.581C14.921 18.737 12.627 17.934 14.819 17.247C16.372 17.524 17.464 16.446 18.813 16.193C19.207 15.777 18.9 15.009 19.467 14.72C20.004 14.577 20.548 14.721 20.977 15.019C21.407 14.699 21.906 14.463 22.432 14.705C22.905 14.93 22.833 14.903 22.738 14.517C22.231 13.743 21.315 13.232 21.262 12.45C21.366 11.384 21.888 11.452 22.669 11.258C23.094 9.98 24.977 9.885 25.63 8.842C26.029 8.289 26.957 8.414 27.037 7.681L27.038 7.682Z" fill="#D57800"/>
<path opacity="0.2" d="M27 5H5C3.343 5 2 6.343 2 8V9C2 7.343 3.343 6 5 6H27C28.657 6 30 7.343 30 9V8C30 6.343 28.657 5 27 5Z" fill="white"/>
</svg>
