<svg width="32" height="32" viewBox="0 0 32 32" fill="none" xmlns="http://www.w3.org/2000/svg">
<path d="M27 4H5C2.79086 4 1 5.79086 1 8V24C1 26.2091 2.79086 28 5 28H27C29.2091 28 31 26.2091 31 24V8C31 5.79086 29.2091 4 27 4Z" fill="#2D693B"/>
<path d="M15 4H17V28H15V4Z" fill="black"/>
<path d="M13 4H15V28H13V4Z" fill="#F8D047"/>
<path d="M17 4H19V28H17V4Z" fill="white"/>
<path d="M31 15V17H1V15L31 15Z" fill="black"/>
<path d="M31 13V15L1 15V13L31 13Z" fill="#F8D047"/>
<path d="M31 17V19H1V17L31 17Z" fill="white"/>
<path opacity="0.15" d="M27 4H5C2.791 4 1 5.791 1 8V24C1 26.209 2.791 28 5 28H27C29.209 28 31 26.209 31 24V8C31 5.791 29.209 4 27 4ZM30 24C30 25.654 28.654 27 27 27H5C3.346 27 2 25.654 2 24V8C2 6.346 3.346 5 5 5H27C28.654 5 30 6.346 30 8V24Z" fill="black"/>
<path d="M16 22C19.3137 22 22 19.3137 22 16C22 12.6863 19.3137 10 16 10C12.6863 10 10 12.6863 10 16C10 19.3137 12.6863 22 16 22Z" fill="#C42936"/>
<path d="M15.985 11.915L15.492 12.294L15.653 11.653L15.14 11.301L15.8 11.256L15.977 10.659L16.223 11.273L16.846 11.256L16.338 11.681L16.57 12.34L15.985 11.915Z" fill="#2D693B"/>
<path d="M16 10.667L16.2 11.281H16.846L16.323 11.661L16.523 12.275L16 11.895L15.477 12.275L15.677 11.661L15.154 11.281H15.8L16 10.667ZM16 10.505L15.952 10.651L15.764 11.231H15.001L15.126 11.321L15.619 11.679L15.43 12.258L15.382 12.404L15.507 12.314L16 11.956L16.493 12.314L16.618 12.404L16.57 12.258L16.381 11.679L16.874 11.321L16.999 11.231H16.236L16.048 10.651L16 10.505Z" fill="black"/>
<path d="M18.39 12.687L17.767 12.704L18.274 12.28L18.066 11.693L18.627 12.045L19.12 11.665L18.959 12.308L19.473 12.659L18.812 12.704L18.612 13.375L18.39 12.687Z" fill="#2D693B"/>
<path d="M19.135 11.685L18.936 12.299L19.458 12.678H18.812L18.613 13.292L18.413 12.678H17.767L18.289 12.299L18.089 11.685L18.611 12.064L19.134 11.684M19.229 11.553L19.105 11.643L18.612 12.001L18.119 11.643L17.994 11.553L18.042 11.699L18.23 12.279L17.737 12.637L17.612 12.727H17.766H18.375L18.563 13.307L18.611 13.453L18.659 13.307L18.847 12.727H19.456H19.61L19.485 12.637L18.992 12.279L19.18 11.699L19.229 11.553Z" fill="black"/>
<path d="M20.212 14.986L19.719 15.366L19.881 14.724L19.367 14.372L20.027 14.327L20.203 13.73L20.45 14.344L21.072 14.327L20.564 14.751L20.797 15.411L20.212 14.986Z" fill="#2D693B"/>
<path d="M20.227 13.738L20.427 14.352H21.073L20.55 14.732L20.749 15.346L20.227 14.966L19.705 15.346L19.905 14.732L19.383 14.352H20.029L20.228 13.738M20.228 13.576L20.18 13.722L19.992 14.302H19.383H19.229L19.354 14.392L19.847 14.75L19.659 15.33L19.611 15.476L19.736 15.385L20.229 15.027L20.722 15.385L20.847 15.475L20.799 15.329L20.611 14.75L21.104 14.392L21.228 14.302H21.074H20.464L20.276 13.723L20.228 13.576Z" fill="black"/>
<path d="M20.004 17.656L19.382 17.673L19.89 17.249L19.681 16.662L20.241 17.014L20.734 16.634L20.573 17.276L21.087 17.628L20.427 17.673L20.227 18.343L20.004 17.656Z" fill="#2D693B"/>
<path d="M19.704 16.654L20.226 17.034L20.748 16.654L20.549 17.268L21.072 17.648H20.426L20.226 18.262L20.027 17.648H19.381L19.903 17.269L19.703 16.655M19.608 16.524L19.656 16.67L19.844 17.25L19.351 17.608L19.226 17.698H19.38H19.989L20.177 18.278L20.225 18.424L20.273 18.278L20.461 17.699H21.071H21.225L21.101 17.609L20.608 17.251L20.796 16.672L20.844 16.526L20.719 16.616L20.226 16.974L19.733 16.616L19.608 16.524Z" fill="black"/>
<path d="M18.598 19.955L18.104 20.334L18.266 19.692L17.752 19.341L18.413 19.296L18.589 18.699L18.835 19.313L19.458 19.296L18.95 19.72L19.183 20.38L18.598 19.955Z" fill="#2D693B"/>
<path d="M18.612 18.707L18.811 19.321H19.457L18.935 19.7L19.134 20.314L18.611 19.934L18.089 20.314L18.289 19.7L17.767 19.321H18.413L18.613 18.707M18.613 18.545L18.565 18.691L18.377 19.271H17.768H17.614L17.739 19.361L18.232 19.719L18.044 20.299L17.996 20.445L18.121 20.355L18.614 19.997L19.107 20.355L19.231 20.445L19.183 20.299L18.995 19.719L19.488 19.361L19.613 19.271H19.459H18.85L18.662 18.691L18.613 18.545Z" fill="black"/>
<path d="M15.776 20.727L15.154 20.744L15.662 20.319L15.454 19.733L16.015 20.085L16.508 19.706L16.347 20.347L16.86 20.699L16.199 20.744L16 21.415L15.776 20.727Z" fill="#2D693B"/>
<path d="M16.523 19.725L16.323 20.339L16.846 20.719H16.2L16 21.333L15.8 20.719H15.154L15.677 20.339L15.477 19.725L16 20.105L16.523 19.725ZM16.618 19.594L16.493 19.684L16 20.042L15.507 19.684L15.382 19.594L15.43 19.74L15.619 20.319L15.126 20.677L15.001 20.767H15.764L15.952 21.347L16 21.493L16.048 21.347L16.236 20.767H16.999L16.874 20.677L16.381 20.319L16.57 19.74L16.618 19.594Z" fill="black"/>
<path d="M13.041 19.692L12.527 19.341L13.188 19.296L13.364 18.699L13.61 19.313L14.233 19.296L13.726 19.72L13.934 20.307L13.373 19.955L12.817 20.38L13.041 19.692Z" fill="#2D693B"/>
<path d="M13.388 18.707L13.588 19.321H14.234L13.712 19.7L13.912 20.314L13.39 19.934L12.867 20.314L13.067 19.7L12.545 19.321H13.191L13.39 18.707M13.39 18.545L13.342 18.691L13.154 19.271H12.545H12.391L12.516 19.361L13.009 19.719L12.821 20.299L12.773 20.445L12.897 20.355L13.39 19.997L13.883 20.355L14.008 20.445L13.96 20.299L13.772 19.719L14.265 19.361L14.39 19.271H14.236H13.626L13.438 18.691L13.39 18.545Z" fill="black"/>
<path d="M11.55 17.656L10.928 17.673L11.436 17.248L11.228 16.662L11.788 17.014L12.281 16.634L12.119 17.276L12.633 17.628L11.973 17.673L11.773 18.343L11.55 17.656Z" fill="#2D693B"/>
<path d="M12.295 16.654L12.095 17.268L12.617 17.648H11.971L11.772 18.262L11.572 17.648H10.926L11.449 17.268L11.25 16.654L11.772 17.034L12.294 16.654M12.389 16.523L12.264 16.614L11.771 16.972L11.278 16.614L11.153 16.524L11.201 16.67L11.389 17.249L10.896 17.607L10.772 17.697H10.926H11.536L11.724 18.276L11.772 18.422L11.82 18.276L12.008 17.696H12.617H12.771L12.646 17.606L12.153 17.248L12.341 16.668L12.389 16.522V16.523Z" fill="black"/>
<path d="M11.759 14.986L11.266 15.366L11.427 14.724L10.913 14.372L11.573 14.327L11.75 13.73L11.996 14.344L12.618 14.327L12.11 14.751L12.344 15.411L11.759 14.986Z" fill="#2D693B"/>
<path d="M11.773 13.738L11.972 14.352H12.618L12.096 14.731L12.296 15.345L11.774 14.965L11.252 15.345L11.451 14.731L10.928 14.351H11.574L11.774 13.737M11.774 13.575L11.726 13.721L11.538 14.3H10.928H10.774L10.898 14.39L11.391 14.748L11.203 15.327L11.155 15.473L11.28 15.383L11.773 15.025L12.266 15.383L12.391 15.474L12.343 15.328L12.155 14.748L12.648 14.39L12.773 14.3H12.619H12.01L11.822 13.72L11.774 13.575Z" fill="black"/>
<path d="M13.165 12.687L12.542 12.704L13.05 12.28L12.842 11.693L13.402 12.045L13.896 11.666L13.734 12.308L14.248 12.659L13.587 12.704L13.388 13.375L13.165 12.687Z" fill="#2D693B"/>
<path d="M12.865 11.685L13.388 12.065L13.91 11.686L13.71 12.3L14.232 12.679H13.586L13.386 13.293L13.187 12.679H12.541L13.063 12.3L12.863 11.686M12.768 11.555L12.816 11.701L13.004 12.281L12.511 12.639L12.386 12.729H12.54H13.149L13.337 13.309L13.385 13.455L13.433 13.309L13.621 12.729H14.231H14.385L14.26 12.639L13.767 12.281L13.955 11.701L14.003 11.555L13.878 11.645L13.385 12.003L12.892 11.645L12.768 11.555Z" fill="black"/>
<path opacity="0.2" d="M27 5H5C3.343 5 2 6.343 2 8V9C2 7.343 3.343 6 5 6H27C28.657 6 30 7.343 30 9V8C30 6.343 28.657 5 27 5Z" fill="white"/>
</svg>
