<svg width="32" height="32" viewBox="0 0 32 32" fill="none" xmlns="http://www.w3.org/2000/svg">
<path d="M5 4C2.791 4 1 5.791 1 8V16H16V4H5Z" fill="#0D285F"/>
<path d="M31 8C31 5.791 29.209 4 27 4H16V16H31V8Z" fill="#BE2A2C"/>
<path d="M5 28C2.791 28 1 26.209 1 24V16H16V28H5Z" fill="#BE2A2C"/>
<path d="M31 24C31 26.209 29.209 28 27 28H16V16H31V24Z" fill="#0D285F"/>
<path d="M13 4H19V28H13V4Z" fill="white"/>
<path d="M1 19L1 13L31 13V19L1 19Z" fill="white"/>
<path opacity="0.15" d="M27 4H5C2.791 4 1 5.791 1 8V24C1 26.209 2.791 28 5 28H27C29.209 28 31 26.209 31 24V8C31 5.791 29.209 4 27 4ZM30 24C30 25.654 28.654 27 27 27H5C3.346 27 2 25.654 2 24V8C2 6.346 3.346 5 5 5H27C28.654 5 30 6.346 30 8V24Z" fill="black"/>
<path d="M18.987 14.156C18.927 14.064 18.741 13.967 18.634 13.925L18.207 13.769C18.246 13.694 18.278 13.632 18.239 13.571C18.18 13.481 17.823 13.306 17.733 13.281C17.579 13.239 17.423 13.206 17.265 13.18C17.113 13.156 16.82 13.135 16.82 13.135C16.799 13.113 16.86 12.997 16.766 12.916C16.711 12.872 16.631 12.857 16.549 12.849C16.223 12.818 15.778 12.827 15.449 12.849C15.354 12.855 15.287 12.865 15.232 12.916C15.166 12.978 15.157 13.016 15.163 13.134C14.723 13.126 14.279 13.227 13.909 13.456C13.739 13.561 13.699 13.597 13.793 13.766C13.771 13.781 13.616 13.828 13.578 13.842C13.437 13.896 13.293 13.949 13.173 14.022C13.1 14.066 13.069 14.099 13.013 14.157L13.366 14.13C13.355 14.153 13.329 14.186 13.315 14.208C13.255 14.295 13.217 14.364 13.165 14.455C13.265 14.387 13.355 14.324 13.47 14.268C13.722 14.141 14.176 14.137 14.362 13.914C14.41 13.858 14.381 13.824 14.341 13.732C14.479 13.686 14.531 13.654 14.698 13.616C15.103 13.526 15.381 13.633 15.577 13.585C15.638 13.57 15.698 13.536 15.702 13.472L15.673 13.268H16.33C16.33 13.383 16.22 13.531 16.424 13.584C16.608 13.632 16.981 13.527 17.303 13.616L17.66 13.731C17.658 13.748 17.633 13.793 17.625 13.817C17.61 13.858 17.611 13.88 17.638 13.91C17.673 13.95 17.722 13.989 17.775 14.02C17.88 14.08 18.016 14.118 18.146 14.149C18.517 14.239 18.552 14.263 18.838 14.453C18.819 14.397 18.683 14.199 18.638 14.129L18.989 14.157L18.987 14.156Z" fill="#002D62"/>
<path d="M13.508 17.19C13.544 17.014 13.307 16.883 12.977 16.95C13.014 17.083 13.252 17.231 13.508 17.19Z" fill="#00863D"/>
<path d="M14.954 17.786L14.956 17.783C14.953 17.776 14.953 17.778 14.954 17.786Z" fill="#00863D"/>
<path d="M17.043 17.786L17.041 17.783C17.044 17.776 17.044 17.778 17.043 17.786Z" fill="#00863D"/>
<path d="M18.817 17.834L18.856 17.642C18.868 17.589 18.897 17.511 18.903 17.46C18.818 17.55 18.743 17.644 18.668 17.728C18.633 17.775 18.593 17.814 18.558 17.865C18.483 17.98 18.498 17.984 18.469 18.021C18.207 17.876 18.09 18.23 17.913 18.447C17.585 18.263 17.299 18.205 16.914 18.134C16.828 18.125 16.75 18.113 16.679 18.105C16.194 18.048 15.66 18.05 15.177 18.123C14.928 18.155 14.773 18.2 14.554 18.252C14.376 18.311 14.257 18.351 14.087 18.451C14.022 18.353 13.933 18.209 13.87 18.125C13.835 18.08 13.785 18.031 13.724 18C13.627 17.955 13.592 17.969 13.531 18.022L13.488 17.94C13.401 17.787 13.311 17.717 13.214 17.594L13.127 17.492C13.115 17.478 13.111 17.469 13.096 17.461C13.133 17.584 13.16 17.701 13.185 17.834C13.132 17.805 13.083 17.775 13.027 17.752C12.986 17.736 12.879 17.713 12.828 17.719L12.891 17.776C12.999 17.872 13.07 17.999 13.114 18.141C13.161 18.295 13.272 18.46 13.388 18.573C13.412 18.596 13.479 18.657 13.522 18.673C13.652 18.72 13.646 18.671 13.693 18.648C13.793 18.817 13.858 18.902 13.973 19.031C14.097 19.162 14.292 19.197 14.47 19.156C14.549 19.136 14.598 19.115 14.659 19.08C14.89 18.947 14.779 18.844 14.752 18.738C14.827 18.715 15.12 18.626 15.226 18.606C15.597 18.537 16.286 18.528 16.726 18.592C16.765 18.598 17.209 18.716 17.253 18.741C17.222 18.815 17.209 18.851 17.214 18.932C17.222 19.007 17.286 19.046 17.343 19.079C17.404 19.114 17.453 19.136 17.532 19.155C17.609 19.173 17.692 19.176 17.77 19.165C17.936 19.138 18.022 19.042 18.093 18.956C18.211 18.821 18.248 18.74 18.308 18.645C18.308 18.645 18.342 18.676 18.366 18.684C18.389 18.691 18.462 18.678 18.482 18.67C18.539 18.649 18.575 18.606 18.614 18.568C18.736 18.451 18.839 18.298 18.888 18.132C18.947 17.937 19.028 17.845 19.172 17.718C18.986 17.724 18.922 17.776 18.817 17.834Z" fill="#CE1126"/>
<path d="M14.552 14.519C14.556 14.545 14.554 16.688 14.554 16.91C14.554 17.122 14.556 17.257 14.657 17.391C14.74 17.507 14.879 17.603 15.015 17.635C15.111 17.655 15.465 17.647 15.588 17.647C15.861 17.634 15.894 17.695 15.998 17.83C16.116 17.64 16.245 17.637 16.487 17.647C16.61 17.647 16.874 17.657 16.983 17.633C17.114 17.602 17.216 17.539 17.3 17.435C17.439 17.276 17.431 17.078 17.431 16.87V14.61C17.431 14.508 17.419 14.533 17.471 14.48L17.811 14.123L14.173 14.125L14.55 14.52L14.552 14.519Z" fill="white"/>
<path d="M15.688 15.583V14.122H14.183L14.557 14.517L14.561 15.583H15.689H15.688Z" fill="#002D62"/>
<path d="M16.291 15.583V14.122H17.824L17.433 14.541V15.583H16.291ZM15.688 16.186H14.55L14.547 17.106C14.599 17.508 14.896 17.645 15.162 17.643C15.342 17.645 15.404 17.642 15.688 17.64V16.185V16.186Z" fill="#CE1126"/>
<path d="M16.291 16.186H17.436L17.432 17.106C17.405 17.504 17.083 17.645 16.817 17.643L16.291 17.64V16.185V16.186Z" fill="#002D62"/>
<path d="M15.997 17.853L15.984 17.833C15.961 17.797 15.952 17.783 15.922 17.754C15.827 17.659 15.76 17.659 15.625 17.66H15.595C15.572 17.66 15.541 17.66 15.505 17.66C15.343 17.661 15.099 17.664 15.019 17.647C14.839 17.619 14.722 17.501 14.655 17.408C14.547 17.255 14.547 17.125 14.547 16.909V16.689C14.547 16.117 14.548 14.615 14.545 14.523L14.15 14.109L17.85 14.107L17.488 14.487C17.481 14.494 17.476 14.499 17.471 14.504C17.4563 14.5187 17.4493 14.538 17.45 14.562C17.45 14.574 17.45 14.588 17.45 14.607V16.898C17.45 17.098 17.45 17.286 17.316 17.441C17.233 17.539 17.111 17.615 16.992 17.644C16.903 17.663 16.717 17.661 16.582 17.659C16.548 17.659 16.517 17.659 16.492 17.659C16.473 17.659 16.452 17.659 16.43 17.659C16.342 17.657 16.243 17.655 16.179 17.681C16.114 17.708 16.058 17.772 16.007 17.838L15.995 17.853H15.997ZM15.652 17.633C15.773 17.633 15.845 17.639 15.941 17.735C15.97 17.763 15.981 17.778 15.999 17.806C16.049 17.742 16.105 17.682 16.171 17.655C16.24 17.627 16.342 17.629 16.432 17.631C16.454 17.631 16.474 17.631 16.493 17.631C16.518 17.631 16.549 17.631 16.583 17.631C16.717 17.633 16.901 17.635 16.987 17.617C17.101 17.59 17.217 17.517 17.297 17.423C17.425 17.276 17.425 17.092 17.425 16.897V14.606C17.425 14.587 17.425 14.573 17.425 14.561C17.424 14.515 17.425 14.511 17.454 14.483C17.459 14.479 17.464 14.473 17.47 14.467L17.789 14.132L14.214 14.134L14.572 14.509V14.514C14.575 14.53 14.576 15.18 14.575 16.688V16.908C14.575 17.118 14.575 17.245 14.678 17.391C14.742 17.48 14.854 17.592 15.025 17.619C15.102 17.635 15.355 17.633 15.506 17.631C15.542 17.631 15.573 17.631 15.596 17.631H15.626C15.635 17.631 15.644 17.631 15.652 17.631V17.633Z" fill="black"/>
<path d="M13.662 14.647C13.867 15.044 14.154 15.065 13.718 15.518C13.73 15.583 13.918 15.518 13.918 15.518C13.809 16.077 13.453 16.018 14.213 15.789C14.089 15.877 14.124 16.009 14.124 16.009L14.295 16.041C14.295 16.041 14.354 16.123 14.054 16.135C13.634 16.309 13.913 16.715 14.167 16.868C14.35 17.042 13.964 17.346 14.213 17.441C15.255 17.477 14.283 18.755 13.918 18.07C13.918 18.07 14.012 18.152 14.15 18.058C14.326 17.805 13.677 17.986 13.576 17.733C13.718 17.758 13.871 17.644 13.871 17.644C13.573 17.661 13.178 17.126 12.978 16.95C12.978 16.95 13.287 16.847 13.491 16.965C13.491 16.789 13.195 16.66 13.142 16.442C13.089 16.224 13.343 16.073 13.245 15.981C13.147 15.889 13.149 15.171 13.662 14.647Z" fill="#00863D"/>
<path d="M18.335 14.647C18.13 15.044 17.843 15.065 18.279 15.518C18.267 15.583 18.079 15.518 18.079 15.518C18.188 16.077 18.544 16.018 17.784 15.789C17.908 15.877 17.873 16.009 17.873 16.009L17.702 16.041C17.702 16.041 17.643 16.123 17.943 16.135C18.363 16.309 18.084 16.715 17.83 16.868C17.647 17.042 18.033 17.346 17.784 17.441C16.742 17.477 17.714 18.755 18.079 18.07C18.079 18.07 17.985 18.152 17.847 18.058C17.671 17.805 18.32 17.986 18.421 17.733C18.279 17.758 18.126 17.644 18.126 17.644C18.424 17.661 18.819 17.126 19.019 16.95C19.019 16.95 18.71 16.847 18.506 16.965C18.506 16.789 18.802 16.66 18.855 16.442C18.908 16.224 18.654 16.073 18.752 15.981C18.85 15.889 18.848 15.171 18.335 14.647Z" fill="#00863D"/>
<path opacity="0.2" d="M27 5H5C3.343 5 2 6.343 2 8V9C2 7.343 3.343 6 5 6H27C28.657 6 30 7.343 30 9V8C30 6.343 28.657 5 27 5Z" fill="white"/>
</svg>
