<svg width="32" height="32" viewBox="0 0 32 32" fill="none" xmlns="http://www.w3.org/2000/svg">
<path d="M27 28L15 28L15 4L27 4C29.208 4 31 5.792 31 8L31 24C31 26.208 29.208 28 27 28Z" fill="white"/>
<path d="M5 4H16V28H5C2.792 28 1 26.208 1 24V8C1 5.792 2.792 4 5 4Z" fill="#2B6536"/>
<path opacity="0.15" d="M27 4H5C2.791 4 1 5.791 1 8V24C1 26.209 2.791 28 5 28H27C29.209 28 31 26.209 31 24V8C31 5.791 29.209 4 27 4ZM30 24C30 25.654 28.654 27 27 27H5C3.346 27 2 25.654 2 24V8C2 6.346 3.346 5 5 5H27C28.654 5 30 6.346 30 8V24Z" fill="black"/>
<path d="M19.091 17.427L20.769 19.737V16.882L23.483 16L20.769 15.118V12.263L19.091 14.573L16.376 13.691L18.054 16L16.376 18.309L19.091 17.427Z" fill="#C22B38"/>
<path d="M14.345 20.907C11.635 18.737 11.197 14.781 13.367 12.071C15.537 9.361 19.493 8.923 22.203 11.093C22.564 11.382 22.892 11.71 23.181 12.071C21.011 8.313 16.205 7.025 12.447 9.195C8.689 11.365 7.401 16.171 9.571 19.929C11.741 23.687 16.547 24.975 20.305 22.805C21.5 22.115 22.492 21.123 23.181 19.929C21.011 22.639 17.055 23.077 14.345 20.907Z" fill="#C22B38"/>
<path opacity="0.2" d="M27 5H5C3.343 5 2 6.343 2 8V9C2 7.343 3.343 6 5 6H27C28.657 6 30 7.343 30 9V8C30 6.343 28.657 5 27 5Z" fill="white"/>
</svg>
