<svg width="32" height="32" viewBox="0 0 32 32" fill="none" xmlns="http://www.w3.org/2000/svg">
<path d="M1 24C1 26.209 2.791 28 5 28H27C29.209 28 31 26.209 31 24V21H1V24Z" fill="#DA352E"/>
<path d="M1 15H31V22H1V15Z" fill="#1F4C9E"/>
<path d="M27 4H5C2.791 4 1 5.791 1 8V16H31V8C31 5.791 29.209 4 27 4Z" fill="#FADF4B"/>
<path opacity="0.15" d="M27 4H5C2.791 4 1 5.791 1 8V24C1 26.209 2.791 28 5 28H27C29.209 28 31 26.209 31 24V8C31 5.791 29.209 4 27 4ZM30 24C30 25.654 28.654 27 27 27H5C3.346 27 2 25.654 2 24V8C2 6.346 3.346 5 5 5H27C28.654 5 30 6.346 30 8V24Z" fill="black"/>
<path d="M12.032 11.93C12.027 11.925 12.022 11.926 12.02 11.927C12.008 11.932 11.983 11.942 11.97 12.681C11.963 13.092 11.96 13.675 11.963 14.368V14.371L13.024 15.442L13.415 15.837L13.598 15.386L13.632 15.115L14.011 13.964V13.96C14.011 13.96 12.255 12.16 12.032 11.93Z" fill="#FADF4B"/>
<path d="M13.433 15.926L11.914 14.391V14.37C11.911 13.678 11.914 13.094 11.921 12.679C11.934 11.907 11.955 11.898 12.002 11.88L12.033 11.868L12.069 11.895C12.291 12.124 14.049 13.925 14.049 13.925L14.069 13.945L14.062 13.972L13.681 15.13L13.646 15.405L13.434 15.926H13.433ZM13.074 15.422L13.398 15.749L13.55 15.374L13.583 15.109L13.957 13.974C13.769 13.782 12.385 12.364 12.047 12.017C12.039 12.098 12.028 12.278 12.021 12.682C12.014 13.092 12.012 13.669 12.014 14.35L13.075 15.421L13.074 15.422Z" fill="black"/>
<path d="M11.869 20.426L11.75 20.282L11.038 20.961L11.036 20.963L11.032 21.025L11.038 21.03V21.032C11.027 21.038 10.939 21.081 10.845 21.088H10.84L10.839 21.093C10.839 21.096 10.745 21.388 10.638 21.477L10.646 21.488C10.777 21.399 10.985 21.321 11.033 21.316H11.039V21.309C11.042 21.232 11.055 21.134 11.104 21.104L11.115 21.102H11.164L11.865 20.43L11.869 20.426Z" fill="#B4BBC0"/>
<path d="M12.23 22.212L12.228 22.214L12.224 22.276L12.23 22.282C12.23 22.282 12.23 22.284 12.229 22.284C12.218 22.289 12.133 22.332 12.04 22.339C12.04 22.339 12.038 22.339 12.037 22.339H12.032L12.031 22.344C12.031 22.347 11.937 22.639 11.83 22.728L11.838 22.739C11.969 22.65 12.177 22.572 12.225 22.567H12.231V22.56C12.233 22.483 12.247 22.385 12.296 22.355L12.308 22.352H12.356L13.654 21.091L13.535 20.947L12.23 22.212Z" fill="#B4BBC0"/>
<path d="M12.005 11.428C12.002 11.423 11.996 11.417 11.989 11.41L11.978 11.401L11.98 11.415C11.997 11.519 11.985 11.621 11.946 11.71C11.933 11.738 11.918 11.765 11.9 11.79L11.897 11.788L11.892 11.785C11.89 11.78 11.835 11.661 11.829 11.534V11.531L11.826 11.53C11.823 11.529 11.476 11.404 11.372 11.264L11.363 11.27C11.462 11.431 11.555 11.701 11.561 11.772V11.776H11.566C11.658 11.781 11.776 11.8 11.811 11.866L11.813 11.877H11.815C11.695 11.969 11.535 11.987 11.385 11.925L11.38 11.934L11.383 11.936C11.383 11.936 11.386 11.938 11.388 11.94C11.401 11.949 11.415 11.957 11.429 11.966C11.521 12.019 11.62 12.047 11.713 12.047C11.759 12.047 11.804 12.04 11.846 12.026C11.94 11.995 12.014 11.93 12.052 11.843C12.106 11.722 12.088 11.567 12.005 11.428Z" fill="#B4BBC0"/>
<path d="M11.175 13.512C11.18 13.487 11.175 13.466 11.162 13.452C11.152 13.442 11.138 13.437 11.121 13.437C11.114 13.437 11.107 13.438 11.099 13.44C11.113 13.422 11.12 13.409 11.12 13.402L11.114 13.386C11.174 13.318 11.271 13.199 11.264 13.137C11.262 13.124 11.257 13.115 11.247 13.108C11.194 13.073 11.046 13.191 10.983 13.246L10.959 13.236C10.952 13.236 10.941 13.243 10.925 13.256C10.896 13.196 10.835 13.053 10.821 12.897V12.894L10.817 12.893C10.812 12.891 10.271 12.726 10.102 12.519L10.094 12.525C10.256 12.764 10.418 13.171 10.432 13.278V13.282H10.437L10.439 13.284L10.441 13.282C10.569 13.282 10.735 13.301 10.806 13.383C10.799 13.393 10.791 13.406 10.791 13.413C10.789 13.425 10.792 13.439 10.799 13.456C10.778 13.477 10.714 13.536 10.633 13.55C10.534 13.568 10.441 13.457 10.44 13.456V13.454H10.431V13.458C10.418 13.497 10.412 13.538 10.412 13.58C10.412 13.798 10.581 13.976 10.789 13.976C10.84 13.976 10.89 13.966 10.936 13.945L10.943 13.942L10.933 13.932C10.933 13.932 10.838 13.875 10.829 13.762C10.823 13.685 10.875 13.614 10.908 13.576C10.917 13.583 10.934 13.593 10.944 13.593H10.946L10.961 13.584C10.955 13.61 10.959 13.633 10.973 13.648C10.986 13.661 11.007 13.666 11.031 13.661C11.039 13.699 11.06 13.736 11.089 13.766C11.128 13.806 11.178 13.828 11.225 13.828C11.258 13.828 11.287 13.816 11.308 13.794C11.36 13.74 11.347 13.639 11.278 13.57C11.249 13.54 11.212 13.52 11.175 13.512Z" fill="#B4BBC0"/>
<path d="M17.852 21.113C17.835 20.918 17.174 20.021 17.146 19.983L17.144 19.981H17.141C17.141 19.981 16.743 19.93 16.532 19.924C16.455 19.922 16.422 19.926 16.408 19.931C16.4 19.868 16.392 19.811 16.385 19.763V19.754C16.371 19.651 16.36 19.589 16.36 19.589L16.358 19.577L16.01 19.843L15.662 19.577L15.66 19.589C15.66 19.589 15.651 19.651 15.636 19.754L15.635 19.763C15.628 19.811 15.62 19.868 15.612 19.931C15.597 19.926 15.565 19.922 15.488 19.924C15.277 19.93 14.883 19.98 14.879 19.981H14.876L14.874 19.984C14.846 20.022 14.184 20.919 14.168 21.114C14.159 21.222 14.157 21.31 14.217 21.366C14.259 21.406 14.328 21.425 14.429 21.425C14.482 21.425 14.544 21.42 14.615 21.409C14.617 21.409 14.809 21.372 14.981 21.355C14.936 21.561 14.886 21.847 14.867 21.951C14.863 21.966 14.86 21.979 14.86 21.992C14.859 22.015 14.866 22.034 14.88 22.048C14.901 22.069 14.939 22.08 14.995 22.08C15.005 22.08 15.016 22.08 15.028 22.079C15.204 22.068 15.328 22.037 15.419 22.014H15.423C15.417 22.153 15.41 22.326 15.4 22.446C15.4 22.446 15.4 22.448 15.4 22.449C15.399 22.465 15.397 22.479 15.396 22.494C15.396 22.5 15.397 22.506 15.399 22.512C15.418 22.598 15.518 22.632 15.596 22.632C15.607 22.632 15.617 22.632 15.626 22.63C15.757 22.613 15.992 22.462 16.009 22.451C16.026 22.462 16.262 22.614 16.392 22.63C16.401 22.631 16.412 22.632 16.422 22.632C16.5 22.632 16.6 22.598 16.619 22.512C16.62 22.506 16.621 22.5 16.622 22.493C16.621 22.479 16.619 22.465 16.618 22.448C16.618 22.448 16.618 22.446 16.618 22.445C16.608 22.323 16.6 22.142 16.595 22.013H16.599C16.69 22.037 16.814 22.069 16.99 22.079C17.002 22.079 17.012 22.08 17.023 22.08C17.079 22.08 17.117 22.07 17.138 22.048C17.152 22.034 17.159 22.015 17.158 21.992C17.158 21.98 17.155 21.966 17.151 21.952C17.133 21.848 17.082 21.562 17.037 21.356C17.209 21.372 17.401 21.409 17.404 21.41C17.475 21.421 17.537 21.426 17.59 21.426C17.691 21.426 17.76 21.407 17.802 21.367C17.862 21.31 17.86 21.223 17.851 21.115L17.852 21.113Z" fill="#FADF4B"/>
<path d="M16.423 22.68C16.41 22.68 16.399 22.68 16.387 22.679C16.267 22.663 16.079 22.553 16.009 22.509C15.939 22.553 15.751 22.664 15.632 22.679C15.52 22.69 15.378 22.645 15.35 22.522C15.348 22.515 15.347 22.506 15.347 22.498L15.352 22.433C15.36 22.331 15.367 22.193 15.371 22.077C15.283 22.098 15.174 22.12 15.031 22.129C14.934 22.133 14.881 22.119 14.845 22.084C14.821 22.062 14.808 22.028 14.81 21.992C14.81 21.977 14.813 21.959 14.819 21.939C14.838 21.832 14.878 21.604 14.918 21.414C14.769 21.432 14.625 21.459 14.625 21.459C14.389 21.495 14.259 21.476 14.182 21.404C14.105 21.332 14.107 21.228 14.118 21.111C14.137 20.896 14.806 19.994 14.834 19.956L14.846 19.94L14.868 19.934C14.914 19.928 15.282 19.882 15.487 19.877C15.523 19.876 15.55 19.877 15.57 19.877C15.576 19.834 15.581 19.794 15.587 19.759C15.603 19.646 15.612 19.584 15.612 19.584L15.614 19.571L15.628 19.49L16.011 19.783L16.398 19.488L16.409 19.574C16.409 19.584 16.419 19.646 16.434 19.75C16.44 19.792 16.446 19.833 16.452 19.877C16.473 19.877 16.5 19.877 16.535 19.877C16.74 19.882 17.107 19.928 17.148 19.933L17.168 19.936L17.184 19.952C17.215 19.994 17.884 20.896 17.903 21.111C17.913 21.229 17.915 21.332 17.839 21.404C17.762 21.477 17.626 21.494 17.399 21.46C17.396 21.46 17.252 21.432 17.103 21.415C17.143 21.608 17.185 21.843 17.202 21.938C17.208 21.958 17.211 21.977 17.211 21.994C17.213 22.031 17.2 22.063 17.175 22.087C17.141 22.121 17.08 22.131 16.991 22.131C16.846 22.122 16.736 22.1 16.65 22.079C16.656 22.229 16.662 22.35 16.669 22.433L16.674 22.491C16.674 22.509 16.673 22.517 16.67 22.526C16.646 22.634 16.529 22.683 16.425 22.683L16.423 22.68ZM16.009 22.389L16.036 22.407C16.102 22.45 16.296 22.566 16.398 22.579C16.441 22.587 16.554 22.569 16.57 22.5L16.567 22.448C16.559 22.351 16.551 22.205 16.545 22.014L16.543 21.949L16.606 21.963C16.703 21.987 16.824 22.018 16.994 22.028C17.004 22.028 17.014 22.028 17.024 22.028C17.082 22.028 17.099 22.015 17.103 22.011C17.106 22.009 17.109 22.005 17.109 21.993C17.109 21.983 17.107 21.974 17.104 21.965L17.102 21.952C17.083 21.846 17.033 21.566 16.99 21.365L16.975 21.298L17.043 21.304C17.217 21.321 17.413 21.358 17.415 21.358C17.595 21.383 17.718 21.375 17.769 21.327C17.809 21.289 17.811 21.226 17.802 21.116C17.79 20.975 17.342 20.331 17.116 20.026C17.033 20.016 16.711 19.978 16.53 19.972C16.448 19.971 16.428 19.975 16.425 19.976L16.367 19.997L16.359 19.936C16.35 19.873 16.342 19.816 16.336 19.768C16.331 19.728 16.326 19.694 16.322 19.667L16.011 19.905L15.7 19.667C15.696 19.692 15.692 19.724 15.686 19.759C15.678 19.817 15.67 19.873 15.663 19.936L15.655 19.998L15.597 19.977C15.597 19.977 15.576 19.971 15.491 19.973C15.309 19.978 14.986 20.017 14.905 20.027C14.678 20.333 14.232 20.976 14.219 21.117C14.21 21.227 14.212 21.291 14.252 21.328C14.304 21.376 14.42 21.386 14.609 21.358C14.609 21.358 14.8 21.321 14.978 21.304L15.046 21.298L15.031 21.365C14.988 21.564 14.94 21.834 14.92 21.949L14.917 21.965C14.914 21.976 14.912 21.985 14.912 21.992C14.912 22.006 14.915 22.01 14.917 22.011C14.923 22.017 14.941 22.029 14.997 22.029C15.007 22.029 15.017 22.029 15.028 22.029C15.196 22.019 15.318 21.988 15.406 21.966L15.471 21.949L15.475 22.014C15.47 22.143 15.462 22.324 15.453 22.449L15.448 22.498C15.465 22.57 15.572 22.586 15.622 22.58C15.724 22.567 15.917 22.452 15.983 22.408L16.01 22.39L16.009 22.389ZM16.568 22.447C16.568 22.447 16.568 22.452 16.568 22.454V22.447Z" fill="black"/>
<path d="M21.346 10.232C20.294 9.71999 17.762 8.27999 17.021 9.55399C16.569 10.064 15.752 9.60499 15.214 9.95499C14.524 8.64999 13.046 8.89099 11.637 9.61399C10.554 10.276 10.028 10.295 11.189 10.253C11.055 10.433 11.505 10.294 11.728 10.254C11.568 10.465 11.951 10.385 12.262 10.291C11.992 10.547 12.549 10.455 12.731 10.364C12.473 10.597 12.832 10.492 13.061 10.422C12.788 10.718 13.161 10.712 13.462 10.496C13.198 10.796 13.499 10.772 13.735 10.663C13.498 10.944 13.764 10.978 14 10.845C13.811 11.087 14 11.164 14.219 11.066C14.1 11.327 14.339 11.322 14.481 11.164C14.46 11.547 14.629 11.371 14.777 11.164C14.718 11.44 14.858 11.608 15.037 11.328C15.047 11.472 14.993 11.589 15.119 11.568C14.912 11.857 14.158 13.326 14.593 12.922C14.719 12.91 14.835 12.771 15.024 12.625C14.996 12.718 15.058 12.667 15.108 12.63C15.017 13.144 15.429 12.222 15.358 12.644C15.338 12.692 15.335 12.778 15.413 12.817C15.39 12.708 15.569 12.616 15.604 12.476C15.627 12.667 15.707 12.313 15.88 12.511C15.888 12.504 15.929 12.511 15.915 12.494C15.947 12.487 15.955 12.54 15.965 12.569C16.009 12.526 15.988 12.441 15.975 12.409C15.603 11.851 16.899 11.482 16.01 12.51C16.508 12.081 16.264 13.056 16.464 12.682C16.519 12.722 16.456 12.471 16.445 12.429C16.612 12.485 16.678 12.544 16.739 12.655C16.909 12.374 16.323 12.34 16.451 11.987L16.459 12.01L16.461 12.006C16.549 12.184 16.686 11.702 16.663 11.707C16.671 11.716 16.685 11.742 16.692 11.758C16.711 11.707 16.783 11.589 16.793 11.491L16.8 11.495C16.801 11.472 16.803 11.435 16.805 11.36C16.94 11.589 17.107 11.523 17.064 11.255C17.229 11.462 17.396 11.497 17.351 11.199C17.512 11.385 17.727 11.381 17.624 11.121C17.837 11.227 18.031 11.158 17.85 10.908C18.088 11.054 18.35 11.022 18.114 10.732C18.364 10.859 18.65 10.892 18.399 10.581C18.684 10.804 19.062 10.832 18.81 10.542C18.992 10.591 19.341 10.705 19.178 10.526C19.341 10.596 19.882 10.645 19.596 10.419C19.869 10.522 20.267 10.605 20.063 10.385C20.397 10.499 20.753 10.549 20.357 10.275C20.669 10.44 21.195 10.51 20.71 10.257C21.051 10.397 21.189 10.305 20.824 10.142C21.089 10.219 21.467 10.361 21.343 10.232H21.346Z" fill="#3F2921"/>
<path d="M19.988 11.93C19.993 11.925 19.998 11.926 20 11.927C20.012 11.932 20.037 11.942 20.05 12.681C20.057 13.092 20.06 13.675 20.057 14.368V14.371L18.996 15.442L18.605 15.837L18.422 15.386L18.388 15.115L18.009 13.964V13.96C18.009 13.96 19.765 12.16 19.988 11.93Z" fill="#FADF4B"/>
<path d="M18.586 15.926L18.372 15.393L18.337 15.122L17.951 13.952L17.971 13.926C17.971 13.926 19.729 12.126 19.951 11.896C19.969 11.875 19.997 11.872 20.021 11.883C20.062 11.9 20.084 11.909 20.098 12.681C20.106 13.096 20.108 13.68 20.105 14.369V14.39L20.091 14.408L18.585 15.928L18.586 15.926ZM18.47 15.374L18.622 15.749L20.006 14.351C20.008 13.667 20.006 13.092 19.999 12.683C19.992 12.279 19.981 12.099 19.972 12.018C19.635 12.364 18.251 13.782 18.063 13.975L18.434 15.101L18.47 15.375V15.374Z" fill="black"/>
<path d="M20.151 20.426L20.27 20.282L20.982 20.961L20.984 20.963L20.988 21.025L20.982 21.03V21.032C20.993 21.038 21.081 21.081 21.175 21.088H21.18L21.181 21.093C21.181 21.096 21.275 21.388 21.382 21.477L21.374 21.488C21.243 21.399 21.035 21.321 20.987 21.316H20.981V21.309C20.978 21.232 20.965 21.134 20.916 21.104L20.905 21.102H20.856L20.155 20.43L20.151 20.426Z" fill="#B4BBC0"/>
<path d="M19.789 22.212L19.791 22.214L19.795 22.276L19.789 22.282C19.789 22.282 19.789 22.284 19.79 22.284C19.801 22.289 19.886 22.332 19.979 22.339C19.979 22.339 19.981 22.339 19.982 22.339H19.987L19.988 22.344C19.988 22.347 20.082 22.639 20.189 22.728L20.181 22.739C20.05 22.65 19.842 22.572 19.794 22.567H19.788V22.56C19.786 22.483 19.772 22.385 19.723 22.355L19.711 22.352H19.663L18.365 21.091L18.484 20.947L19.789 22.212Z" fill="#B4BBC0"/>
<path d="M20.015 11.428C20.018 11.423 20.024 11.417 20.031 11.41L20.042 11.401L20.04 11.415C20.023 11.519 20.035 11.621 20.074 11.71C20.087 11.738 20.102 11.765 20.12 11.79L20.123 11.788L20.128 11.785C20.13 11.78 20.185 11.661 20.191 11.534V11.531L20.194 11.53C20.197 11.529 20.544 11.404 20.648 11.264L20.657 11.27C20.558 11.431 20.465 11.701 20.459 11.772V11.776H20.454C20.362 11.781 20.244 11.8 20.209 11.866L20.207 11.877H20.205C20.325 11.969 20.485 11.987 20.635 11.925L20.64 11.934L20.637 11.936C20.637 11.936 20.634 11.938 20.632 11.94C20.619 11.949 20.605 11.957 20.591 11.966C20.499 12.019 20.4 12.047 20.307 12.047C20.261 12.047 20.216 12.04 20.174 12.026C20.08 11.995 20.006 11.93 19.968 11.843C19.914 11.722 19.932 11.567 20.015 11.428Z" fill="#B4BBC0"/>
<path d="M20.845 13.512C20.84 13.487 20.845 13.466 20.858 13.452C20.868 13.442 20.882 13.437 20.899 13.437C20.906 13.437 20.913 13.438 20.921 13.44C20.907 13.422 20.9 13.409 20.9 13.402L20.906 13.386C20.846 13.318 20.749 13.199 20.756 13.137C20.758 13.124 20.763 13.115 20.773 13.108C20.826 13.073 20.974 13.191 21.037 13.246L21.061 13.236C21.068 13.236 21.079 13.243 21.095 13.256C21.124 13.196 21.185 13.053 21.199 12.897V12.894L21.203 12.893C21.208 12.891 21.749 12.726 21.918 12.519L21.926 12.525C21.764 12.764 21.602 13.171 21.588 13.278V13.282H21.583L21.581 13.284L21.579 13.282C21.451 13.282 21.285 13.301 21.214 13.383C21.221 13.393 21.229 13.406 21.229 13.413C21.231 13.425 21.228 13.439 21.221 13.456C21.242 13.477 21.306 13.536 21.387 13.55C21.486 13.568 21.579 13.457 21.58 13.456V13.454H21.589V13.458C21.602 13.497 21.608 13.538 21.608 13.58C21.608 13.798 21.439 13.976 21.231 13.976C21.18 13.976 21.13 13.966 21.084 13.945L21.077 13.942L21.087 13.932C21.087 13.932 21.182 13.875 21.191 13.762C21.197 13.685 21.145 13.614 21.112 13.576C21.103 13.583 21.086 13.593 21.076 13.593H21.074L21.059 13.584C21.065 13.61 21.061 13.633 21.047 13.648C21.034 13.661 21.013 13.666 20.989 13.661C20.981 13.699 20.96 13.736 20.931 13.766C20.892 13.806 20.842 13.828 20.795 13.828C20.762 13.828 20.733 13.816 20.712 13.794C20.66 13.74 20.673 13.639 20.742 13.57C20.771 13.54 20.808 13.52 20.845 13.512Z" fill="#B4BBC0"/>
<path opacity="0.2" d="M27 5H5C3.343 5 2 6.343 2 8V9C2 7.343 3.343 6 5 6H27C28.657 6 30 7.343 30 9V8C30 6.343 28.657 5 27 5Z" fill="white"/>
<path d="M16.157 19.762C16.068 19.762 15.977 19.756 15.887 19.745H15.885H15.883C15.9 19.745 15.87 19.742 15.87 19.742L15.853 19.74C15.196 19.644 14.62 19.286 14.187 18.705C13.759 18.13 13.49 17.362 13.409 16.486C13.401 16.404 13.396 16.118 13.396 15.804V15.801L13.394 15.799C13.324 15.728 11.617 13.995 11.316 13.683C11.311 13.678 11.306 13.679 11.304 13.68C11.246 13.704 11.253 15.055 11.269 17.113C11.274 17.747 11.279 18.346 11.279 18.791C11.279 19.048 11.33 19.47 11.472 19.886C11.553 20.123 11.656 20.334 11.777 20.512C11.919 20.721 12.088 20.887 12.278 21.005C12.516 21.153 12.788 21.227 13.093 21.227C13.486 21.227 13.932 21.104 14.427 20.858C14.43 20.857 14.767 20.733 15.147 20.538C15.498 20.358 15.959 20.079 16.162 19.772L16.169 19.761H16.156L16.157 19.762Z" fill="#FADF4B"/>
<path d="M13.093 21.278C12.78 21.278 12.497 21.201 12.252 21.049C12.056 20.927 11.882 20.757 11.736 20.541C11.612 20.359 11.508 20.144 11.425 19.903C11.28 19.481 11.229 19.052 11.229 18.792C11.229 18.378 11.225 17.83 11.22 17.244V17.114C11.192 13.82 11.211 13.664 11.284 13.634L11.316 13.621L11.352 13.65C11.59 13.897 12.722 15.046 13.205 15.537L13.443 15.779L13.445 15.801C13.445 16.108 13.451 16.399 13.458 16.482C13.538 17.349 13.804 18.108 14.226 18.676C14.651 19.247 15.215 19.598 15.859 19.692L15.876 19.694C15.876 19.694 15.883 19.694 15.888 19.695C15.982 19.707 16.07 19.713 16.157 19.713H16.261L16.205 19.8C15.995 20.118 15.527 20.402 15.171 20.584C14.782 20.784 14.444 20.907 14.442 20.908C13.95 21.153 13.493 21.279 13.094 21.279L13.093 21.278ZM11.332 13.773C11.294 14.129 11.308 15.772 11.319 17.113V17.243C11.325 17.829 11.329 18.377 11.329 18.792C11.329 19.045 11.379 19.461 11.52 19.871C11.6 20.104 11.701 20.31 11.819 20.486C11.957 20.69 12.12 20.851 12.304 20.965C12.834 21.293 13.545 21.241 14.405 20.816C14.414 20.813 14.748 20.69 15.124 20.496C15.444 20.332 15.857 20.085 16.073 19.812C16.014 19.81 15.956 19.805 15.898 19.798L15.723 19.771C15.103 19.649 14.56 19.293 14.146 18.737C13.713 18.154 13.44 17.379 13.358 16.492C13.351 16.409 13.345 16.123 13.345 15.823L13.134 15.609C12.68 15.148 11.652 14.104 11.332 13.775V13.773Z" fill="black"/>
<path d="M15.863 19.762C15.952 19.762 16.043 19.756 16.133 19.745H16.135H16.137C16.12 19.745 16.15 19.742 16.15 19.742L16.167 19.74C16.824 19.644 17.4 19.286 17.833 18.705C18.261 18.13 18.53 17.362 18.611 16.486C18.619 16.404 18.624 16.118 18.624 15.804V15.801L18.626 15.799C18.696 15.728 20.403 13.995 20.704 13.683C20.709 13.678 20.714 13.679 20.716 13.68C20.774 13.704 20.767 15.055 20.751 17.113C20.746 17.747 20.741 18.346 20.741 18.791C20.741 19.048 20.69 19.47 20.548 19.886C20.467 20.123 20.364 20.334 20.243 20.512C20.101 20.721 19.932 20.887 19.742 21.005C19.504 21.153 19.232 21.227 18.927 21.227C18.534 21.227 18.088 21.104 17.593 20.858C17.59 20.857 17.253 20.733 16.873 20.538C16.522 20.358 16.061 20.079 15.858 19.772L15.851 19.761H15.864L15.863 19.762Z" fill="#FADF4B"/>
<path d="M18.927 21.278C18.528 21.278 18.071 21.153 17.571 20.904C17.571 20.904 17.235 20.781 16.85 20.583C16.494 20.401 16.026 20.117 15.816 19.8L15.759 19.712H15.863C15.951 19.712 16.039 19.706 16.126 19.694H16.131C16.136 19.694 16.14 19.693 16.144 19.692L16.161 19.69C16.804 19.596 17.369 19.245 17.793 18.674C18.215 18.105 18.481 17.346 18.561 16.48C18.568 16.402 18.574 16.124 18.575 15.802V15.781L18.59 15.763L18.815 15.534C19.298 15.043 20.43 13.894 20.669 13.646L20.69 13.625L20.73 13.629C20.809 13.661 20.829 13.816 20.802 17.111V17.241C20.797 17.826 20.792 18.375 20.792 18.789C20.792 19.05 20.741 19.479 20.596 19.9C20.513 20.141 20.409 20.356 20.285 20.538C20.139 20.754 19.965 20.925 19.769 21.046C19.524 21.198 19.241 21.275 18.928 21.275L18.927 21.278ZM15.947 19.811C16.163 20.084 16.576 20.331 16.896 20.495C17.271 20.688 17.606 20.811 17.609 20.812C18.479 21.242 19.187 21.291 19.715 20.964C19.899 20.85 20.063 20.689 20.201 20.485C20.32 20.309 20.421 20.103 20.5 19.87C20.641 19.46 20.691 19.044 20.691 18.791C20.691 18.376 20.695 17.828 20.7 17.242V17.112C20.712 15.702 20.725 14.12 20.688 13.772C20.366 14.103 19.339 15.145 18.886 15.606L18.675 15.82C18.675 16.143 18.669 16.409 18.661 16.489C18.579 17.374 18.307 18.15 17.874 18.733C17.46 19.29 16.917 19.645 16.297 19.767L16.119 19.795C16.063 19.802 16.006 19.806 15.947 19.809V19.811ZM20.742 13.718H20.741H20.742Z" fill="black"/>
<path d="M16 19.746C17.4481 19.746 18.622 18.1208 18.622 16.116C18.622 14.1112 17.4481 12.486 16 12.486C14.5519 12.486 13.378 14.1112 13.378 16.116C13.378 18.1208 14.5519 19.746 16 19.746Z" fill="#B4BBC0"/>
<path d="M16 19.796C14.526 19.796 13.328 18.146 13.328 16.116C13.328 14.086 14.527 12.436 16 12.436C17.473 12.436 18.672 14.087 18.672 16.116C18.672 18.145 17.473 19.796 16 19.796ZM16 12.536C14.582 12.536 13.427 14.142 13.427 16.117C13.427 18.092 14.581 19.697 16 19.697C17.419 19.697 18.573 18.091 18.573 16.117C18.573 14.143 17.419 12.536 16 12.536Z" fill="black"/>
<path d="M16 12.937C14.822 12.937 13.828 14.393 13.828 16.117C13.828 17.841 14.823 19.297 16 19.297C17.177 19.297 18.172 17.841 18.172 16.117C18.172 14.393 17.177 12.937 16 12.937Z" fill="#7BC1DD"/>
<path d="M16 19.346C14.795 19.346 13.778 17.867 13.778 16.117C13.778 14.367 14.796 12.887 16 12.887C17.204 12.887 18.222 14.366 18.222 16.117C18.222 17.868 17.204 19.346 16 19.346ZM16 12.986C14.85 12.986 13.877 14.42 13.877 16.116C13.877 17.812 14.849 19.246 16 19.246C17.151 19.246 18.123 17.812 18.123 16.116C18.123 14.42 17.151 12.986 16 12.986Z" fill="black"/>
</svg>
