<svg width="32" height="32" viewBox="0 0 32 32" fill="none" xmlns="http://www.w3.org/2000/svg">
<path d="M31 11H1V21H31V11Z" fill="white"/>
<path d="M5 4H27C29.2077 4 31 5.7923 31 8V12H1V8C1 5.7923 2.7923 4 5 4Z" fill="black"/>
<path d="M27 28L5 28C2.7923 28 1 26.2077 1 24V20L31 20V24C31 26.2077 29.2077 28 27 28Z" fill="#027B3B"/>
<path d="M2.2711 26.9105L15 16L2.2711 5.08948C1.493 5.81928 1 6.84898 1 7.99998V24C1 25.151 1.4929 26.1807 2.2711 26.9105Z" fill="#C50A14"/>
<path opacity="0.15" d="M27 4H5C2.7909 4 1 5.7908 1 8V24C1 26.2092 2.7909 28 5 28H27C29.2092 28 31 26.2092 31 24V8C31 5.7908 29.2092 4 27 4ZM30 24C30 25.6543 28.6543 27 27 27H5C3.3457 27 2 25.6543 2 24V8C2 6.3457 3.3457 5 5 5H27C28.6543 5 30 6.3457 30 8V24Z" fill="black"/>
<path opacity="0.2" d="M27 5H5C3.3431 5 2 6.3431 2 8V9C2 7.3431 3.3431 6 5 6H27C28.6569 6 30 7.3431 30 9V8C30 6.3431 28.6569 5 27 5Z" fill="white"/>
<path d="M18.2109 16C18.2109 14.1868 19.5105 12.678 21.2288 12.3518C21.0031 12.309 20.7705 12.2856 20.5324 12.2856C18.481 12.2856 16.8181 13.9486 16.8181 15.9999C16.8181 18.0512 18.4811 19.7142 20.5324 19.7142C20.7706 19.7142 21.0031 19.6909 21.2288 19.648C19.5105 19.3219 18.2109 17.8133 18.2109 16Z" fill="#C50A14"/>
<path d="M19.5354 18.2491L21.1192 17.1169L22.6906 18.2662L22.1033 16.41L23.682 15.2706L21.7352 15.2556L21.1394 13.4021L20.5236 15.249L18.5767 15.2429L20.1429 16.3993L19.5354 18.2491Z" fill="#C50A14"/>
</svg>
