<svg width="32" height="32" viewBox="0 0 32 32" fill="none" xmlns="http://www.w3.org/2000/svg">
<path d="M1 24C1 26.209 2.791 28 5 28H27C29.209 28 31 26.209 31 24V15H1V24Z" fill="#568FD9"/>
<path d="M27 4H5C2.791 4 1 5.791 1 8V16H31V8C31 5.791 29.209 4 27 4Z" fill="#62AF3F"/>
<path d="M1 8V24C1 25.372 1.692 26.581 2.745 27.302L31 16L2.745 4.698C1.692 5.418 1 6.628 1 8Z" fill="#D22D32"/>
<path d="M12.841 17.262C14.017 16.323 14.263 15.093 13.737 14.42C13.811 14.722 13.226 15.722 13.137 15.396C14.284 14.415 13.18 11.707 12.948 14.02C13.184 13.175 12.808 11.85 12.082 11.855C12.371 12.074 12.359 12.952 12.186 12.658C12.195 11.286 10.111 10.399 11.378 11.994C11.062 11.509 9.341 10.403 10.361 11.589C10.221 11.463 9.666 11.031 9.317 11.203C9.377 11.54 10.378 11.603 10.383 11.737C8.913 11.537 10.813 12.372 11.128 12.074C11.78 12.283 10.938 12.366 10.643 12.272C10.747 12.88 11.821 13.143 12.046 12.787C12.575 13.166 11.577 13.15 11.435 12.987C11.298 13.739 13.702 14.372 12.567 14.248C12.123 14.199 12.118 14.108 11.978 13.831C11.532 14.156 13.792 16.186 12.682 15.533C11.302 14.017 12.903 16.881 12.512 17.44C11.763 14.742 11.703 17.861 11.717 18.52C11.052 19.376 11.422 18.115 11.621 17.435C10.449 17.933 9.148 21.738 9.182 18.282C9.746 17.519 11.089 18.099 11.27 17.043C10.665 17.517 10.354 17.481 10.993 17.021C12.02 15.603 9.192 17.739 10.519 16.193C9.527 16.39 9.65 17.21 9.719 17.415C8.903 19.017 8.743 16.545 8.817 16.105C9.387 15.804 9.527 15.825 10.289 15.883C11.421 15.214 10.336 15.696 10.103 15.45C11.139 15.351 11.011 14.572 10.023 14.995C10.678 13.889 9.347 15.1 9.333 15.593C8.429 16.426 9.528 13.532 10.706 13.919C11.441 13.198 10.678 13.843 10.476 13.601C10.771 13.599 11.091 13.053 10.988 12.987C10.851 13.233 10.334 13.008 10.224 13.357C10.379 12.88 10.514 12.591 9.969 13.086C9.736 14.051 9.535 14.349 9.638 13.116C9.569 12.424 9.278 10.623 9.21 12.108C8.664 11.055 8.522 11.998 8.906 12.275C7.845 11.597 9.059 13.016 9.314 12.626C9.642 13.207 9.31 14.308 9.139 14.747C8.551 14.631 7.914 12.157 8.163 13.807C7.403 13.046 7.004 13.644 7.84 14.149C6.164 14.56 10.126 14.053 8.618 15.837C8.305 18.989 8.553 15.48 7.278 15.492C8.187 16.313 6.954 15.873 6.541 15.52C6.447 16.353 8.085 16.879 6.555 16.326C7.143 17.597 8.136 16.483 8.654 17.614C9.415 21.466 7.885 18.664 6.47 17.435C6.672 18.113 7.037 19.379 6.374 18.521C6.491 18.462 6.192 14.829 5.853 16.909C5.487 17.293 5.628 17.616 5.39 17.054C5.809 16.569 6.075 15.316 5.834 14.936C5.749 15.438 4.958 16.045 5.069 15.46C5.62 15.164 6.283 14.144 6.113 13.832C6.028 14.216 4.823 14.655 5.379 13.961C8.033 13.116 5.445 13.144 6.045 12.788C6.27 13.144 7.344 12.881 7.448 12.272C7.151 12.362 6.313 12.286 6.963 12.075C7.286 12.379 9.172 11.534 7.709 11.738C7.714 11.604 8.715 11.541 8.775 11.204C8.43 11.042 7.866 11.452 7.731 11.591C8.753 10.411 7.026 11.506 6.714 11.997C7.981 10.402 5.896 11.288 5.905 12.66C5.725 12.948 5.728 12.083 6.009 11.857C5.287 11.856 4.903 13.173 5.143 14.022C4.896 11.72 3.817 14.432 4.954 15.398C4.851 15.724 4.294 14.725 4.354 14.422C3.835 15.095 4.069 16.325 5.25 17.264C2.852 15.22 4.815 18.794 6.368 18.837C4.924 18.597 3.849 18.176 6.069 19.715C6.556 20.345 9.707 19.632 7.938 20.745C8.196 21.354 9.043 19.812 8.763 20.8C8.804 20.841 9.16 20.77 9.243 20.855C9.071 19.951 9.693 20.792 9.923 20.943C10.443 20.664 9.665 20.38 9.318 20.094C11.641 20.599 15.259 17.833 11.724 18.838C13.276 18.796 15.24 15.218 12.842 17.265L12.841 17.262Z" fill="#F5C851"/>
<path opacity="0.15" d="M27 4H5C2.791 4 1 5.791 1 8V24C1 26.209 2.791 28 5 28H27C29.209 28 31 26.209 31 24V8C31 5.791 29.209 4 27 4ZM30 24C30 25.654 28.654 27 27 27H5C3.346 27 2 25.654 2 24V8C2 6.346 3.346 5 5 5H27C28.654 5 30 6.346 30 8V24Z" fill="black"/>
<path opacity="0.2" d="M27 5H5C3.343 5 2 6.343 2 8V9C2 7.343 3.343 6 5 6H27C28.657 6 30 7.343 30 9V8C30 6.343 28.657 5 27 5Z" fill="white"/>
</svg>
