<svg width="32" height="32" viewBox="0 0 32 32" fill="none" xmlns="http://www.w3.org/2000/svg">
<path d="M1 11H31V21H1V11Z" fill="#F7DF4B"/>
<path d="M5 4H27C29.208 4 31 5.792 31 8V12H1V8C1 5.792 2.792 4 5 4Z" fill="#3C883A"/>
<path d="M27 28L5 28C2.792 28 1 26.208 1 24V20L31 20V24C31 26.208 29.208 28 27 28Z" fill="#C92D25"/>
<path opacity="0.15" d="M27 4H5C2.791 4 1 5.791 1 8V24C1 26.209 2.791 28 5 28H27C29.209 28 31 26.209 31 24V8C31 5.791 29.209 4 27 4ZM30 24C30 25.654 28.654 27 27 27H5C3.346 27 2 25.654 2 24V8C2 6.346 3.346 5 5 5H27C28.654 5 30 6.346 30 8V24Z" fill="black"/>
<path d="M16 22C19.3137 22 22 19.3137 22 16C22 12.6863 19.3137 10 16 10C12.6863 10 10 12.6863 10 16C10 19.3137 12.6863 22 16 22Z" fill="#1E44AA"/>
<path d="M16 10.909L15.777 11.595L16.697 14.426H15.47L15.332 14.85H19.265L19.849 14.426H17.143L16 10.908V10.909Z" fill="#F6DD4C"/>
<path d="M17.2852 14.0499L18.9074 11.8194L19.0796 11.9447L17.4574 14.1752L17.2852 14.0499Z" fill="#F6DD4C"/>
<path d="M20.842 14.427H20.12L17.711 16.177L17.332 15.01H16.886L18.101 18.751L18.685 19.175L17.849 16.601L20.842 14.427Z" fill="#F6DD4C"/>
<path d="M20.809 17.674L18.186 16.822L18.252 16.62L20.875 17.472L20.809 17.674Z" fill="#F6DD4C"/>
<path d="M18.992 20.119L18.769 19.433L16.36 17.683L17.352 16.962L17.214 16.538L14.032 18.85L13.809 19.536L15.999 17.945L18.991 20.119H18.992Z" fill="#F6DD4C"/>
<path d="M15.894 18.333H16.107V21.091H15.894V18.333Z" fill="#F6DD4C"/>
<path d="M13.008 20.119L13.592 19.695L14.512 16.864L15.504 17.585L15.865 17.323L12.683 15.011H11.961L14.151 16.602L13.008 20.12V20.119Z" fill="#F6DD4C"/>
<path d="M11.191 17.674L11.125 17.472L13.748 16.62L13.814 16.822L11.191 17.674Z" fill="#F6DD4C"/>
<path d="M11.158 14.427L11.742 14.851H14.719L14.34 16.018L14.701 16.28L15.916 12.539L15.693 11.853L14.857 14.427H11.158Z" fill="#F6DD4C"/>
<path d="M12.9224 11.9441L13.0947 11.8189L14.716 14.0501L14.5437 14.1753L12.9224 11.9441Z" fill="#F6DD4C"/>
<path opacity="0.2" d="M27 5H5C3.343 5 2 6.343 2 8V9C2 7.343 3.343 6 5 6H27C28.657 6 30 7.343 30 9V8C30 6.343 28.657 5 27 5Z" fill="white"/>
</svg>
