<svg width="32" height="32" viewBox="0 0 32 32" fill="none" xmlns="http://www.w3.org/2000/svg">
<path d="M27 4H5C2.79086 4 1 5.79086 1 8V24C1 26.2091 2.79086 28 5 28H27C29.2091 28 31 26.2091 31 24V8C31 5.79086 29.2091 4 27 4Z" fill="#83B2DA"/>
<path opacity="0.15" d="M27 4H5C2.791 4 1 5.791 1 8V24C1 26.209 2.791 28 5 28H27C29.209 28 31 26.209 31 24V8C31 5.791 29.209 4 27 4ZM30 24C30 25.654 28.654 27 27 27H5C3.346 27 2 25.654 2 24V8C2 6.346 3.346 5 5 5H27C28.654 5 30 6.346 30 8V24Z" fill="black"/>
<path opacity="0.2" d="M27 5H5C3.343 5 2 6.343 2 8V9C2 7.343 3.343 6 5 6H27C28.657 6 30 7.343 30 9V8C30 6.343 28.657 5 27 5Z" fill="white"/>
<path d="M16 7.63L15.411 9.44201H13.505L15.047 10.563L14.458 12.375L16 11.255L17.542 12.375L16.953 10.563L18.495 9.44201H16.589L16 7.63Z" fill="white"/>
<path d="M22.531 16.561L24.256 16L22.531 15.439V13.625L21.464 15.093L19.739 14.532L20.805 16L19.739 17.468L21.464 16.907L22.531 18.375V16.561Z" fill="white"/>
<path d="M16.953 21.437L17.542 19.625L16 20.745L14.458 19.625L15.047 21.437L13.505 22.558H15.411L16 24.37L16.589 22.558H18.495L16.953 21.437Z" fill="white"/>
<path d="M10.536 15.093L9.46899 13.625V15.439L7.74399 16L9.46899 16.561V18.375L10.536 16.907L12.261 17.468L11.195 16L12.261 14.532L10.536 15.093Z" fill="white"/>
</svg>
