<svg width="32" height="32" viewBox="0 0 32 32" fill="none" xmlns="http://www.w3.org/2000/svg">
<path d="M27 4H5C2.79086 4 1 5.79086 1 8V24C1 26.2091 2.79086 28 5 28H27C29.2091 28 31 26.2091 31 24V8C31 5.79086 29.2091 4 27 4Z" fill="#BE2A2C"/>
<path opacity="0.15" d="M27 4H5C2.791 4 1 5.791 1 8V24C1 26.209 2.791 28 5 28H27C29.209 28 31 26.209 31 24V8C31 5.791 29.209 4 27 4ZM30 24C30 25.654 28.654 27 27 27H5C3.346 27 2 25.654 2 24V8C2 6.346 3.346 5 5 5H27C28.654 5 30 6.346 30 8V24Z" fill="black"/>
<path d="M6 9H26V23H6V9Z" fill="#F6D44A"/>
<path d="M6 9L16 16L6 23V9Z" fill="#357960"/>
<path d="M26 9L16 16L26 23V9Z" fill="#357960"/>
<path d="M16 19C17.6569 19 19 17.6569 19 16C19 14.3431 17.6569 13 16 13C14.3431 13 13 14.3431 13 16C13 17.6569 14.3431 19 16 19Z" fill="#BE2A2C"/>
<path d="M17 16.338L18.619 15.162H16.618L16 13.259L15.382 15.162H13.381L15 16.338L14.381 18.241L16 17.065L17.619 18.241L17 16.338Z" fill="#F6D44A"/>
<path d="M16.543 7.185L17.423 6.546H16.336L16 5.513L15.664 6.546H14.577L15.457 7.185L15.121 8.219L16 7.58L16.879 8.219L16.543 7.185Z" fill="#F6D44A"/>
<path d="M11.7 7.185L12.579 6.546H11.492L11.156 5.513L10.82 6.546H9.73399L10.613 7.185L10.277 8.219L11.156 7.58L12.035 8.219L11.7 7.185Z" fill="#F6D44A"/>
<path d="M20.3 7.185L19.421 6.546H20.508L20.844 5.513L21.18 6.546H22.266L21.387 7.185L21.723 8.219L20.844 7.58L19.965 8.219L20.3 7.185Z" fill="#F6D44A"/>
<path d="M16.543 25.235L17.423 24.596H16.336L16 23.562L15.664 24.596H14.577L15.457 25.235L15.121 26.269L16 25.63L16.879 26.269L16.543 25.235Z" fill="#F6D44A"/>
<path d="M11.7 25.235L12.579 24.596H11.492L11.156 23.562L10.82 24.596H9.73399L10.613 25.235L10.277 26.269L11.156 25.63L12.035 26.269L11.7 25.235Z" fill="#F6D44A"/>
<path d="M20.3 25.235L19.421 24.596H20.508L20.844 23.562L21.18 24.596H22.266L21.387 25.235L21.723 26.269L20.844 25.63L19.965 26.269L20.3 25.235Z" fill="#F6D44A"/>
<path d="M8.065 16.131C8.405 16.809 9.081 17.557 9.683 17.83C9.712 17.152 9.496 16.275 9.187 15.573L8.065 16.131Z" fill="#BE2A2C"/>
<path d="M7.455 13.85C7.961 14.941 6.058 17.503 9.164 18.15C8.787 17.621 8.58 16.736 8.683 16.042C9.328 16.317 9.975 16.955 10.229 17.554C11.3 14.568 8.121 14.851 7.455 13.85Z" fill="#F6D44A"/>
<path opacity="0.2" d="M27 5H5C3.343 5 2 6.343 2 8V9C2 7.343 3.343 6 5 6H27C28.657 6 30 7.343 30 9V8C30 6.343 28.657 5 27 5Z" fill="white"/>
</svg>
