<svg width="32" height="32" viewBox="0 0 32 32" fill="none" xmlns="http://www.w3.org/2000/svg">
<path d="M2.316 5.05301C1.513 5.78501 1 6.82901 1 8.00001V24C1 26.209 2.791 28 5 28H27C28.037 28 28.974 27.595 29.684 26.947L2.316 5.05301Z" fill="#F7DF4B"/>
<path d="M29.684 26.947C30.487 26.215 31 25.171 31 24V8C31 5.791 29.209 4 27 4H4.99999C3.96299 4 3.02599 4.405 2.31599 5.053L29.684 26.947Z" fill="#3C883A"/>
<path d="M17.673 16.457L20.381 14.49H17.034L16 11.307L14.966 14.49H11.619L14.327 16.457L13.292 19.64L16 17.673L18.708 19.64L17.673 16.457Z" fill="#C92D25"/>
<path opacity="0.15" d="M27 4H5C2.791 4 1 5.791 1 8V24C1 26.209 2.791 28 5 28H27C29.209 28 31 26.209 31 24V8C31 5.791 29.209 4 27 4ZM30 24C30 25.654 28.654 27 27 27H5C3.346 27 2 25.654 2 24V8C2 6.346 3.346 5 5 5H27C28.654 5 30 6.346 30 8V24Z" fill="black"/>
<path opacity="0.2" d="M27 5H5C3.343 5 2 6.343 2 8V9C2 7.343 3.343 6 5 6H27C28.657 6 30 7.343 30 9V8C30 6.343 28.657 5 27 5Z" fill="white"/>
</svg>
