<svg width="32" height="32" viewBox="0 0 32 32" fill="none" xmlns="http://www.w3.org/2000/svg">
<path d="M1 8V21H31V8C31 5.791 29.209 4 27 4H5C2.791 4 1 5.791 1 8Z" fill="white"/>
<path d="M27 28L5 28C2.792 28 1 26.208 1 24V20L31 20V24C31 26.208 29.208 28 27 28Z" fill="#C92A1E"/>
<path opacity="0.15" d="M27 4H5C2.791 4 1 5.791 1 8V24C1 26.209 2.791 28 5 28H27C29.209 28 31 26.209 31 24V8C31 5.791 29.209 4 27 4ZM30 24C30 25.654 28.654 27 27 27H5C3.346 27 2 25.654 2 24V8C2 6.346 3.346 5 5 5H27C28.654 5 30 6.346 30 8V24Z" fill="black"/>
<path d="M16.968 21.034L16 20.473L15.032 21.034H14.819V21.402H15.032L15.797 21.846V24.012H14.633V24.622H15.041V24.35H15.433V24.622H15.797V24.757H15.433V25.029H15.041V24.757H14.633V25.369H15.797V25.711H16.202V21.844L16.967 21.4H17.18V21.032H16.967L16.968 21.034ZM16.648 21.218L16.001 21.593L15.354 21.218L16.001 20.841L16.648 21.218Z" fill="#F3DA4A"/>
<path d="M11.212 15.124H16.369V18.669H11.212V15.124Z" fill="black"/>
<path d="M11.853 10.585H13.345V13.321H11.853V10.585Z" fill="black"/>
<path d="M15.632 15.124H20.789V18.669H15.632V15.124Z" fill="black"/>
<path d="M18.655 10.585H20.147V13.321H18.655V10.585Z" fill="black"/>
<path d="M14.776 8.84399H17.139V13.135H14.776V8.84399Z" fill="black"/>
<path d="M21.612 13.677V13.314H22V12.392H21.532V12.855H20.963V12.392H20.495V9.63H20.671V9.245H20.973V8.427H20.356V8.802H19.91V8.427H19.026V8.802H18.58V8.427H18.064V9.245H18.233V9.63H18.389V12.392H18.308V12.855H17.658V12.392H17.429V8.88H17.683V8.369H17.993V7.694H17.421V8.021H16.948V7.694H16.235V8.021H15.762V7.694H15.049V8.021H14.576V7.694H14.004V8.369H14.314V8.88H14.568V12.392H14.339V12.855H13.689V12.392H13.608V9.63H13.764V9.245H13.933V8.427H13.417V8.802H12.971V8.427H12.087V8.802H11.641V8.427H11.024V9.245H11.326V9.63H11.502V12.392H11.034V12.855H10.465V12.392H9.997V13.314H10.385V13.677H10.7V18.129L10.03 18.57H10.002V19.137H12.958V19.375H19.036V19.137H21.992V18.57H21.964L21.294 18.129V13.677H21.609H21.612ZM15.413 9.53V10.348H15.259V9.53H15.413ZM16.586 10.348V9.53H16.74V10.348H16.586ZM15.924 10.436V9.288H16.075V10.436H15.924ZM15.4 12.392V11.37C15.4 10.939 15.777 10.824 15.999 10.824C16.221 10.824 16.598 10.939 16.598 11.37V12.856H15.4V12.392ZM17.125 18.347H14.874V16.746C14.874 16.06 15.295 15.651 15.999 15.651C16.829 15.651 17.124 16.217 17.124 16.746L17.125 18.347ZM18.935 11.652C18.935 11.373 19.162 11.146 19.441 11.146H19.451C19.456 11.146 19.461 11.146 19.467 11.146C19.728 11.159 19.924 11.377 19.924 11.652V12.856H18.938V12.393H18.935V11.652ZM12.075 12.392V11.652C12.075 11.377 12.271 11.159 12.532 11.146C12.537 11.146 12.542 11.146 12.548 11.146H12.558C12.837 11.146 13.064 11.373 13.064 11.652V12.392H13.061V12.855H12.075V12.392ZM11.79 16.957C11.79 16.522 12.149 16.154 12.573 16.154C13.005 16.154 13.356 16.514 13.356 16.957V18.109H11.79V16.957ZM20.21 18.109H18.644V16.957C18.644 16.514 18.995 16.154 19.427 16.154C19.851 16.154 20.21 16.522 20.21 16.957V18.109Z" fill="#C92A1E"/>
<path opacity="0.2" d="M27 5H5C3.343 5 2 6.343 2 8V9C2 7.343 3.343 6 5 6H27C28.657 6 30 7.343 30 9V8C30 6.343 28.657 5 27 5Z" fill="white"/>
</svg>
