<svg width="32" height="32" viewBox="0 0 32 32" fill="none" xmlns="http://www.w3.org/2000/svg">
<path d="M31 24V11H1V24C1 26.209 2.791 28 5 28H27C29.209 28 31 26.209 31 24Z" fill="#C83029"/>
<path d="M5 4H27C29.208 4 31 5.792 31 8V12H1V8C1 5.792 2.792 4 5 4Z" fill="#0A2383"/>
<path opacity="0.15" d="M5 28H27C29.209 28 31 26.209 31 24V8C31 5.791 29.209 4 27 4H5C2.791 4 1 5.791 1 8V24C1 26.209 2.791 28 5 28ZM2 8C2 6.346 3.346 5 5 5H27C28.654 5 30 6.346 30 8V24C30 25.654 28.654 27 27 27H5C3.346 27 2 25.654 2 24V8Z" fill="black"/>
<path d="M15.628 5.89499C15.304 6.42999 15.265 6.85799 15.486 7.59699C15.593 7.94199 15.71 8.45699 15.759 8.73599C15.825 9.12999 15.818 9.16799 15.827 9.25299C15.909 9.25299 16.095 9.25299 16.182 9.25299C16.194 9.11699 16.204 8.95899 16.233 8.74299C16.267 8.49099 16.368 7.96199 16.476 7.59599C16.692 6.86299 16.678 6.41299 16.342 5.90399C16.219 5.71499 16.055 5.55899 15.981 5.55899C15.907 5.55899 15.74 5.70199 15.628 5.89499Z" fill="#F6DD4C"/>
<path d="M17.221 7.408C16.762 7.605 16.486 8.151 16.335 8.902C16.307 9.043 16.3 9.093 16.286 9.252C16.385 9.252 16.424 9.253 16.521 9.252C16.542 9.145 16.557 9.088 16.604 8.937C16.789 8.349 17.335 8.114 17.311 8.664C17.303 8.816 17.239 8.901 17.168 8.982C17.256 8.96 17.443 8.873 17.595 8.786C18.44 8.277 18.107 7.031 17.221 7.408Z" fill="#F6DD4C"/>
<path d="M15.345 9.44401C15.716 9.44601 16.356 9.44901 16.664 9.44701C16.664 9.36801 16.666 9.40801 16.666 9.34401C16.44 9.34201 15.572 9.34501 15.347 9.34501C15.347 9.38601 15.347 9.40601 15.345 9.44401Z" fill="#F6DD4C"/>
<path d="M15.454 9.87901C15.32 10.023 15.112 10.131 15.112 10.131C15.112 10.131 15.297 10.152 15.469 10.139C15.641 10.126 15.737 10.105 15.838 10.055C15.81 10.26 15.809 10.459 15.809 10.459C15.834 10.723 15.862 10.791 15.92 10.92C15.998 11.027 16.043 11.028 16.1 10.915C16.162 10.788 16.202 10.658 16.215 10.459C16.211 10.31 16.202 10.241 16.167 10.059C16.286 10.111 16.361 10.124 16.539 10.14C16.721 10.156 16.888 10.148 16.888 10.148C16.888 10.148 16.642 10.025 16.534 9.87301C16.427 9.72401 16.45 9.74901 16.372 9.55601C16.278 9.55201 15.8 9.55601 15.648 9.55601C15.565 9.73201 15.557 9.76801 15.454 9.87901Z" fill="#F6DD4C"/>
<path d="M14.779 7.408C15.238 7.605 15.514 8.151 15.665 8.902C15.693 9.043 15.7 9.093 15.714 9.252C15.615 9.252 15.576 9.253 15.479 9.252C15.458 9.145 15.443 9.088 15.396 8.937C15.211 8.349 14.665 8.114 14.689 8.664C14.697 8.816 14.761 8.901 14.832 8.982C14.744 8.96 14.557 8.873 14.405 8.786C13.56 8.277 13.893 7.031 14.779 7.408Z" fill="#F6DD4C"/>
<path d="M7.75299 5.89499C7.42899 6.42999 7.38999 6.85799 7.61099 7.59699C7.71799 7.94199 7.83499 8.45699 7.88399 8.73599C7.94999 9.12999 7.94299 9.16799 7.95199 9.25299C8.03399 9.25299 8.21999 9.25299 8.30699 9.25299C8.31899 9.11699 8.32899 8.95899 8.35799 8.74299C8.39199 8.49099 8.49299 7.96199 8.60099 7.59599C8.81699 6.86299 8.80299 6.41299 8.46699 5.90399C8.34399 5.71499 8.17999 5.55899 8.10599 5.55899C8.03199 5.55899 7.86499 5.70199 7.75299 5.89499Z" fill="#F6DD4C"/>
<path d="M9.34599 7.408C8.88699 7.605 8.611 8.151 8.46 8.902C8.432 9.043 8.425 9.093 8.411 9.252C8.51 9.252 8.549 9.253 8.646 9.252C8.667 9.145 8.682 9.088 8.729 8.937C8.914 8.349 9.46 8.114 9.436 8.664C9.428 8.816 9.364 8.901 9.293 8.982C9.381 8.96 9.568 8.873 9.72 8.786C10.565 8.277 10.232 7.031 9.34599 7.408Z" fill="#F6DD4C"/>
<path d="M7.47 9.44401C7.841 9.44601 8.481 9.44901 8.789 9.44701C8.789 9.36801 8.791 9.40801 8.791 9.34401C8.565 9.34201 7.697 9.34501 7.472 9.34501C7.472 9.38601 7.472 9.40601 7.47 9.44401Z" fill="#F6DD4C"/>
<path d="M7.579 9.87901C7.445 10.023 7.237 10.131 7.237 10.131C7.237 10.131 7.422 10.152 7.594 10.139C7.766 10.126 7.862 10.105 7.963 10.055C7.935 10.26 7.934 10.459 7.934 10.459C7.959 10.723 7.987 10.791 8.045 10.92C8.123 11.027 8.168 11.028 8.225 10.915C8.287 10.788 8.327 10.658 8.34 10.459C8.336 10.31 8.327 10.241 8.292 10.059C8.411 10.111 8.486 10.124 8.664 10.14C8.846 10.156 9.013 10.148 9.013 10.148C9.013 10.148 8.767 10.025 8.659 9.87301C8.552 9.72401 8.575 9.74901 8.497 9.55601C8.403 9.55201 7.925 9.55601 7.773 9.55601C7.69 9.73201 7.682 9.76801 7.579 9.87901Z" fill="#F6DD4C"/>
<path d="M6.90399 7.408C7.36299 7.605 7.63899 8.151 7.78999 8.902C7.81799 9.043 7.82499 9.093 7.83899 9.252C7.73999 9.252 7.70099 9.253 7.60399 9.252C7.58299 9.145 7.56799 9.088 7.52099 8.937C7.33599 8.349 6.78999 8.114 6.81399 8.664C6.82199 8.816 6.88599 8.901 6.95699 8.982C6.86899 8.96 6.68199 8.873 6.52999 8.786C5.68499 8.277 6.01799 7.031 6.90399 7.408Z" fill="#F6DD4C"/>
<path d="M23.894 5.55801C23.82 5.55801 23.656 5.71401 23.533 5.90301C23.197 6.41201 23.182 6.86201 23.399 7.59501C23.507 7.96201 23.608 8.49001 23.642 8.74201C23.671 8.95901 23.681 9.11601 23.693 9.25201C23.779 9.25201 23.966 9.25201 24.048 9.25201C24.057 9.16601 24.05 9.12901 24.116 8.73501C24.165 8.45601 24.282 7.94101 24.389 7.59601C24.61 6.85701 24.572 6.42901 24.247 5.89401C24.135 5.70201 23.968 5.55801 23.894 5.55801Z" fill="#F6DD4C"/>
<path d="M22.654 7.40799C21.768 7.02999 21.436 8.27799 22.28 8.78699C22.432 8.87299 22.619 8.96099 22.707 8.98299C22.636 8.90199 22.572 8.81699 22.564 8.66499C22.539 8.11499 23.085 8.35099 23.271 8.93799C23.318 9.08999 23.333 9.14599 23.354 9.25299C23.451 9.25299 23.49 9.25299 23.589 9.25299C23.575 9.09399 23.568 9.04399 23.54 8.90299C23.389 8.15099 23.113 7.60499 22.654 7.40799Z" fill="#F6DD4C"/>
<path d="M24.528 9.34599C24.302 9.34599 23.435 9.34299 23.209 9.34499C23.209 9.40899 23.211 9.36899 23.211 9.44799C23.519 9.44999 24.159 9.44699 24.53 9.44499C24.529 9.40799 24.528 9.38799 24.528 9.34599Z" fill="#F6DD4C"/>
<path d="M24.421 9.87901C24.318 9.76801 24.31 9.73201 24.227 9.55601C24.075 9.55601 23.597 9.55201 23.503 9.55601C23.425 9.74901 23.448 9.72301 23.341 9.87301C23.233 10.024 22.987 10.148 22.987 10.148C22.987 10.148 23.154 10.156 23.336 10.14C23.514 10.124 23.589 10.111 23.708 10.059C23.673 10.241 23.664 10.31 23.66 10.459C23.673 10.658 23.714 10.789 23.775 10.915C23.832 11.028 23.877 11.028 23.955 10.92C24.012 10.791 24.041 10.724 24.066 10.459C24.066 10.459 24.064 10.261 24.037 10.055C24.139 10.104 24.234 10.126 24.406 10.139C24.578 10.152 24.763 10.131 24.763 10.131C24.763 10.131 24.554 10.023 24.421 9.87901Z" fill="#F6DD4C"/>
<path d="M25.096 7.40799C25.982 7.02999 26.314 8.27799 25.47 8.78699C25.318 8.87299 25.131 8.96099 25.043 8.98299C25.114 8.90199 25.178 8.81699 25.186 8.66499C25.211 8.11499 24.665 8.35099 24.479 8.93799C24.432 9.08999 24.417 9.14599 24.396 9.25299C24.299 9.25299 24.26 9.25299 24.161 9.25299C24.175 9.09399 24.182 9.04399 24.21 8.90299C24.361 8.15099 24.637 7.60499 25.096 7.40799Z" fill="#F6DD4C"/>
<path d="M8.29201 16.048C10.423 17.568 7.20901 14.773 7.00101 14.614C7.12101 15.064 7.68201 15.659 8.29201 16.048Z" fill="#377E22"/>
<path d="M12.604 17.001C12.085 16.906 11.346 15.919 11.248 15.3C11.24 15.068 11.033 15.103 11.115 15.358C11.278 16.035 12.304 17.349 11.283 16.342C11.039 16.119 10.695 15.578 10.505 15.48C10.519 16.068 11.765 16.832 10.441 16.643C10.389 16.479 9.631 15.463 9.744 15.748C9.691 15.829 10.754 17.096 10.076 16.517C9.687 16.094 9.091 15.282 8.9 14.925C8.192 14.139 9.691 16.461 9.811 16.541C9.692 16.785 7.754 13.724 8.097 14.634C8.684 15.692 8.871 16.012 7.749 14.618C7.564 14.377 7.104 13.693 7.501 14.427C7.758 14.916 8.801 16.043 9.38 16.474C9.6 16.634 9.907 16.732 10.159 16.757C10.172 17.041 11.197 17.36 10.896 17.501C9.982 16.85 9.5 16.604 8.368 16.332C8.043 16.096 7.304 15.395 6.639 14.99C5.062 14.107 7.74 15.893 6.935 15.538C5.463 14.994 7.557 16.03 7.746 16.163C6.987 15.949 5.788 15.704 6.031 15.862C6.215 15.943 8.773 16.347 7.68 16.508C7.494 16.521 7.14 16.147 7.541 16.553C7.235 16.64 7.433 16.612 7.597 16.657C8.77 17.214 6.932 16.892 7.199 17.502C7.29 17.109 8.517 16.965 9.203 17.551C8.607 17.51 7.256 17.669 7.513 17.975C8.057 17.71 8.473 17.454 8.225 18.273C8.352 17.754 9.187 17.576 9.919 17.849C9.708 17.739 7.985 18.531 8.658 18.404C9.048 18.224 9.875 17.888 10.287 17.942C9.922 18.679 8.679 18.616 9.082 19.313C9.182 19.746 9.142 18.867 9.322 18.824C9.856 18.402 10.148 18.725 9.619 19.303C9.912 19.008 10.018 18.853 10.126 19.349C9.933 18.695 10.446 18.622 11.099 18.802C10.395 19.095 10.384 19.541 10.424 20.133C10.443 19.417 11.042 18.683 11.816 18.977C11.418 18.672 12.047 18.747 12.063 18.632C12.022 18.518 11.244 18.758 11.007 18.591C9.864 18.572 9.946 18.555 10.961 18.352C11.671 18.159 11.033 18.069 10.199 18.36C10.183 17.685 11.605 18.208 11.784 17.957C11.649 17.865 11.043 17.625 11.145 17.49C11.609 17.73 12.104 17.935 12.198 17.899C12.472 17.724 10.62 17.451 11.611 17.32C12.617 17.573 11.368 17.041 11.184 16.838C11.491 16.721 11.723 17.231 12.299 17.205C12.809 17.227 12.011 16.933 11.795 16.845C11.95 16.82 13.308 17.384 12.601 16.999L12.604 17.001ZM11.18 17.785C11.083 17.743 10.748 17.752 10.961 17.64C11.011 17.679 11.087 17.734 11.18 17.785ZM8.379 16.549C8.483 16.509 8.54 16.545 8.754 16.619C8.624 16.608 8.475 16.653 8.379 16.549ZM8.405 16.778C9.011 17.188 7.738 16.837 8.263 16.8C8.307 16.794 8.355 16.787 8.405 16.778ZM8.768 16.824C8.554 16.495 9.24 16.825 9.404 17.086C9.088 16.981 8.992 16.986 8.768 16.824ZM9.819 17.365C9.95 17.442 10.104 17.52 10.222 17.594C9.952 17.632 9.205 17.197 9.819 17.365ZM10.747 17.583C10.613 17.713 10.489 17.538 10.343 17.474C10.478 17.506 10.634 17.553 10.747 17.583ZM9.973 17.188C9.778 17.187 9.587 16.95 9.434 16.871C9.803 17.02 10.024 17.139 9.973 17.188ZM7.847 16.669C7.988 16.679 8.141 16.488 8.252 16.615C8.248 16.721 7.955 16.826 7.847 16.669ZM9.113 17.359C9.073 17.373 8.928 17.312 8.713 17.195C8.815 17.195 9.142 17.247 9.113 17.359ZM11.135 17.353C10.764 17.169 10.484 16.991 10.43 16.894C10.523 17.036 11.611 17.165 11.135 17.353ZM10.881 16.814C11.134 17.02 10.784 16.854 10.587 16.81C10.654 16.811 10.772 16.793 10.881 16.814Z" fill="#377E22"/>
<path d="M10.868 16.627C11.044 16.594 9.88501 15.299 9.89901 15.309C9.95301 15.575 10.789 16.83 10.868 16.627Z" fill="#377E22"/>
<path d="M7.54601 16.237C6.73101 15.811 6.15401 16.968 6.51101 16.776C6.71901 16.168 7.73401 16.38 7.54601 16.237Z" fill="#377E22"/>
<path d="M11.417 19.238C11.14 19.115 10.634 20.323 11.053 19.769C11.089 19.561 11.768 19.199 11.417 19.238Z" fill="#377E22"/>
<path d="M25.067 22.245C25.067 22.245 25.062 22.245 25.06 22.244C24.894 22.654 25.394 21.531 25.067 22.245Z" fill="#377E22"/>
<path d="M21.931 21.228C16.826 19.839 23.916 22.053 25.06 22.244C25.232 21.733 22.609 21.573 21.931 21.228Z" fill="#377E22"/>
<path d="M22.115 20.954C16.971 19.746 24.123 21.708 25.277 21.86C25.432 21.344 22.804 21.275 22.115 20.954Z" fill="#377E22"/>
<path d="M25.283 21.861C25.283 21.861 25.278 21.861 25.276 21.861C25.125 22.276 25.585 21.137 25.283 21.861Z" fill="#377E22"/>
<path d="M24.77 22.658C24.77 22.658 24.766 22.658 24.763 22.657C24.576 23.057 25.134 21.962 24.77 22.658Z" fill="#377E22"/>
<path d="M21.692 21.478C16.666 19.823 23.631 22.406 24.763 22.657C24.961 22.156 22.351 21.858 21.692 21.478Z" fill="#377E22"/>
<path d="M24.508 23.086C23.227 22.652 20.723 21.742 19.539 21.233C19.147 21.483 23.771 23.172 24.273 23.467C24.487 23.219 24.248 23.23 23.961 23.101C24.158 23.164 24.517 23.356 24.49 23.122C24.577 22.98 24.783 22.62 24.507 23.085L24.508 23.086Z" fill="#377E22"/>
<path d="M24.507 22.848C24.558 22.569 20.414 21.448 19.693 21.017C18.769 20.898 25.188 23.59 24.507 22.848Z" fill="#377E22"/>
<path d="M24.28 23.469C24.28 23.469 24.276 23.468 24.274 23.467C24.053 23.85 24.704 22.807 24.28 23.469Z" fill="#377E22"/>
<path d="M21.101 22.315C16.362 19.98 22.887 23.502 23.979 23.91C24.246 23.442 21.701 22.783 21.101 22.315Z" fill="#377E22"/>
<path d="M23.985 23.912C23.985 23.912 23.981 23.91 23.979 23.91C23.738 24.281 24.443 23.274 23.985 23.912Z" fill="#377E22"/>
<path d="M16.418 23.32L16.686 23.512C17.07 23.78 17.282 24.153 17.261 24.537L17.247 24.855L17.373 24.543C17.511 24.216 17.492 23.721 17.329 23.354L17.234 23.14L17.536 23.272C17.968 23.454 18.252 23.775 18.311 24.155L18.363 24.469L18.422 24.137C18.489 23.788 18.368 23.308 18.132 22.983L17.995 22.794L18.318 22.86C18.778 22.948 19.123 23.203 19.26 23.563L19.376 23.859L19.364 23.522C19.357 23.167 19.139 22.723 18.841 22.454L18.667 22.297L18.996 22.294C19.464 22.285 19.854 22.462 20.063 22.785L20.238 23.05L20.157 22.723C20.077 22.377 19.771 21.988 19.423 21.787L19.22 21.67L19.542 21.599C19.998 21.492 20.416 21.584 20.688 21.857L20.914 22.08L20.766 21.777C20.616 21.456 20.236 21.138 19.854 21.014L19.632 20.942L19.932 20.805C20.356 20.606 20.784 20.609 21.106 20.819L21.374 20.99L21.167 20.724C20.953 20.441 20.515 20.21 20.117 20.168L19.884 20.144L20.149 19.948C20.522 19.665 20.942 19.579 21.301 19.717L21.598 19.829L21.34 19.612C21.072 19.38 20.596 19.245 20.197 19.287L19.964 19.311L20.182 19.064C20.488 18.709 20.881 18.538 21.261 18.599L21.575 18.646L21.278 18.488C20.968 18.316 20.474 18.284 20.093 18.408L19.871 18.48L20.033 18.193C20.259 17.782 20.607 17.533 20.991 17.513L21.308 17.494L20.984 17.401C20.645 17.298 20.155 17.368 19.808 17.569L19.605 17.686L19.704 17.371C19.84 16.922 20.128 16.606 20.5 16.507L20.806 16.422L20.47 16.399C20.117 16.369 19.652 16.54 19.354 16.808L19.18 16.965L19.212 16.637C19.252 16.17 19.468 15.8 19.812 15.626L20.094 15.48L19.761 15.527C19.409 15.571 18.99 15.835 18.755 16.16L18.618 16.349L18.581 16.021C18.523 15.556 18.658 15.149 18.957 14.907L19.202 14.705L18.886 14.82C18.551 14.936 18.196 15.281 18.033 15.648L17.938 15.862L17.834 15.549C17.68 15.106 17.728 14.68 17.971 14.381L18.169 14.132L17.883 14.311C17.579 14.494 17.304 14.906 17.221 15.299L17.172 15.528L17.005 15.244C16.763 14.842 16.721 14.416 16.896 14.073L17.038 13.789L16.796 14.023C16.537 14.266 16.353 14.726 16.353 15.127V15.361L16.131 15.118C15.811 14.776 15.681 14.367 15.782 13.995L15.862 13.687L15.674 13.967C15.471 14.258 15.387 14.746 15.47 15.139L15.519 15.368L15.251 15.176C14.867 14.908 14.655 14.535 14.676 14.151L14.69 13.833L14.564 14.146C14.426 14.473 14.445 14.968 14.608 15.335L14.703 15.549L14.401 15.417C13.969 15.235 13.685 14.914 13.626 14.534L13.574 14.22L13.516 14.552C13.449 14.901 13.57 15.381 13.806 15.706L13.943 15.895L13.62 15.829C13.16 15.741 12.815 15.486 12.678 15.126L12.562 14.83L12.574 15.167C12.581 15.522 12.799 15.966 13.097 16.235L13.271 16.392L12.942 16.395C12.474 16.404 12.084 16.227 11.875 15.904L11.7 15.639L11.781 15.966C11.861 16.312 12.167 16.701 12.515 16.902L12.718 17.019L12.396 17.09C11.94 17.197 11.522 17.105 11.25 16.832L11.024 16.609L11.172 16.912C11.322 17.234 11.703 17.551 12.084 17.675L12.306 17.747L12.006 17.884C11.582 18.083 11.154 18.08 10.832 17.87L10.564 17.699L10.771 17.965C10.985 18.248 11.423 18.479 11.821 18.521L12.054 18.546L11.789 18.742C11.416 19.025 10.996 19.111 10.637 18.973L10.34 18.861L10.598 19.078C10.866 19.311 11.342 19.445 11.741 19.403L11.974 19.379L11.756 19.626C11.45 19.981 11.057 20.152 10.677 20.091L10.363 20.044L10.66 20.202C10.97 20.374 11.464 20.406 11.845 20.282L12.067 20.21L11.905 20.497C11.679 20.908 11.331 21.157 10.947 21.177L10.63 21.196L10.954 21.289C11.293 21.392 11.783 21.322 12.13 21.121L12.333 21.004L12.234 21.319C12.098 21.768 11.81 22.084 11.438 22.183L11.132 22.268L11.468 22.292C11.821 22.322 12.286 22.151 12.584 21.883L12.758 21.726L12.726 22.054C12.686 22.521 12.47 22.891 12.126 23.065L11.844 23.212L12.177 23.165C12.529 23.121 12.948 22.857 13.183 22.532L13.32 22.343L13.357 22.671C13.415 23.136 13.28 23.543 12.981 23.785L12.736 23.987L13.052 23.872C13.387 23.756 13.742 23.41 13.905 23.044L14 22.83L14.104 23.143C14.258 23.586 14.21 24.012 13.967 24.311L13.769 24.56L14.055 24.381C14.359 24.198 14.634 23.786 14.717 23.393L14.766 23.164L14.933 23.448C15.175 23.849 15.217 24.276 15.042 24.619L14.9 24.903L15.142 24.669C15.401 24.427 15.585 23.967 15.585 23.565V23.331L15.807 23.574C16.127 23.916 16.257 24.325 16.156 24.697L16.076 25.005L16.264 24.725C16.467 24.434 16.551 23.946 16.468 23.553L16.419 23.324" fill="#F6DD4C"/>
<path opacity="0.2" d="M27 5H5C3.343 5 2 6.343 2 8V9C2 7.343 3.343 6 5 6H27C28.657 6 30 7.343 30 9V8C30 6.343 28.657 5 27 5Z" fill="white"/>
</svg>
