<svg width="32" height="32" viewBox="0 0 32 32" fill="none" xmlns="http://www.w3.org/2000/svg">
<path d="M27 4H5C2.79086 4 1 5.79086 1 8V24C1 26.2091 2.79086 28 5 28H27C29.2091 28 31 26.2091 31 24V8C31 5.79086 29.2091 4 27 4Z" fill="#071B65"/>
<path d="M6.5 13.774V16H10.5V13.773L13.537 16H16V14.759L12.238 12H16V8H13.26L16 5.991V4H14.559L10.5 6.977V4H6.5V6.794L3.243 4.405C2.476 4.779 1.854 5.388 1.457 6.143L3.989 8.001H1V12.001H4.763L1 14.761V16.001H3.464L6.5 13.774Z" fill="white"/>
<path d="M1.806 5.589L5.091 8H6.455L2.36 4.995C2.156 5.175 1.97 5.372 1.806 5.589Z" fill="#B92932"/>
<path d="M1 16L6.454 12V13L2.363 16H1Z" fill="#B92932"/>
<path d="M9.5 16H7.5V11H1V9H7.5V4H9.5V9H16V11H9.5V16Z" fill="#B92932"/>
<path d="M16 15.667L11 12V13L15.091 16H16V15.667Z" fill="#B92932"/>
<path d="M16 4H15.752L10.291 8.004H11.655L16 4.818V4Z" fill="#B92932"/>
<path opacity="0.15" d="M27 4H5C2.791 4 1 5.791 1 8V24C1 26.209 2.791 28 5 28H27C29.209 28 31 26.209 31 24V8C31 5.791 29.209 4 27 4ZM30 24C30 25.654 28.654 27 27 27H5C3.346 27 2 25.654 2 24V8C2 6.346 3.346 5 5 5H27C28.654 5 30 6.346 30 8V24Z" fill="black"/>
<path opacity="0.2" d="M27 5H5C3.343 5 2 6.343 2 8V9C2 7.343 3.343 6 5 6H27C28.657 6 30 7.343 30 9V8C30 6.343 28.657 5 27 5Z" fill="white"/>
<path d="M27.074 19.779C27.074 19.779 27.074 19.779 27.072 19.777C27.072 19.777 26.992 19.71 26.918 19.648C26.105 19.476 26.975 17.913 26.753 16.798C26.408 15.44 25.979 14.097 24.723 15.3C24.708 14.821 25.317 14.923 25.324 13.972C24.914 13.981 24.729 14.442 24.687 14.566C24.593 14.385 24.611 14.198 24.655 14.053C24.953 14.152 25.38 13.847 25.046 13.496C26.098 13.486 26.246 12.741 26.252 12.709C26.069 12.857 25.342 13.075 25.138 13.09C25.22 13.008 25.429 12.759 25.385 12.518C24.448 12.945 24.622 13.305 24.254 13.792L24.259 13.788C24.133 14.054 24.218 14.336 24.321 14.536C23.888 14.373 23.852 14.848 23.975 15.023C24.058 14.834 24.317 14.888 24.395 15.246C23.411 14.999 23.965 14.57 24.047 14.135C24.13 14.101 24.141 13.901 24.059 13.835H24.08C24.038 13.585 24.075 13.3 24.063 13.045V12.892C23.85 12.855 23.477 12.892 23.239 12.879C22.877 12.934 22.216 12.769 21.977 12.942C21.964 13.22 22.004 13.52 21.96 13.794C21.822 13.845 21.805 14.146 21.966 14.142C21.85 14.515 22.794 15.186 21.688 15.168C21.722 14.984 21.857 14.923 21.963 15.08C22.241 14.99 22.158 14.449 21.745 14.56C21.975 13.71 20.946 12.582 20.538 12.553C20.533 12.582 20.489 12.844 20.693 13.103C20.393 12.99 19.885 13.064 19.665 12.803C19.671 13.41 20.265 13.648 20.877 13.668C20.655 13.983 20.95 14.249 21.212 14.194C21.048 13.982 21.169 13.785 21.355 13.806C21.321 14.048 21.288 14.348 21.311 14.485C21.211 14.355 20.98 14.141 20.629 14.068C20.722 14.411 20.873 14.745 21.061 15.011C20.459 14.716 19.88 15.132 19.942 15.917C20.226 17.147 18.129 18.431 19.519 19.57C19.108 20.127 19.23 20.478 19.862 20.072C19.526 20.392 20.22 20.722 20.423 20.141C20.555 20.232 21.072 20.514 21.12 20.232C21.282 20.48 21.414 20.513 21.638 20.297C21.715 20.536 22.654 20.272 22.65 20.049C22.631 20.161 22.623 20.277 22.703 20.322C22.703 20.248 22.744 20.173 22.773 20.148C22.764 20.243 22.75 20.492 22.885 20.501C22.882 20.423 22.925 20.337 22.955 20.291C22.933 20.526 23.188 20.667 23.18 20.353C23.23 20.547 23.48 20.708 23.425 20.38C23.498 20.565 23.712 20.647 23.678 20.397C23.705 20.495 24.004 20.592 23.935 20.366C24.014 20.469 24.273 20.554 24.231 20.338C24.912 20.31 25.604 20.332 26.285 20.325C26.423 20.306 26.672 20.363 26.767 20.303C26.78 20.25 26.739 20.13 26.786 20.111C26.819 19.84 26.465 19.96 26.406 19.769C26.611 19.858 26.726 19.915 26.536 19.732C26.682 19.797 26.896 19.919 26.661 19.708C26.874 19.805 27.076 19.911 26.877 19.723C26.976 19.758 27.08 19.847 27.07 19.78L27.074 19.779ZM24.659 14.039C24.889 13.691 24.738 13.789 24.659 14.039ZM21.923 16.193C21.75 16.181 21.584 16.178 21.652 16.397C21.569 16.394 21.397 16.606 21.341 16.669C20.949 16.143 20.962 15.664 21.21 15.189C21.539 15.552 21.955 15.7 22.398 15.352C22.536 15.836 21.383 15.479 21.923 16.193ZM25.225 15.511C24.555 15.643 25.74 16.684 24.197 16.12C24.832 15.545 23.795 15.72 23.585 15.498C23.591 15.427 23.614 15.327 23.634 15.218C23.885 15.521 24.015 15.547 24.129 15.569C24.497 15.654 24.853 15.279 25.25 15.413L25.226 15.512L25.225 15.511Z" fill="white"/>
<path d="M25.809 21.229H25.811C26.771 21.918 26.512 20.93 26.094 20.439C25.656 20.206 25.172 20.727 24.953 21.067C23.895 20.537 22.462 20.552 21.409 21.094C21.196 20.736 20.72 20.266 20.292 20.506C20.019 20.571 20.14 21.107 19.91 21.205C19.612 21.724 20.404 21.612 20.576 21.292C20.584 21.295 20.675 21.336 20.81 21.469C20.512 21.699 20.255 21.973 20.05 22.286C20.17 22.372 20.471 22.583 20.467 22.704L20.463 22.712H20.468V22.725L20.479 22.709C20.603 22.674 21.27 22.854 21.507 23.137L21.503 23.101H21.513C21.79 22.396 22.022 22.449 21.683 21.661C22.583 21.194 23.768 21.149 24.677 21.599C24.505 22.025 24.44 22.391 24.5 22.498C24.599 22.496 24.782 22.839 24.881 23.043L24.878 23.072L24.889 23.06L24.898 23.08L24.903 23.045C25.166 22.767 25.796 22.596 25.941 22.645C25.932 22.627 25.921 22.604 25.91 22.585C26.125 22.305 26.326 22.224 26.348 22.215C26.119 21.913 25.851 21.65 25.555 21.432C25.698 21.283 25.806 21.233 25.809 21.232V21.229Z" fill="#F5BF42"/>
<path d="M23.937 12.173C23.853 11.244 22.412 12.148 22.428 11.337C22.795 11.49 22.904 10.905 22.455 11.158C22.461 11.099 23.345 10.702 23.124 10.474C23.169 10.3 23.351 10.038 23.049 10.247C23.066 9.88402 22.931 10.214 22.887 9.95802C22.593 9.94902 22.884 10.394 22.941 10.498C22.562 11.401 22.959 9.91402 22.659 10.411C22.651 10.208 22.699 9.98802 22.49 10.319C22.167 10.31 22.846 10.838 22.51 10.896C22.546 10.786 22.325 10.155 22.25 10.557C22.202 10.341 22.101 10.479 22.215 10.687C22.141 10.695 22.134 10.725 22.157 10.758L22.151 10.76C22.148 10.751 22.135 10.732 22.092 10.73C22.191 10.543 22.102 10.412 22.063 10.611C21.997 10.289 21.821 10.761 21.834 10.875C21.576 10.926 22.189 10.082 21.849 10.411C21.79 10.074 21.685 10.331 21.714 10.48C21.547 10.278 21.502 10.632 21.644 10.654C21.641 10.911 21.524 10.801 21.476 10.559C21.524 10.479 21.838 10.111 21.612 10.09C21.499 10.375 21.381 9.96202 21.382 10.332C21.155 10.094 21.298 10.417 21.319 10.536C21.132 10.804 21.894 11.085 21.895 11.166C21.444 10.976 21.578 11.528 21.888 11.381C21.908 11.523 22.178 11.628 22.025 11.815C21.979 11.879 22.013 11.901 22.077 11.892C21.972 11.98 22.053 12.085 22.158 11.99C22.062 12.122 22.002 12.295 22.232 12.187C22.199 12.313 22.086 12.447 22.301 12.345C22.383 12.628 21.953 13.487 22.401 13.14C22.636 13.026 22.274 12.454 22.634 12.381C22.641 12.618 22.59 13.066 22.473 13.305C22.499 13.288 22.552 13.255 22.565 13.244C22.574 13.264 22.59 13.302 22.6 13.328C23.005 13.115 22.52 12.383 23.109 12.361C23.569 12.306 22.756 13.669 23.282 12.974C23.507 12.337 23.869 12.404 23.529 13.247L23.627 13.189C23.677 13.503 23.761 13.149 23.9 13.097C23.862 12.724 23.886 12.465 23.722 12.174C23.745 12.269 24.022 12.224 23.939 12.173H23.937Z" fill="#894217"/>
</svg>
