<svg width="32" height="32" viewBox="0 0 32 32" fill="none" xmlns="http://www.w3.org/2000/svg">
<path d="M10 4H22V28H10V4Z" fill="white"/>
<path d="M5 4H11V28H5C2.792 28 1 26.208 1 24V8C1 5.792 2.792 4 5 4Z" fill="#5D97CC"/>
<path d="M27 28H21L21 4H27C29.208 4 31 5.792 31 8L31 24C31 26.208 29.208 28 27 28Z" fill="#5D97CC"/>
<path opacity="0.15" d="M27 4H5C2.791 4 1 5.791 1 8V24C1 26.209 2.791 28 5 28H27C29.209 28 31 26.209 31 24V8C31 5.791 29.209 4 27 4ZM30 24C30 25.654 28.654 27 27 27H5C3.346 27 2 25.654 2 24V8C2 6.346 3.346 5 5 5H27C28.654 5 30 6.346 30 8V24Z" fill="black"/>
<path d="M16.356 19.947C16.32 19.889 16.26 19.853 16.207 19.824C15.855 19.636 15.505 19.553 15.108 19.488C15.016 19.472 14.925 19.385 14.831 19.34C14.605 19.23 14.353 19.188 14.133 19.076C14.118 19.069 14.063 19.036 14.037 19.004C13.95 18.901 13.792 18.869 13.693 18.773C13.313 18.408 12.91 18.071 12.701 17.587C12.447 16.998 12.131 16.39 12.174 15.72C12.202 15.296 12.14 14.868 12.242 14.465C12.394 13.867 12.588 13.275 12.944 12.78L12.884 12.818C12.526 13.313 12.331 13.905 12.18 14.504C12.078 14.907 12.139 15.336 12.112 15.759C12.069 16.429 12.385 17.037 12.639 17.628C12.848 18.11 13.253 18.446 13.631 18.814C13.729 18.908 13.887 18.939 13.975 19.045C14.001 19.074 14.058 19.11 14.071 19.117C14.291 19.229 14.543 19.272 14.769 19.379C14.863 19.426 14.955 19.511 15.046 19.527C15.443 19.592 15.793 19.677 16.145 19.863C16.2 19.892 16.258 19.928 16.294 19.986L16.356 19.947Z" fill="#528132"/>
<path d="M16.291 19.987C16.254 19.929 16.195 19.893 16.143 19.865C15.766 19.666 15.392 19.586 15.045 19.529C14.985 19.519 14.926 19.48 14.868 19.442C14.835 19.42 14.801 19.398 14.767 19.381C14.659 19.33 14.543 19.293 14.431 19.256C14.309 19.217 14.184 19.176 14.069 19.118C14.055 19.11 13.997 19.075 13.971 19.045C13.924 18.988 13.856 18.953 13.789 18.918C13.732 18.888 13.673 18.858 13.628 18.814C13.572 18.76 13.516 18.706 13.459 18.652C13.127 18.337 12.813 18.038 12.635 17.627C12.603 17.553 12.571 17.479 12.538 17.404C12.308 16.883 12.07 16.343 12.107 15.756C12.117 15.606 12.116 15.454 12.114 15.306C12.112 15.038 12.109 14.761 12.176 14.499C12.314 13.957 12.505 13.332 12.881 12.812L12.942 12.773L12.947 12.778C12.572 13.299 12.382 13.922 12.245 14.463C12.179 14.723 12.182 15 12.184 15.268C12.185 15.415 12.187 15.568 12.177 15.718C12.139 16.305 12.378 16.844 12.608 17.365C12.64 17.438 12.672 17.511 12.704 17.583C12.884 18 13.202 18.301 13.539 18.62C13.591 18.669 13.643 18.718 13.695 18.768C13.741 18.812 13.8 18.844 13.858 18.874C13.924 18.908 13.992 18.943 14.039 18.999C14.064 19.03 14.119 19.063 14.134 19.069C14.247 19.127 14.371 19.167 14.49 19.206C14.604 19.243 14.721 19.281 14.831 19.334C14.867 19.351 14.903 19.375 14.937 19.397C14.993 19.434 15.051 19.472 15.107 19.481C15.514 19.547 15.857 19.63 16.207 19.817C16.261 19.847 16.321 19.883 16.357 19.942L16.359 19.945L16.291 19.987ZM12.93 12.792L12.886 12.82C12.512 13.338 12.321 13.962 12.183 14.504C12.117 14.764 12.12 15.041 12.122 15.309C12.123 15.456 12.125 15.609 12.115 15.759C12.078 16.344 12.315 16.883 12.545 17.404C12.578 17.479 12.61 17.553 12.642 17.627C12.82 18.037 13.133 18.335 13.465 18.649C13.521 18.703 13.578 18.756 13.633 18.811C13.678 18.853 13.736 18.884 13.793 18.914C13.86 18.949 13.929 18.985 13.977 19.042C14.002 19.071 14.059 19.105 14.072 19.113C14.186 19.171 14.311 19.212 14.433 19.251C14.545 19.287 14.661 19.324 14.769 19.376C14.804 19.393 14.838 19.416 14.871 19.438C14.929 19.476 14.988 19.514 15.045 19.524C15.393 19.581 15.767 19.661 16.146 19.86C16.198 19.888 16.257 19.924 16.294 19.982L16.35 19.948C16.314 19.892 16.256 19.857 16.204 19.829C15.855 19.642 15.513 19.56 15.107 19.493C15.049 19.483 14.99 19.445 14.934 19.408C14.899 19.385 14.864 19.362 14.829 19.345C14.719 19.292 14.602 19.254 14.489 19.217C14.369 19.178 14.245 19.138 14.132 19.08C14.115 19.073 14.06 19.039 14.034 19.008C13.988 18.953 13.921 18.918 13.855 18.884C13.797 18.854 13.737 18.822 13.69 18.777C13.638 18.727 13.586 18.678 13.534 18.629C13.197 18.31 12.878 18.009 12.697 17.59C12.666 17.518 12.634 17.445 12.601 17.372C12.371 16.85 12.132 16.31 12.169 15.722C12.179 15.572 12.178 15.42 12.176 15.272C12.174 15.004 12.171 14.727 12.238 14.465C12.373 13.929 12.562 13.312 12.929 12.794L12.93 12.792Z" fill="#528132"/>
<path d="M12.646 19.086C12.646 19.086 13.377 18.852 13.971 19.044C13.951 19.239 13.662 19.308 13.521 19.309C13.387 19.31 12.904 19.262 12.646 19.085V19.086Z" fill="#528132"/>
<path d="M12.068 17.879C12.068 17.879 12.807 18.086 13.198 18.573C13.074 18.725 12.795 18.624 12.676 18.547C12.563 18.474 12.187 18.169 12.069 17.879H12.068Z" fill="#528132"/>
<path d="M11.428 17.13C11.428 17.13 12.093 17.139 12.501 17.494C12.418 17.666 12.163 17.64 12.049 17.599C11.941 17.56 11.572 17.369 11.427 17.13H11.428Z" fill="#528132"/>
<path d="M11.408 16.412C11.408 16.412 11.988 16.543 12.276 16.932C12.169 17.068 11.951 16.999 11.86 16.941C11.774 16.886 11.488 16.65 11.408 16.412Z" fill="#528132"/>
<path d="M11.19 15.674C11.19 15.674 11.77 15.805 12.058 16.194C11.951 16.33 11.733 16.261 11.642 16.203C11.556 16.148 11.27 15.912 11.19 15.674Z" fill="#528132"/>
<path d="M11.408 14.86C11.408 14.86 11.901 15.192 12.029 15.659C11.88 15.748 11.702 15.604 11.638 15.517C11.577 15.435 11.397 15.111 11.408 14.86Z" fill="#528132"/>
<path d="M11.751 13.94C11.751 13.94 12.098 14.423 12.055 14.905C11.885 14.936 11.768 14.74 11.738 14.636C11.71 14.538 11.652 14.171 11.751 13.94Z" fill="#528132"/>
<path d="M11.991 13.101C11.991 13.101 12.277 13.581 12.197 14.028C12.034 14.043 11.941 13.85 11.921 13.751C11.903 13.657 11.879 13.309 11.991 13.101Z" fill="#528132"/>
<path d="M12.504 12.502C12.504 12.502 12.658 12.974 12.496 13.345C12.35 13.326 12.307 13.14 12.31 13.05C12.313 12.965 12.364 12.66 12.504 12.502Z" fill="#528132"/>
<path d="M13.171 19.752C13.171 19.752 13.87 19.264 14.558 19.357C14.598 19.613 14.314 19.775 14.165 19.813C14.024 19.849 13.499 19.911 13.171 19.751V19.752Z" fill="#528132"/>
<path d="M14.214 17.955C14.214 17.955 14.874 18.494 14.973 19.182C14.738 19.29 14.504 19.062 14.427 18.929C14.354 18.803 14.15 18.315 14.215 17.956L14.214 17.955Z" fill="#528132"/>
<path d="M13.477 17.695C13.477 17.695 14.029 18.206 14.079 18.816C13.866 18.899 13.673 18.685 13.611 18.563C13.553 18.448 13.4 18.008 13.477 17.695Z" fill="#528132"/>
<path d="M12.962 16.74C12.962 16.74 13.275 17.38 13.11 17.937C12.894 17.937 12.796 17.682 12.783 17.554C12.771 17.433 12.787 16.991 12.962 16.74Z" fill="#528132"/>
<path d="M12.678 15.974C12.678 15.974 12.917 16.538 12.732 17.002C12.537 16.989 12.467 16.766 12.464 16.656C12.461 16.552 12.505 16.177 12.678 15.974Z" fill="#528132"/>
<path d="M12.756 15.052C12.756 15.052 12.741 15.665 12.381 16.011C12.209 15.919 12.237 15.686 12.28 15.585C12.321 15.489 12.515 15.165 12.756 15.053V15.052Z" fill="#528132"/>
<path d="M12.986 14.241C12.986 14.241 12.748 14.806 12.286 14.996C12.16 14.847 12.271 14.641 12.348 14.562C12.421 14.488 12.72 14.258 12.986 14.241Z" fill="#528132"/>
<path d="M13.132 13.565C13.132 13.565 12.88 14.027 12.481 14.184C12.392 14.063 12.504 13.894 12.575 13.83C12.642 13.769 12.912 13.58 13.132 13.566V13.565Z" fill="#528132"/>
<path d="M13.601 12.654C13.601 12.654 13.269 13.253 12.75 13.461C12.636 13.306 12.783 13.087 12.876 13.003C12.964 12.923 13.315 12.676 13.6 12.655L13.601 12.654Z" fill="#528132"/>
<path d="M15.644 19.947L15.706 19.985C15.742 19.927 15.8 19.891 15.855 19.862C16.207 19.676 16.557 19.591 16.954 19.526C17.046 19.51 17.137 19.425 17.231 19.378C17.457 19.27 17.709 19.228 17.929 19.116C17.942 19.109 17.999 19.073 18.025 19.044C18.112 18.939 18.27 18.907 18.369 18.813C18.747 18.445 19.152 18.109 19.361 17.627C19.615 17.035 19.931 16.428 19.888 15.758C19.86 15.334 19.922 14.906 19.82 14.503C19.668 13.905 19.474 13.313 19.116 12.817L19.056 12.779C19.412 13.274 19.606 13.866 19.758 14.464C19.86 14.867 19.799 15.296 19.826 15.719C19.869 16.389 19.553 16.997 19.299 17.586C19.09 18.07 18.687 18.406 18.307 18.772C18.209 18.868 18.051 18.9 17.963 19.003C17.937 19.034 17.882 19.068 17.867 19.075C17.647 19.187 17.395 19.23 17.169 19.339C17.075 19.384 16.983 19.471 16.892 19.487C16.495 19.552 16.145 19.635 15.793 19.823C15.74 19.852 15.68 19.888 15.644 19.946" fill="#528132"/>
<path d="M19.354 19.086C19.354 19.086 18.623 18.852 18.029 19.044C18.049 19.239 18.338 19.308 18.479 19.309C18.613 19.31 19.096 19.262 19.354 19.085V19.086Z" fill="#528132"/>
<path d="M19.932 17.879C19.932 17.879 19.193 18.086 18.802 18.573C18.926 18.725 19.205 18.624 19.324 18.547C19.437 18.474 19.814 18.169 19.932 17.879Z" fill="#528132"/>
<path d="M20.572 17.13C20.572 17.13 19.907 17.139 19.499 17.494C19.582 17.666 19.837 17.64 19.951 17.599C20.059 17.56 20.427 17.369 20.572 17.13Z" fill="#528132"/>
<path d="M20.592 16.412C20.592 16.412 20.012 16.543 19.724 16.932C19.831 17.068 20.049 16.999 20.14 16.941C20.226 16.886 20.512 16.65 20.592 16.412Z" fill="#528132"/>
<path d="M20.81 15.674C20.81 15.674 20.23 15.805 19.942 16.194C20.049 16.33 20.267 16.261 20.358 16.203C20.444 16.148 20.73 15.912 20.81 15.674Z" fill="#528132"/>
<path d="M20.592 14.86C20.592 14.86 20.099 15.192 19.971 15.659C20.12 15.748 20.298 15.604 20.362 15.517C20.423 15.435 20.603 15.111 20.592 14.86Z" fill="#528132"/>
<path d="M20.249 13.94C20.249 13.94 19.902 14.423 19.945 14.905C20.115 14.936 20.232 14.74 20.262 14.636C20.29 14.538 20.347 14.171 20.248 13.94H20.249Z" fill="#528132"/>
<path d="M20.009 13.101C20.009 13.101 19.723 13.581 19.803 14.028C19.966 14.043 20.059 13.85 20.079 13.751C20.097 13.657 20.121 13.309 20.009 13.101Z" fill="#528132"/>
<path d="M19.496 12.502C19.496 12.502 19.342 12.974 19.504 13.345C19.65 13.326 19.693 13.14 19.69 13.05C19.687 12.965 19.636 12.66 19.496 12.502Z" fill="#528132"/>
<path d="M18.829 19.752C18.829 19.752 18.13 19.264 17.442 19.357C17.402 19.613 17.686 19.775 17.835 19.813C17.976 19.849 18.501 19.911 18.829 19.751V19.752Z" fill="#528132"/>
<path d="M17.786 17.955C17.786 17.955 17.126 18.494 17.027 19.182C17.262 19.29 17.496 19.062 17.573 18.929C17.646 18.803 17.85 18.315 17.785 17.956L17.786 17.955Z" fill="#528132"/>
<path d="M18.523 17.695C18.523 17.695 17.971 18.206 17.921 18.816C18.134 18.899 18.327 18.685 18.389 18.563C18.447 18.448 18.6 18.008 18.523 17.695Z" fill="#528132"/>
<path d="M19.038 16.74C19.038 16.74 18.725 17.38 18.89 17.937C19.106 17.937 19.204 17.682 19.217 17.554C19.229 17.433 19.213 16.991 19.038 16.74Z" fill="#528132"/>
<path d="M19.322 15.974C19.322 15.974 19.083 16.538 19.268 17.002C19.463 16.989 19.533 16.766 19.536 16.656C19.539 16.552 19.495 16.177 19.322 15.974Z" fill="#528132"/>
<path d="M19.244 15.052C19.244 15.052 19.259 15.665 19.619 16.011C19.791 15.919 19.763 15.686 19.72 15.585C19.679 15.489 19.485 15.165 19.244 15.053V15.052Z" fill="#528132"/>
<path d="M19.014 14.241C19.014 14.241 19.252 14.806 19.714 14.996C19.84 14.847 19.729 14.641 19.652 14.562C19.579 14.488 19.28 14.258 19.014 14.241Z" fill="#528132"/>
<path d="M18.868 13.565C18.868 13.565 19.12 14.027 19.519 14.184C19.608 14.063 19.496 13.894 19.425 13.83C19.358 13.769 19.088 13.58 18.868 13.566V13.565Z" fill="#528132"/>
<path d="M18.399 12.654C18.399 12.654 18.731 13.253 19.25 13.461C19.364 13.306 19.217 13.087 19.124 13.003C19.036 12.923 18.685 12.676 18.4 12.655L18.399 12.654Z" fill="#528132"/>
<path d="M15.661 12.144C15.661 12.144 15.718 12.087 15.774 12.069C15.767 11.941 15.87 11.829 16.025 11.845C16.18 11.861 16.269 12.066 16.174 12.213C16.174 12.213 16.815 12.615 17.378 13.218C17.941 13.821 18.632 14.833 18.421 16.169C18.21 17.505 16.764 19.36 16.466 20.157C16.466 20.157 16.646 19.218 17.246 18.412C17.246 18.412 16.29 19.65 15.574 19.743C16.764 18.971 17.791 17.475 18.052 16.527C18.052 16.527 17.743 17.082 17.508 17.254C17.508 17.254 17.951 16.577 18.047 16.123C18.047 16.123 17.764 16.813 17.462 16.968C17.856 16.474 18.236 15.62 18.045 14.717C17.854 13.814 17.252 13.373 16.982 13.3C16.712 13.227 16.103 13.213 15.843 12.892C15.583 12.571 15.802 12.215 15.802 12.215C15.802 12.215 15.82 12.169 15.777 12.158C15.735 12.158 15.709 12.152 15.66 12.144H15.661Z" fill="#528132"/>
<path d="M16.897 13.202C16.897 13.202 14.713 13.236 14.539 13.25C14.365 13.264 14.244 13.5 14.265 13.669C14.286 13.838 14.331 13.974 14.495 14.314C14.659 14.654 15.063 15.49 15.13 15.972C15.13 15.972 14.83 15.998 14.671 16.019C14.512 16.04 14.412 16.223 14.456 16.482C14.5 16.741 14.589 16.819 14.811 16.85C15.033 16.881 17.418 16.698 17.418 16.698C17.418 16.698 17.688 16.512 17.723 16.186C17.758 15.86 17.592 15.249 17.397 14.872C17.202 14.495 16.809 13.844 16.809 13.844C16.809 13.844 16.943 13.818 17.014 13.692C17.085 13.566 17.073 13.372 16.899 13.204L16.897 13.202Z" fill="#F8F1B3"/>
<path opacity="0.2" d="M27 5H5C3.343 5 2 6.343 2 8V9C2 7.343 3.343 6 5 6H27C28.657 6 30 7.343 30 9V8C30 6.343 28.657 5 27 5Z" fill="white"/>
</svg>
