<svg width="32" height="32" viewBox="0 0 32 32" fill="none" xmlns="http://www.w3.org/2000/svg">
<path d="M27 4H5C2.79086 4 1 5.79086 1 8V24C1 26.2091 2.79086 28 5 28H27C29.2091 28 31 26.2091 31 24V8C31 5.79086 29.2091 4 27 4Z" fill="#4A926D"/>
<path d="M1 8V24C1 25.372 1.692 26.581 2.745 27.302L31 16L2.745 4.698C1.692 5.418 1 6.628 1 8Z" fill="white"/>
<path d="M2.917 26.156C2.336 25.594 2 24.819 2 24V7.99999C2 7.18099 2.336 6.40499 2.917 5.84399L28.308 16L2.917 26.156Z" fill="#F6C644"/>
<path d="M2.271 26.911L15 16L2.271 5.08899C1.493 5.81899 1 6.84899 1 7.99999V24C1 25.151 1.493 26.181 2.271 26.911Z" fill="black"/>
<path d="M1.627 5.867C1.235 6.485 1 7.214 1 8V24C1 24.79 1.237 25.522 1.632 26.143L13.464 16L1.627 5.867Z" fill="#B02D30"/>
<path opacity="0.15" d="M27 4H5C2.791 4 1 5.791 1 8V24C1 26.209 2.791 28 5 28H27C29.209 28 31 26.209 31 24V8C31 5.791 29.209 4 27 4ZM30 24C30 25.654 28.654 27 27 27H5C3.346 27 2 25.654 2 24V8C2 6.346 3.346 5 5 5H27C28.654 5 30 6.346 30 8V24Z" fill="black"/>
<path opacity="0.2" d="M27 5H5C3.343 5 2 6.343 2 8V9C2 7.343 3.343 6 5 6H27C28.657 6 30 7.343 30 9V8C30 6.343 28.657 5 27 5Z" fill="white"/>
</svg>
