<svg width="32" height="32" viewBox="0 0 32 32" fill="none" xmlns="http://www.w3.org/2000/svg">
<g clip-path="url(#clip0_5_1656)">
<path d="M27 4H5C2.79086 4 1 5.79086 1 8V24C1 26.2091 2.79086 28 5 28H27C29.2091 28 31 26.2091 31 24V8C31 5.79086 29.2091 4 27 4Z" fill="#DB362F"/>
<path opacity="0.15" d="M27 4H5C2.791 4 1 5.791 1 8V24C1 26.209 2.791 28 5 28H27C29.209 28 31 26.209 31 24V8C31 5.791 29.209 4 27 4ZM30 24C30 25.654 28.654 27 27 27H5C3.346 27 2 25.654 2 24V8C2 6.346 3.346 5 5 5H27C28.654 5 30 6.346 30 8V24Z" fill="black"/>
<path opacity="0.2" d="M27 5H5C3.343 5 2 6.343 2 8V9C2 7.343 3.343 6 5 6H27C28.657 6 30 7.343 30 9V8C30 6.343 28.657 5 27 5Z" fill="white"/>
<path d="M17.303 9.57701C15.735 9.33401 14.206 10.205 13.616 11.678C12.916 13.426 13.765 15.41 15.513 16.11C15.354 15.967 15.283 15.76 15.2 15.563C14.886 14.821 15.233 13.965 15.975 13.652C16.067 13.613 16.156 13.566 16.239 13.512C17.029 12.999 17.253 11.944 16.74 11.154C16.689 11.076 16.649 10.991 16.62 10.901C16.443 10.347 16.748 9.75401 17.302 9.57601L17.303 9.57701Z" fill="white"/>
<path d="M19.319 12.819C17.44 12.693 15.815 14.114 15.69 15.993C15.777 15.798 15.952 15.666 16.113 15.526C16.722 14.998 17.643 15.064 18.171 15.673C18.236 15.749 18.308 15.818 18.386 15.881C19.118 16.473 20.191 16.361 20.784 15.629C20.843 15.556 20.911 15.492 20.987 15.437C21.459 15.097 22.118 15.204 22.458 15.676C22.205 14.109 20.903 12.925 19.319 12.819Z" fill="white"/>
<path d="M15.783 16.324C15.827 16.533 15.763 16.743 15.715 16.951C15.533 17.736 14.749 18.224 13.964 18.042C13.867 18.019 13.767 18.005 13.668 18C12.728 17.951 11.926 18.673 11.876 19.613C11.871 19.706 11.854 19.799 11.824 19.888C11.642 20.441 11.046 20.741 10.494 20.559C11.62 21.678 13.369 21.871 14.712 21.026C16.306 20.023 16.785 17.919 15.782 16.325L15.783 16.324Z" fill="white"/>
<path d="M19.997 18.596C19.536 16.77 17.682 15.664 15.857 16.125C16.069 16.147 16.249 16.273 16.432 16.383C17.122 16.799 17.344 17.695 16.928 18.385C16.876 18.471 16.832 18.561 16.797 18.654C16.46 19.533 16.899 20.519 17.777 20.856C17.864 20.89 17.947 20.935 18.022 20.99C18.491 21.334 18.593 21.993 18.249 22.463C19.661 21.738 20.385 20.134 19.997 18.596Z" fill="white"/>
<path d="M14.954 16.445C14.151 16.514 13.445 15.92 13.376 15.117C13.367 15.017 13.35 14.919 13.324 14.822C13.08 13.913 12.146 13.373 11.236 13.617C11.146 13.641 11.052 13.653 10.959 13.653C10.377 13.65 9.908 13.177 9.91 12.595C9.194 14.011 9.55 15.735 10.769 16.751C12.215 17.957 14.365 17.762 15.571 16.316C15.386 16.423 15.167 16.427 14.954 16.445Z" fill="white"/>
</g>
<defs>
<clipPath id="clip0_5_1656">
<rect width="32" height="32" fill="white"/>
</clipPath>
</defs>
</svg>
