<svg width="32" height="32" viewBox="0 0 32 32" fill="none" xmlns="http://www.w3.org/2000/svg">
<path d="M1 11H31V21H1V11Z" fill="white"/>
<path d="M5 4H27C29.208 4 31 5.792 31 8V12H1V8C1 5.792 2.792 4 5 4Z" fill="#55BBE0"/>
<path d="M27 28L5 28C2.792 28 1 26.208 1 24V20L31 20V24C31 26.208 29.208 28 27 28Z" fill="#55BBE0"/>
<path opacity="0.15" d="M27 4H5C2.791 4 1 5.791 1 8V24C1 26.209 2.791 28 5 28H27C29.209 28 31 26.209 31 24V8C31 5.791 29.209 4 27 4ZM30 24C30 25.654 28.654 27 27 27H5C3.346 27 2 25.654 2 24V8C2 6.346 3.346 5 5 5H27C28.654 5 30 6.346 30 8V24Z" fill="black"/>
<path d="M9.28 12.768L8.978 13.697H8.001L8.791 14.271L8.49 15.2L9.28 14.626L10.07 15.2L9.768 14.271L10.558 13.697H9.581L9.28 12.768Z" fill="#55BBE0"/>
<path d="M9.581 17.729L9.28 16.8L8.978 17.729H8.001L8.791 18.303L8.49 19.232L9.28 18.658L10.07 19.232L9.768 18.303L10.558 17.729H9.581Z" fill="#55BBE0"/>
<path d="M16.302 15.713L16 14.784L15.698 15.713H14.722L15.512 16.287L15.21 17.216L16 16.642L16.79 17.216L16.488 16.287L17.278 15.713H16.302Z" fill="#55BBE0"/>
<path d="M22.232 14.271L21.93 15.2L22.72 14.626L23.51 15.2L23.209 14.271L23.999 13.697H23.022L22.72 12.768L22.419 13.697H21.442L22.232 14.271Z" fill="#55BBE0"/>
<path d="M23.022 17.729L22.72 16.8L22.419 17.729H21.442L22.232 18.303L21.93 19.232L22.72 18.658L23.51 19.232L23.209 18.303L23.999 17.729H23.022Z" fill="#55BBE0"/>
<path opacity="0.2" d="M27 5H5C3.343 5 2 6.343 2 8V9C2 7.343 3.343 6 5 6H27C28.657 6 30 7.343 30 9V8C30 6.343 28.657 5 27 5Z" fill="white"/>
</svg>
