<svg width="32" height="32" viewBox="0 0 32 32" fill="none" xmlns="http://www.w3.org/2000/svg">
<path d="M1 11H31V21H1V11Z" fill="white"/>
<path d="M5 4H27C29.208 4 31 5.792 31 8V12H1V8C1 5.792 2.792 4 5 4Z" fill="#EA3323"/>
<path d="M27 28L5 28C2.792 28 1 26.208 1 24V20L31 20V24C31 26.208 29.208 28 27 28Z" fill="#100E91"/>
<path opacity="0.15" d="M27 4H5C2.791 4 1 5.791 1 8V24C1 26.209 2.791 28 5 28H27C29.209 28 31 26.209 31 24V8C31 5.791 29.209 4 27 4ZM30 24C30 25.654 28.654 27 27 27H5C3.346 27 2 25.654 2 24V8C2 6.346 3.346 5 5 5H27C28.654 5 30 6.346 30 8V24Z" fill="black"/>
<path d="M16.001 22C18.525 22 20.591 19.935 20.591 17.41V11.956H11.412V17.41C11.412 19.934 13.477 22 16.002 22H16.001Z" fill="#EA3323"/>
<path d="M16.001 21.926C18.477 21.926 20.503 19.9 20.503 17.424V12.044H11.499V17.424C11.499 19.9 13.525 21.926 16.001 21.926Z" fill="white"/>
<path d="M13.399 12.214H11.666V14.118H13.399V12.214Z" fill="#EA3323"/>
<path d="M13.399 16.021H15.132V14.117H13.399V16.021Z" fill="#EA3323"/>
<path d="M11.667 17.414C11.667 17.587 11.678 17.757 11.698 17.925H13.4V16.021H11.667V17.414Z" fill="#EA3323"/>
<path d="M16.865 16.021H15.132V17.925H16.865V16.021Z" fill="#EA3323"/>
<path d="M16.865 19.828H18.598V17.924H16.865V19.828Z" fill="#FF0000"/>
<path d="M18.598 20.87C18.982 20.58 19.317 20.228 19.587 19.829H18.598V20.87Z" fill="#EA3323"/>
<path d="M13.4 19.828H15.133V17.924H13.4V19.828Z" fill="#EA3323"/>
<path d="M12.409 19.828C12.68 20.228 13.015 20.58 13.4 20.871V19.828H12.409Z" fill="#EA3323"/>
<path d="M16.3 21.732C16.492 21.719 16.68 21.693 16.865 21.655V19.828H15.132V21.655C15.316 21.693 15.504 21.718 15.695 21.732C15.897 21.744 16.099 21.744 16.3 21.732Z" fill="#EA3323"/>
<path d="M20.298 17.925C20.318 17.757 20.329 17.586 20.329 17.412V16.021H18.598V17.925H20.298Z" fill="#EA3323"/>
<path d="M16.865 16.021H18.598V14.117H16.865V16.021Z" fill="#EA3323"/>
<path d="M16.865 12.214H15.132V14.118H16.865V12.214Z" fill="#EA3323"/>
<path d="M20.329 14.117V12.213H18.598V14.117H20.329Z" fill="#EA3323"/>
<path d="M20.426 11.9L21.5 9.465L20.682 8.143L19.326 8.645L18.374 7.557L17.119 8.276L16 7.36L14.881 8.276L13.626 7.557L12.674 8.645L11.318 8.143L10.499 9.465L11.572 11.901C12.924 11.289 14.423 10.948 15.999 10.948C17.575 10.948 19.073 11.289 20.425 11.9H20.426Z" fill="white"/>
<path d="M12.705 8.753L12.703 8.755L11.358 8.257L10.605 9.472L10.893 10.127L11.623 11.785C12.168 11.544 12.737 11.346 13.324 11.197L12.705 8.753Z" fill="#0093DD"/>
<path d="M14.893 8.38699L14.891 8.38899L13.647 7.67599L12.705 8.753L13.325 11.197C13.901 11.05 14.494 10.95 15.102 10.9L14.894 8.38699H14.893Z" fill="#100E91"/>
<path d="M17.112 8.38799L17.109 8.39L16 7.48199L14.893 8.38899L15.101 10.902C15.397 10.878 15.697 10.864 16 10.864C16.303 10.864 16.605 10.877 16.903 10.902L17.112 8.38899V8.38799Z" fill="#0093DD"/>
<path d="M19.3 8.75399H19.297L18.353 7.67599L17.112 8.38699L16.903 10.9C17.511 10.95 18.104 11.051 18.68 11.197L19.301 8.753L19.3 8.75399Z" fill="#100E91"/>
<path d="M20.375 11.785L21.395 9.47299L20.642 8.258L19.3 8.755L18.679 11.199C19.264 11.348 19.831 11.546 20.374 11.786L20.375 11.785Z" fill="#0093DD"/>
<path opacity="0.2" d="M27 5H5C3.343 5 2 6.343 2 8V9C2 7.343 3.343 6 5 6H27C28.657 6 30 7.343 30 9V8C30 6.343 28.657 5 27 5Z" fill="white"/>
</svg>
