<svg width="32" height="32" viewBox="0 0 32 32" fill="none" xmlns="http://www.w3.org/2000/svg">
<path d="M27 4H5C2.79086 4 1 5.79086 1 8V24C1 26.2091 2.79086 28 5 28H27C29.2091 28 31 26.2091 31 24V8C31 5.79086 29.2091 4 27 4Z" fill="#BF2C30"/>
<path opacity="0.15" d="M27 4H5C2.791 4 1 5.791 1 8V24C1 26.209 2.791 28 5 28H27C29.209 28 31 26.209 31 24V8C31 5.791 29.209 4 27 4ZM30 24C30 25.654 28.654 27 27 27H5C3.346 27 2 25.654 2 24V8C2 6.346 3.346 5 5 5H27C28.654 5 30 6.346 30 8V24Z" fill="black"/>
<path d="M23.789 11.017C23.724 10.826 23.559 10.872 23.427 10.8C23.247 10.718 23.001 10.605 22.015 10.861L21.202 10.778C20.852 10.451 20.38 10.773 20.474 11.11L20.543 11.476C20.447 11.849 20.415 11.987 20.408 12.044C19.824 12.895 19.328 14.105 19.315 14.861C19.314 14.935 19.315 14.951 19.373 15.253C19.38 15.328 19.286 15.301 19.218 15.285C18.43 14.825 17.861 14.61 17.09 14.227C17.068 14.2 17.044 14.139 17.038 14.026L17.044 14.021C17.068 13.66 16.422 12.096 16.334 11.886C16.127 11.61 15.932 11.211 15.858 10.891C15.79 10.003 14.583 9.71699 14.05 10.244C13.906 10.433 13.851 10.412 13.712 10.512C12.924 10.61 12.167 10.95 11.558 11.223C10.877 11.564 10.458 11.93 9.867 11.426L8.676 10.29C8.436 10.101 8.306 10.205 8.261 10.258C8.132 10.41 8.253 10.522 8.256 10.67C8.273 10.864 8.297 11.131 9.017 11.843L9.35 12.576C9.236 13.044 9.766 13.276 10.006 13.032L10.294 12.79C10.672 12.686 10.809 12.643 10.862 12.621C11.904 12.694 13.218 12.512 13.89 12.146C13.956 12.11 13.969 12.101 14.206 11.902C14.27 11.858 14.293 11.95 14.313 12.016C14.303 12.907 14.396 13.489 14.445 14.327C14.475 14.353 14.289 14.513 14.187 14.557L14.192 14.56C13.811 14.853 12.885 16.008 12.763 16.169C12.623 16.483 12.37 16.848 12.125 17.072C11.377 17.568 11.732 18.749 12.461 18.936C12.702 18.965 12.709 19.022 12.867 19.09C13.348 19.712 14.026 20.187 14.572 20.569C15.207 20.978 15.745 21.145 15.597 21.906L15.193 23.487C15.156 23.813 15.298 23.851 15.415 23.861C15.591 23.866 15.614 23.724 15.738 23.657C15.9 23.545 16.123 23.392 16.39 22.424L16.869 21.774C17.335 21.641 17.28 21.07 16.941 20.986L16.584 20.861C16.302 20.591 16.197 20.495 16.15 20.462C15.692 19.536 14.87 18.507 14.215 18.121C14.15 18.083 14.136 18.076 13.841 17.974C13.771 17.943 13.841 17.877 13.889 17.828C14.68 17.391 15.146 17.021 15.861 16.56C15.913 16.513 16.084 16.607 16.182 16.661V16.657C16.621 16.838 18.109 17.048 18.324 17.074C18.67 17.036 19.119 17.07 19.439 17.167C20.188 17.559 21.131 16.682 20.911 15.95C20.816 15.733 20.862 15.697 20.844 15.529C21.305 14.502 21.246 13.208 21.373 12.261C21.603 11.718 23.077 11.534 23.552 11.353C23.834 11.245 23.813 11.084 23.79 11.02L23.789 11.017Z" fill="white"/>
<path opacity="0.2" d="M27 5H5C3.343 5 2 6.343 2 8V9C2 7.343 3.343 6 5 6H27C28.657 6 30 7.343 30 9V8C30 6.343 28.657 5 27 5Z" fill="white"/>
</svg>
