<svg width="32" height="32" viewBox="0 0 32 32" fill="none" xmlns="http://www.w3.org/2000/svg">
<path d="M27 4H5C2.79086 4 1 5.79086 1 8V24C1 26.2091 2.79086 28 5 28H27C29.2091 28 31 26.2091 31 24V8C31 5.79086 29.2091 4 27 4Z" fill="white"/>
<path d="M28.304 4.23599L16 14.079L3.69599 4.23599C2.69299 4.58399 1.87799 5.31099 1.41699 6.25499L13.599 16.001L1.41699 25.746C1.87799 26.69 2.69399 27.417 3.69599 27.765L16 17.922L28.304 27.765C29.307 27.417 30.122 26.69 30.583 25.746L18.401 16L30.583 6.25399C30.122 5.30999 29.306 4.58399 28.304 4.23599Z" fill="#BF2C30"/>
<path opacity="0.15" d="M27 4H5C2.791 4 1 5.791 1 8V24C1 26.209 2.791 28 5 28H27C29.209 28 31 26.209 31 24V8C31 5.791 29.209 4 27 4ZM30 24C30 25.654 28.654 27 27 27H5C3.346 27 2 25.654 2 24V8C2 6.346 3.346 5 5 5H27C28.654 5 30 6.346 30 8V24Z" fill="black"/>
<path d="M17.766 7.65L17.764 7.642H17.759C17.333 7.344 16.623 7.194 15.812 7.232C15.118 7.264 14.47 7.434 14.238 7.645L14.236 7.647V7.65C14.068 8.327 13.929 9.357 14.22 10.415C14.496 11.422 15.094 12.214 15.996 12.768L16.001 12.771L16.006 12.768C16.908 12.214 17.506 11.422 17.782 10.415C18.072 9.357 17.934 8.327 17.766 7.65Z" fill="#BF2C30"/>
<path d="M18.374 5.836C18.172 5.785 17.964 5.977 17.943 6.176C17.659 5.918 17.628 6.421 17.528 6.557C17.712 6.707 17.96 6.173 17.836 6.591C17.797 6.566 17.681 6.595 17.689 6.639C17.691 6.641 17.735 6.711 17.738 6.712C17.543 6.859 17.242 6.771 17.194 6.521C17.933 6.052 16.487 5.808 17.036 6.494C16.821 6.785 16.314 6.855 16.103 6.533C16.139 6.548 16.185 6.493 16.208 6.473C16.242 6.463 16.141 6.389 16.132 6.392C16.173 5.918 16.238 6.568 16.49 6.48C16.442 6.288 16.607 5.78 16.194 5.936C16.323 5.393 15.675 5.393 15.803 5.936C15.391 5.779 15.555 6.287 15.507 6.48C15.762 6.579 15.817 5.904 15.867 6.392C15.758 6.419 15.788 6.536 15.892 6.534C15.682 6.854 15.178 6.787 14.962 6.498C15.53 5.828 14.081 6.029 14.802 6.52C14.755 6.772 14.454 6.859 14.259 6.713C14.262 6.711 14.306 6.642 14.308 6.64C14.321 6.597 14.196 6.566 14.161 6.592C14.038 6.173 14.284 6.708 14.469 6.558C14.369 6.422 14.339 5.919 14.054 6.177C14.102 5.978 13.568 5.658 13.659 5.927L13.98 6.637C13.821 6.695 13.948 6.826 14.07 6.761C14.098 6.837 14.123 6.911 14.144 6.969C14.03 6.945 14.006 7.111 14.129 7.095L14.136 7.126C14.139 7.181 14.099 7.277 14.085 7.327C14.134 7.357 14.175 7.49 14.213 7.504C14.203 7.511 14.222 7.536 14.224 7.543C14.157 7.551 14.174 7.656 14.235 7.665C14.893 7.574 15.584 7.574 16.269 7.576C16.518 7.476 17.838 7.825 17.769 7.543C17.769 7.539 17.778 7.517 17.774 7.513L17.777 7.499C17.818 7.513 17.86 7.351 17.91 7.327C17.897 7.277 17.856 7.181 17.859 7.126L17.866 7.095C17.983 7.104 17.981 6.949 17.841 6.969C17.867 6.898 17.893 6.828 17.919 6.76C18.041 6.826 18.177 6.699 18.014 6.637L18.335 5.927C18.346 5.917 18.368 5.855 18.371 5.837L18.374 5.836ZM14.217 7.501L14.22 7.498L14.216 7.501H14.217Z" fill="#F9DA49"/>
<path opacity="0.2" d="M27 5H5C3.343 5 2 6.343 2 8V9C2 7.343 3.343 6 5 6H27C28.657 6 30 7.343 30 9V8C30 6.343 28.657 5 27 5Z" fill="white"/>
</svg>
