<svg width="32" height="32" viewBox="0 0 32 32" fill="none" xmlns="http://www.w3.org/2000/svg">
<path d="M27 4H5C2.79086 4 1 5.79086 1 8V24C1 26.2091 2.79086 28 5 28H27C29.2091 28 31 26.2091 31 24V8C31 5.79086 29.2091 4 27 4Z" fill="black"/>
<path d="M16 16L29.684 5.053C28.973 4.405 28.037 4 27 4H4.99999C3.96299 4 3.02599 4.405 2.31599 5.053L16 16Z" fill="#33764C"/>
<path d="M16 16L29.684 26.947C28.973 27.595 28.037 28 27 28H4.99999C3.96299 28 3.02599 27.595 2.31599 26.947L16 16Z" fill="#33764C"/>
<path d="M28.304 4.23599L16 14.079L3.69601 4.23599C2.69301 4.58399 1.87801 5.31099 1.41701 6.25499L13.599 16.001L1.41701 25.746C1.87801 26.69 2.69401 27.417 3.69601 27.765L16 17.922L28.304 27.765C29.307 27.417 30.122 26.69 30.583 25.746L18.401 16L30.583 6.25399C30.122 5.30999 29.306 4.58399 28.304 4.23599Z" fill="#F5BD45"/>
<path opacity="0.15" d="M27 4H5C2.791 4 1 5.791 1 8V24C1 26.209 2.791 28 5 28H27C29.209 28 31 26.209 31 24V8C31 5.791 29.209 4 27 4ZM30 24C30 25.654 28.654 27 27 27H5C3.346 27 2 25.654 2 24V8C2 6.346 3.346 5 5 5H27C28.654 5 30 6.346 30 8V24Z" fill="black"/>
<path opacity="0.2" d="M27 5H5C3.343 5 2 6.343 2 8V9C2 7.343 3.343 6 5 6H27C28.657 6 30 7.343 30 9V8C30 6.343 28.657 5 27 5Z" fill="white"/>
</svg>
