<svg width="32" height="32" viewBox="0 0 32 32" fill="none" xmlns="http://www.w3.org/2000/svg">
<path d="M1 11H31V21H1V11Z" fill="white"/>
<path d="M5 4H27C29.208 4 31 5.792 31 8V12H1V8C1 5.792 2.792 4 5 4Z" fill="black"/>
<path d="M27 28L5 28C2.792 28 1 26.208 1 24V20L31 20V24C31 26.208 29.208 28 27 28Z" fill="#357942"/>
<path d="M2.316 26.947L16 16L2.316 5.05301C1.513 5.78501 1 6.82901 1 8.00001V24C1 25.172 1.513 26.216 2.316 26.947Z" fill="#BE2A2C"/>
<path opacity="0.15" d="M27 4H5C2.791 4 1 5.791 1 8V24C1 26.209 2.791 28 5 28H27C29.209 28 31 26.209 31 24V8C31 5.791 29.209 4 27 4ZM30 24C30 25.654 28.654 27 27 27H5C3.346 27 2 25.654 2 24V8C2 6.346 3.346 5 5 5H27C28.654 5 30 6.346 30 8V24Z" fill="black"/>
<path d="M6.787 13.276L6.166 14.853L4.549 14.359L5.393 15.825L3.991 16.781L5.672 17.036L5.545 18.725L6.788 17.578L8.039 18.725L7.912 17.036L9.585 16.781L8.191 15.825L9.035 14.359L7.418 14.853L6.789 13.276H6.787Z" fill="white"/>
<path opacity="0.2" d="M27 5H5C3.343 5 2 6.343 2 8V9C2 7.343 3.343 6 5 6H27C28.657 6 30 7.343 30 9V8C30 6.343 28.657 5 27 5Z" fill="white"/>
</svg>
