<svg width="32" height="32" viewBox="0 0 32 32" fill="none" xmlns="http://www.w3.org/2000/svg">
<path d="M1 12H31V20H1V12Z" fill="#AD2317"/>
<path d="M5 4H27C29.208 4 31 5.792 31 8V13H1V8C1 5.792 2.792 4 5 4Z" fill="black"/>
<path d="M27 28L5 28C2.792 28 1 26.208 1 24V19L31 19V24C31 26.208 29.208 28 27 28Z" fill="#2B6519"/>
<path d="M1 11H31V13H1V11Z" fill="white"/>
<path d="M1 19H31V21H1V19Z" fill="white"/>
<path d="M19.345 11.096C19.88 10.169 20.115 9.339 20.218 8.807L20.253 8.625L20.113 8.746C19.703 9.101 19.102 9.719 18.567 10.646C18.376 10.978 18.178 11.32 18.263 11.687L16.002 15.604L13.741 11.687C13.826 11.32 13.628 10.978 13.437 10.646C12.902 9.719 12.301 9.101 11.891 8.746L11.751 8.625L11.786 8.807C11.889 9.339 12.123 10.169 12.659 11.096C12.85 11.428 13.048 11.77 13.408 11.88L15.781 15.989L12.244 22.115L12.578 22.308L16.004 16.374L19.43 22.308L19.764 22.115L16.227 15.989L18.6 11.88C18.96 11.77 19.158 11.428 19.349 11.096H19.345Z" fill="white"/>
<path d="M17.233 10.953C16.899 10.565 16.55 10.245 16.212 9.98199C16.087 9.88499 15.912 9.88499 15.787 9.98199C15.449 10.245 15.1 10.565 14.766 10.953C13.166 12.809 12.947 15.005 12.916 15.989C12.937 16.888 13.116 18.893 14.526 20.717C14.921 21.228 15.341 21.632 15.733 21.95C15.888 22.076 16.111 22.076 16.266 21.95C16.658 21.633 17.078 21.228 17.473 20.717C18.883 18.893 19.062 16.888 19.083 15.989C19.052 15.005 18.833 12.808 17.233 10.953Z" fill="#AD2317"/>
<path d="M13.533 18.972C14.134 18.132 14.497 17.111 14.497 16C14.497 14.889 14.13 13.859 13.525 13.017C13.039 14.233 12.937 15.36 12.917 15.99C12.931 16.604 13.03 17.737 13.534 18.972H13.533Z" fill="black"/>
<path d="M18.467 18.972C17.866 18.132 17.503 17.111 17.503 16C17.503 14.884 17.87 13.859 18.475 13.017C18.961 14.233 19.063 15.36 19.083 15.99C19.069 16.604 18.971 17.737 18.467 18.972Z" fill="black"/>
<path opacity="0.15" d="M27 4H5C2.791 4 1 5.791 1 8V24C1 26.209 2.791 28 5 28H27C29.209 28 31 26.209 31 24V8C31 5.791 29.209 4 27 4ZM30 24C30 25.654 28.654 27 27 27H5C3.346 27 2 25.654 2 24V8C2 6.346 3.346 5 5 5H27C28.654 5 30 6.346 30 8V24Z" fill="black"/>
<path opacity="0.2" d="M27 5H5C3.343 5 2 6.343 2 8V9C2 7.343 3.343 6 5 6H27C28.657 6 30 7.343 30 9V8C30 6.343 28.657 5 27 5Z" fill="white"/>
</svg>
