<svg width="32" height="32" viewBox="0 0 32 32" fill="none" xmlns="http://www.w3.org/2000/svg">
<path d="M1 8H31V24H1V8Z" fill="#CE2C2D"/>
<path d="M5 4H27C29.208 4 31 5.792 31 8V10H1V8C1 5.792 2.792 4 5 4Z" fill="#0F299C"/>
<path d="M27 28L5 28C2.792 28 1 26.208 1 24V22L31 22V24C31 26.208 29.208 28 27 28Z" fill="#0F299C"/>
<path opacity="0.15" d="M27 4H5C2.791 4 1 5.791 1 8V24C1 26.209 2.791 28 5 28H27C29.209 28 31 26.209 31 24V8C31 5.791 29.209 4 27 4ZM30 24C30 25.654 28.654 27 27 27H5C3.346 27 2 25.654 2 24V8C2 6.346 3.346 5 5 5H27C28.654 5 30 6.346 30 8V24Z" fill="black"/>
<path d="M23 19.56H22.651V18.884H22.302V18.307H21.955V17.872H21.748V17.535C20.567 17.655 21.707 15.455 21.48 14.829C21.392 14.82 21.318 14.876 21.279 14.935C21.34 14.775 21.185 14.326 21.095 14.693H20.914V14.206C20.46 14.631 20.806 14.294 20.654 13.876C20.644 13.943 20.564 14.072 20.531 14.061C20.599 13.896 20.687 13.776 20.567 13.552C20.42 14.018 20.609 13.505 20.465 13.299C20.458 13.353 20.405 13.508 20.396 13.496C20.446 12.7 19.627 12.701 19.678 13.496C19.669 13.508 19.616 13.353 19.609 13.299C19.466 13.505 19.654 14.018 19.507 13.552C19.386 13.777 19.474 13.896 19.543 14.061C19.51 14.072 19.43 13.944 19.42 13.877C19.268 14.295 19.614 14.632 19.16 14.207V15.059H18.941C18.965 14.962 18.751 14.966 18.782 15.061H17.482L17.484 14.278C17.283 14.356 17.292 14.461 17.295 14.585C17.068 14.683 17.03 14.267 17.252 14.281V13.958C17.211 13.967 17.094 13.965 16.99 14.123V14.041C16.853 14.029 16.852 14.158 16.849 14.408H16.813C16.715 14.06 17.119 13.903 16.909 13.563C16.572 14.105 17.171 13.158 16.879 12.993C16.612 13.715 16.964 12.727 16.735 12.592C16.56 13.253 16.78 12.375 16.631 12.322C16.399 12.751 16.696 12.212 16.537 12.107C16.371 12.386 16.474 11.995 16.488 11.923H16.426L16.448 11.752H16.369L16.388 11.61H16.251L16.264 11.466H16.139C16.17 11.18 15.817 11.181 15.847 11.466H15.722L15.735 11.61H15.598L15.617 11.752H15.538L15.56 11.923H15.499C15.509 11.99 15.606 12.386 15.45 12.107C15.293 12.217 15.586 12.753 15.354 12.315C15.205 12.416 15.435 13.2 15.252 12.592C15.023 12.726 15.375 13.716 15.108 12.993C14.816 13.157 15.415 14.105 15.078 13.563C14.868 13.904 15.273 14.061 15.174 14.408H15.157C15.156 14.141 15.157 14.031 15.008 14.041V14.122C14.904 13.966 14.788 13.968 14.747 13.958V14.281C14.965 14.262 14.935 14.682 14.713 14.585C14.719 14.458 14.716 14.358 14.516 14.279V15.062H13.219C13.25 14.967 13.036 14.963 13.06 15.06H12.842V14.208C12.388 14.633 12.734 14.296 12.582 13.878C12.572 13.945 12.492 14.074 12.459 14.062C12.527 13.897 12.615 13.777 12.495 13.553C12.349 14.019 12.537 13.506 12.393 13.3C12.386 13.354 12.333 13.509 12.324 13.497C12.374 12.701 11.555 12.702 11.606 13.497C11.597 13.509 11.544 13.354 11.537 13.3C11.394 13.506 11.582 14.019 11.435 13.553C11.314 13.778 11.403 13.897 11.471 14.062C11.438 14.073 11.358 13.945 11.348 13.877C11.196 14.296 11.542 14.632 11.088 14.207V14.694H10.907C10.817 14.326 10.662 14.777 10.723 14.936C10.684 14.878 10.609 14.821 10.522 14.83C10.295 15.456 11.436 17.654 10.253 17.536V17.873H10.046V18.311L9.69901 18.308V18.886H9.35001V19.562H9.00101V20.286H11.494C11.729 20.286 12.177 20.286 12.412 20.286H15.543C15.778 20.286 16.226 20.286 16.461 20.286H19.586C19.821 20.286 20.269 20.286 20.504 20.286H23.003V19.562L23 19.56Z" fill="white"/>
<path opacity="0.2" d="M27 5H5C3.343 5 2 6.343 2 8V9C2 7.343 3.343 6 5 6H27C28.657 6 30 7.343 30 9V8C30 6.343 28.657 5 27 5Z" fill="white"/>
</svg>
