<svg width="32" height="32" viewBox="0 0 32 32" fill="none" xmlns="http://www.w3.org/2000/svg">
<path d="M27 4H5C2.79086 4 1 5.79086 1 8V24C1 26.2091 2.79086 28 5 28H27C29.2091 28 31 26.2091 31 24V8C31 5.79086 29.2091 4 27 4Z" fill="#B9291D"/>
<path d="M21.451 6.32299C16.876 5.88599 17.664 5.99299 16.356 7.47699C16.231 7.42499 16.111 7.37899 15.995 7.33499C15.809 7.26599 15.633 7.20499 15.467 7.15499C15.012 7.01599 14.62 6.94299 14.233 6.90699C14.153 6.89999 14.073 6.89299 13.993 6.88899C13.671 6.86899 13.3 6.86799 12.994 6.91799C12.102 7.05499 11.544 7.42099 10.586 7.45199C10.622 7.49299 10.661 7.52999 10.709 7.56399V7.56599C10.798 7.62399 10.903 7.68499 11.028 7.72999C11.713 7.98499 12.859 7.97299 13.434 7.44699C14.441 7.55299 14.688 7.82699 14.945 8.14799C14.51 8.07799 14.036 7.97499 13.627 8.41999C13.187 8.59399 12.114 8.05899 12.141 8.86199C12.748 8.38499 14.076 8.89199 14.667 9.28899C16.214 9.34199 18.414 8.43599 20.054 8.41899H18.448L20.362 8.03499H18.139C18.096 7.98799 18.003 7.92899 17.925 7.87799C18.452 7.53099 18.912 6.92099 19.038 6.61799C19.266 6.61599 19.474 6.60799 19.669 6.59699C19.831 6.58799 19.982 6.57499 20.127 6.55999C20.35 6.53699 20.556 6.50599 20.757 6.47099C20.991 6.42899 21.22 6.37899 21.452 6.32399L21.451 6.32299Z" fill="#F2D347"/>
<path d="M20.32 15.696L21.983 15.168L20.019 14.926C20.506 14.618 21.076 14.446 21.662 14.435C21.146 14.191 20.576 14.089 20.018 14.136L21.378 13.043L19.458 13.527C19.801 13.064 20.271 12.697 20.813 12.474C20.244 12.433 19.676 12.544 19.172 12.789L20.045 11.278L18.429 12.423C18.581 11.867 18.887 11.355 19.313 10.952C18.767 11.119 18.278 11.428 17.897 11.839L18.165 10.114L17.073 11.764C17.014 11.191 17.115 10.604 17.366 10.074C16.917 10.427 16.573 10.892 16.365 11.412L15.992 9.707L15.569 11.642C15.307 11.129 15.188 10.545 15.231 9.959C14.94 10.45 14.787 11.008 14.781 11.569L13.818 10.114L14.123 12.071C13.693 11.687 13.371 11.185 13.2 10.624C13.106 11.187 13.165 11.763 13.362 12.287L11.938 11.278L12.928 12.992C12.389 12.789 11.908 12.438 11.546 11.977C11.662 12.536 11.924 13.052 12.298 13.469L10.606 13.043L12.149 14.284C11.573 14.29 10.997 14.136 10.492 13.837C10.802 14.316 11.233 14.702 11.732 14.957L10 15.171L12.73 16.038C12.937 19.471 18.114 20.043 19.093 16.782C19.902 16.329 20.874 16.253 21.745 16.572C21.352 16.158 20.858 15.857 20.32 15.699V15.696Z" fill="#F2D347"/>
<path d="M1 17H31V24C31 26.208 29.208 28 27 28H5C2.792 28 1 26.208 1 24V17Z" fill="#182C6D"/>
<path d="M29.178 23.901C27.683 24.499 26.229 24.499 24.736 23.901C22.761 23.11 20.666 23.106 18.513 23.889C16.822 24.503 15.179 24.503 13.488 23.889C11.337 23.106 9.242 23.11 7.265 23.901C5.772 24.499 4.318 24.499 2.823 23.901C2.218 23.659 1.61 23.499 1.001 23.405V24.001C1.001 24.583 1.131 25.132 1.355 25.63C1.586 25.694 1.816 25.746 2.048 25.839C4.035 26.634 6.052 26.635 8.041 25.839C9.546 25.237 11.097 25.24 12.775 25.851C14.916 26.63 17.086 26.63 19.226 25.851C20.905 25.241 22.455 25.237 23.96 25.839C25.949 26.635 27.966 26.634 29.953 25.839C30.185 25.746 30.416 25.694 30.646 25.63C30.869 25.131 31 24.582 31 24.001V23.405C30.391 23.5 29.783 23.659 29.178 23.901Z" fill="white"/>
<path d="M31 19.231C30.391 19.326 29.783 19.485 29.178 19.727C27.685 20.324 26.231 20.325 24.736 19.727C22.761 18.936 20.666 18.932 18.513 19.715C16.822 20.329 15.179 20.329 13.488 19.715C11.335 18.932 9.242 18.936 7.265 19.727C5.772 20.324 4.318 20.325 2.823 19.727C2.218 19.485 1.61 19.325 1.001 19.231V21.349C1.348 21.423 1.697 21.524 2.048 21.665C4.037 22.46 6.054 22.459 8.041 21.665C9.546 21.063 11.097 21.066 12.775 21.677C14.916 22.455 17.086 22.455 19.226 21.677C20.905 21.066 22.455 21.063 23.96 21.665C25.949 22.46 27.966 22.459 29.953 21.665C30.304 21.525 30.652 21.424 31 21.349V19.231Z" fill="white"/>
<path d="M31 15.057C30.391 15.152 29.783 15.311 29.178 15.553C27.685 16.15 26.231 16.151 24.736 15.553C22.761 14.762 20.666 14.758 18.513 15.541C16.822 16.155 15.179 16.155 13.488 15.541C11.335 14.758 9.242 14.762 7.265 15.553C5.772 16.15 4.318 16.151 2.823 15.553C2.218 15.311 1.61 15.151 1.001 15.057V17.175C1.348 17.249 1.697 17.35 2.048 17.491C4.037 18.286 6.054 18.285 8.041 17.491C9.546 16.888 11.097 16.892 12.775 17.503C14.916 18.281 17.086 18.281 19.226 17.503C20.905 16.893 22.455 16.889 23.96 17.491C25.949 18.286 27.966 18.285 29.953 17.491C30.304 17.351 30.652 17.25 31 17.175V15.057Z" fill="white"/>
<path opacity="0.15" d="M27 4H5C2.791 4 1 5.791 1 8V24C1 26.209 2.791 28 5 28H27C29.209 28 31 26.209 31 24V8C31 5.791 29.209 4 27 4ZM30 24C30 25.654 28.654 27 27 27H5C3.346 27 2 25.654 2 24V8C2 6.346 3.346 5 5 5H27C28.654 5 30 6.346 30 8V24Z" fill="black"/>
<path opacity="0.2" d="M27 5H5C3.343 5 2 6.343 2 8V9C2 7.343 3.343 6 5 6H27C28.657 6 30 7.343 30 9V8C30 6.343 28.657 5 27 5Z" fill="white"/>
</svg>
