<svg width="32" height="32" viewBox="0 0 32 32" fill="none" xmlns="http://www.w3.org/2000/svg">
<path d="M1 15H31V22H1V15Z" fill="#DD4446"/>
<path d="M1 9H31V16H1V9Z" fill="white"/>
<path d="M5 4H27C29.208 4 31 5.792 31 8V10H1V8C1 5.792 2.792 4 5 4Z" fill="#F8D448"/>
<path d="M27 28L5 28C2.792 28 1 26.208 1 24V22L31 22V24C31 26.208 29.208 28 27 28Z" fill="#163AA0"/>
<path d="M2.316 26.947L16 16L2.316 5.05299C1.513 5.78499 1 6.82899 1 7.99999V24C1 25.172 1.513 26.216 2.316 26.947Z" fill="#439543"/>
<path opacity="0.15" d="M27 4H5C2.791 4 1 5.791 1 8V24C1 26.209 2.791 28 5 28H27C29.209 28 31 26.209 31 24V8C31 5.791 29.209 4 27 4ZM30 24C30 25.654 28.654 27 27 27H5C3.346 27 2 25.654 2 24V8C2 6.346 3.346 5 5 5H27C28.654 5 30 6.346 30 8V24Z" fill="black"/>
<path d="M4.957 16.535C4.661 14.073 6.417 11.837 8.879 11.54C8.07 11.316 7.216 11.316 6.407 11.54C3.945 12.223 2.502 14.772 3.185 17.235C3.868 19.697 6.417 21.14 8.88 20.457C6.825 20.21 5.205 18.59 4.958 16.535H4.957Z" fill="white"/>
<path d="M9.094 12.711L8.88 12.053L8.666 12.711H7.974L8.534 13.118L8.32 13.776L8.88 13.37L9.44 13.776L9.226 13.118L9.786 12.711H9.094Z" fill="white"/>
<path d="M8.88 14.094L8.666 14.752H7.974L8.534 15.159L8.32 15.818L8.88 15.411L9.44 15.818L9.226 15.159L9.786 14.752H9.094L8.88 14.094Z" fill="white"/>
<path d="M8.88 16.135L8.666 16.794H7.974L8.534 17.2L8.32 17.859L8.88 17.452L9.44 17.859L9.226 17.201L9.786 16.794H9.093L8.88 16.135Z" fill="white"/>
<path d="M9.093 18.835L8.88 18.177L8.666 18.835H7.974L8.534 19.242L8.32 19.9L8.88 19.493L9.44 19.9L9.226 19.242L9.786 18.835H9.093Z" fill="white"/>
<path opacity="0.2" d="M27 5H5C3.343 5 2 6.343 2 8V9C2 7.343 3.343 6 5 6H27C28.657 6 30 7.343 30 9V8C30 6.343 28.657 5 27 5Z" fill="white"/>
</svg>
