<svg width="32" height="32" viewBox="0 0 32 32" fill="none" xmlns="http://www.w3.org/2000/svg">
<path d="M2.316 26.947L29.684 5.053C28.973 4.405 28.037 4 27 4H5C2.791 4 1 5.791 1 8V24C1 25.172 1.513 26.216 2.316 26.947Z" fill="#439643"/>
<path d="M29.684 5.05298L2.31601 26.947C3.02701 27.595 3.96301 28 5.00001 28H27C29.209 28 31 26.209 31 24V7.99998C31 6.82798 30.487 5.78398 29.684 5.05298Z" fill="#B92932"/>
<path d="M27 4H25.397L1 23.518V24C1 26.209 2.791 28 5 28H6.603L31 8.482V8C31 5.791 29.209 4 27 4Z" fill="#F2D84B"/>
<path d="M27 4H26.998L1.07401 24.739C1.42101 26.594 3.04401 28 5.00001 28H5.00201L30.926 7.261C30.579 5.406 28.956 4 27 4Z" fill="black"/>
<path d="M12.462 19.359L12.907 17.755L11.604 18.791L10.216 17.872L10.799 19.432L9.496 20.468L11.159 20.396L11.742 21.955L12.187 20.351L13.851 20.278L12.462 19.359Z" fill="white"/>
<path d="M21.07 13.286L22.733 13.214L21.345 12.295L21.79 10.691L20.487 11.727L19.099 10.808L19.682 12.367L18.379 13.404L20.042 13.331L20.625 14.891L21.07 13.286Z" fill="white"/>
<path opacity="0.15" d="M27 4H5C2.791 4 1 5.791 1 8V24C1 26.209 2.791 28 5 28H27C29.209 28 31 26.209 31 24V8C31 5.791 29.209 4 27 4ZM30 24C30 25.654 28.654 27 27 27H5C3.346 27 2 25.654 2 24V8C2 6.346 3.346 5 5 5H27C28.654 5 30 6.346 30 8V24Z" fill="black"/>
<path opacity="0.2" d="M27 5H5C3.343 5 2 6.343 2 8V9C2 7.343 3.343 6 5 6H27C28.657 6 30 7.343 30 9V8C30 6.343 28.657 5 27 5Z" fill="white"/>
</svg>
