<svg width="32" height="32" viewBox="0 0 32 32" fill="none" xmlns="http://www.w3.org/2000/svg">
<path d="M1 8H31V24H1V8Z" fill="#DA3530"/>
<path d="M5 4H27C29.208 4 31 5.792 31 8V9H1V8C1 5.792 2.792 4 5 4Z" fill="#1F4D9E"/>
<path d="M27 28L5 28C2.792 28 1 26.208 1 24V23L31 23V24C31 26.208 29.208 28 27 28Z" fill="#1F4D9E"/>
<path d="M1 9H31V10H1V9Z" fill="white"/>
<path d="M1 22H31V23H1V22Z" fill="white"/>
<path opacity="0.15" d="M27 4H5C2.791 4 1 5.791 1 8V24C1 26.209 2.791 28 5 28H27C29.209 28 31 26.209 31 24V8C31 5.791 29.209 4 27 4ZM30 24C30 25.654 28.654 27 27 27H5C3.346 27 2 25.654 2 24V8C2 6.346 3.346 5 5 5H27C28.654 5 30 6.346 30 8V24Z" fill="black"/>
<path opacity="0.2" d="M27 5H5C3.343 5 2 6.343 2 8V9C2 7.343 3.343 6 5 6H27C28.657 6 30 7.343 30 9V8C30 6.343 28.657 5 27 5Z" fill="white"/>
<path d="M10.312 12C8.275 12 6.625 13.651 6.625 15.688C6.625 17.725 8.276 19.376 10.312 19.376C12.348 19.376 14 17.725 14 15.688C14 13.651 12.349 12 10.312 12ZM12.412 18.578L10.312 17.052L8.212 18.578L9.014 16.11L6.914 14.584H9.509L10.311 12.116L11.113 14.584H13.708L11.608 16.11L12.41 18.578H12.412Z" fill="white"/>
</svg>
