<svg width="32" height="32" viewBox="0 0 32 32" fill="none" xmlns="http://www.w3.org/2000/svg">
<path d="M27 4H5C2.79086 4 1 5.79086 1 8V24C1 26.2091 2.79086 28 5 28H27C29.2091 28 31 26.2091 31 24V8C31 5.79086 29.2091 4 27 4Z" fill="white"/>
<path opacity="0.15" d="M27 4H5C2.791 4 1 5.791 1 8V24C1 26.209 2.791 28 5 28H27C29.209 28 31 26.209 31 24V8C31 5.791 29.209 4 27 4ZM30 24C30 25.654 28.654 27 27 27H5C3.346 27 2 25.654 2 24V8C2 6.346 3.346 5 5 5H27C28.654 5 30 6.346 30 8V24Z" fill="black"/>
<path d="M6.57153 12.4377L9.08598 8.66606L9.71418 9.08486L7.19973 12.8565L6.57153 12.4377Z" fill="black"/>
<path d="M7.5148 13.0671L10.0293 9.29545L10.6575 9.71425L8.143 13.4859L7.5148 13.0671Z" fill="black"/>
<path d="M8.45569 13.6952L10.9701 9.9235L11.5983 10.3423L9.08389 14.114L8.45569 13.6952Z" fill="black"/>
<path d="M23.648 20.8714L24.8001 19.1432L25.4283 19.562L24.2762 21.2902L23.648 20.8714Z" fill="black"/>
<path d="M22.2852 22.9148L23.4378 21.1858L24.066 21.6046L22.9134 23.3336L22.2852 22.9148Z" fill="black"/>
<path d="M22.7042 20.2428L23.8563 18.5146L24.4845 18.9334L23.3324 20.6616L22.7042 20.2428Z" fill="black"/>
<path d="M21.3423 22.2863L22.4944 20.5581L23.1226 20.9769L21.9705 22.7051L21.3423 22.2863Z" fill="black"/>
<path d="M21.7621 19.6148L22.9143 17.8866L23.5425 18.3054L22.3903 20.0336L21.7621 19.6148Z" fill="black"/>
<path d="M20.4005 21.6566L21.5527 19.9284L22.1809 20.3472L21.0287 22.0754L20.4005 21.6566Z" fill="black"/>
<path d="M12.229 13.486C13.618 11.403 16.432 10.84 18.515 12.229C20.598 13.618 21.161 16.432 19.772 18.515L12.229 13.486Z" fill="#BE3B3E"/>
<path d="M12.229 13.486C10.84 15.569 11.403 18.383 13.486 19.772C15.569 21.161 18.383 20.598 19.772 18.515C20.466 17.474 20.185 16.066 19.143 15.372C18.101 14.678 16.694 14.959 16 16.001L12.229 13.487V13.486Z" fill="#1C449C"/>
<path d="M14.114 17.009C15.3655 17.009 16.38 15.9945 16.38 14.743C16.38 13.4915 15.3655 12.477 14.114 12.477C12.8625 12.477 11.848 13.4915 11.848 14.743C11.848 15.9945 12.8625 17.009 14.114 17.009Z" fill="#BE3B3E"/>
<path d="M6.57153 19.5623L7.19973 19.1435L9.71418 22.9151L9.08598 23.3339L6.57153 19.5623Z" fill="black"/>
<path d="M8.45825 18.3057L9.08645 17.8869L11.6009 21.6586L10.9727 22.0774L8.45825 18.3057Z" fill="black"/>
<path d="M21.3435 9.71423L21.9717 9.29544L24.4862 13.0671L23.858 13.4859L21.3435 9.71423Z" fill="black"/>
<path d="M7.51416 18.9332L8.14236 18.5144L9.29447 20.2425L8.66627 20.6613L7.51416 18.9332Z" fill="black"/>
<path d="M8.87558 20.9764L9.50377 20.5576L10.6559 22.2857L10.0277 22.7045L8.87558 20.9764Z" fill="black"/>
<path d="M20.4 10.3426L21.0282 9.92379L22.1803 11.652L21.5521 12.0708L20.4 10.3426Z" fill="black"/>
<path d="M21.7625 12.3854L22.3907 11.9666L23.5429 13.6948L22.9147 14.1136L21.7625 12.3854Z" fill="black"/>
<path d="M22.2852 9.08618L22.9134 8.66738L24.0655 10.3956L23.4373 10.8144L22.2852 9.08618Z" fill="black"/>
<path d="M23.6479 11.1296L24.276 10.7108L25.4282 12.4389L24.8 12.8577L23.6479 11.1296Z" fill="black"/>
<path opacity="0.2" d="M27 5H5C3.343 5 2 6.343 2 8V9C2 7.343 3.343 6 5 6H27C28.657 6 30 7.343 30 9V8C30 6.343 28.657 5 27 5Z" fill="white"/>
</svg>
