<svg width="32" height="32" viewBox="0 0 32 32" fill="none" xmlns="http://www.w3.org/2000/svg">
<path d="M27 4H5C2.79086 4 1 5.79086 1 8V24C1 26.2091 2.79086 28 5 28H27C29.2091 28 31 26.2091 31 24V8C31 5.79086 29.2091 4 27 4Z" fill="#001B69"/>
<path d="M6.5 13.774V16H10.5V13.773L13.537 16H16V14.759L12.238 12H16V8H13.26L16 5.991V4H14.559L10.5 6.977V4H6.5V6.794L3.243 4.405C2.476 4.779 1.854 5.388 1.457 6.143L3.989 8.001H1V12.001H4.763L1 14.761V16.001H3.464L6.5 13.774Z" fill="white"/>
<path d="M1.806 5.589L5.091 8H6.455L2.36 4.995C2.156 5.175 1.97 5.372 1.806 5.589Z" fill="#CA0A2B"/>
<path d="M1 16L6.454 12V13L2.363 16H1Z" fill="#CA0A2B"/>
<path d="M9.5 16H7.5V11H1V9H7.5V4H9.5V9H16V11H9.5V16Z" fill="#CA0A2B"/>
<path d="M16 15.667L11 12V13L15.091 16H16V15.667Z" fill="#CA0A2B"/>
<path d="M16 4H15.752L10.291 8.004H11.655L16 4.818V4Z" fill="#CA0A2B"/>
<path opacity="0.15" d="M27 4H5C2.791 4 1 5.791 1 8V24C1 26.209 2.791 28 5 28H27C29.209 28 31 26.209 31 24V8C31 5.791 29.209 4 27 4ZM30 24C30 25.654 28.654 27 27 27H5C3.346 27 2 25.654 2 24V8C2 6.346 3.346 5 5 5H27C28.654 5 30 6.346 30 8V24Z" fill="black"/>
<path opacity="0.2" d="M27 5H5C3.343 5 2 6.343 2 8V9C2 7.343 3.343 6 5 6H27C28.657 6 30 7.343 30 9V8C30 6.343 28.657 5 27 5Z" fill="white"/>
<path d="M22.447 12.392C22.092 12.071 20.941 11.163 20.514 10.907C20.478 10.886 20.463 10.843 20.476 10.803C20.489 10.765 20.537 10.709 20.577 10.709H20.582C20.797 10.737 21.027 10.803 21.271 10.904C20.99 10.682 20.716 10.498 20.491 10.38C20.454 10.361 20.436 10.318 20.448 10.279C20.459 10.24 20.505 10.179 20.546 10.179H20.549C20.875 10.202 21.218 10.301 21.609 10.487C21.289 10.141 20.939 9.843 20.655 9.681C20.618 9.66 20.602 9.616 20.616 9.576C20.63 9.538 20.678 9.484 20.718 9.484C20.72 9.484 20.722 9.484 20.725 9.484C21.107 9.546 21.494 9.711 21.878 9.975L21.561 9.36C21.542 9.323 21.551 9.278 21.583 9.252C21.605 9.233 21.648 9.216 21.683 9.216C21.698 9.216 21.711 9.22 21.721 9.227L21.924 9.378C22.085 9.495 22.233 9.603 22.405 9.774C22.209 9.388 22.006 9.074 21.811 8.79C21.79 8.758 21.791 8.716 21.814 8.686C21.831 8.665 21.856 8.652 21.883 8.652C21.893 8.652 21.904 8.654 21.914 8.658C22.222 8.774 22.486 8.973 22.739 9.281C22.838 9.207 22.948 9.171 23.074 9.171C23.123 9.171 23.174 9.176 23.229 9.187C23.21 9.022 23.269 8.887 23.322 8.765C23.352 8.697 23.383 8.627 23.399 8.55C23.406 8.517 23.433 8.49 23.466 8.483C23.472 8.483 23.478 8.481 23.484 8.481C23.512 8.481 23.538 8.495 23.555 8.517C23.61 8.593 23.659 8.697 23.692 8.807C23.813 8.674 23.986 8.528 24.163 8.484C24.17 8.482 24.177 8.481 24.184 8.481C24.22 8.481 24.252 8.503 24.266 8.538C24.282 8.58 24.277 8.661 24.237 8.682C24.225 8.689 24.212 8.715 24.2 8.747C24.323 8.681 24.447 8.643 24.555 8.643C24.597 8.65 24.697 8.691 24.697 8.734C24.697 8.776 24.668 8.85 24.626 8.858C24.517 8.879 24.47 8.977 24.405 9.138L24.393 9.167C24.434 9.158 24.477 9.15 24.525 9.143C24.634 8.986 24.811 8.807 25.006 8.621C25.023 8.605 25.045 8.597 25.067 8.597C25.086 8.597 25.104 8.603 25.12 8.615C25.153 8.64 25.194 8.708 25.176 8.746C25.104 8.897 25.024 9.101 24.936 9.366C25.156 9.159 25.41 8.989 25.704 8.853C25.716 8.847 25.728 8.844 25.741 8.844C25.769 8.844 25.797 8.859 25.814 8.883C25.837 8.918 25.854 8.995 25.824 9.025C25.629 9.219 25.346 9.682 25.12 10.155C25.845 9.398 26.479 9.149 26.74 9.047C26.751 9.042 26.761 9.04 26.772 9.04C26.801 9.04 26.828 9.055 26.845 9.08C26.868 9.114 26.884 9.19 26.854 9.22C26.527 9.547 26.122 10.008 25.754 10.463C26.139 10.178 26.595 9.901 27.079 9.74C27.088 9.737 27.098 9.735 27.107 9.735C27.137 9.735 27.166 9.751 27.182 9.777C27.203 9.812 27.217 9.889 27.187 9.918C26.907 10.187 26.488 10.604 26.085 11.01C26.388 10.923 26.664 10.879 26.909 10.879C27.017 10.879 27.12 10.888 27.218 10.906C27.257 10.914 27.318 10.952 27.322 10.991C27.325 11.03 27.335 11.073 27.298 11.087C26.778 11.279 25.509 11.86 24.904 12.425C24.888 12.44 24.866 12.448 24.844 12.448L22.449 12.392H22.447Z" fill="#F9D24E"/>
<path d="M24.184 8.569L24.197 8.604C24.107 8.648 24.087 8.851 24.044 8.96C24.209 8.819 24.403 8.731 24.553 8.731C24.572 8.731 24.591 8.732 24.609 8.735V8.772C24.366 8.817 24.349 9.127 24.222 9.312C24.317 9.268 24.431 9.245 24.537 9.229C24.698 9.045 24.872 8.868 25.066 8.684L25.096 8.706C24.974 8.962 24.847 9.337 24.73 9.716C25 9.376 25.331 9.12 25.739 8.931L25.76 8.961C25.472 9.249 25.042 10.028 24.819 10.627C25.674 9.559 26.457 9.249 26.77 9.125L26.79 9.156C26.286 9.66 25.634 10.44 25.207 11.027C25.637 10.633 26.338 10.077 27.105 9.821L27.124 9.852C26.783 10.178 26.239 10.723 25.765 11.204C26.15 11.061 26.553 10.963 26.905 10.963C27.007 10.963 27.105 10.971 27.198 10.989L27.264 11.002C26.787 11.179 25.475 11.767 24.841 12.358L22.448 12.302C22.149 12.003 20.987 11.087 20.558 10.829L20.57 10.794C20.962 10.845 21.406 11.024 21.896 11.327C21.453 10.909 20.929 10.509 20.531 10.3L20.541 10.265C21.015 10.299 21.492 10.5 21.973 10.777C21.55 10.244 21.046 9.803 20.698 9.604L20.71 9.569C21.183 9.645 21.658 9.884 22.132 10.279C21.97 9.969 21.779 9.588 21.637 9.318L21.666 9.295C22.033 9.579 22.278 9.69 22.74 10.301C22.469 9.635 22.17 9.16 21.882 8.74C22.2 8.86 22.467 9.072 22.726 9.407C22.832 9.299 22.947 9.257 23.073 9.257C23.159 9.257 23.25 9.276 23.348 9.306C23.233 9.004 23.429 8.823 23.484 8.567C23.554 8.665 23.623 8.833 23.646 9.001C23.751 8.853 23.975 8.619 24.183 8.567M23.483 8.392C23.471 8.392 23.459 8.393 23.447 8.396C23.379 8.41 23.326 8.463 23.312 8.531C23.297 8.602 23.268 8.666 23.24 8.73C23.196 8.831 23.145 8.948 23.137 9.085C23.115 9.083 23.093 9.082 23.072 9.082C22.956 9.082 22.85 9.11 22.754 9.165C22.507 8.879 22.246 8.69 21.943 8.576C21.923 8.568 21.902 8.565 21.881 8.565C21.828 8.565 21.777 8.589 21.743 8.632C21.696 8.692 21.693 8.776 21.736 8.839C21.854 9.011 21.974 9.193 22.094 9.396C22.053 9.366 22.013 9.336 21.972 9.307C21.908 9.26 21.842 9.212 21.771 9.157C21.739 9.133 21.702 9.12 21.664 9.12C21.625 9.12 21.585 9.133 21.553 9.16C21.489 9.213 21.442 9.327 21.48 9.4C21.532 9.499 21.59 9.612 21.652 9.731C21.347 9.558 21.04 9.445 20.736 9.396C20.727 9.394 20.717 9.394 20.708 9.394C20.635 9.394 20.568 9.44 20.543 9.511C20.515 9.591 20.535 9.714 20.609 9.756C20.773 9.85 20.996 10.017 21.234 10.237C20.994 10.154 20.769 10.106 20.552 10.09C20.548 10.09 20.544 10.09 20.539 10.09C20.461 10.09 20.392 10.142 20.371 10.217C20.348 10.297 20.375 10.417 20.448 10.455C20.549 10.508 20.66 10.575 20.778 10.653C20.714 10.639 20.652 10.628 20.591 10.62C20.583 10.62 20.576 10.619 20.568 10.619C20.494 10.619 20.428 10.666 20.403 10.736C20.376 10.814 20.395 10.936 20.466 10.978C20.878 11.225 22.035 12.138 22.322 12.425C22.354 12.457 22.397 12.475 22.442 12.476L24.835 12.532H24.839C24.883 12.532 24.926 12.515 24.958 12.485C25.552 11.931 26.808 11.357 27.323 11.165C27.397 11.138 27.443 11.065 27.436 10.986C27.429 10.907 27.372 10.843 27.295 10.829L27.229 10.816C27.129 10.797 27.019 10.787 26.904 10.787C26.737 10.787 26.556 10.807 26.363 10.846C26.693 10.515 27.014 10.196 27.243 9.977C27.302 9.92 27.314 9.83 27.272 9.76C27.236 9.701 27.157 9.647 27.086 9.647C27.073 9.647 27.06 9.649 27.048 9.653C26.754 9.751 26.47 9.89 26.206 10.049C26.453 9.761 26.7 9.491 26.913 9.278C26.972 9.219 26.981 9.127 26.936 9.058C26.899 9.002 26.82 8.952 26.751 8.952C26.735 8.952 26.72 8.955 26.705 8.96C26.485 9.047 26.009 9.235 25.436 9.727C25.596 9.446 25.758 9.207 25.883 9.083C25.943 9.023 25.951 8.928 25.903 8.859C25.865 8.805 25.788 8.759 25.719 8.759C25.7 8.759 25.682 8.763 25.665 8.77C25.467 8.861 25.287 8.967 25.123 9.089C25.169 8.967 25.212 8.864 25.253 8.778C25.289 8.702 25.266 8.611 25.198 8.561C25.16 8.534 25.106 8.517 25.054 8.517C25.012 8.517 24.972 8.528 24.944 8.554C24.885 8.61 24.829 8.664 24.776 8.717C24.758 8.644 24.704 8.57 24.636 8.559C24.609 8.554 24.581 8.552 24.552 8.552C24.494 8.552 24.433 8.561 24.371 8.578C24.368 8.565 24.365 8.552 24.36 8.539C24.332 8.465 24.249 8.391 24.17 8.391C24.16 8.391 24.15 8.392 24.141 8.395C23.991 8.433 23.846 8.535 23.727 8.645C23.698 8.577 23.663 8.514 23.626 8.463C23.593 8.417 23.54 8.39 23.484 8.39L23.483 8.392Z" fill="white"/>
<path d="M26.888 15.128C26.774 15.128 26.673 15.075 26.576 15.024C26.478 14.971 26.385 14.922 26.278 14.922L26.176 14.927C25.815 14.927 25.747 14.688 25.687 14.477C25.666 14.402 25.644 14.325 25.61 14.249C25.24 14.395 24.699 14.478 24.107 14.478C23.6 14.478 23.123 14.415 22.799 14.305C22.507 14.539 22.089 14.669 21.668 14.669C21.075 14.669 20.544 14.399 20.378 14.013C20.265 13.751 20.331 13.472 20.562 13.228C20.527 12.95 20.392 12.872 20.094 12.866H20.09C19.88 12.866 19.668 12.772 19.531 12.634C19.441 12.543 19.391 12.442 19.385 12.341C19.383 12.333 19.382 12.326 19.382 12.319C19.361 12.338 19.295 12.381 19.262 12.381C19.259 12.381 19.205 12.381 19.191 12.381C19.17 12.381 19.153 12.378 19.149 12.364C19.093 12.191 19.114 12.019 19.205 11.891C19.292 11.768 19.432 11.699 19.598 11.695C19.656 11.684 19.715 11.651 19.777 11.617C19.866 11.567 19.967 11.511 20.112 11.511C20.475 11.516 20.639 11.657 20.783 11.782C20.894 11.877 20.998 11.968 21.14 11.992C21.173 11.949 21.322 11.895 21.449 11.895C21.459 11.895 21.562 11.911 21.572 11.915C21.773 11.664 22.079 11.527 22.394 11.527C22.473 11.527 22.554 11.536 22.633 11.552C22.706 11.474 22.878 11.425 23.062 11.425C23.196 11.425 23.331 11.451 23.452 11.501C23.549 11.471 23.7 11.456 23.85 11.456C24.268 11.456 24.612 11.569 24.87 11.794C24.861 11.769 24.915 11.767 24.969 11.767C25.648 11.767 26.129 12.118 26.643 12.643C26.676 12.708 26.767 12.744 26.832 12.769C26.914 12.801 27.01 12.838 27.055 12.907C27.072 12.902 27.091 12.896 27.108 12.891C27.17 12.872 27.234 12.853 27.294 12.853C27.325 12.853 27.435 12.908 27.451 12.933C27.478 13.079 27.388 13.157 27.3 13.232C27.239 13.286 27.175 13.341 27.154 13.399C27.028 13.62 26.862 13.662 26.649 13.662H26.595C26.647 13.741 26.702 13.809 26.761 13.881C26.927 14.084 27.097 14.295 27.158 14.754C27.201 14.949 27.115 15.047 27.06 15.087C26.995 15.119 26.942 15.131 26.889 15.131L26.888 15.128Z" fill="#009431"/>
<path d="M23.062 11.51C23.185 11.51 23.309 11.534 23.419 11.58C23.56 11.556 23.706 11.541 23.851 11.541C24.199 11.541 24.545 11.624 24.812 11.857C24.865 11.853 24.917 11.851 24.968 11.851C25.599 11.851 26.057 12.167 26.579 12.701C26.639 12.851 27.007 12.856 26.991 13.003H26.993C27.071 13.003 27.202 12.938 27.292 12.938C27.328 12.938 27.357 12.948 27.374 12.976C27.39 13.098 27.131 13.2 27.069 13.365C26.974 13.53 26.849 13.571 26.647 13.571C26.591 13.571 26.528 13.568 26.459 13.563C26.455 13.569 26.45 13.574 26.446 13.58C26.658 13.993 26.981 14.099 27.068 14.762C27.101 14.908 27.052 14.979 27.005 15.013C26.963 15.032 26.924 15.04 26.885 15.04C26.689 15.04 26.519 14.834 26.275 14.834C26.258 14.834 26.24 14.834 26.222 14.837C26.205 14.837 26.188 14.838 26.173 14.838C25.738 14.838 25.838 14.458 25.648 14.137C25.265 14.308 24.677 14.389 24.106 14.389C23.622 14.389 23.15 14.331 22.826 14.221C22.441 14.476 22.035 14.58 21.667 14.58C20.729 14.58 20.044 13.898 20.624 13.287C20.74 13.189 20.722 13.204 20.643 13.12C20.598 12.858 20.386 12.783 20.094 12.776C20.083 12.776 20.072 12.777 20.061 12.777C19.802 12.777 19.468 12.554 19.47 12.316H19.468V12.301C19.41 12.286 19.377 12.269 19.345 12.269C19.314 12.269 19.283 12.285 19.231 12.333C19.135 12.037 19.301 11.785 19.598 11.778C19.793 11.744 19.893 11.593 20.111 11.593C20.134 11.593 20.159 11.595 20.185 11.598C20.193 11.598 20.201 11.598 20.209 11.598C20.633 11.598 20.76 12.009 21.125 12.072C21.201 12.028 21.335 11.976 21.449 11.976C21.482 11.976 21.514 11.98 21.541 11.99C21.785 11.764 22.07 11.608 22.392 11.608C22.464 11.608 22.538 11.616 22.614 11.632C22.744 11.546 22.902 11.506 23.061 11.506M23.061 11.331C22.886 11.331 22.722 11.371 22.581 11.448C22.518 11.438 22.455 11.433 22.392 11.433C22.08 11.433 21.776 11.557 21.489 11.802C21.476 11.802 21.462 11.8 21.449 11.8C21.327 11.8 21.198 11.841 21.103 11.885C21.009 11.854 20.93 11.785 20.84 11.708C20.691 11.58 20.506 11.421 20.209 11.421C20.175 11.418 20.142 11.416 20.111 11.416C19.944 11.416 19.827 11.481 19.733 11.533C19.675 11.565 19.624 11.594 19.568 11.604C19.403 11.605 19.234 11.69 19.132 11.833C19.025 11.984 19 12.185 19.064 12.385C19.082 12.442 19.128 12.485 19.186 12.5C19.201 12.504 19.216 12.506 19.231 12.506C19.264 12.506 19.297 12.496 19.326 12.478C19.354 12.552 19.402 12.624 19.468 12.69C19.624 12.847 19.857 12.949 20.062 12.949C20.067 12.949 20.105 12.948 20.109 12.947C20.412 12.955 20.455 13.049 20.472 13.146C20.474 13.158 20.478 13.171 20.482 13.182C20.236 13.458 20.174 13.757 20.296 14.042C20.478 14.466 21.029 14.751 21.667 14.751C22.078 14.751 22.485 14.633 22.851 14.408C23.179 14.505 23.63 14.56 24.106 14.56C24.666 14.56 25.183 14.487 25.559 14.356C25.575 14.402 25.589 14.449 25.602 14.495C25.663 14.712 25.748 15.008 26.174 15.008L26.234 15.006C26.234 15.006 26.242 15.006 26.246 15.006C26.368 15.006 26.449 15.049 26.534 15.094C26.636 15.148 26.751 15.209 26.887 15.209C26.953 15.209 27.018 15.194 27.081 15.166C27.169 15.107 27.299 14.98 27.241 14.718C27.18 14.249 26.993 14.019 26.828 13.816C26.806 13.789 26.784 13.762 26.763 13.735C26.93 13.719 27.101 13.657 27.223 13.447C27.249 13.384 27.309 13.332 27.357 13.29C27.452 13.207 27.57 13.105 27.549 12.948C27.546 12.924 27.538 12.9 27.525 12.879C27.497 12.834 27.43 12.757 27.293 12.757C27.221 12.757 27.147 12.779 27.083 12.799C27.018 12.74 26.929 12.705 26.864 12.679C26.822 12.663 26.752 12.635 26.735 12.618C26.726 12.597 26.722 12.591 26.706 12.574C26.177 12.032 25.679 11.671 24.97 11.671C24.938 11.671 24.905 11.671 24.871 11.673C24.604 11.466 24.262 11.361 23.852 11.361C23.72 11.361 23.581 11.372 23.438 11.394C23.32 11.352 23.191 11.329 23.063 11.329L23.061 11.331Z" fill="white"/>
<path d="M23.626 23.62C21.942 23.62 20.489 22.619 19.892 22.14C19.74 22.271 19.611 22.324 19.486 22.324C19.2 22.284 18.686 21.94 18.637 21.511C18.597 21.166 18.823 20.893 19.029 20.763C19.26 20.582 19.495 20.345 19.529 20.272C19.67 20.072 19.791 19.986 19.927 19.964C19.841 19.786 19.795 19.6 19.792 19.402L19.82 14.04H27.474V19.41C27.477 19.61 27.425 19.804 27.321 19.996C27.601 20.08 27.75 20.261 27.894 20.435C28.014 20.581 28.179 20.781 28.29 20.82L28.433 20.918C28.772 21.428 28.526 21.933 28.238 22.124C28.169 22.17 27.937 22.288 27.698 22.288C27.617 22.288 27.541 22.275 27.473 22.248C27.417 22.226 27.367 22.196 27.323 22.16C26.711 22.662 25.334 23.621 23.752 23.621L23.626 23.619V23.62Z" fill="white"/>
<path d="M23.579 22.204C21.257 21.007 20.044 20.339 20.03 19.399L20.057 14.279H27.236V19.411C27.25 20.275 25.945 21.09 23.686 22.205L23.633 22.232L23.58 22.205L23.579 22.204Z" fill="#CA0A2B"/>
<path d="M23.63 23.382C21.827 23.382 20.288 22.172 19.879 21.821L19.828 21.877C19.739 21.973 19.608 22.087 19.485 22.087C19.323 22.063 18.908 21.791 18.872 21.485C18.835 21.175 19.122 20.987 19.154 20.966C19.375 20.794 19.716 20.482 19.753 20.348C19.847 20.227 19.919 20.198 20 20.198C20.187 20.198 20.365 20.356 20.385 20.374C20.411 20.402 21.85 22.028 23.444 22.028L23.585 22.024C24.547 21.997 25.323 21.626 25.806 21.32C26.321 20.993 26.624 20.668 26.658 20.622C26.706 20.528 26.943 20.21 27.211 20.21C27.432 20.255 27.555 20.402 27.709 20.589C27.863 20.775 28.036 20.986 28.208 21.047L28.282 21.107C28.504 21.456 28.276 21.815 28.104 21.929C28.045 21.968 27.86 22.054 27.696 22.054C27.645 22.054 27.598 22.046 27.557 22.03C27.467 21.995 27.404 21.924 27.381 21.829V21.8C26.999 22.143 25.491 23.387 23.75 23.387L23.628 23.385L23.63 23.382Z" fill="#F9D24E"/>
<path d="M27.237 19.41V16.09C27.052 16.09 26.912 16.181 26.675 16.386C26.374 16.647 26.033 16.587 25.592 16.426C25.171 16.245 24.75 15.925 24.329 16.426C24.209 16.566 23.928 16.767 23.647 16.767C23.346 16.767 23.085 16.566 22.965 16.426C22.524 15.925 22.123 16.245 21.702 16.426C21.261 16.587 20.9 16.647 20.599 16.386C20.378 16.181 20.241 16.091 20.047 16.09L20.032 19.398C20.046 20.338 21.259 21.006 23.581 22.203L23.634 22.23L23.687 22.204C25.947 21.089 27.252 20.273 27.237 19.41Z" fill="#234F9A"/>
<path d="M23.646 19.874C23.887 19.874 24.368 19.613 24.488 19.553C24.929 19.292 25.25 19.533 25.511 19.653C25.792 19.773 26.313 19.914 26.634 19.653C26.955 19.392 27.135 19.412 27.356 19.412C27.396 19.111 27.396 18.81 27.396 18.469V18.228C27.115 18.168 26.975 18.248 26.674 18.509C26.373 18.77 26.032 18.71 25.591 18.549C25.17 18.369 24.749 18.048 24.328 18.549C24.208 18.689 23.927 18.89 23.646 18.89C23.345 18.89 23.084 18.689 22.964 18.549C22.523 18.048 22.122 18.369 21.701 18.549C21.26 18.709 20.899 18.77 20.598 18.509C20.317 18.248 20.177 18.168 19.876 18.228V18.469C19.876 18.81 19.896 19.111 19.936 19.412C20.157 19.412 20.317 19.392 20.638 19.653C20.959 19.914 21.5 19.773 21.761 19.653C22.042 19.533 22.363 19.292 22.804 19.553C22.924 19.613 23.386 19.874 23.646 19.874Z" fill="white"/>
<path d="M23.646 17.332C23.887 17.332 24.368 17.071 24.488 17.011C24.929 16.75 25.25 16.991 25.511 17.111C25.792 17.231 26.313 17.372 26.634 17.111C26.955 16.85 27.135 16.87 27.356 16.87C27.396 16.569 27.396 16.268 27.396 15.927V15.686C27.115 15.626 26.975 15.706 26.674 15.967C26.373 16.228 26.032 16.168 25.591 16.007C25.17 15.827 24.749 15.506 24.328 16.007C24.208 16.147 23.927 16.348 23.646 16.348C23.345 16.348 23.084 16.147 22.964 16.007C22.523 15.506 22.122 15.827 21.701 16.007C21.26 16.167 20.899 16.228 20.598 15.967C20.317 15.706 20.177 15.626 19.876 15.686V15.927C19.876 16.268 19.896 16.569 19.936 16.87C20.157 16.87 20.317 16.85 20.638 17.111C20.959 17.372 21.5 17.231 21.761 17.111C22.042 16.991 22.363 16.75 22.804 17.011C22.924 17.071 23.386 17.332 23.646 17.332Z" fill="white"/>
</svg>
