<svg width="32" height="32" viewBox="0 0 32 32" fill="none" xmlns="http://www.w3.org/2000/svg">
<path d="M27 4H5C2.79086 4 1 5.79086 1 8V24C1 26.2091 2.79086 28 5 28H27C29.2091 28 31 26.2091 31 24V8C31 5.79086 29.2091 4 27 4Z" fill="#4DAAC1"/>
<path opacity="0.15" d="M27 4H5C2.791 4 1 5.791 1 8V24C1 26.209 2.791 28 5 28H27C29.209 28 31 26.209 31 24V8C31 5.791 29.209 4 27 4ZM30 24C30 25.654 28.654 27 27 27H5C3.346 27 2 25.654 2 24V8C2 6.346 3.346 5 5 5H27C28.654 5 30 6.346 30 8V24Z" fill="black"/>
<path d="M16.008 17.453C17.9493 17.453 19.523 15.8793 19.523 13.938C19.523 11.9967 17.9493 10.423 16.008 10.423C14.0667 10.423 12.493 11.9967 12.493 13.938C12.493 15.8793 14.0667 17.453 16.008 17.453Z" fill="#FBEC5A"/>
<path d="M16.008 9.943C16.217 9.94 16.295 9.81 16.295 9.653C16.295 9.444 16.008 8.44901 16.008 8.44901C16.008 8.44901 15.721 9.444 15.721 9.653C15.721 9.81 15.799 9.943 16.008 9.943Z" fill="#FBEC5A"/>
<path d="M20.003 13.938C20.006 14.147 20.136 14.225 20.293 14.225C20.502 14.225 21.497 13.938 21.497 13.938C21.497 13.938 20.502 13.651 20.293 13.651C20.136 13.651 20.003 13.729 20.003 13.938Z" fill="#FBEC5A"/>
<path d="M16.008 17.933C15.799 17.936 15.721 18.066 15.721 18.223C15.721 18.432 16.008 19.427 16.008 19.427C16.008 19.427 16.295 18.432 16.295 18.223C16.295 18.066 16.217 17.933 16.008 17.933Z" fill="#FBEC5A"/>
<path d="M12.014 13.938C12.011 13.729 11.881 13.651 11.724 13.651C11.515 13.651 10.52 13.938 10.52 13.938C10.52 13.938 11.515 14.225 11.724 14.225C11.881 14.225 12.014 14.147 12.014 13.938Z" fill="#FBEC5A"/>
<path d="M17.537 10.247C17.731 10.325 17.854 10.234 17.914 10.089C17.994 9.896 18.109 8.866 18.109 8.866C18.109 8.866 17.463 9.676 17.383 9.869C17.323 10.014 17.343 10.167 17.537 10.247Z" fill="#FBEC5A"/>
<path d="M19.699 15.467C19.621 15.661 19.712 15.784 19.857 15.844C20.05 15.924 21.08 16.039 21.08 16.039C21.08 16.039 20.27 15.393 20.077 15.313C19.932 15.253 19.779 15.274 19.699 15.468V15.467Z" fill="#FBEC5A"/>
<path d="M14.48 17.629C14.286 17.551 14.163 17.642 14.103 17.787C14.023 17.98 13.908 19.01 13.908 19.01C13.908 19.01 14.554 18.2 14.634 18.007C14.694 17.862 14.674 17.709 14.48 17.629Z" fill="#FBEC5A"/>
<path d="M12.318 12.409C12.396 12.215 12.305 12.092 12.16 12.032C11.967 11.952 10.937 11.837 10.937 11.837C10.937 11.837 11.747 12.483 11.94 12.563C12.085 12.623 12.238 12.602 12.318 12.408V12.409Z" fill="#FBEC5A"/>
<path d="M18.833 11.113C18.983 11.259 19.13 11.222 19.241 11.111C19.389 10.963 19.889 10.056 19.889 10.056C19.889 10.056 18.982 10.557 18.834 10.704C18.723 10.815 18.684 10.964 18.832 11.112L18.833 11.113Z" fill="#FBEC5A"/>
<path d="M18.833 16.763C18.687 16.913 18.724 17.06 18.835 17.171C18.983 17.319 19.89 17.819 19.89 17.819C19.89 17.819 19.389 16.912 19.242 16.764C19.131 16.653 18.982 16.614 18.834 16.762L18.833 16.763Z" fill="#FBEC5A"/>
<path d="M13.184 16.763C13.034 16.617 12.887 16.654 12.776 16.765C12.628 16.913 12.128 17.82 12.128 17.82C12.128 17.82 13.035 17.319 13.183 17.172C13.294 17.061 13.333 16.912 13.185 16.764L13.184 16.763Z" fill="#FBEC5A"/>
<path d="M13.184 11.113C13.33 10.963 13.293 10.816 13.182 10.705C13.034 10.557 12.127 10.057 12.127 10.057C12.127 10.057 12.628 10.964 12.775 11.112C12.886 11.223 13.035 11.262 13.183 11.114L13.184 11.113Z" fill="#FBEC5A"/>
<path d="M19.699 12.409C19.781 12.601 19.932 12.624 20.077 12.564C20.27 12.484 21.08 11.838 21.08 11.838C21.08 11.838 20.05 11.953 19.857 12.033C19.712 12.093 19.619 12.215 19.699 12.409Z" fill="#FBEC5A"/>
<path d="M17.537 17.629C17.345 17.711 17.322 17.862 17.382 18.007C17.462 18.2 18.108 19.01 18.108 19.01C18.108 19.01 17.993 17.98 17.913 17.787C17.853 17.642 17.73 17.549 17.536 17.629H17.537Z" fill="#FBEC5A"/>
<path d="M12.318 15.467C12.236 15.275 12.085 15.252 11.94 15.312C11.747 15.392 10.937 16.038 10.937 16.038C10.937 16.038 11.967 15.923 12.16 15.843C12.305 15.783 12.398 15.66 12.318 15.466V15.467Z" fill="#FBEC5A"/>
<path d="M14.48 10.247C14.672 10.165 14.695 10.014 14.635 9.869C14.555 9.676 13.909 8.866 13.909 8.866C13.909 8.866 14.024 9.896 14.104 10.089C14.164 10.234 14.287 10.327 14.481 10.247H14.48Z" fill="#FBEC5A"/>
<path d="M16.788 10.02C16.994 10.058 17.096 9.94499 17.126 9.79199C17.167 9.58699 17.079 8.55499 17.079 8.55499C17.079 8.55499 16.603 9.47499 16.562 9.67999C16.531 9.83399 16.582 9.97999 16.787 10.021L16.788 10.02Z" fill="#FBEC5A"/>
<path d="M19.927 14.717C19.889 14.923 20.002 15.025 20.155 15.055C20.36 15.096 21.392 15.008 21.392 15.008C21.392 15.008 20.472 14.532 20.267 14.491C20.113 14.46 19.967 14.511 19.926 14.716L19.927 14.717Z" fill="#FBEC5A"/>
<path d="M15.229 17.856C15.023 17.818 14.921 17.931 14.891 18.084C14.85 18.289 14.938 19.321 14.938 19.321C14.938 19.321 15.414 18.401 15.455 18.196C15.486 18.042 15.435 17.896 15.23 17.855L15.229 17.856Z" fill="#FBEC5A"/>
<path d="M12.09 13.159C12.128 12.953 12.015 12.851 11.862 12.821C11.657 12.78 10.625 12.868 10.625 12.868C10.625 12.868 11.545 13.344 11.75 13.385C11.904 13.416 12.05 13.365 12.091 13.16L12.09 13.159Z" fill="#FBEC5A"/>
<path d="M18.228 10.616C18.403 10.73 18.541 10.665 18.628 10.535C18.744 10.361 19.058 9.37399 19.058 9.37399C19.058 9.37399 18.266 10.042 18.15 10.216C18.063 10.346 18.054 10.5 18.228 10.616Z" fill="#FBEC5A"/>
<path d="M19.33 16.157C19.216 16.332 19.281 16.47 19.411 16.557C19.585 16.673 20.572 16.987 20.572 16.987C20.572 16.987 19.904 16.195 19.73 16.079C19.6 15.992 19.446 15.983 19.33 16.157Z" fill="#FBEC5A"/>
<path d="M13.789 17.259C13.614 17.145 13.476 17.21 13.389 17.34C13.273 17.514 12.959 18.501 12.959 18.501C12.959 18.501 13.751 17.833 13.867 17.659C13.954 17.529 13.963 17.374 13.789 17.258V17.259Z" fill="#FBEC5A"/>
<path d="M12.687 11.718C12.801 11.543 12.736 11.405 12.606 11.318C12.432 11.202 11.445 10.888 11.445 10.888C11.445 10.888 12.113 11.68 12.287 11.796C12.417 11.883 12.571 11.892 12.687 11.718Z" fill="#FBEC5A"/>
<path d="M19.33 11.718C19.448 11.89 19.6 11.883 19.731 11.796C19.905 11.68 20.573 10.888 20.573 10.888C20.573 10.888 19.586 11.202 19.412 11.318C19.282 11.405 19.213 11.544 19.33 11.718Z" fill="#FBEC5A"/>
<path d="M18.228 17.259C18.056 17.377 18.063 17.529 18.15 17.66C18.266 17.834 19.058 18.502 19.058 18.502C19.058 18.502 18.744 17.515 18.628 17.341C18.541 17.211 18.402 17.142 18.228 17.259Z" fill="#FBEC5A"/>
<path d="M12.687 16.157C12.569 15.985 12.417 15.992 12.286 16.079C12.112 16.195 11.444 16.987 11.444 16.987C11.444 16.987 12.431 16.673 12.605 16.557C12.735 16.47 12.803 16.331 12.686 16.157H12.687Z" fill="#FBEC5A"/>
<path d="M13.789 10.616C13.961 10.498 13.954 10.346 13.867 10.215C13.751 10.041 12.959 9.37299 12.959 9.37299C12.959 9.37299 13.273 10.36 13.389 10.534C13.476 10.664 13.615 10.732 13.789 10.615V10.616Z" fill="#FBEC5A"/>
<path d="M19.927 13.159C19.97 13.363 20.114 13.415 20.268 13.384C20.473 13.343 21.393 12.867 21.393 12.867C21.393 12.867 20.361 12.779 20.156 12.82C20.002 12.851 19.887 12.953 19.928 13.158L19.927 13.159Z" fill="#FBEC5A"/>
<path d="M16.788 17.856C16.584 17.899 16.532 18.043 16.563 18.197C16.604 18.402 17.08 19.322 17.08 19.322C17.08 19.322 17.168 18.29 17.127 18.085C17.096 17.931 16.994 17.816 16.789 17.857L16.788 17.856Z" fill="#FBEC5A"/>
<path d="M12.09 14.717C12.047 14.513 11.903 14.461 11.749 14.492C11.544 14.533 10.624 15.009 10.624 15.009C10.624 15.009 11.656 15.097 11.861 15.056C12.015 15.025 12.13 14.923 12.089 14.718L12.09 14.717Z" fill="#FBEC5A"/>
<path d="M15.229 10.02C15.433 9.97699 15.485 9.83299 15.454 9.67899C15.413 9.47399 14.937 8.55399 14.937 8.55399C14.937 8.55399 14.849 9.58599 14.89 9.79099C14.921 9.94499 15.023 10.06 15.228 10.019L15.229 10.02Z" fill="#FBEC5A"/>
<path d="M15.381 21.553C15.119 21.566 14.874 21.675 14.613 21.694C14.679 21.872 14.456 22.03 14.317 21.896C14.219 21.927 14.118 21.906 14.034 21.849C13.708 21.975 13.596 22.521 14.007 22.206C14.114 22.138 13.962 22.361 14.037 22.312C14.861 22.034 15.848 22.259 16.683 22.165C16.154 22.067 15.572 22.13 15.066 22.032C15.127 21.948 15.2 21.873 15.267 21.795C15.213 21.786 15.161 21.775 15.107 21.762C15.202 21.697 15.29 21.623 15.382 21.553H15.381Z" fill="#FBEC5A"/>
<path d="M19.45 22.456C19.261 22.57 19.116 22.368 18.958 22.308C18.84 22.471 18.565 23.029 18.459 22.49C18.308 22.617 18.232 22.906 17.987 22.867C17.728 22.399 17.623 23.199 17.333 22.901C17.302 22.754 17.229 22.581 17.149 22.815C17.094 22.98 16.918 23.102 16.747 23.029C16.654 22.953 16.822 22.67 16.703 22.69C16.525 22.807 16.422 23.099 16.174 23.076C16.078 22.968 16.232 22.785 16.127 22.665C16.002 22.825 15.864 23.059 15.648 23.076C15.544 22.992 15.652 22.749 15.586 22.714C15.365 22.847 15.131 23.083 14.853 23.009C15.359 21.926 16.877 22.665 17.771 22.247C17.873 22.185 18.12 22.097 18.032 21.953C17.954 21.839 18.235 21.884 18.262 21.751C18.716 21.304 19.786 21.794 20.434 21.721C20.482 22.03 20.139 22.248 19.862 22.152C19.73 22.173 19.532 21.849 19.571 22.085C19.544 22.209 19.563 22.373 19.45 22.456ZM14.031 21.822C14.934 21.84 15.648 20.821 16.456 20.501C17.087 20.31 17.758 20.333 18.392 20.157C18.874 19.497 19.694 19.261 20.38 18.881C20.923 18.346 21.389 17.275 22.348 17.414C22.332 17.683 22.177 17.922 21.991 18.108C22.144 18.105 22.275 18.008 22.429 18.014C22.482 18.29 22.183 18.435 22.025 18.607C22.737 18.675 21.717 18.985 21.546 19.207C22.03 19.302 21.208 19.403 21.223 19.605C21.479 19.847 20.539 19.814 20.95 20.053C20.868 20.177 20.692 20.203 20.549 20.191C20.69 20.806 19.552 21.032 19.073 21.135C19.584 21.259 21.91 20.712 20.833 20.304C21.13 20.121 21.504 20.186 21.823 20.077C21.831 19.974 21.58 20.002 21.487 19.979C20.993 19.881 22.199 19.816 22.302 19.619C22.116 19.533 21.881 19.609 21.682 19.538C21.928 19.47 23.269 19.073 22.452 19.052C22.265 19.085 22.179 18.995 22.391 18.918C23.113 18.48 24.457 17.445 22.653 18.116C24.135 16.997 24.87 15.546 22.66 17.496C24.039 16.273 24.582 14.131 22.64 16.755C23.697 14.925 23.341 13.087 22.391 16.263C22.508 15.99 22.647 14.519 22.194 15.146C21.665 17.936 19.062 19.929 16.298 20.091C15.735 20.95 14.674 21.212 14.033 21.823" fill="#FBEC5A"/>
<path d="M15.886 20.076C15.795 20.242 15.741 20.433 15.623 20.581C14.961 19.993 13.911 20.514 13.248 19.93C11.992 19.021 10.869 18.174 9.827 16.995C9.722 17.021 9.77 17.247 9.641 17.131C9.571 17.081 9.397 17.077 9.381 17.146C9.539 17.354 9.697 17.591 9.719 17.857C9.611 17.868 9.42 17.834 9.367 17.874C9.51 18.088 9.693 18.278 9.901 18.43C9.801 18.446 9.604 18.437 9.566 18.478C9.773 18.646 9.994 18.819 10.265 18.862C10.32 18.935 10.184 19.076 10.299 19.138C10.365 19.165 10.585 19.211 10.434 19.286C10.182 19.546 10.739 19.517 10.788 19.643C10.313 19.893 11.046 20.037 11.283 20.055C11.178 20.144 11.048 20.194 10.939 20.277C11.622 20.656 12.377 20.924 13.136 21.106C12.156 21.07 11.29 20.589 10.393 20.25C10.528 20.18 10.684 20.163 10.824 20.102C10.533 20.044 10.216 20.025 9.96 19.865C9.999 19.795 10.148 19.792 10.23 19.756C10.704 19.623 9.703 19.646 9.597 19.495C9.707 19.371 10.055 19.45 10.197 19.306C9.407 19.148 8.503 18.901 9.961 18.908C9.2 18.698 7.483 17.418 9.313 18.132C8.078 17.138 6.935 15.403 9.273 17.465C8.265 16.566 7.151 13.911 9.361 16.757C8.308 14.923 8.646 13.047 9.61 16.265C9.139 12.284 10.569 20.544 15.885 20.073" fill="#FBEC5A"/>
<path opacity="0.2" d="M27 5H5C3.343 5 2 6.343 2 8V9C2 7.343 3.343 6 5 6H27C28.657 6 30 7.343 30 9V8C30 6.343 28.657 5 27 5Z" fill="white"/>
</svg>
