<svg width="32" height="32" viewBox="0 0 32 32" fill="none" xmlns="http://www.w3.org/2000/svg">
<path d="M1 10H31V22H1V10Z" fill="white"/>
<path d="M5 4H27C29.208 4 31 5.792 31 8V11H1V8C1 5.792 2.792 4 5 4Z" fill="#DA352E"/>
<path d="M27 28L5 28C2.792 28 1 26.208 1 24V21L31 21V24C31 26.208 29.208 28 27 28Z" fill="#DA352E"/>
<path opacity="0.15" d="M27 4H5C2.791 4 1 5.791 1 8V24C1 26.209 2.791 28 5 28H27C29.209 28 31 26.209 31 24V8C31 5.791 29.209 4 27 4ZM30 24C30 25.654 28.654 27 27 27H5C3.346 27 2 25.654 2 24V8C2 6.346 3.346 5 5 5H27C28.654 5 30 6.346 30 8V24Z" fill="black"/>
<path d="M15.761 11.494C15.628 12.014 14.817 12.256 14.753 12.682C15.435 12.67 14.289 13.154 14.15 13.325C14.967 13.788 14.014 13.575 13.863 14.059C13.739 14.352 12.317 14.723 13.005 14.969C13.312 14.829 13.801 14.775 13.661 15.271C13.517 15.814 11.676 16.206 12.319 16.717C12.554 16.702 12.716 16.51 12.916 16.412C13.358 16.311 13.304 16.95 12.926 16.994C11.092 18.096 11.238 18.664 13.233 17.578C14.55 18.063 11.554 18.309 11.989 18.774C12.905 19.131 13.957 17.675 14.677 18.427C15.358 19.36 12.5 20.547 13.282 20.418C13.592 20.075 14.175 20.307 14.504 19.96C14.813 19.598 15.561 19.505 15.873 19.805C15.969 19.966 16.389 20.407 16.52 20.25C16.605 19.407 17.597 20.628 17.86 20.499C17.923 20.184 17.396 20.093 17.246 19.849C16.769 19.547 16.454 17.905 17.293 18.061C17.864 18.471 18.555 18.184 19.185 18.349C19.48 18.416 20.579 19.392 20.321 18.607C20.03 18.08 18.556 17.933 18.821 17.307C19.061 17.02 20.359 17.939 19.818 17.205C19.329 16.924 19.016 16.249 18.367 16.344C18.246 15.919 19.052 16.166 19.304 16.075C19.796 16.126 19.445 15.724 19.137 15.75C18.097 15.575 18.127 15.158 19.181 15.427C19.506 15.071 16.532 13.916 17.498 13.701C18.513 14.084 18.415 13.837 17.612 13.347C17.467 13.223 17.735 13.169 17.827 13.216C18.068 12.476 15.798 12.586 15.76 11.497L15.761 11.494Z" fill="#4AA25A"/>
<path opacity="0.2" d="M27 5H5C3.343 5 2 6.343 2 8V9C2 7.343 3.343 6 5 6H27C28.657 6 30 7.343 30 9V8C30 6.343 28.657 5 27 5Z" fill="white"/>
</svg>
