<svg width="32" height="32" viewBox="0 0 32 32" fill="none" xmlns="http://www.w3.org/2000/svg">
<path d="M31 8C31 5.791 29.209 4 27 4H5C2.791 4 1 5.791 1 8V17H31V8Z" fill="#0C267B"/>
<path d="M5 28H27C29.209 28 31 26.209 31 24V16H1V24C1 26.209 2.791 28 5 28Z" fill="#BE2A2C"/>
<path opacity="0.15" d="M5 28H27C29.209 28 31 26.209 31 24V8C31 5.791 29.209 4 27 4H5C2.791 4 1 5.791 1 8V24C1 26.209 2.791 28 5 28ZM2 8C2 6.346 3.346 5 5 5H27C28.654 5 30 6.346 30 8V24C30 25.654 28.654 27 27 27H5C3.346 27 2 25.654 2 24V8Z" fill="black"/>
<path d="M12.675 11.106C12.572 11.024 12.46 10.965 12.346 10.929C12.521 10.899 12.565 10.641 12.409 10.555C12.61 10.53 12.639 10.226 12.448 10.162C12.652 10.098 12.61 9.77299 12.394 9.76599C12.575 9.64599 12.438 9.34099 12.226 9.40199C12.355 9.22799 12.128 8.99099 11.949 9.11299C12.012 8.90599 11.719 8.76099 11.592 8.93299C11.596 8.71799 11.28 8.65799 11.201 8.85299C11.147 8.65599 10.838 8.67199 10.806 8.87399C10.735 8.68199 10.426 8.72599 10.414 8.93199C10.332 8.73299 10.008 8.80599 10.024 9.02499C9.942 8.83799 9.637 8.89799 9.636 9.10599C9.6 9.04299 9.531 8.99899 9.453 9.00199C9.61 8.81699 9.532 8.49799 9.313 8.40399C9.417 8.32499 9.247 8.12899 9.218 8.05199C9.248 8.03699 9.273 8.01299 9.289 7.98399C9.468 8.17499 9.665 8.04699 9.81 7.89699C9.672 7.74599 9.456 7.62199 9.286 7.81199C9.269 7.78399 9.244 7.76199 9.215 7.74799C9.219 7.72699 9.377 7.47899 9.351 7.46099C9.319 7.44499 9.179 7.02699 9.113 7.12899C8.973 7.34499 8.881 7.52399 9.072 7.74799C9.042 7.76199 9.018 7.78399 9.001 7.81199C8.831 7.62199 8.614 7.74499 8.477 7.89699C8.622 8.04799 8.819 8.17499 8.998 7.98399C9.015 8.01299 9.039 8.03699 9.069 8.05199C9.04 8.12999 8.87 8.32499 8.974 8.40399C8.754 8.49799 8.676 8.81699 8.834 9.00199C8.756 8.99899 8.687 9.04299 8.651 9.10599C8.651 8.89799 8.346 8.83799 8.263 9.02499C8.279 8.80599 7.955 8.73299 7.873 8.93199C7.86 8.72499 7.552 8.68199 7.481 8.87399C7.449 8.67199 7.139 8.65599 7.086 8.85299C7.007 8.65799 6.691 8.71899 6.695 8.93299C6.568 8.76199 6.275 8.90599 6.338 9.11299C6.159 8.99099 5.932 9.22799 6.061 9.40199C5.849 9.34099 5.712 9.64599 5.893 9.76599C5.677 9.77399 5.635 10.098 5.839 10.162C5.648 10.226 5.677 10.529 5.878 10.555C5.723 10.641 5.766 10.899 5.941 10.929C5.267 10.958 6.373 12.466 6.542 12.889C6.698 13.395 11.592 13.395 11.747 12.889C12.083 12.456 12.35 11.477 12.677 11.106H12.675Z" fill="#F9DB5C"/>
<path opacity="0.2" d="M27 5H5C3.343 5 2 6.343 2 8V9C2 7.343 3.343 6 5 6H27C28.657 6 30 7.343 30 9V8C30 6.343 28.657 5 27 5Z" fill="white"/>
</svg>
