<svg width="32" height="32" viewBox="0 0 32 32" fill="none" xmlns="http://www.w3.org/2000/svg">
<path d="M27 4H5C2.79086 4 1 5.79086 1 8V24C1 26.2091 2.79086 28 5 28H27C29.2091 28 31 26.2091 31 24V8C31 5.79086 29.2091 4 27 4Z" fill="#F6C24C"/>
<path opacity="0.15" d="M27 4H5C2.791 4 1 5.791 1 8V24C1 26.209 2.791 28 5 28H27C29.209 28 31 26.209 31 24V8C31 5.791 29.209 4 27 4ZM30 24C30 25.654 28.654 27 27 27H5C3.346 27 2 25.654 2 24V8C2 6.346 3.346 5 5 5H27C28.654 5 30 6.346 30 8V24Z" fill="black"/>
<path opacity="0.2" d="M27 5H5C3.343 5 2 6.343 2 8V9C2 7.343 3.343 6 5 6H27C28.657 6 30 7.343 30 9V8C30 6.343 28.657 5 27 5Z" fill="white"/>
<path d="M4 7H7V25H4V7Z" fill="#21514D"/>
<path d="M7 7H10V25H7V7Z" fill="#DD7B2E"/>
<path d="M12 7H28V25H12V7Z" fill="#821E39"/>
<path d="M26.036 12.846C25.892 12.537 25.386 12.705 25.46 13.029C23.801 11.291 19.757 10.89 21.114 14.133C21.422 14.552 21.308 13.988 21.501 13.927C21.976 14.416 26.916 13.587 24.507 15.049C23.665 14.961 20.784 15.773 20.531 14.705C20.919 14.943 20.65 14.473 20.635 14.231C20.865 14.313 20.782 12.724 20.58 12.726C20.858 12.493 20.912 12.177 20.954 11.857C20.511 12.731 19.847 11.375 19.581 12.166C19.315 11.863 18.83 11.679 18.851 12.198C18.619 12.006 18.222 11.939 17.862 12.029C18.169 12.627 17.103 12.491 16.742 12.622C15.799 11.269 15.904 13.668 17.055 13.901L17.029 13.697C17.155 13.821 17.353 13.9 17.352 13.665C17.404 13.761 17.565 13.952 17.671 14.076C17.469 14.213 15.524 13.157 16.245 14.045C16.126 14.12 16.034 14.607 15.976 14.731C16.123 14.717 16.39 14.697 16.522 14.663C16.521 14.665 16.383 14.915 16.382 14.917C16.531 14.887 16.758 14.851 16.891 14.78C16.941 14.906 17.17 15.095 17.223 14.83C17.436 15.444 17.561 14.805 17.788 14.955C17.207 15.533 16.021 16.309 16.352 17.383C16.185 17.2 15.651 16.706 15.429 16.493L15.483 16.469L15.465 16.46C15.821 16.229 15.618 15.728 15.213 15.774C16.096 8.86101 14.243 10.589 14.369 15.785C13.729 15.711 13.805 16.541 14.39 16.58C14.356 16.602 14.333 16.698 14.37 16.752C14.206 16.778 14.246 17.03 14.393 17.101C14.31 17.183 14.338 17.303 14.435 17.359C14.38 17.464 14.427 17.597 14.531 17.639C14.513 17.671 14.519 17.718 14.515 17.756C14.112 17.509 14.042 18.161 14.514 18.062C14.172 18.29 14.666 18.578 14.39 18.846C13.963 18.471 13.952 19.262 14.402 19.231C14.379 19.269 14.156 19.422 14.117 19.454C14.519 19.344 14.528 19.909 14.837 19.755C14.921 19.506 15.08 19.467 15.346 19.457C15.309 19.426 15.088 19.262 15.061 19.23C15.56 19.256 15.475 18.458 15.079 18.851C14.786 18.594 15.278 18.295 14.94 18.035C15.39 18.237 15.414 17.628 14.934 17.733C15.068 17.679 15.124 17.792 15.248 17.675C15.533 17.755 15.237 18.597 15.604 18.555C15.958 18.152 16.505 19.651 17.189 18.547C18.027 18.728 18.664 20.418 17.491 20.298C16.881 20.08 16.471 21.268 17.151 20.867C17.269 21.089 17.56 20.891 17.712 20.892C18.027 20.958 18.603 21.066 18.851 20.819C18.867 19.973 19.268 20.238 19.636 19.636C17.901 18.994 21.292 17.831 21.864 17.901C21.825 18.64 23.039 19.435 22.564 20.306C22.513 20.428 21.823 20.363 21.766 20.505C21.473 20.7 21.533 21.169 21.915 20.888C22.087 20.817 22.314 21.131 22.505 20.851C22.613 21.016 22.93 21.026 23.022 20.847C23.178 20.957 23.374 21.034 23.505 20.931C23.578 21.04 23.749 20.922 23.868 20.847C23.968 21.014 24.188 21.007 24.336 20.885C24.494 20.843 24.785 21.126 24.938 20.846C25.735 21.287 25.356 20.537 25.224 20.217C25.142 19.933 26.176 19.473 25.563 19.312C24.478 18.471 26.558 16.3 25.262 15.319C26.848 13.821 24.306 13.327 23.118 13.707C22.379 13.902 22.554 12.901 22.031 13.529C21.787 13.269 22.138 13.079 22.398 12.986C22.133 12.752 21.664 12.727 21.477 13.071C20.749 12.017 22.337 12.991 22.086 12.187C22.629 12.24 22.7 12.838 22.34 13.205C22.821 13.188 23.319 12.823 23.087 12.31C23.543 12.483 23.341 12.868 23.229 13.154C23.421 13.304 23.763 13.048 23.827 12.836C24.097 13.203 24.839 13.483 24.369 12.783C24.742 13.267 26.292 14.056 26.033 12.845L26.036 12.846ZM23.76 19.79C24.101 19.458 23.925 19.343 23.549 19.261C23.468 18.103 25.653 20.15 23.615 20.587C23.563 20.262 23.408 20.159 23.76 19.79Z" fill="#F6C24C"/>
</svg>
