<svg width="32" height="32" viewBox="0 0 32 32" fill="none" xmlns="http://www.w3.org/2000/svg">
<path d="M27 4H5C2.79086 4 1 5.79086 1 8V24C1 26.2091 2.79086 28 5 28H27C29.2091 28 31 26.2091 31 24V8C31 5.79086 29.2091 4 27 4Z" fill="white"/>
<path d="M1.456 6.182H30.544C29.88 4.892 28.551 4 27 4H5C3.449 4 2.12 4.892 1.456 6.182Z" fill="#B12532"/>
<path d="M1 8.36401H31V10.546H1V8.36401Z" fill="#B12532"/>
<path d="M1 12.727H31V14.909H1V12.727Z" fill="#B12532"/>
<path d="M1 17.091H31V19.273H1V17.091Z" fill="#B12532"/>
<path d="M1 21.454H31V23.636H1V21.454Z" fill="#B12532"/>
<path d="M30.544 25.818H1.456C2.12 27.108 3.449 28 5 28H27C28.551 28 29.88 27.108 30.544 25.818Z" fill="#B12532"/>
<path d="M5 4H11.909V14.909H1V8C1 5.792 2.792 4 5 4Z" fill="#0B2364"/>
<path opacity="0.15" d="M27 4H5C2.791 4 1 5.791 1 8V24C1 26.209 2.791 28 5 28H27C29.209 28 31 26.209 31 24V8C31 5.791 29.209 4 27 4ZM30 24C30 25.654 28.654 27 27 27H5C3.346 27 2 25.654 2 24V8C2 6.346 3.346 5 5 5H27C28.654 5 30 6.346 30 8V24Z" fill="black"/>
<path d="M7.455 10.043L9.074 8.86699H7.073L6.455 6.96399L5.836 8.86699H3.836L5.454 10.043L4.836 11.945L6.455 10.769L8.073 11.945L7.455 10.043Z" fill="white"/>
<path opacity="0.2" d="M27 5H5C3.343 5 2 6.343 2 8V9C2 7.343 3.343 6 5 6H27C28.657 6 30 7.343 30 9V8C30 6.343 28.657 5 27 5Z" fill="white"/>
</svg>
