<svg width="32" height="32" viewBox="0 0 32 32" fill="none" xmlns="http://www.w3.org/2000/svg">
<path d="M1 11H31V21H1V11Z" fill="white"/>
<path d="M5 4H27C29.208 4 31 5.792 31 8V12H1V8C1 5.792 2.792 4 5 4Z" fill="#030A85"/>
<path d="M27 28L5 28C2.792 28 1 26.208 1 24V20L31 20V24C31 26.208 29.208 28 27 28Z" fill="#45994D"/>
<path opacity="0.15" d="M27 4H5C2.791 4 1 5.791 1 8V24C1 26.209 2.791 28 5 28H27C29.209 28 31 26.209 31 24V8C31 5.791 29.209 4 27 4ZM30 24C30 25.654 28.654 27 27 27H5C3.346 27 2 25.654 2 24V8C2 6.346 3.346 5 5 5H27C28.654 5 30 6.346 30 8V24Z" fill="black"/>
<path d="M16 12.465C16.101 12.465 16.193 12.521 16.239 12.611C16.809 12.679 17.108 13.091 17.212 13.571C17.334 14.132 17.205 14.894 16.809 15.694L18.329 17.71C18.41 17.672 18.489 17.633 18.568 17.591L19.127 18.773C17.166 19.788 14.834 19.788 12.873 18.773L13.432 17.591C13.511 17.633 13.59 17.672 13.671 17.71L15.191 15.694C14.795 14.894 14.666 14.131 14.788 13.571C14.892 13.091 15.192 12.679 15.761 12.611C15.807 12.521 15.9 12.465 16 12.465ZM16.602 15.418C16.91 14.73 17.01 14.078 16.913 13.647C16.827 13.265 16.634 12.982 16.25 12.922V13.907L16.73 14.387H16.346V15.079L16.602 15.418ZM15.75 12.921C15.366 12.981 15.173 13.265 15.087 13.646C14.99 14.077 15.09 14.729 15.398 15.417L15.654 15.077V14.385H15.27L15.75 13.905V12.921Z" fill="black"/>
<path opacity="0.2" d="M27 5H5C3.343 5 2 6.343 2 8V9C2 7.343 3.343 6 5 6H27C28.657 6 30 7.343 30 9V8C30 6.343 28.657 5 27 5Z" fill="white"/>
</svg>
