<svg width="32" height="32" viewBox="0 0 32 32" fill="none" xmlns="http://www.w3.org/2000/svg">
<path d="M1 10H31V22H1V10Z" fill="black"/>
<path d="M5 4H27C29.208 4 31 5.792 31 8V11H1V8C1 5.792 2.792 4 5 4Z" fill="#D52E23"/>
<path d="M27 28L5 28C2.792 28 1 26.208 1 24V21L31 21V24C31 26.208 29.208 28 27 28Z" fill="#4C9D4F"/>
<path opacity="0.15" d="M27 4H5C2.791 4 1 5.791 1 8V24C1 26.209 2.791 28 5 28H27C29.209 28 31 26.209 31 24V8C31 5.791 29.209 4 27 4ZM30 24C30 25.654 28.654 27 27 27H5C3.346 27 2 25.654 2 24V8C2 6.346 3.346 5 5 5H27C28.654 5 30 6.346 30 8V24Z" fill="black"/>
<path d="M13.7 16C13.7 14.315 15.066 12.949 16.751 12.949C17.413 12.949 18.026 13.161 18.526 13.519C17.89 12.882 17.012 12.488 16.041 12.488C14.102 12.488 12.53 14.06 12.53 15.999C12.53 17.938 14.102 19.51 16.041 19.51C17.012 19.51 17.891 19.116 18.526 18.479C18.026 18.838 17.413 19.049 16.751 19.049C15.066 19.049 13.7 17.683 13.7 15.998V16Z" fill="white"/>
<path d="M21.356 16L22.471 14.465L20.667 15.052L19.552 13.517V15.414L17.748 16L19.552 16.586V18.483L20.667 16.948L22.471 17.535L21.356 16Z" fill="white"/>
<path opacity="0.2" d="M27 5H5C3.343 5 2 6.343 2 8V9C2 7.343 3.343 6 5 6H27C28.657 6 30 7.343 30 9V8C30 6.343 28.657 5 27 5Z" fill="white"/>
</svg>
