<svg width="32" height="32" viewBox="0 0 32 32" fill="none" xmlns="http://www.w3.org/2000/svg">
<path d="M27 4H5C2.79086 4 1 5.79086 1 8V24C1 26.2091 2.79086 28 5 28H27C29.2091 28 31 26.2091 31 24V8C31 5.79086 29.2091 4 27 4Z" fill="#B33431"/>
<path opacity="0.15" d="M27 4H5C2.791 4 1 5.791 1 8V24C1 26.209 2.791 28 5 28H27C29.209 28 31 26.209 31 24V8C31 5.791 29.209 4 27 4ZM30 24C30 25.654 28.654 27 27 27H5C3.346 27 2 25.654 2 24V8C2 6.346 3.346 5 5 5H27C28.654 5 30 6.346 30 8V24Z" fill="black"/>
<path opacity="0.2" d="M27 5H5C3.343 5 2 6.343 2 8V9C2 7.343 3.343 6 5 6H27C28.657 6 30 7.343 30 9V8C30 6.343 28.657 5 27 5Z" fill="white"/>
<path d="M20.224 21.868L16 18.799L11.776 21.868L13.389 16.903L9.165 13.834H14.386L15.999 8.86798L17.612 13.834H22.833L18.609 16.903L20.222 21.868H20.224ZM16.768 18.242L18.508 19.506L17.843 17.461L16.768 18.242ZM14.157 17.461L13.492 19.506L15.232 18.242L14.157 17.461ZM14.45 16.559L16 17.685L17.55 16.559L16.958 14.737H15.042L14.45 16.559ZM17.906 14.737L18.317 16.001L20.057 14.737H17.906ZM11.942 14.737L13.682 16.001L14.093 14.737H11.942ZM15.335 13.835H16.664L15.999 11.789L15.334 13.835H15.335Z" fill="#286038"/>
</svg>
