<svg width="32" height="32" viewBox="0 0 32 32" fill="none" xmlns="http://www.w3.org/2000/svg">
<path d="M27 4H5C2.79086 4 1 5.79086 1 8V24C1 26.2091 2.79086 28 5 28H27C29.2091 28 31 26.2091 31 24V8C31 5.79086 29.2091 4 27 4Z" fill="#13348F"/>
<path d="M29.684 5.05298L2.316 26.947C2.375 27.001 2.438 27.049 2.501 27.099L31 9.99998V7.99998C31 6.82798 30.487 5.78398 29.684 5.05298Z" fill="#D07B2C"/>
<path d="M2.745 27.302L31 16V10L2.5 27.1C2.582 27.167 2.657 27.242 2.745 27.302Z" fill="white"/>
<path opacity="0.15" d="M27 4H5C2.791 4 1 5.791 1 8V24C1 26.209 2.791 28 5 28H27C29.209 28 31 26.209 31 24V8C31 5.791 29.209 4 27 4ZM30 24C30 25.654 28.654 27 27 27H5C3.346 27 2 25.654 2 24V8C2 6.346 3.346 5 5 5H27C28.654 5 30 6.346 30 8V24Z" fill="black"/>
<path opacity="0.2" d="M27 5H5C3.343 5 2 6.343 2 8V9C2 7.343 3.343 6 5 6H27C28.657 6 30 7.343 30 9V8C30 6.343 28.657 5 27 5Z" fill="white"/>
<path d="M10 8L10.206 11.433L10.926 9.541L10.604 11.539L11.79 9.898L10.962 11.745L12.532 10.467L11.255 12.037L13.101 11.209L11.46 12.394L13.459 12.072L11.567 12.793L15 12.999L11.567 13.205L13.459 13.925L11.46 13.603L13.101 14.789L11.255 13.961L12.532 15.531L10.962 14.254L11.79 16.1L10.604 14.459L10.926 16.458L10.206 14.566L10 17.999L9.794 14.566L9.073 16.458L9.395 14.459L8.21 16.1L9.038 14.254L7.468 15.531L8.746 13.961L6.899 14.789L8.54 13.603L6.542 13.925L8.434 13.205L5.001 12.999L8.434 12.793L6.542 12.072L8.54 12.394L6.899 11.209L8.746 12.037L7.468 10.467L9.038 11.745L8.21 9.898L9.395 11.539L9.073 9.541L9.794 11.433L10 8Z" fill="white"/>
</svg>
