<svg width="32" height="32" viewBox="0 0 32 32" fill="none" xmlns="http://www.w3.org/2000/svg">
<path d="M27 4H5C2.79086 4 1 5.79086 1 8V24C1 26.2091 2.79086 28 5 28H27C29.2091 28 31 26.2091 31 24V8C31 5.79086 29.2091 4 27 4Z" fill="#C8342D"/>
<path d="M11.847 17.909L1 23.424V24C1 24.835 1.257 25.609 1.695 26.251L12.371 18.767C12.168 18.501 11.989 18.216 11.847 17.909Z" fill="#F4E959"/>
<path d="M11.417 16C11.417 15.845 11.448 15.698 11.463 15.546L1 14.5V17.5L11.463 16.454C11.448 16.303 11.417 16.156 11.417 16Z" fill="#F4E959"/>
<path d="M16 11.417C16.171 11.417 16.333 11.449 16.499 11.467L18.4 4H13.6L15.501 11.467C15.667 11.449 15.829 11.417 16 11.417Z" fill="#F4E959"/>
<path d="M16 19.75C18.0711 19.75 19.75 18.0711 19.75 16C19.75 13.9289 18.0711 12.25 16 12.25C13.9289 12.25 12.25 13.9289 12.25 16C12.25 18.0711 13.9289 19.75 16 19.75Z" fill="#F4E959"/>
<path d="M12.371 13.233L1.695 5.74902C1.257 6.39002 1 7.16502 1 8.00002V8.57602L11.847 14.091C11.989 13.784 12.167 13.5 12.371 13.234V13.233Z" fill="#F4E959"/>
<path d="M20.583 16C20.583 16.155 20.552 16.302 20.537 16.454L31 17.5V14.5L20.537 15.546C20.552 15.697 20.583 15.844 20.583 16Z" fill="#F4E959"/>
<path d="M30.305 5.74899L19.629 13.233C19.832 13.499 20.011 13.783 20.153 14.09L31 8.57499V7.99899C31 7.16399 30.743 6.39099 30.305 5.74899Z" fill="#F4E959"/>
<path d="M16 20.583C15.829 20.583 15.667 20.551 15.501 20.533L13.6 28H18.4L16.499 20.533C16.333 20.551 16.171 20.583 16 20.583Z" fill="#F4E959"/>
<path d="M19.629 18.767L30.305 26.251C30.743 25.61 31 24.835 31 24V23.424L20.153 17.909C20.011 18.216 19.833 18.501 19.629 18.767Z" fill="#F4E959"/>
<path opacity="0.15" d="M27 4H5C2.791 4 1 5.791 1 8V24C1 26.209 2.791 28 5 28H27C29.209 28 31 26.209 31 24V8C31 5.791 29.209 4 27 4ZM30 24C30 25.654 28.654 27 27 27H5C3.346 27 2 25.654 2 24V8C2 6.346 3.346 5 5 5H27C28.654 5 30 6.346 30 8V24Z" fill="black"/>
<path opacity="0.2" d="M27 5H5C3.343 5 2 6.343 2 8V9C2 7.343 3.343 6 5 6H27C28.657 6 30 7.343 30 9V8C30 6.343 28.657 5 27 5Z" fill="white"/>
</svg>
