<svg width="32" height="32" viewBox="0 0 32 32" fill="none" xmlns="http://www.w3.org/2000/svg">
<path d="M10 4H22V28H10V4Z" fill="#2B65AE"/>
<path d="M5 4H11V28H5C2.792 28 1 26.208 1 24V8C1 5.792 2.792 4 5 4Z" fill="#C93336"/>
<path d="M27 28H21L21 4H27C29.208 4 31 5.792 31 8L31 24C31 26.208 29.208 28 27 28Z" fill="#C93336"/>
<path opacity="0.15" d="M27 4H5C2.791 4 1 5.791 1 8V24C1 26.209 2.791 28 5 28H27C29.209 28 31 26.209 31 24V8C31 5.791 29.209 4 27 4ZM30 24C30 25.654 28.654 27 27 27H5C3.346 27 2 25.654 2 24V8C2 6.346 3.346 5 5 5H27C28.654 5 30 6.346 30 8V24Z" fill="black"/>
<path opacity="0.2" d="M27 5H5C3.343 5 2 6.343 2 8V9C2 7.343 3.343 6 5 6H27C28.657 6 30 7.343 30 9V8C30 6.343 28.657 5 27 5Z" fill="white"/>
<path d="M6 13.184C6.84389 13.184 7.528 12.4999 7.528 11.656C7.528 10.8121 6.84389 10.128 6 10.128C5.15611 10.128 4.472 10.8121 4.472 11.656C4.472 12.4999 5.15611 13.184 6 13.184Z" fill="#F7D448"/>
<path d="M3 13.455H4.364V20H3V13.455Z" fill="#F7D448"/>
<path d="M7.636 13.455H9V20H7.636V13.455Z" fill="#F7D448"/>
<path d="M4.636 13.455H7.364L6 14.273L4.636 13.455Z" fill="#F7D448"/>
<path d="M4.636 14.545H7.363V15.09H4.636V14.545Z" fill="#F7D448"/>
<path d="M4.636 18.364H7.363V18.909H4.636V18.364Z" fill="#F7D448"/>
<path d="M4.636 19.182H7.364L6 20L4.636 19.182Z" fill="#F7D448"/>
<path d="M6 18.091C6.75332 18.091 7.364 17.4803 7.364 16.727C7.364 15.9737 6.75332 15.363 6 15.363C5.24668 15.363 4.636 15.9737 4.636 16.727C4.636 17.4803 5.24668 18.091 6 18.091Z" fill="#F7D448"/>
</svg>
