<svg width="32" height="32" viewBox="0 0 32 32" fill="none" xmlns="http://www.w3.org/2000/svg">
<path d="M27 4H5C2.79086 4 1 5.79086 1 8V24C1 26.2091 2.79086 28 5 28H27C29.2091 28 31 26.2091 31 24V8C31 5.79086 29.2091 4 27 4Z" fill="#0A7662"/>
<path opacity="0.15" d="M27 4H5C2.7909 4 1 5.7908 1 8V24C1 26.2092 2.7909 28 5 28H27C29.2092 28 31 26.2092 31 24V8C31 5.7908 29.2092 4 27 4ZM30 24C30 25.6543 28.6543 27 27 27H5C3.3457 27 2 25.6543 2 24V8C2 6.3457 3.3457 5 5 5H27C28.6543 5 30 6.3457 30 8V24Z" fill="black"/>
<path opacity="0.2" d="M27 5H5C3.3431 5 2 6.3431 2 8V9C2 7.3431 3.3431 6 5 6H27C28.6569 6 30 7.3431 30 9V8C30 6.3431 28.6569 5 27 5Z" fill="white"/>
<path d="M12.7516 11.8141L12.9897 11.1228L12.3907 11.5422L11.8068 11.1021L12.0206 11.8014L11.4216 12.2207L12.1527 12.2335L12.3665 12.9327L12.6045 12.2414L13.3356 12.2542L12.7516 11.8141Z" fill="#FFDF1E"/>
<path d="M10.5614 14.13L10.4218 13.4122L10.1128 14.0749L9.3871 13.9858L9.9219 14.4845L9.6128 15.1471L10.2524 14.7927L10.7871 15.2913L10.6476 14.5736L11.2871 14.2191L10.5614 14.13Z" fill="#FFDF1E"/>
<path d="M19.9353 11.8014L20.1491 11.1021L19.5651 11.5422L18.9662 11.1228L19.2042 11.8141L18.6203 12.2542L19.3514 12.2414L19.5894 12.9327L19.8032 12.2335L20.5343 12.2207L19.9353 11.8014Z" fill="#FFDF1E"/>
<path d="M22.034 14.4845L22.5688 13.9858L21.843 14.0749L21.534 13.4122L21.3945 14.13L20.6688 14.2191L21.3083 14.5736L21.1688 15.2913L21.7035 14.7927L22.343 15.1471L22.034 14.4845Z" fill="#FFDF1E"/>
<path d="M16.3045 10.3439L15.9779 9.3389L15.6514 10.3439H14.5947L15.4496 10.965L15.123 11.97L15.9779 11.3489L16.8328 11.97L16.5063 10.965L17.3612 10.3439H16.3045Z" fill="#FFDF1E"/>
<path d="M18.14 20.5551C20.1844 20.9127 21.6967 19.9933 22.7084 17.8725C21.0158 17.2074 19.357 17.3266 17.7372 18.3481C18.6667 17.4884 19.7755 17.0038 21.1396 17.0536L21.4925 16.5683C20.1611 16.449 18.8691 16.8762 17.6255 17.9795C18.5459 16.1633 18.4272 14.6547 17.695 13.3276L17.2798 14.044C18.0041 15.5694 17.7737 16.9753 16.9644 18.3087H16.9338C17.9707 16.2668 17.6463 14.4373 15.978 12.8173C14.3098 14.4372 13.9854 16.2668 15.0222 18.3087H14.9916C14.1823 16.9752 13.9519 15.5693 14.6762 14.044L14.261 13.3276C13.5379 14.6381 13.4135 16.1259 14.2969 17.9118C13.0773 16.859 11.8113 16.4515 10.5076 16.5683L10.8605 17.0536C12.2261 17.0037 13.3358 17.4894 14.266 18.3509C12.6451 17.3276 10.9854 17.207 9.2917 17.8725C10.3033 19.9933 11.8156 20.9127 13.8601 20.5551C12.8133 21.0066 11.5697 20.8603 9.9342 19.5241L9.4048 19.6564C11.6504 21.7258 13.8435 21.5478 16.0001 19.8108C18.1567 21.5478 20.3498 21.7258 22.5954 19.6564L22.066 19.5241C20.4305 20.8603 19.1868 21.0066 18.14 20.5551ZM17.2256 18.3595V18.3535L17.2394 18.3457C17.2348 18.3504 17.2302 18.3548 17.2256 18.3595Z" fill="white"/>
</svg>
