<svg width="32" height="32" viewBox="0 0 32 32" fill="none" xmlns="http://www.w3.org/2000/svg">
<path d="M1 24C1 26.2092 2.7908 28 5 28H27C29.2092 28 31 26.2092 31 24V15H1V24Z" fill="#1E1918"/>
<path d="M27 4H5C2.7908 4 1 5.7908 1 8V16H31V8C31 5.7908 29.2092 4 27 4Z" fill="#05A84F"/>
<path d="M2.3157 26.9474L16 16L2.3157 5.05261C1.5128 5.78421 1 6.82821 1 8.00001V24C1 25.1718 1.5128 26.2158 2.3157 26.9474Z" fill="#F0121E"/>
<path opacity="0.15" d="M27 4H5C2.7909 4 1 5.7908 1 8V24C1 26.2092 2.7909 28 5 28H27C29.2092 28 31 26.2092 31 24V8C31 5.7908 29.2092 4 27 4ZM30 24C30 25.6543 28.6543 27 27 27H5C3.3457 27 2 25.6543 2 24V8C2 6.3457 3.3457 5 5 5H27C28.6543 5 30 6.3457 30 8V24Z" fill="black"/>
<path opacity="0.2" d="M27 5H5C3.3431 5 2 6.3431 2 8V9C2 7.3431 3.3431 6 5 6H27C28.6569 6 30 7.3431 30 9V8C30 6.3431 28.6569 5 27 5Z" fill="white"/>
</svg>
