<svg width="32" height="32" viewBox="0 0 32 32" fill="none" xmlns="http://www.w3.org/2000/svg">
<path d="M27 4H5C2.79086 4 1 5.79086 1 8V24C1 26.2091 2.79086 28 5 28H27C29.2091 28 31 26.2091 31 24V8C31 5.79086 29.2091 4 27 4Z" fill="#C22B38"/>
<path opacity="0.15" d="M27 4H5C2.791 4 1 5.791 1 8V24C1 26.209 2.791 28 5 28H27C29.209 28 31 26.209 31 24V8C31 5.791 29.209 4 27 4ZM30 24C30 25.654 28.654 27 27 27H5C3.346 27 2 25.654 2 24V8C2 6.346 3.346 5 5 5H27C28.654 5 30 6.346 30 8V24Z" fill="black"/>
<path opacity="0.2" d="M27 5H5C3.343 5 2 6.343 2 8V9C2 7.343 3.343 6 5 6H27C28.657 6 30 7.343 30 9V8C30 6.343 28.657 5 27 5Z" fill="white"/>
<path d="M6 9H26V23H6V9Z" fill="#377D40"/>
<path d="M15.217 16C15.217 14.253 16.469 12.799 18.125 12.485C17.908 12.444 17.683 12.421 17.454 12.421C15.477 12.421 13.875 14.023 13.875 16C13.875 17.977 15.477 19.579 17.454 19.579C17.683 19.579 17.908 19.557 18.125 19.515C16.469 19.201 15.217 17.747 15.217 16Z" fill="white"/>
</svg>
