<svg width="32" height="32" viewBox="0 0 32 32" fill="none" xmlns="http://www.w3.org/2000/svg">
<path d="M10 4H22V28H10V4Z" fill="white"/>
<path d="M5 4H11V28H5C2.792 28 1 26.208 1 24V8C1 5.792 2.792 4 5 4Z" fill="#2C6748"/>
<path d="M27 28H21L21 4H27C29.208 4 31 5.792 31 8L31 24C31 26.208 29.208 28 27 28Z" fill="#BE2A2C"/>
<path opacity="0.15" d="M27 4H5C2.791 4 1 5.791 1 8V24C1 26.209 2.791 28 5 28H27C29.209 28 31 26.209 31 24V8C31 5.791 29.209 4 27 4ZM30 24C30 25.654 28.654 27 27 27H5C3.346 27 2 25.654 2 24V8C2 6.346 3.346 5 5 5H27C28.654 5 30 6.346 30 8V24Z" fill="black"/>
<path opacity="0.2" d="M27 5H5C3.343 5 2 6.343 2 8V9C2 7.343 3.343 6 5 6H27C28.657 6 30 7.343 30 9V8C30 6.343 28.657 5 27 5Z" fill="white"/>
<path d="M18.701 18.611C18.239 17.921 17.961 18.93 17.486 18.863C17.611 18.053 16.708 18.363 16.29 18.551L16.455 18.31C15.83 18.601 15.087 17.598 14.639 18.338C14.544 18.133 13.757 17.649 13.438 18.01C13.463 16.993 11.715 17.053 12.631 18.091C13.261 18.27 13.606 19.055 14.546 18.645C14.675 19.175 15.571 19.228 15.959 18.942C15.907 19.103 15.932 19.564 15.918 19.657C16.397 20.041 16.403 19.434 16.74 19.243C17.229 18.993 19.015 19.745 18.7 18.612L18.701 18.611Z" fill="#3B8288"/>
<path d="M14.624 17.264C14.624 17.264 14.628 17.267 14.636 17.271C14.629 17.267 14.624 17.264 14.624 17.264Z" fill="#A27037"/>
<path d="M18.215 13.019C18.217 12.522 14.595 11.465 15.689 13.087C15.431 13.124 14.998 12.937 14.977 12.735C14.992 12.775 14.867 12.983 14.826 13.002C14.82 12.902 14.796 12.81 14.796 12.81V12.814C14.671 12.504 14.768 13.247 14.547 13.184C14.623 13.155 14.553 12.82 14.495 12.864C14.532 12.888 14.448 13.274 14.374 13.291C14.419 13.226 14.332 12.967 14.312 13.019C14.375 13.282 13.862 13.59 13.936 13.72C13.6 13.839 13.455 14.666 14.056 14.477C13.8 14.343 13.921 14.008 14.228 14.043C14.214 14.04 14.271 14.064 14.255 14.075C14.334 14.446 14.74 14.003 14.9 13.947C14.731 14.889 14.298 15.783 15.188 16.72C14.893 16.409 14.839 16.774 15.172 16.883C14.971 16.893 14.741 17.088 15.087 17.196C15.016 17.268 14.742 17.059 14.892 17.205C14.889 17.204 14.886 17.202 14.883 17.201C14.883 17.201 14.885 17.203 14.889 17.206C14.317 17.181 14.864 17.406 15.103 17.428C14.909 17.733 15.585 17.451 15.651 17.444C15.784 17.779 15.889 17.476 15.859 17.227C15.954 17.336 16.049 17.444 16.146 17.551C16.298 17.592 16.464 18.269 16.578 17.916C16.582 17.902 16.584 17.888 16.586 17.874C16.812 18.128 16.92 18.224 16.821 17.821C16.944 18.023 17.054 18.081 17.022 17.817C17.208 18.012 17.159 17.747 17.14 17.611C17.319 18.322 19.125 18.172 18.939 17.694C18.627 17.39 16.645 16.279 17.157 15.585C17.351 15.684 18.313 16.889 17.895 16.184C17.524 15.219 18.211 16.184 18.313 16.542C18.543 16.957 18.185 15.818 18.109 15.778C18.744 16.571 18.685 17.269 18.484 15.805C18.509 15.853 18.55 15.891 18.6 15.91C18.563 15.836 18.52 15.807 18.496 15.796C18.535 15.805 18.583 15.864 18.603 15.911C18.602 15.911 18.601 15.911 18.6 15.91C18.939 17.713 19.062 17.404 18.849 15.778C19.361 17.798 19.289 17.786 19.233 15.741C19.6 16.267 19.336 17.365 19.493 17.866C19.767 17.282 19.669 15.565 19.848 15.105C19.511 14.785 18.735 13.093 18.217 13.02L18.215 13.019ZM15.326 17.258C15.326 17.258 15.326 17.257 15.326 17.256H15.328C15.328 17.256 15.327 17.257 15.326 17.258Z" fill="#A27037"/>
<path d="M14.715 16.587C14.794 15.946 14.216 16.034 13.801 16.033C12.99 15.353 15.324 14.779 14.233 14.04H14.237C14.237 14.04 14.229 14.038 14.23 14.038L14.237 14.04C14.237 14.04 14.214 14.017 14.215 14.017C14.121 14.032 13.98 14.036 13.933 14.153C13.933 14.153 13.936 14.155 13.939 14.158L13.813 14.306C13.813 14.312 14.023 14.453 14.014 14.463C14.022 14.461 14.033 14.472 14.039 14.476C14.149 14.823 13.454 14.962 13.315 15.278C12.87 16.192 13.688 16.489 14.338 16.495C13.463 17.441 13.544 16.633 12.956 16.079C13.039 15.725 13.193 15.278 12.705 15.131C12.708 15.052 12.575 14.97 12.54 15.09C12.573 15.056 12.454 14.954 12.405 15.021C12.215 14.778 11.992 15.39 12.327 15.328C12.335 15.403 12.46 15.368 12.479 15.351C12.476 15.446 12.621 15.436 12.64 15.376C12.97 15.567 12.494 15.924 12.641 16.223C12.836 16.583 13.189 16.728 13.2 17.201C13.49 17.675 14.676 17.048 14.706 16.714C14.711 16.675 14.713 16.633 14.716 16.591L14.715 16.587ZM14.461 14.636C14.461 14.636 14.465 14.64 14.466 14.641C14.466 14.641 14.462 14.638 14.46 14.636H14.461Z" fill="#A9AC78"/>
<path d="M13.746 13.936C13.751 13.957 13.287 14.061 13.354 13.855C13.442 13.883 13.852 13.584 13.686 13.618C13.228 13.931 13.379 13.545 13.53 13.279C13.575 13.294 13.582 13.515 13.558 13.529C13.691 13.44 13.635 12.956 13.449 13.208C13.267 13.135 12.779 13.609 13.052 13.803C12.956 14.222 13.285 14.399 13.637 14.31L13.639 14.304H13.67C13.618 14.297 13.747 13.96 13.746 13.937V13.936Z" fill="#A9AC78"/>
</svg>
