<svg width="32" height="32" viewBox="0 0 32 32" fill="none" xmlns="http://www.w3.org/2000/svg">
<path d="M27 4H5C2.79086 4 1 5.79086 1 8V24C1 26.2091 2.79086 28 5 28H27C29.2091 28 31 26.2091 31 24V8C31 5.79086 29.2091 4 27 4Z" fill="white"/>
<path d="M1.638 5.847H30.362C29.651 4.739 28.414 4 27 4H5C3.585 4 2.349 4.739 1.638 5.847Z" fill="#BC271A"/>
<path d="M1.031 7.69202C1.023 7.79502 1 7.89402 1 8.00002V9.53902H31V8.00002C31 7.89502 30.977 7.79602 30.969 7.69202H1.031Z" fill="#BC271A"/>
<path d="M1 11.384H31V13.231H1V11.384Z" fill="#BC271A"/>
<path d="M1 15.077H31V16.924H1V15.077Z" fill="#BC271A"/>
<path d="M1 18.769H31V20.616H1V18.769Z" fill="#BC271A"/>
<path d="M1 24C1 24.105 1.023 24.204 1.031 24.308H30.969C30.977 24.205 31 24.106 31 24V22.461H1V24Z" fill="#BC271A"/>
<path d="M30.362 26.153H1.638C2.349 27.261 3.586 28 5 28H27C28.415 28 29.651 27.261 30.362 26.153Z" fill="#BC271A"/>
<path d="M16 4H5C2.791 4 1 5.791 1 8V18.769H16V4Z" fill="#010062"/>
<path opacity="0.15" d="M27 4H5C2.791 4 1 5.791 1 8V24C1 26.209 2.791 28 5 28H27C29.209 28 31 26.209 31 24V8C31 5.791 29.209 4 27 4ZM30 24C30 25.654 28.654 27 27 27H5C3.346 27 2 25.654 2 24V8C2 6.346 3.346 5 5 5H27C28.654 5 30 6.346 30 8V24Z" fill="black"/>
<path opacity="0.2" d="M27 5H5C3.343 5 2 6.343 2 8V9C2 7.343 3.343 6 5 6H27C28.657 6 30 7.343 30 9V8C30 6.343 28.657 5 27 5Z" fill="white"/>
<path d="M11.639 8.10797L11.931 10.106L13.061 8.43197L12.455 10.36L14.2 9.34197L12.818 10.816L14.833 10.655L12.949 11.384L14.833 12.113L12.818 11.952L14.2 13.427L12.455 12.408L13.061 14.336L11.931 12.662L11.639 14.661L11.346 12.662L10.216 14.336L10.822 12.408L9.077 13.427L10.459 11.952L8.444 12.113L10.328 11.384L8.444 10.655L10.459 10.816L9.077 9.34197L10.822 10.36L10.216 8.43197L11.346 10.106L11.639 8.10797Z" fill="#F6CD46"/>
<path d="M10 8.189C8.236 7.406 6.171 8.20199 5.388 9.96599C4.605 11.73 5.401 13.795 7.165 14.578C8.068 14.978 9.097 14.978 10 14.578C8.236 15.844 5.779 15.44 4.513 13.675C3.247 11.91 3.651 9.45399 5.416 8.18799C6.786 7.20499 8.63 7.20499 10 8.18799V8.189Z" fill="#F6CD46"/>
</svg>
