<svg width="32" height="32" viewBox="0 0 32 32" fill="none" xmlns="http://www.w3.org/2000/svg">
<path d="M2.316 26.947L29.684 5.053C28.973 4.405 28.037 4 27 4H5C2.791 4 1 5.791 1 8V24C1 25.172 1.513 26.216 2.316 26.947Z" fill="#0E2A68"/>
<path d="M29.684 5.05298L2.31599 26.947C3.02699 27.595 3.96299 28 4.99999 28H27C29.209 28 31 26.209 31 24V7.99998C31 6.82798 30.487 5.78398 29.684 5.05298Z" fill="#44994D"/>
<path d="M27 4H25.397L1 23.518V24C1 26.209 2.791 28 5 28H6.603L31 8.482V8C31 5.791 29.209 4 27 4Z" fill="white"/>
<path d="M27 4H26.998L1.07401 24.739C1.42101 26.594 3.04401 28 5.00001 28H5.00201L30.926 7.261C30.579 5.406 28.956 4 27 4Z" fill="#B92831"/>
<path d="M7.34401 12.815C8.29891 12.815 9.07301 12.0409 9.07301 11.086C9.07301 10.1311 8.29891 9.35699 7.34401 9.35699C6.38911 9.35699 5.61501 10.1311 5.61501 11.086C5.61501 12.0409 6.38911 12.815 7.34401 12.815Z" fill="#F6CE46"/>
<path d="M6.80701 9.08199C6.97801 9.03599 7.15801 9.01099 7.34401 9.01099C7.53001 9.01099 7.71001 9.03599 7.88101 9.08199L7.34401 7.62799L6.80701 9.08199Z" fill="#F6CE46"/>
<path d="M9.348 11.623L10.802 11.086L9.348 10.549L10.338 9.357L8.81 9.619L9.072 8.091L7.88 9.082C8.765 9.319 9.418 10.128 9.418 11.086C9.418 12.23 8.487 13.161 7.343 13.161C6.199 13.161 5.268 12.23 5.268 11.086C5.268 10.128 5.921 9.319 6.806 9.082L5.614 8.091L5.876 9.619L4.348 9.357L5.338 10.549L3.884 11.086L5.338 11.623L4.348 12.815L5.876 12.553L5.614 14.081L6.806 13.09L7.343 14.544L7.88 13.09L9.072 14.081L8.81 12.553L10.338 12.815L9.348 11.623Z" fill="#F6CE46"/>
<path opacity="0.15" d="M27 4H5C2.791 4 1 5.791 1 8V24C1 26.209 2.791 28 5 28H27C29.209 28 31 26.209 31 24V8C31 5.791 29.209 4 27 4ZM30 24C30 25.654 28.654 27 27 27H5C3.346 27 2 25.654 2 24V8C2 6.346 3.346 5 5 5H27C28.654 5 30 6.346 30 8V24Z" fill="black"/>
<path opacity="0.2" d="M27 5H5C3.343 5 2 6.343 2 8V9C2 7.343 3.343 6 5 6H27C28.657 6 30 7.343 30 9V8C30 6.343 28.657 5 27 5Z" fill="white"/>
</svg>
