<svg width="32" height="32" viewBox="0 0 32 32" fill="none" xmlns="http://www.w3.org/2000/svg">
<path d="M27 4H5C2.79086 4 1 5.79086 1 8V24C1 26.2091 2.79086 28 5 28H27C29.2091 28 31 26.2091 31 24V8C31 5.79086 29.2091 4 27 4Z" fill="white"/>
<path d="M23 19L2.419 4.96698C1.558 5.70098 1 6.77998 1 7.99998V24C1 26.209 2.791 28 5 28H23L9.8 19H23Z" fill="#13348F"/>
<path d="M5 27C3.346 27 2 25.654 2 24V8.00002C2 7.38002 2.2 6.77902 2.562 6.27502L19.758 18H6.558L19.758 27H5Z" fill="#CB2E3F"/>
<path d="M6.27701 16.638C7.93201 16.638 9.27301 15.297 9.27301 13.642C9.01101 14.31 8.53501 14.865 7.92701 15.228L7.67101 15.036L8.17601 14.658L7.56501 14.502L7.88701 13.96L7.26301 14.05L7.35301 13.426L6.81101 13.748L6.65501 13.137L6.27701 13.642L5.89901 13.137L5.74301 13.748L5.20101 13.426L5.29101 14.05L4.66701 13.96L4.98901 14.502L4.37801 14.658L4.88301 15.036L4.62701 15.228C4.03601 14.876 3.55301 14.332 3.28201 13.642C3.28201 15.297 4.62201 16.638 6.27701 16.638Z" fill="white"/>
<path d="M8.24901 22.933V22.932L9.49601 22.404L8.24901 21.876L9.06501 20.795L7.72101 20.961L7.88601 19.616L6.80501 20.432L6.27701 19.185L5.74901 20.432L4.66701 19.616L4.83301 20.961L3.48901 20.795L4.30501 21.876L3.05801 22.404L4.30501 22.932V22.933L3.48901 24.014L4.83301 23.848L4.66701 25.192L5.74801 24.376L6.27701 25.623L6.80501 24.376L7.88601 25.192L7.72101 23.848L9.06501 24.014L8.24901 22.933Z" fill="white"/>
<path opacity="0.15" d="M27 4H5C2.791 4 1 5.791 1 8V24C1 26.209 2.791 28 5 28H27C29.209 28 31 26.209 31 24V8C31 5.791 29.209 4 27 4ZM30 24C30 25.654 28.654 27 27 27H5C3.346 27 2 25.654 2 24V8C2 6.346 3.346 5 5 5H27C28.654 5 30 6.346 30 8V24Z" fill="black"/>
<path opacity="0.2" d="M27 5H5C3.343 5 2 6.343 2 8V9C2 7.343 3.343 6 5 6H27C28.657 6 30 7.343 30 9V8C30 6.343 28.657 5 27 5Z" fill="white"/>
</svg>
