<svg width="32" height="32" viewBox="0 0 32 32" fill="none" xmlns="http://www.w3.org/2000/svg">
<path d="M27 4H5C2.79086 4 1 5.79086 1 8V24C1 26.2091 2.79086 28 5 28H27C29.2091 28 31 26.2091 31 24V8C31 5.79086 29.2091 4 27 4Z" fill="#071B65"/>
<path d="M1 15H31V17H1V15Z" fill="#F6CA4F"/>
<path opacity="0.15" d="M27 4H5C2.791 4 1 5.791 1 8V24C1 26.209 2.791 28 5 28H27C29.209 28 31 26.209 31 24V8C31 5.791 29.209 4 27 4ZM30 24C30 25.654 28.654 27 27 27H5C3.346 27 2 25.654 2 24V8C2 6.346 3.346 5 5 5H27C28.654 5 30 6.346 30 8V24Z" fill="black"/>
<path opacity="0.2" d="M27 5H5C3.343 5 2 6.343 2 8V9C2 7.343 3.343 6 5 6H27C28.657 6 30 7.343 30 9V8C30 6.343 28.657 5 27 5Z" fill="white"/>
<path d="M9.5 24L9.047 22.19L7.75 23.531L8.263 21.737L6.469 22.25L7.81 20.953L6 20.5L7.81 20.047L6.469 18.75L8.263 19.263L7.75 17.469L9.047 18.81L9.5 17L9.953 18.81L11.25 17.469L10.737 19.263L12.531 18.75L11.19 20.047L13 20.5L11.19 20.953L12.531 22.25L10.737 21.737L11.25 23.531L9.953 22.19L9.5 24Z" fill="white"/>
</svg>
