<svg width="32" height="32" viewBox="0 0 32 32" fill="none" xmlns="http://www.w3.org/2000/svg">
<path d="M27.0002 4H5.0002C2.79106 4 1.0002 5.79086 1.0002 8V24C1.0002 26.2091 2.79106 28 5.0002 28H27.0002C29.2093 28 31.0002 26.2091 31.0002 24V8C31.0002 5.79086 29.2093 4 27.0002 4Z" fill="#FEDE02"/>
<path d="M5 4H16V16H1V8C1 5.7923 2.7923 4 5 4Z" fill="#001B69"/>
<path d="M6.5002 13.7737V16H10.5002V13.7728L13.5373 16H16.0002V14.7589L12.2383 12H16.0002V8H13.2602L16.0002 5.9907V4H14.5592L10.5002 6.9769V4H6.5002V6.7935L3.2436 4.4043C2.4761 4.7784 1.8541 5.3877 1.458 6.1422L3.9901 8H1.0002V12H4.7634L1.0002 14.7599V16H3.4644L6.5002 13.7737Z" fill="white"/>
<path d="M1.8057 5.5891L5.0911 8H6.4547L2.3595 4.9953C2.1552 5.1748 1.9699 5.3718 1.8057 5.5891Z" fill="#CA0A2B"/>
<path d="M0.999802 16L6.4544 12V13L2.3635 16H0.999802Z" fill="#CA0A2B"/>
<path d="M9.5002 16H7.5002V11H1.0002V9H7.5002V4H9.5002V9H16.0002V11H9.5002V16Z" fill="#CA0A2B"/>
<path d="M4.5025 10.2188L5.1049 9.78118H4.3603L4.1302 9.07288L3.9001 9.78118H3.1554L3.7579 10.2188L3.5277 10.9271L4.1302 10.4894L4.7326 10.9271L4.5025 10.2188Z" fill="#FEDE02"/>
<path d="M12.9713 10.2188L13.5737 9.78118H12.829L12.5989 9.07288L12.3688 9.78118H11.6242L12.2266 10.2188L11.9965 10.9271L12.5989 10.4894L13.2014 10.9271L12.9713 10.2188Z" fill="#FEDE02"/>
<path d="M8.87231 6.94821L9.47481 6.51051H8.73011L8.50001 5.80231L8.26991 6.51051H7.52521L8.12771 6.94821L7.89761 7.65641L8.50001 7.21881L9.10241 7.65641L8.87231 6.94821Z" fill="#FEDE02"/>
<path d="M8.87231 13.3545L9.47481 12.9168H8.73011L8.50001 12.2086L8.26991 12.9168H7.52521L8.12771 13.3545L7.89761 14.0627L8.50001 13.625L9.10241 14.0627L8.87231 13.3545Z" fill="#FEDE02"/>
<path d="M8.5 11.5705C9.36737 11.5705 10.0705 10.8674 10.0705 10C10.0705 9.13264 9.36737 8.4295 8.5 8.4295C7.63264 8.4295 6.9295 9.13264 6.9295 10C6.9295 10.8674 7.63264 11.5705 8.5 11.5705Z" fill="#001B69"/>
<path d="M9.0685 10.1886L9.9884 9.5203H8.8514L8.5 8.4389L8.1486 9.5203H7.0116L7.9315 10.1886L7.5801 11.2699L8.5 10.6016L9.4199 11.2699L9.0685 10.1886Z" fill="#FEDE02"/>
<path d="M16.0002 15.6667L11.0002 12V13L15.0911 16H16.0002V15.6667Z" fill="#CA0A2B"/>
<path d="M16.0002 4H15.7518L10.2913 8.0044H11.6549L16.0002 4.8179V4Z" fill="#CA0A2B"/>
<path opacity="0.15" d="M27.0002 4H5.0002C2.7911 4 1.0002 5.7908 1.0002 8V24C1.0002 26.2092 2.7911 28 5.0002 28H27.0002C29.2094 28 31.0002 26.2092 31.0002 24V8C31.0002 5.7908 29.2094 4 27.0002 4ZM30.0002 24C30.0002 25.6543 28.6545 27 27.0002 27H5.0002C3.3459 27 2.0002 25.6543 2.0002 24V8C2.0002 6.3457 3.3459 5 5.0002 5H27.0002C28.6545 5 30.0002 6.3457 30.0002 8V24Z" fill="black"/>
<path opacity="0.2" d="M27 5H5C3.3431 5 2 6.3431 2 8V9C2 7.3431 3.3431 6 5 6H27C28.6569 6 30 7.3431 30 9V8C30 6.3431 28.6569 5 27 5Z" fill="white"/>
</svg>
