<svg width="32" height="32" viewBox="0 0 32 32" fill="none" xmlns="http://www.w3.org/2000/svg">
<path d="M27 4H5C2.79086 4 1 5.79086 1 8V24C1 26.2091 2.79086 28 5 28H27C29.2091 28 31 26.2091 31 24V8C31 5.79086 29.2091 4 27 4Z" fill="#071B65"/>
<path d="M6.5 13.774V16H10.5V13.773L13.537 16H16V14.759L12.238 12H16V8H13.26L16 5.991V4H14.559L10.5 6.977V4H6.5V6.794L3.243 4.405C2.476 4.779 1.854 5.388 1.457 6.143L3.989 8.001H1V12.001H4.763L1 14.761V16.001H3.464L6.5 13.774Z" fill="white"/>
<path d="M1.806 5.589L5.091 8H6.455L2.36 4.995C2.156 5.175 1.97 5.372 1.806 5.589Z" fill="#B92831"/>
<path d="M1 16L6.454 12V13L2.363 16H1Z" fill="#B92831"/>
<path d="M9.5 16H7.5V11H1V9H7.5V4H9.5V9H16V11H9.5V16Z" fill="#B92831"/>
<path d="M16 15.667L11 12V13L15.091 16H16V15.667Z" fill="#B92831"/>
<path d="M16 4H15.752L10.291 8.004H11.655L16 4.818V4Z" fill="#B92831"/>
<path opacity="0.15" d="M27 4H5C2.791 4 1 5.791 1 8V24C1 26.209 2.791 28 5 28H27C29.209 28 31 26.209 31 24V8C31 5.791 29.209 4 27 4ZM30 24C30 25.654 28.654 27 27 27H5C3.346 27 2 25.654 2 24V8C2 6.346 3.346 5 5 5H27C28.654 5 30 6.346 30 8V24Z" fill="black"/>
<path opacity="0.2" d="M27 5H5C3.343 5 2 6.343 2 8V9C2 7.343 3.343 6 5 6H27C28.657 6 30 7.343 30 9V8C30 6.343 28.657 5 27 5Z" fill="white"/>
<path d="M23.495 8.06201L23.008 9.56001H21.433L22.707 10.486L22.22 11.984L23.495 11.058L24.769 11.984L24.282 10.486L25.556 9.56001H23.981L23.495 8.06201Z" fill="#B92831"/>
<path d="M25.007 12.311L23.495 11.213L21.983 12.311L22.561 10.534L21.049 9.43502H22.918L23.496 7.65802L24.074 9.43502H25.943L24.431 10.534L25.009 12.311H25.007ZM23.495 10.904L24.532 11.656L24.136 10.438L25.172 9.68502H23.891L23.495 8.46602L23.099 9.68502H21.818L22.854 10.438L22.458 11.656L23.495 10.904Z" fill="white"/>
<path d="M23.495 19.076L23.008 20.574H21.433L22.707 21.5L22.22 22.998L23.495 22.072L24.769 22.998L24.282 21.5L25.556 20.574H23.981L23.495 19.076Z" fill="#B92831"/>
<path d="M25.007 23.325L23.495 22.226L21.983 23.325L22.561 21.548L21.049 20.449H22.918L23.496 18.672L24.074 20.449H25.943L24.431 21.548L25.009 23.325H25.007ZM23.495 21.918L24.532 22.671L24.136 21.452L25.172 20.699H23.891L23.495 19.48L23.099 20.699H21.818L22.854 21.452L22.458 22.671L23.495 21.918Z" fill="white"/>
<path d="M27.503 12.774L27.111 13.983H25.84L26.868 14.73L26.475 15.938L27.503 15.191L28.531 15.938L28.139 14.73L29.167 13.983H27.896L27.503 12.774Z" fill="#B92831"/>
<path d="M28.769 16.265L27.503 15.345L26.237 16.265L26.72 14.777L25.454 13.858H27.018L27.501 12.37L27.984 13.858H29.548L28.282 14.777L28.765 16.265H28.769ZM27.503 15.036L28.293 15.61L27.991 14.681L28.781 14.107H27.804L27.502 13.178L27.2 14.107H26.223L27.013 14.681L26.711 15.61L27.501 15.036H27.503Z" fill="white"/>
<path d="M19.77 13.417L19.377 14.625H18.106L19.134 15.372L18.742 16.58L19.77 15.833L20.798 16.58L20.405 15.372L21.433 14.625H20.162L19.77 13.417Z" fill="#B92831"/>
<path d="M21.035 16.907L19.769 15.988L18.503 16.907L18.986 15.42L17.72 14.5H19.284L19.767 13.012L20.25 14.5H21.815L20.549 15.42L21.032 16.907H21.035ZM19.769 15.679L20.559 16.253L20.257 15.324L21.048 14.75H20.071L19.769 13.821L19.467 14.75H18.49L19.28 15.324L18.978 16.253L19.769 15.679Z" fill="white"/>
</svg>
