<svg width="32" height="32" viewBox="0 0 32 32" fill="none" xmlns="http://www.w3.org/2000/svg">
<path d="M27 4H5C2.79086 4 1 5.79086 1 8V24C1 26.2091 2.79086 28 5 28H27C29.2091 28 31 26.2091 31 24V8C31 5.79086 29.2091 4 27 4Z" fill="#CD312C"/>
<path d="M11 20V28H27C29.209 28 31 26.209 31 24V20H11Z" fill="#377D41"/>
<path d="M27 4H11V12H31V8C31 5.791 29.209 4 27 4Z" fill="white"/>
<path opacity="0.15" d="M27 4H5C2.791 4 1 5.791 1 8V24C1 26.209 2.791 28 5 28H27C29.209 28 31 26.209 31 24V8C31 5.791 29.209 4 27 4ZM30 24C30 25.654 28.654 27 27 27H5C3.346 27 2 25.654 2 24V8C2 6.346 3.346 5 5 5H27C28.654 5 30 6.346 30 8V24Z" fill="black"/>
<path opacity="0.2" d="M27 5H5C3.343 5 2 6.343 2 8V9C2 7.343 3.343 6 5 6H27C28.657 6 30 7.343 30 9V8C30 6.343 28.657 5 27 5Z" fill="white"/>
<path d="M9.225 12.667C8.643 12.062 7.446 11.48 7.008 10.55C7.004 10.548 7.004 10.543 7.008 10.541C6.963 10.302 7.104 10.038 7.288 9.91398C7.313 10.296 7.864 10.024 8.044 10.005C7.886 10.414 9.131 10.145 9.268 10.218C9.481 10.238 9.351 9.68798 9.385 9.58598C9.373 9.42398 7.884 9.32898 8.044 9.68998C7.86 9.72598 7.836 9.50898 7.584 9.53898C9.311 6.61298 8.693 6.46098 7.072 9.33298L7.116 9.35298C6.907 9.67298 7.101 9.00298 7.011 8.86898V8.77598C6.899 8.78198 6.741 8.71098 6.763 8.59598H6.756V8.59398H6.719V8.41398H6.683V8.04998H6.646V7.81998H6.659C7.064 7.34198 7.236 7.40998 6.511 7.00098C5.805 7.40098 5.961 7.32198 6.329 7.81998H6.342V8.04998H6.306V8.41398H6.27V8.59498H6.232L6.225 8.59598C6.252 8.68098 6.125 8.78198 5.977 8.77698V8.94398C5.853 9.11898 6.045 9.30198 5.955 9.48298C5.921 9.43698 5.891 9.39398 5.862 9.35298L5.906 9.33298C4.302 6.48898 3.661 6.59198 5.377 9.50898C5.13 9.49698 5.126 9.70098 4.935 9.66098C5.065 9.30198 3.847 9.45098 3.711 9.47798C3.52 9.51598 3.599 10.006 3.594 10.11C3.587 10.272 5.126 10.383 4.935 9.97598C5.133 9.97198 5.501 10.245 5.681 9.97798C5.798 10.022 5.905 10.116 5.956 10.24H5.954L5.946 10.248C5.958 10.493 4.746 10.449 4.649 10.449C4.655 10.449 4.524 10.456 4.525 10.451C3.521 10.517 4.972 11.161 4.972 11.161C4.972 11.161 5.366 11.26 5.411 11.26C4.219 12.138 3.77 13.316 4.882 12.336C4.882 12.336 5.642 11.472 6.15 11.312C6.219 11.298 6.721 11.112 6.746 11.09C7.216 11.566 7.699 11.96 7.921 12.183C8.143 12.406 9.984 13.406 9.226 12.669L9.225 12.667Z" fill="white"/>
</svg>
