<svg width="32" height="32" viewBox="0 0 32 32" fill="none" xmlns="http://www.w3.org/2000/svg">
<path d="M5 4C2.791 4 1 5.791 1 8V16H16V4H5Z" fill="white"/>
<path d="M31 8C31 5.791 29.209 4 27 4H16V16H31V8Z" fill="#C92D25"/>
<path d="M5 28C2.791 28 1 26.209 1 24V16H16V28H5Z" fill="#081D53"/>
<path d="M31 24C31 26.209 29.209 28 27 28H16V16H31V24Z" fill="white"/>
<path opacity="0.15" d="M27 4H5C2.791 4 1 5.791 1 8V24C1 26.209 2.791 28 5 28H27C29.209 28 31 26.209 31 24V8C31 5.791 29.209 4 27 4ZM30 24C30 25.654 28.654 27 27 27H5C3.346 27 2 25.654 2 24V8C2 6.346 3.346 5 5 5H27C28.654 5 30 6.346 30 8V24Z" fill="black"/>
<path opacity="0.2" d="M27 5H5C3.343 5 2 6.343 2 8V9C2 7.343 3.343 6 5 6H27C28.657 6 30 7.343 30 9V8C30 6.343 28.657 5 27 5Z" fill="white"/>
<path d="M8.812 6.67102L7.986 9.21402H5.312L7.476 10.786L6.649 13.329L8.812 11.757L10.976 13.329L10.149 10.786L12.312 9.21402H9.639L8.812 6.67102Z" fill="#081D53"/>
<path d="M22.937 17.984L22.111 20.527H19.437L21.601 22.098L20.774 24.641L22.937 23.07L25.101 24.641L24.274 22.098L26.437 20.527H23.764L22.937 17.984Z" fill="#C92D25"/>
</svg>
