<svg width="32" height="32" viewBox="0 0 32 32" fill="none" xmlns="http://www.w3.org/2000/svg">
<path d="M1 24C1 26.209 2.791 28 5 28H27C29.209 28 31 26.209 31 24V15H1V24Z" fill="#BE2A2C"/>
<path d="M27 4H5C2.791 4 1 5.791 1 8V16H31V8C31 5.791 29.209 4 27 4Z" fill="#1334A3"/>
<path d="M2.316 26.947L16 16L2.316 5.05298C1.513 5.78498 1 6.82898 1 7.99998V24C1 25.172 1.513 26.216 2.316 26.947Z" fill="white"/>
<path opacity="0.15" d="M27 4H5C2.791 4 1 5.791 1 8V24C1 26.209 2.791 28 5 28H27C29.209 28 31 26.209 31 24V8C31 5.791 29.209 4 27 4ZM30 24C30 25.654 28.654 27 27 27H5C3.346 27 2 25.654 2 24V8C2 6.346 3.346 5 5 5H27C28.654 5 30 6.346 30 8V24Z" fill="black"/>
<path opacity="0.2" d="M27 5H5C3.343 5 2 6.343 2 8V9C2 7.343 3.343 6 5 6H27C28.657 6 30 7.343 30 9V8C30 6.343 28.657 5 27 5Z" fill="white"/>
<path d="M10.569 15.303L9.008 15.613C8.957 15.353 8.854 15.111 8.712 14.898L10.035 14.014L10.024 13.039L9.049 13.028L8.165 14.351C7.952 14.208 7.71 14.106 7.45 14.055L7.76 12.494L7.063 11.813L6.366 12.494L6.676 14.055C6.416 14.106 6.174 14.209 5.961 14.351L5.077 13.028L4.102 13.039L4.091 14.014L5.414 14.898C5.271 15.111 5.169 15.353 5.118 15.613L3.557 15.303L2.876 16L3.557 16.697L5.118 16.387C5.169 16.647 5.272 16.889 5.414 17.102L4.091 17.986L4.102 18.961L5.077 18.972L5.961 17.649C6.174 17.792 6.416 17.894 6.676 17.945L6.366 19.506L7.063 20.187L7.76 19.506L7.45 17.945C7.71 17.894 7.952 17.791 8.165 17.649L9.049 18.972L10.024 18.961L10.035 17.986L8.712 17.102C8.855 16.889 8.957 16.647 9.008 16.387L10.569 16.697L11.25 16L10.569 15.303Z" fill="#F4D24B"/>
</svg>
