<svg width="32" height="32" viewBox="0 0 32 32" fill="none" xmlns="http://www.w3.org/2000/svg">
<path d="M5 4H13V28H5C2.792 28 1 26.208 1 24V8C1 5.792 2.792 4 5 4Z" fill="#2B6519"/>
<path d="M27 28L12 28L12 4L27 4C29.208 4 31 5.792 31 8L31 24C31 26.208 29.208 28 27 28Z" fill="#EA3323"/>
<path opacity="0.15" d="M27 4H5C2.791 4 1 5.791 1 8V24C1 26.209 2.791 28 5 28H27C29.209 28 31 26.209 31 24V8C31 5.791 29.209 4 27 4ZM30 24C30 25.654 28.654 27 27 27H5C3.346 27 2 25.654 2 24V8C2 6.346 3.346 5 5 5H27C28.654 5 30 6.346 30 8V24Z" fill="black"/>
<path opacity="0.2" d="M27 5H5C3.343 5 2 6.343 2 8V9C2 7.343 3.343 6 5 6H27C28.657 6 30 7.343 30 9V8C30 6.343 28.657 5 27 5Z" fill="white"/>
<path d="M12 21C14.7614 21 17 18.7614 17 16C17 13.2386 14.7614 11 12 11C9.23858 11 7 13.2386 7 16C7 18.7614 9.23858 21 12 21Z" fill="#FFFF55"/>
<path d="M14.562 13.529L9.437 13.523V16.954C9.441 17.626 9.708 18.261 10.19 18.741C10.681 19.23 11.322 19.5 11.995 19.5C12.679 19.5 13.323 19.233 13.808 18.75C14.293 18.266 14.561 17.624 14.561 16.942V13.529H14.562Z" fill="#EA3323"/>
</svg>
