<svg width="32" height="32" viewBox="0 0 32 32" fill="none" xmlns="http://www.w3.org/2000/svg">
<path d="M1 11H31V21H1V11Z" fill="#1A3D73"/>
<path d="M5 4H27C29.208 4 31 5.792 31 8V12H1V8C1 5.792 2.792 4 5 4Z" fill="#B8403F"/>
<path d="M27 28L5 28C2.792 28 1 26.208 1 24V20L31 20V24C31 26.208 29.208 28 27 28Z" fill="white"/>
<path opacity="0.15" d="M27 4H5C2.791 4 1 5.791 1 8V24C1 26.209 2.791 28 5 28H27C29.209 28 31 26.209 31 24V8C31 5.791 29.209 4 27 4ZM30 24C30 25.654 28.654 27 27 27H5C3.346 27 2 25.654 2 24V8C2 6.346 3.346 5 5 5H27C28.654 5 30 6.346 30 8V24Z" fill="black"/>
<path opacity="0.2" d="M27 5H5C3.343 5 2 6.343 2 8V9C2 7.343 3.343 6 5 6H27C28.657 6 30 7.343 30 9V8C30 6.343 28.657 5 27 5Z" fill="white"/>
<path d="M13.669 9.42301C13.876 9.39301 13.803 9.06801 13.603 9.13001C13.686 8.99301 13.504 8.83501 13.38 8.93601C13.407 8.79101 13.209 8.70201 13.118 8.81401C13.143 8.67101 12.948 8.58201 12.857 8.69301C12.851 8.56501 12.676 8.50801 12.595 8.60601C12.577 8.47301 12.355 8.38401 12.245 8.45501C12.24 8.32601 12.064 8.26701 11.983 8.36601C11.977 8.23401 11.794 8.18001 11.716 8.28401C11.688 8.16001 11.502 8.13501 11.442 8.24701C11.408 8.11801 11.212 8.10501 11.161 8.22801C11.124 8.13801 10.991 8.11101 10.922 8.18101C10.958 7.98301 10.818 7.77901 10.62 7.74201C10.631 7.64101 10.572 7.57201 10.719 7.59201C10.766 7.78201 11.062 7.48601 10.871 7.44001C10.862 7.35401 10.729 7.35401 10.719 7.44001C10.588 7.45301 10.624 7.42301 10.62 7.31901C10.766 7.27901 10.626 7.11701 10.544 7.10101C10.462 7.11701 10.322 7.27901 10.468 7.31901C10.465 7.42501 10.499 7.45201 10.369 7.44001C10.359 7.35401 10.226 7.35501 10.218 7.44001C10.071 7.47901 10.211 7.64201 10.294 7.65801C10.383 7.64401 10.343 7.56901 10.469 7.59201C10.52 7.85301 10.103 7.76601 10.167 8.18101C10.098 8.11101 9.965 8.13801 9.928 8.22801C9.878 8.10501 9.681 8.11801 9.647 8.24701C9.587 8.13501 9.401 8.16001 9.373 8.28401C9.295 8.17901 9.112 8.23401 9.106 8.36601C9.025 8.26701 8.848 8.32601 8.844 8.45501C8.734 8.38401 8.512 8.47301 8.494 8.60601C8.413 8.50801 8.238 8.56601 8.232 8.69301C8.14 8.58301 7.945 8.67101 7.971 8.81401C7.879 8.70201 7.682 8.79101 7.709 8.93601C7.586 8.83501 7.403 8.99301 7.486 9.13001C7.285 9.06801 7.213 9.39401 7.42 9.42301C7.285 9.48301 7.325 9.70301 7.475 9.70801C7.397 9.80501 7.481 9.96201 7.606 9.94801C7.548 10.032 7.595 10.109 7.604 10.202C7.641 10.29 7.728 10.242 7.785 10.262C7.886 10.616 8.134 10.85 8.307 11.18C8.204 11.211 8.246 11.323 8.339 11.305C8.341 11.302 8.348 11.345 8.348 11.345C8.285 11.44 8.185 11.692 8.362 11.742C8.446 11.894 8.472 11.79 8.392 11.928C8.996 12.172 9.858 12.031 10.544 12.089C11.23 12.031 12.093 12.171 12.696 11.928C12.611 11.785 12.649 11.893 12.727 11.742C12.899 11.697 12.806 11.438 12.741 11.345C12.741 11.332 12.745 11.294 12.766 11.306C12.852 11.312 12.877 11.207 12.783 11.181C12.956 10.851 13.204 10.617 13.305 10.263C13.361 10.243 13.451 10.291 13.486 10.203C13.497 10.109 13.541 10.033 13.484 9.94901C13.609 9.96201 13.693 9.80601 13.615 9.70901C13.765 9.70301 13.805 9.48301 13.67 9.42401L13.669 9.42301Z" fill="#E6BD4C"/>
<path d="M14.231 12.033V18.037C14.231 19.02 13.794 19.982 13.138 20.681C12.482 21.38 11.565 21.861 10.543 21.861C9.52101 21.861 8.60401 21.38 7.94801 20.681C7.29201 19.982 6.85501 19.02 6.85501 18.037V12.033H14.23H14.231Z" fill="#B8403F"/>
<path d="M10.543 21.888C9.576 21.888 8.647 21.466 7.928 20.7C7.229 19.954 6.828 18.984 6.828 18.038V12.007H14.258V18.038C14.258 18.984 13.857 19.955 13.158 20.7C12.439 21.467 11.511 21.888 10.543 21.888ZM6.883 12.061V18.038C6.883 18.97 7.279 19.927 7.968 20.663C8.676 21.418 9.591 21.834 10.543 21.834C11.495 21.834 12.41 21.418 13.118 20.663C13.807 19.928 14.203 18.971 14.203 18.038V12.061H6.883Z" fill="white"/>
<path d="M14.062 14.242C14.008 13.397 13.5 12.123 12.773 12.405C13.231 13.446 12.79 13.639 11.989 14.588C11.946 14.564 11.624 14.573 11.841 14.474C11.543 14.323 11.093 13.749 11.444 13.379C11.622 13.325 11.86 13.546 11.957 13.31C12.21 13.299 12.397 13.185 12.402 12.994C12.219 13.202 12.011 13.209 11.789 13.125C11.613 13.078 11.561 13.099 11.708 12.989C11.91 13.04 11.849 12.874 11.991 12.878C12.118 12.878 12.085 13.179 12.224 13.013C12.754 12.533 12.347 12.385 11.988 12.288C11.745 12.119 10.967 12.572 10.725 12.545C10.671 12.687 10.717 12.819 10.853 12.804C10.681 13.088 10.591 13.377 10.544 13.805C10.593 13.373 10.149 12.916 10.349 12.768C10.494 12.411 10.159 12.606 9.80999 12.387C9.18499 12.047 8.06899 12.456 8.94899 13.064C9.12199 12.683 9.11399 13.007 9.38099 12.988C9.63599 13.188 8.80299 13.236 8.68099 13.005C8.70199 13.254 9.08899 13.304 9.26599 13.415C9.70699 13.224 9.87499 13.667 9.71399 13.993C9.55199 14.27 9.37199 14.365 9.24599 14.49C9.46599 14.532 9.12199 14.587 9.09899 14.587C8.63599 14.073 7.76699 13.214 8.22999 12.697C8.59699 11.736 7.02399 12.856 7.08099 13.865C6.76399 15.353 7.45699 17.547 7.21199 19.108C7.59599 19.104 7.58799 18.582 7.75799 19.086C7.92199 18.988 8.00999 18.779 8.05299 18.537C8.13099 18.799 8.22799 18.51 8.28699 18.39C8.49099 18.335 8.58399 17.868 8.58799 17.605C8.71899 17.899 8.87699 17.348 8.84699 17.128C9.05899 17.635 8.58399 18.332 8.30199 18.629C8.42799 18.718 8.70299 18.642 8.80299 18.521C8.73399 18.744 8.71499 19.053 8.99099 18.792C9.00299 19.114 9.19399 18.995 9.29899 18.704C9.53599 19.116 9.44199 18.567 9.63899 18.297C10.132 18.777 9.68899 19.075 9.66199 19.541C9.81699 19.751 9.27799 20.045 9.39699 20.304C9.69599 20.531 8.80499 21.12 9.27799 21.306C9.36899 21.328 9.50399 21.4 9.53799 21.26C9.50599 21.443 9.86799 21.523 9.93099 21.372C9.95399 21.528 10.301 21.564 10.341 21.403C10.358 21.566 10.726 21.567 10.744 21.403C10.783 21.564 11.131 21.528 11.154 21.371C11.216 21.522 11.579 21.443 11.548 21.26C11.583 21.399 11.719 21.327 11.81 21.304C12.19 21.122 11.633 20.672 11.597 20.359C11.91 20.205 11.43 19.824 11.363 19.594C11.581 19.407 11.228 19.079 11.176 18.838C11.344 18.18 11.569 18.321 11.641 18.885C11.831 18.563 11.849 18.958 12.021 19.004C12.128 18.585 12.443 19.227 12.283 18.519C12.383 18.64 12.658 18.716 12.784 18.627C12.502 18.329 12.028 17.634 12.239 17.126C12.21 17.346 12.367 17.898 12.498 17.603C12.502 17.867 12.595 18.334 12.799 18.388C12.857 18.506 12.954 18.798 13.033 18.535C13.076 18.777 13.164 18.985 13.328 19.084C13.497 18.575 13.491 19.106 13.874 19.106C13.646 17.722 14.231 15.535 14.06 14.239L14.062 14.242Z" fill="white"/>
</svg>
