<svg width="32" height="32" viewBox="0 0 32 32" fill="none" xmlns="http://www.w3.org/2000/svg">
<path d="M27 4H5C2.79086 4 1 5.79086 1 8V24C1 26.2091 2.79086 28 5 28H27C29.2091 28 31 26.2091 31 24V8C31 5.79086 29.2091 4 27 4Z" fill="#215230"/>
<path opacity="0.15" d="M27 4H5C2.791 4 1 5.791 1 8V24C1 26.209 2.791 28 5 28H27C29.209 28 31 26.209 31 24V8C31 5.791 29.209 4 27 4ZM30 24C30 25.654 28.654 27 27 27H5C3.346 27 2 25.654 2 24V8C2 6.346 3.346 5 5 5H27C28.654 5 30 6.346 30 8V24Z" fill="black"/>
<path opacity="0.2" d="M27 5H5C3.343 5 2 6.343 2 8V9C2 7.343 3.343 6 5 6H27C28.657 6 30 7.343 30 9V8C30 6.343 28.657 5 27 5Z" fill="white"/>
<path d="M25.47 15.008C25.575 14.502 24.854 11.837 25.378 12.248C25.449 12.064 25.09 11.624 24.988 11.385C24.626 12.492 25.458 14.666 25.188 16.134C24.983 16.565 23.581 17.082 23.251 17.268C23.991 17.486 25.752 16.617 25.47 15.008Z" fill="white"/>
<path d="M10.505 16.004C10.694 15.662 10.735 15.293 10.708 14.885C10.993 14.769 11.333 14.576 11.447 14.562C11.369 14.83 11.555 15.119 11.932 15.082C12.007 17.225 12.278 16.777 12.167 15.021C12.411 14.908 12.452 14.69 12.543 14.597C13.072 15.464 13.845 14.317 13.361 13.845C13.356 13.884 13.243 14.26 13.243 14.26C13.243 14.26 13.351 14.374 13.356 14.43C13.239 14.57 12.702 14.475 12.735 14.258C12.761 14.199 12.887 13.895 12.707 14.076C12.544 14.242 12.46 14.594 12.133 14.654C12.154 13.916 11.736 12.577 11.935 12.135C12.121 12.368 12.124 12.204 12.01 11.975C11.821 11.638 11.723 10.994 11.541 11.692C11.73 12.478 11.758 13.77 11.89 14.654C11.529 14.584 11.642 14.329 11.646 14.165C11.597 14.132 10.948 14.478 10.678 14.561C10.646 14.287 10.606 14.04 10.589 13.837C11.601 13.74 11.212 12.523 11.003 11.954C11.028 11.92 11.3 12.151 11.136 11.878C10.885 11.561 10.778 11.197 10.659 11.799C10.816 12.093 10.96 12.888 11.11 13.219C11.007 13.292 10.773 13.414 10.541 13.407C10.56 13.059 10.26 12.235 10.494 12.174C10.655 12.359 10.679 12.279 10.566 12.048C10.371 11.751 10.217 11 10.078 11.727C10.245 12.07 10.174 12.569 10.285 13.336C9.653 12.998 10.152 11.951 9.633 11.451C9.609 11.508 9.503 11.861 9.503 11.861C10.018 12.591 9.165 14.204 8.333 13.192C8.235 12.648 8.809 10.922 7.997 12.235C7.837 12.764 7.442 14.369 6.984 13.162C6.895 12.826 7.082 11.882 6.869 12.659C6.75 12.952 6.914 14.102 7.436 13.967C7.907 13.714 7.924 12.514 8.29 12.213C7.566 13.743 9.267 14.812 9.719 12.96C9.732 13.247 9.943 13.709 10.331 13.808C10.354 14.036 10.391 14.333 10.425 14.646C10.353 14.668 10.281 14.688 10.208 14.705C9.603 13.129 8.189 15.597 10.029 15.106C10.053 15.178 10.069 15.249 10.071 15.313C9.219 16.5 6.105 16.498 8.137 14.424C8.203 14.448 8.328 14.571 8.317 14.582C8.39 14.47 8.427 14.35 8.227 14.274C8.557 13.398 7.352 14.115 8.087 14.393C7.938 14.549 7.587 14.778 7.372 14.912C7.205 15.006 6.692 15.319 6.569 15.391C6.512 15.495 7.024 15.178 7.179 15.125C5.691 17.961 9.493 17.505 10.505 16.004ZM7.297 15.066C7.403 15.013 7.504 14.962 7.587 14.916C6.224 17.28 10.205 16.728 10.251 15.047C10.32 15.026 10.389 15.003 10.459 14.979C10.483 15.234 10.5 15.484 10.501 15.702C10.136 16.131 9.298 16.63 8.556 16.833C7.188 17.266 6.704 15.867 7.297 15.067V15.066Z" fill="white"/>
<path d="M16.342 16.611C16.584 16.344 18.257 15.89 18.541 15.747C18.566 15.676 18.689 15.426 18.697 15.374C18.14 15.424 16.608 15.508 15.997 15.477C16.123 15.369 16.733 15.055 17.179 14.923C17.221 14.997 17.252 15.071 17.258 15.135C17.29 15.102 17.314 14.993 17.306 14.882C17.599 14.789 17.749 14.758 17.814 14.74C17.855 14.687 17.928 14.472 17.939 14.315C17.58 13.656 16.437 13.869 16.982 14.637C16.525 14.829 15.76 15.178 15.542 15.493L15.507 15.51C15.498 15.527 15.438 15.776 15.418 15.853C15.156 15.071 15.077 14.055 14.623 13.76C14.376 14.266 15.13 15.272 15.14 15.816C14.998 16.146 13.149 17.573 12.831 16.755C13.965 16.324 15.135 15.57 14.167 14.466C14.157 14.425 14.282 14.483 14.355 14.486C14.408 14.373 14.007 14.139 13.907 14.026C13.818 14.01 13.804 14.329 13.805 14.406C13.928 14.585 14.297 15.293 14.391 15.508C14.252 15.685 13.554 16.061 12.873 16.371C12.878 16.195 13.287 15.715 13.172 15.585C12.889 16.1 12.85 15.262 13.05 15.1C13.251 14.458 12.387 16.051 12.96 15.997C12.9 16.111 12.826 16.25 12.773 16.416C11.981 16.785 10.773 17.136 10.245 17.309C10.274 17.215 10.27 17.135 10.239 17.159C9.697 17.796 10.222 16.349 10.143 16.489C9.841 16.719 9.663 18.079 10.23 17.35C10.67 17.251 12.148 17.147 12.701 16.816C12.785 18.315 15.328 16.519 15.214 15.754C15.278 16.66 15.764 17.293 17.061 17.363C17.064 17.26 17.023 16.938 17.023 16.938C16.859 16.915 16.444 16.852 16.343 16.612L16.342 16.611ZM15.429 15.881C15.686 15.886 17.084 15.849 17.35 15.841C16.859 16.012 16.179 16.112 16.21 16.801C15.807 16.71 15.586 16.337 15.429 15.881Z" fill="white"/>
<path d="M12.822 13.817C13.281 13.571 13.304 12.419 13.676 12.132C12.911 13.605 14.726 14.577 15.08 12.799C15.402 14.5 17.26 13.439 16.382 12.108C16.141 11.559 16.61 12.131 16.448 11.774C16.197 11.458 16.09 11.093 15.971 11.695C16.131 11.986 16.288 12.78 16.422 13.115C15.063 13.835 15.495 11.949 14.994 11.29C14.97 11.347 14.864 11.7 14.864 11.7C15.702 13.583 12.98 14.044 13.866 11.837C13.419 11.115 13.227 13.494 12.721 13.451C12.31 13.451 12.308 12.538 12.363 12.344C12.071 12.363 12.218 13.997 12.822 13.817Z" fill="white"/>
<path d="M23.777 14.233C23.834 15.182 23.925 16.085 23.894 16.757C24.243 16.401 24.049 15.263 24.039 14.534C24.477 15.053 24.958 15.647 25.063 16.212C25.076 16.248 25.132 16.102 25.123 15.874C25.171 15.474 24.458 14.562 24.008 14.086C24.066 13.625 23.647 12.421 23.894 12.152C24.055 12.338 24.079 12.257 23.966 12.026C23.772 11.722 23.629 11.017 23.49 11.728C23.66 12.095 23.624 12.973 23.74 13.785C23.355 13.355 23.113 13.098 22.912 12.879C22.923 12.69 22.731 12.087 22.929 12.163C23.09 12.348 23.114 12.268 23.001 12.036C22.796 11.712 22.653 11.012 22.51 11.75C22.643 11.943 22.583 12.167 22.639 12.564C22.339 12.122 21.955 11.937 22.471 11.986C22.259 11.837 21.442 11.067 21.658 11.815C21.963 11.958 22.288 12.633 22.68 13.007C22.743 13.854 22.938 15.228 22.968 16.022C22.159 16.733 22.008 16.033 21.543 15.776C21.545 15.551 21.538 15.332 21.538 15.203C21.648 14.698 20.959 11.879 21.497 12.295C21.455 12.065 21.03 10.881 20.929 11.74C21.154 12.513 21.184 14.133 21.3 15.202C21.311 15.303 21.324 15.493 21.335 15.699C21.333 15.699 21.331 15.697 21.331 15.697C20.667 15.887 20.366 17.962 19.63 16.763C20.964 15.761 20.04 13.442 19.957 12.15C19.965 12.068 20.096 12.262 20.164 12.276C20.213 12.089 19.883 11.606 19.765 11.364C19.289 12.336 20.516 14.474 20.049 15.785C20.11 15.156 19.364 14.393 18.828 13.902C18.876 13.635 18.309 11.774 18.804 12.293C18.849 12.27 18.799 12.133 18.737 12.011C18.539 11.68 18.425 11.036 18.261 11.738C18.398 11.911 18.458 13.358 18.548 13.642C18.231 13.272 16.693 12.18 17.425 12.28C17.419 12.26 17.387 12.212 17.306 12.163C17.03 12.073 16.433 11.375 16.612 12.109C16.65 12.112 16.718 12.158 16.767 12.216C17.146 12.734 18.03 13.586 18.61 14.102C18.831 16.878 19.209 17.648 18.888 14.369C19.349 14.838 19.883 15.345 19.991 15.934C19.894 16.135 19.753 16.314 19.546 16.459C19.488 16.08 19.551 15.773 19.496 15.744C19.381 15.814 19.415 16.3 19.437 16.534C17.808 17.41 17.544 17.622 19.5 16.845C20.179 18.551 20.629 16.437 21.304 16.062C21.322 16.078 21.337 16.087 21.355 16.102C21.362 16.317 21.363 16.501 21.354 16.561C21.444 16.56 21.493 16.421 21.519 16.231C23.486 17.768 23.216 14.86 22.974 13.343C23.304 13.727 23.516 13.951 23.78 14.231L23.777 14.233Z" fill="white"/>
<path d="M22.159 20.66H20.659C20.774 20.577 20.835 20.455 20.818 20.333C20.808 20.256 20.731 20.198 20.637 20.19H20.59C20.476 20.201 20.394 20.283 20.406 20.373L20.411 20.408L20.417 20.461C20.423 20.528 20.417 20.595 20.398 20.66H9.313C9.478 20.9 9.778 21.046 10.102 21.046L20.218 21.04C20.102 21.123 20.042 21.245 20.058 21.368C20.07 21.458 20.172 21.522 20.285 21.511C20.399 21.5 20.481 21.418 20.469 21.328L20.464 21.293L20.458 21.24C20.452 21.173 20.458 21.106 20.477 21.04H21.725L21.76 21.098C21.791 21.151 21.831 21.198 21.877 21.24L21.941 21.293C22.067 21.381 22.228 21.433 22.397 21.433C22.557 21.433 22.686 21.322 22.686 21.185V21.113C22.686 20.863 22.449 20.66 22.157 20.66H22.159Z" fill="white"/>
</svg>
