<svg width="32" height="32" viewBox="0 0 32 32" fill="none" xmlns="http://www.w3.org/2000/svg">
<path d="M2.316 26.947L29.684 5.053C28.973 4.405 28.037 4 27 4H5C2.791 4 1 5.791 1 8V24C1 25.172 1.513 26.216 2.316 26.947Z" fill="#214FB5"/>
<path d="M29.684 5.05298L2.31599 26.947C3.02699 27.595 3.96299 28 4.99999 28H27C29.209 28 31 26.209 31 24V7.99998C31 6.82798 30.487 5.78398 29.684 5.05298Z" fill="#2E5A34"/>
<path d="M28.825 4.45998L1.659 26.192C2.036 26.766 2.562 27.224 3.176 27.541L30.341 5.80798C29.964 5.23398 29.438 4.77598 28.824 4.45898L28.825 4.45998Z" fill="#F6D44A"/>
<path opacity="0.15" d="M27 4H5C2.791 4 1 5.791 1 8V24C1 26.209 2.791 28 5 28H27C29.209 28 31 26.209 31 24V8C31 5.791 29.209 4 27 4ZM30 24C30 25.654 28.654 27 27 27H5C3.346 27 2 25.654 2 24V8C2 6.346 3.346 5 5 5H27C28.654 5 30 6.346 30 8V24Z" fill="black"/>
<path opacity="0.2" d="M27 5H5C3.343 5 2 6.343 2 8V9C2 7.343 3.343 6 5 6H27C28.657 6 30 7.343 30 9V8C30 6.343 28.657 5 27 5Z" fill="white"/>
<path d="M9.16601 10.909L8.79801 9.77502L8.43001 10.909H7.23801L8.20201 11.609L7.83401 12.743L8.79801 12.042L9.76201 12.743L9.39401 11.609L10.358 10.909H9.16601Z" fill="white"/>
<path d="M11.44 8.834L11.072 9.967L12.036 9.267L13 9.967L12.632 8.834L13.596 8.133H12.404L12.036 7L11.668 8.133H10.476L11.44 8.834Z" fill="white"/>
<path d="M12.404 13.684L12.036 12.551L11.668 13.684H10.476L11.44 14.385L11.072 15.518L12.036 14.818L13 15.518L12.632 14.385L13.596 13.684H12.404Z" fill="white"/>
<path d="M5.928 13.684L5.56 12.551L5.192 13.684H4L4.964 14.385L4.596 15.518L5.56 14.818L6.524 15.518L6.156 14.385L7.12 13.684H5.928Z" fill="white"/>
<path d="M5.56 7L5.192 8.133H4L4.964 8.834L4.596 9.967L5.56 9.267L6.524 9.967L6.156 8.834L7.12 8.133H5.928L5.56 7Z" fill="white"/>
</svg>
