<svg width="32" height="32" viewBox="0 0 32 32" fill="none" xmlns="http://www.w3.org/2000/svg">
<path d="M2.668 27.238C3.326 27.713 4.127 28 5 28H27C29.209 28 31 26.209 31 24V19.143L2.668 27.238Z" fill="#357939"/>
<path d="M12 4H5C2.791 4 1 5.791 1 8V24C1 24.874 1.288 25.676 1.764 26.334L12 4Z" fill="#0E2A69"/>
<path d="M2.12501 26.772L23 4H12L1.76401 26.334C1.87501 26.488 1.99301 26.636 2.12501 26.772Z" fill="#F7D45D"/>
<path d="M2.541 27.133L31 11.125V8C31 5.791 29.209 4 27 4H23L2.125 26.772C2.253 26.904 2.396 27.019 2.541 27.133Z" fill="#C23635"/>
<path d="M3.06899 27.483L31 20.5V11.125L2.54099 27.133C2.70699 27.264 2.88299 27.379 3.06899 27.483Z" fill="white"/>
<path opacity="0.15" d="M27 4H5C2.791 4 1 5.791 1 8V24C1 26.209 2.791 28 5 28H27C29.209 28 31 26.209 31 24V8C31 5.791 29.209 4 27 4ZM30 24C30 25.654 28.654 27 27 27H5C3.346 27 2 25.654 2 24V8C2 6.346 3.346 5 5 5H27C28.654 5 30 6.346 30 8V24Z" fill="black"/>
<path opacity="0.2" d="M27 5H5C3.343 5 2 6.343 2 8V9C2 7.343 3.343 6 5 6H27C28.657 6 30 7.343 30 9V8C30 6.343 28.657 5 27 5Z" fill="white"/>
</svg>
