<svg width="32" height="32" viewBox="0 0 32 32" fill="none" xmlns="http://www.w3.org/2000/svg">
<path d="M1 24C1 26.209 2.791 28 5 28H27C29.209 28 31 26.209 31 24V15H1V24Z" fill="white"/>
<path d="M27 4H5C2.791 4 1 5.791 1 8V16H31V8C31 5.791 29.209 4 27 4Z" fill="#DB3C3F"/>
<path opacity="0.15" d="M5 28H27C29.209 28 31 26.209 31 24V8C31 5.791 29.209 4 27 4H5C2.791 4 1 5.791 1 8V24C1 26.209 2.791 28 5 28ZM2 8C2 6.346 3.346 5 5 5H27C28.654 5 30 6.346 30 8V24C30 25.654 28.654 27 27 27H5C3.346 27 2 25.654 2 24V8Z" fill="black"/>
<path opacity="0.2" d="M27 5H5C3.343 5 2 6.343 2 8V9C2 7.343 3.343 6 5 6H27C28.657 6 30 7.343 30 9V8C30 6.343 28.657 5 27 5Z" fill="white"/>
<path d="M6.811 10.5C6.811 8.602 8.132 7.013 9.905 6.603C9.614 6.536 9.311 6.5 8.999 6.5C6.79 6.5 4.999 8.291 4.999 10.5C4.999 12.709 6.79 14.5 8.999 14.5C9.31 14.5 9.614 14.464 9.905 14.397C8.132 13.987 6.811 12.398 6.811 10.5Z" fill="white"/>
<path d="M10.81 8.329L10.576 9.048L11.189 8.603L11.801 9.048L11.567 8.329L12.179 7.884H11.423L11.189 7.164L10.955 7.884H10.198L10.81 8.329Z" fill="white"/>
<path d="M14.361 9.46902H13.605L13.371 8.74902L13.137 9.46902H12.38L12.992 9.91402L12.759 10.634L13.371 10.189L13.983 10.634L13.749 9.91402L14.361 9.46902Z" fill="white"/>
<path d="M10.074 12.034L9.84 11.315L9.606 12.034H8.85L9.462 12.479L9.228 13.199L9.84 12.754L10.452 13.199L10.218 12.479L10.831 12.034H10.074Z" fill="white"/>
<path d="M12.771 12.034L12.537 11.315L12.303 12.034H11.547L12.159 12.479L11.925 13.199L12.537 12.754L13.149 13.199L12.916 12.479L13.528 12.034H12.771Z" fill="white"/>
<path d="M9.24 9.469L9.007 8.75L8.773 9.469H8.016L8.628 9.914L8.394 10.634L9.007 10.189L9.619 10.634L9.385 9.914L9.997 9.469H9.24Z" fill="white"/>
</svg>
