<svg width="32" height="32" viewBox="0 0 32 32" fill="none" xmlns="http://www.w3.org/2000/svg">
<path d="M1 11H31V21H1V11Z" fill="#0600F5"/>
<path d="M5 4H27C29.208 4 31 5.792 31 8V12H1V8C1 5.792 2.792 4 5 4Z" fill="white"/>
<path d="M27 28L5 28C2.792 28 1 26.208 1 24V20L31 20V24C31 26.208 29.208 28 27 28Z" fill="#EA3323"/>
<path opacity="0.15" d="M27 4H5C2.791 4 1 5.791 1 8V24C1 26.209 2.791 28 5 28H27C29.209 28 31 26.209 31 24V8C31 5.791 29.209 4 27 4ZM30 24C30 25.654 28.654 27 27 27H5C3.346 27 2 25.654 2 24V8C2 6.346 3.346 5 5 5H27C28.654 5 30 6.346 30 8V24Z" fill="black"/>
<path opacity="0.2" d="M27 5H5C3.343 5 2 6.343 2 8V9C2 7.343 3.343 6 5 6H27C28.657 6 30 7.343 30 9V8C30 6.343 28.657 5 27 5Z" fill="white"/>
<path d="M6.612 8.56897C8.631 7.67997 10.93 7.67997 12.949 8.56897C13.28 13.249 12.224 15.902 9.781 16.527C7.338 15.902 6.281 13.249 6.612 8.56897Z" fill="#0600F5"/>
<path d="M9.781 10.646L10.548 12.18L11.059 11.498L12.337 13.203C12.337 13.282 12.326 13.361 12.304 13.437C11.948 14.682 11.005 15.674 9.78 16.093C8.555 15.674 7.612 14.682 7.256 13.437C7.234 13.361 7.223 13.282 7.223 13.203L8.501 11.498L9.012 12.18L9.779 10.646H9.781Z" fill="white"/>
<path d="M6.372 8.67997C6.452 8.64197 6.532 8.60497 6.613 8.56897L6.866 12.613C6.974 14.341 8.132 15.826 9.781 16.353C11.431 15.826 12.588 14.341 12.696 12.613L12.949 8.56897C13.03 8.60497 13.11 8.64197 13.19 8.67997L12.943 12.629C12.827 14.488 11.565 16.077 9.781 16.613C7.997 16.078 6.735 14.488 6.619 12.629L6.372 8.67997Z" fill="#EA3323"/>
</svg>
