<svg width="32" height="32" viewBox="0 0 32 32" fill="none" xmlns="http://www.w3.org/2000/svg">
<path d="M1 11H31V21H1V11Z" fill="#204C9E"/>
<path d="M5 4H27C29.208 4 31 5.792 31 8V12H1V8C1 5.792 2.792 4 5 4Z" fill="white"/>
<path d="M27 28L5 28C2.792 28 1 26.208 1 24V20L31 20V24C31 26.208 29.208 28 27 28Z" fill="#DB362F"/>
<path opacity="0.15" d="M27 4H5C2.791 4 1 5.791 1 8V24C1 26.209 2.791 28 5 28H27C29.209 28 31 26.209 31 24V8C31 5.791 29.209 4 27 4ZM30 24C30 25.654 28.654 27 27 27H5C3.346 27 2 25.654 2 24V8C2 6.346 3.346 5 5 5H27C28.654 5 30 6.346 30 8V24Z" fill="black"/>
<path opacity="0.2" d="M27 5H5C3.343 5 2 6.343 2 8V9C2 7.343 3.343 6 5 6H27C28.657 6 30 7.343 30 9V8C30 6.343 28.657 5 27 5Z" fill="white"/>
<path d="M15.65 10.232C15.65 10.232 15.828 12.016 15.828 15.585C15.803 19.23 13.077 21.075 11.076 22.045C9.075 21.075 6.35 19.23 6.324 15.585C6.324 12.016 6.502 10.232 6.502 10.232H15.65Z" fill="#DB362F"/>
<path d="M10.673 19.945V15.483C9.162 15.483 8.733 15.617 8.281 15.753C8.323 15.297 8.323 14.838 8.281 14.382C8.733 14.519 9.162 14.652 10.673 14.652V13.412C10.196 13.412 9.538 13.431 8.781 13.689C8.824 13.232 8.824 12.772 8.781 12.315C9.538 12.569 10.196 12.589 10.673 12.589C10.673 12.23 10.562 11.457 10.422 10.817C10.858 10.856 11.296 10.856 11.732 10.817C11.592 11.456 11.481 12.229 11.481 12.589C11.958 12.589 12.616 12.57 13.373 12.315C13.33 12.772 13.33 13.232 13.373 13.689C12.616 13.431 11.958 13.412 11.481 13.412V14.652C12.992 14.652 13.421 14.518 13.873 14.382C13.831 14.838 13.831 15.297 13.873 15.753C13.421 15.616 12.992 15.483 11.481 15.483V19.945H10.673Z" fill="white"/>
<path d="M11.076 22.044C12.317 21.442 13.837 20.502 14.818 19.006C14.811 18.992 14.807 18.975 14.801 18.961C14.241 17.777 13.225 17.594 12.533 18.552C12.444 18.343 12.342 18.153 12.229 17.987C11.424 16.806 10.256 17.058 9.62 18.552C9.333 18.155 8.975 17.938 8.606 17.938C8.088 17.938 7.633 18.362 7.338 19.01C8.32 20.504 9.836 21.442 11.076 22.044Z" fill="#204C9E"/>
<path d="M11.076 22.235L11.001 22.199C9.653 21.545 8.616 20.804 7.832 19.933C6.729 18.708 6.164 17.246 6.153 15.586C6.153 12.049 6.33 10.233 6.332 10.215L6.347 10.06H15.806L15.821 10.215C15.823 10.233 16 12.049 16 15.585C15.988 17.246 15.423 18.708 14.321 19.933C13.536 20.804 12.5 21.546 11.152 22.199L11.076 22.235ZM6.66 10.404C6.619 10.909 6.496 12.65 6.496 15.585C6.507 17.157 7.042 18.543 8.087 19.703C8.827 20.525 9.805 21.229 11.076 21.854C12.347 21.229 13.325 20.525 14.065 19.703C15.11 18.543 15.645 17.157 15.656 15.584C15.656 12.65 15.534 10.909 15.492 10.404H6.66Z" fill="white"/>
</svg>
