<svg width="32" height="32" viewBox="0 0 32 32" fill="none" xmlns="http://www.w3.org/2000/svg">
<path d="M31 8C31 5.791 29.209 4 27 4H5C2.791 4 1 5.791 1 8V17H31V8Z" fill="white"/>
<path d="M5 28H27C29.209 28 31 26.209 31 24V16H1V24C1 26.209 2.791 28 5 28Z" fill="#75B6E1"/>
<path opacity="0.15" d="M5 28H27C29.209 28 31 26.209 31 24V8C31 5.791 29.209 4 27 4H5C2.791 4 1 5.791 1 8V24C1 26.209 2.791 28 5 28ZM2 8C2 6.346 3.346 5 5 5H27C28.654 5 30 6.346 30 8V24C30 25.654 28.654 27 27 27H5C3.346 27 2 25.654 2 24V8Z" fill="black"/>
<path opacity="0.2" d="M27 5H5C3.343 5 2 6.343 2 8V9C2 7.343 3.343 6 5 6H27C28.657 6 30 7.343 30 9V8C30 6.343 28.657 5 27 5Z" fill="white"/>
<path d="M18.478 11.12C19.742 9.31002 17.572 9.65702 16.548 9.17202C16.765 9.02602 16.721 8.99702 16.511 8.92002C16.427 8.79502 16.484 8.56902 16.323 8.50002C16.448 8.31202 16.358 8.02802 16.156 7.94202C16.17 7.87302 16.043 7.56102 16.213 7.67302C16.661 7.84702 16.547 7.17602 16.145 7.40302C16.087 7.28902 16.28 7.00502 15.993 6.99902C15.708 7.00302 15.898 7.29302 15.842 7.40202C15.443 7.17802 15.323 7.84202 15.77 7.67302C15.945 7.55802 15.816 7.86702 15.831 7.93702C15.622 8.02102 15.529 8.31102 15.658 8.50202C15.502 8.57202 15.56 8.79602 15.475 8.91902C15.269 8.99702 15.219 9.01902 15.434 9.16902C14.411 9.65602 12.235 9.30802 13.503 11.12C12.989 11.243 13.852 11.424 13.895 11.656C13.838 11.765 13.868 11.866 13.989 11.92C13.975 12.007 14.058 12.083 14.129 12.105C14.132 12.148 14.156 12.188 14.183 12.218C13.717 13.005 17.967 13.225 17.799 12.222C17.827 12.191 17.853 12.148 17.856 12.103C17.93 12.078 18.01 11.998 17.989 11.909C18.073 11.835 18.099 11.764 18.071 11.674C18.151 11.413 19.005 11.245 18.477 11.119L18.478 11.12ZM14.478 10.37C14.44 10.385 14.387 10.498 14.362 10.793C14.261 10.719 14.163 10.684 14.087 10.666C13.205 9.63002 15.082 10.092 15.51 9.50902C15.467 9.75402 15.707 9.98202 15.681 10.24C15.641 10.308 15.605 10.387 15.578 10.479C15.161 10.012 15.101 9.98102 14.921 10.589C14.697 10.382 14.487 10.371 14.478 10.37ZM18.099 10.099C18.201 10.285 18.063 10.499 17.864 10.698C17.792 10.709 17.709 10.736 17.627 10.794C17.552 10.224 17.553 10.276 17.068 10.59C16.888 9.97802 16.828 10.015 16.411 10.48C16.384 10.387 16.347 10.308 16.308 10.241C16.284 9.98502 16.514 9.75402 16.472 9.51002C16.887 10.002 17.735 9.73902 18.099 10.1V10.099Z" fill="#EAC34F"/>
<path d="M15.936 13.268C16.541 13.257 19.146 12.821 19.146 16.438C19.146 19.894 15.992 21.268 15.992 21.268C15.992 21.268 12.838 19.937 12.838 16.176C12.838 12.82 15.936 13.268 15.936 13.268Z" fill="#ABCFE9"/>
<path d="M16.959 18.672C17.144 18.569 17.356 18.51 17.583 18.51C17.951 18.51 18.283 18.665 18.517 18.914C17.597 20.569 15.993 21.268 15.993 21.268C15.993 21.268 14.43 20.608 13.505 18.906C13.738 18.662 14.067 18.51 14.432 18.51C14.686 18.51 14.922 18.584 15.122 18.711C15.356 18.459 15.69 18.302 16.061 18.302C16.412 18.302 16.73 18.443 16.961 18.672H16.959Z" fill="#9BB980"/>
<path d="M19.85 15.574C19.768 14.397 19.406 13.449 18.857 12.973C18.472 12.639 17.848 12.41 17.32 12.651C17.296 12.662 17.273 12.674 17.251 12.686H17.202C17.202 12.686 17.196 12.686 17.193 12.688L16.248 13.13C16.203 13.076 16.131 13.037 16.055 13.024C16.053 13.024 16.051 13.024 16.049 13.024C16.043 13.024 16.037 13.022 16.03 13.022C16.023 13.022 16.015 13.021 16.008 13.021C16.006 13.021 16.004 13.021 16.002 13.021C16 13.021 15.998 13.021 15.996 13.021C15.913 13.022 15.84 13.052 15.787 13.101C15.776 13.111 15.765 13.121 15.756 13.132L14.811 12.69C14.811 12.69 14.805 12.688 14.802 12.688H14.732C14.71 12.675 14.687 12.663 14.663 12.652C14.136 12.411 13.511 12.64 13.126 12.974C12.577 13.45 12.214 14.398 12.133 15.575C11.971 17.906 13.182 19.383 13.918 20.055C14.465 20.555 15.295 21.068 15.983 21.33H15.985C15.987 21.33 15.988 21.33 15.99 21.33H15.995H15.997C16.685 21.067 17.515 20.555 18.062 20.055C18.798 19.382 20.01 17.906 19.847 15.575L19.85 15.574ZM16.431 20.769C16.23 20.881 16.07 20.97 15.992 21.004C15.914 20.97 15.755 20.881 15.554 20.77L15.474 20.726C15.212 20.503 14.824 20.136 14.445 19.639C13.839 18.845 13.132 17.551 13.208 15.892C13.266 14.627 13.582 14.167 13.789 13.979C13.886 14.154 14.08 14.264 14.325 14.264C14.489 14.264 14.645 14.214 14.777 14.122L15.753 13.551C15.785 13.592 15.834 13.624 15.887 13.644C15.89 13.645 15.892 13.646 15.895 13.647C15.898 13.648 15.902 13.649 15.905 13.65C15.925 13.657 15.947 13.661 15.971 13.664C15.978 13.664 15.985 13.665 15.992 13.665C15.995 13.665 15.997 13.665 16 13.665C16.069 13.665 16.12 13.648 16.167 13.615C16.197 13.597 16.224 13.574 16.245 13.548L17.187 14.109C17.322 14.208 17.484 14.262 17.655 14.262C17.901 14.262 18.095 14.153 18.191 13.977C18.399 14.165 18.714 14.625 18.772 15.89C18.849 17.548 18.142 18.842 17.536 19.635C17.156 20.132 16.768 20.5 16.506 20.724L16.428 20.768L16.431 20.769Z" fill="#EAC34F"/>
<path d="M16.829 22.913C15.915 21.384 15.318 20.948 13.721 20.384C13.466 19.948 13.548 19.552 13.009 19.262C12.852 19.153 12.704 19.051 12.602 18.869C12.593 18.852 12.565 18.857 12.563 18.877C12.444 19.305 12.643 20.183 13.426 20.31C13.531 20.335 13.599 20.362 13.664 20.443C13.275 20.318 12.732 20.175 12.553 19.729C12.512 19.557 12.457 19.373 12.322 19.255C12.657 18.683 12.278 18.086 12.175 17.534C11.935 17.67 11.816 18.002 11.775 18.262C11.551 18.179 11.351 18.468 11.505 18.648C11.505 18.648 11.505 18.649 11.505 18.65C11.485 18.633 11.461 18.565 11.427 18.595C11.413 18.572 11.399 18.549 11.386 18.526C11.365 18.326 11.507 18.187 11.637 18.06C12.058 17.619 12.07 16.863 11.793 16.379C11.529 16.828 11.086 17.348 11.271 17.927C11.317 18.129 11.322 18.283 11.286 18.349C10.805 17.619 11.271 17.521 11.17 16.821C11.747 16.528 12.125 15.716 11.773 15.141C11.538 15.556 11.14 15.643 10.978 16.16C10.928 16.035 10.981 15.664 10.777 15.907C10.769 15.707 10.845 15.491 11.071 15.46C11.758 15.214 12.258 14.584 12.054 13.772C11.547 14.082 11.07 14.788 10.953 15.319C10.935 15.401 10.865 15.463 10.823 15.485C10.908 15.03 10.94 14.602 11.194 14.288C11.907 13.819 12.175 13.178 12.043 12.551C12.039 12.537 12.02 12.531 12.009 12.541C11.736 12.777 11.529 12.906 11.274 13.264C10.959 13.761 11.068 14.252 10.868 14.683C10.854 14.666 10.841 14.645 10.831 14.625C11.025 14.49 10.887 14.158 10.652 14.207C10.55 13.847 10.433 13.629 10.345 13.347C10.157 13.429 9.845 14.066 9.962 14.655C10.229 15.434 10.81 15.369 10.63 16.077C10.581 16.144 10.539 16.217 10.503 16.293C10.198 15.146 10.232 15.495 9.515 14.684C9.232 15.396 9.59 16.274 10.444 16.437C10.433 16.47 10.422 16.504 10.413 16.538C9.969 16.273 9.875 17.099 10.367 16.942C10.356 17.557 10.812 17.666 10.976 18.148C10.537 17.979 10.502 17.161 9.812 16.785C9.64 16.669 9.48 16.567 9.33 16.42C9.311 16.4 9.277 16.408 9.27 16.435C9.24 16.881 9.375 17.508 9.676 17.758C10.454 18.332 10.88 17.775 11.384 18.887C11.384 18.91 11.385 18.933 11.387 18.956C10.762 18.274 10.321 18.296 9.51 18.098C9.561 18.538 9.903 18.911 10.324 19.095C10.704 19.257 11.116 19.118 11.412 19.135C11.434 19.238 11.469 19.342 11.519 19.441C11.116 19.247 10.492 19.501 10.04 19.579C10.326 20.01 10.765 20.185 11.194 20.189C11.526 20.189 11.724 19.989 11.96 19.888C12.014 19.913 12.07 19.931 12.128 19.947C11.944 19.982 11.872 20.24 12.014 20.364C11.565 20.491 11.42 20.861 11.038 21.004C11.371 21.324 12.047 21.208 12.376 20.907C12.601 20.677 12.831 20.246 13.187 20.503C13.178 20.512 13.17 20.52 13.162 20.528C12.805 20.394 12.692 20.999 13.074 21.003C13.284 21.01 13.401 20.735 13.253 20.589C13.268 20.576 13.282 20.561 13.298 20.548C14.354 20.787 15.298 21.145 15.896 21.949C16.182 22.289 16.332 22.543 16.582 23.03C16.679 23.25 17.009 23.202 16.833 22.916L16.829 22.913ZM10.734 14.667C10.761 14.728 10.819 14.791 10.814 14.858C10.762 15.052 10.72 15.267 10.689 15.488C10.57 15.253 10.754 14.951 10.729 14.668C10.731 14.668 10.732 14.668 10.734 14.668V14.667ZM11.697 18.74C11.732 18.74 11.765 18.733 11.795 18.719C11.81 18.79 11.83 18.862 11.856 18.934C11.758 18.873 11.641 18.807 11.564 18.722C11.566 18.715 11.567 18.709 11.569 18.704C11.606 18.727 11.65 18.74 11.697 18.74ZM12.358 19.997C12.532 20.103 12.688 20.247 12.862 20.337C12.713 20.366 12.547 20.3 12.391 20.312C12.457 20.213 12.43 20.062 12.337 19.992C12.344 19.994 12.351 19.995 12.358 19.997Z" fill="#6E8D61"/>
<path d="M15.422 23.027C15.671 22.54 15.821 22.286 16.108 21.946C16.707 21.142 17.65 20.784 18.706 20.545C18.722 20.559 18.736 20.573 18.751 20.586C18.604 20.732 18.72 21.007 18.93 21C19.311 20.996 19.198 20.391 18.842 20.525C18.834 20.517 18.826 20.509 18.817 20.5C19.173 20.243 19.403 20.674 19.628 20.904C19.956 21.205 20.633 21.321 20.966 21.001C20.584 20.859 20.438 20.488 19.99 20.361C20.131 20.237 20.06 19.979 19.876 19.944C19.933 19.928 19.989 19.91 20.044 19.885C20.28 19.987 20.478 20.187 20.81 20.186C21.238 20.182 21.678 20.007 21.964 19.576C21.512 19.497 20.888 19.244 20.485 19.438C20.535 19.339 20.57 19.235 20.592 19.132C20.888 19.115 21.301 19.255 21.68 19.092C22.101 18.908 22.443 18.535 22.494 18.095C21.683 18.293 21.242 18.271 20.617 18.953C20.619 18.93 20.62 18.907 20.62 18.884C21.124 17.771 21.549 18.329 22.328 17.755C22.629 17.505 22.764 16.878 22.734 16.432C22.727 16.405 22.693 16.397 22.674 16.417C22.524 16.564 22.364 16.665 22.192 16.782C21.502 17.158 21.467 17.976 21.028 18.145C21.191 17.663 21.648 17.554 21.637 16.939C22.129 17.097 22.035 16.271 21.591 16.535C21.582 16.501 21.572 16.467 21.56 16.434C22.414 16.271 22.772 15.393 22.489 14.681C21.772 15.491 21.806 15.142 21.501 16.29C21.465 16.214 21.423 16.141 21.374 16.074C21.194 15.366 21.775 15.43 22.042 14.652C22.159 14.063 21.847 13.426 21.659 13.344C21.571 13.627 21.454 13.844 21.352 14.204C21.117 14.156 20.979 14.488 21.173 14.622C21.163 14.641 21.15 14.663 21.136 14.68C20.936 14.249 21.046 13.758 20.73 13.261C20.475 12.903 20.268 12.774 19.995 12.538C19.984 12.528 19.965 12.534 19.961 12.548C19.829 13.175 20.097 13.816 20.81 14.285C21.064 14.599 21.096 15.028 21.181 15.482C21.14 15.46 21.069 15.399 21.051 15.316C20.934 14.785 20.457 14.078 19.95 13.769C19.746 14.581 20.245 15.211 20.933 15.457C21.159 15.488 21.235 15.704 21.227 15.904C21.022 15.661 21.076 16.032 21.026 16.157C20.864 15.64 20.465 15.553 20.231 15.138C19.879 15.713 20.257 16.525 20.834 16.818C20.733 17.518 21.2 17.617 20.718 18.346C20.682 18.28 20.687 18.127 20.733 17.924C20.918 17.345 20.475 16.825 20.211 16.376C19.934 16.86 19.946 17.616 20.367 18.057C20.497 18.185 20.639 18.323 20.618 18.523C20.604 18.546 20.591 18.569 20.577 18.592C20.543 18.562 20.519 18.63 20.499 18.647C20.499 18.647 20.499 18.646 20.499 18.645C20.653 18.465 20.453 18.176 20.229 18.259C20.187 18 20.069 17.668 19.829 17.531C19.726 18.083 19.347 18.68 19.682 19.252C19.547 19.37 19.492 19.554 19.451 19.726C19.271 20.173 18.729 20.316 18.34 20.44C18.404 20.359 18.473 20.332 18.578 20.307C19.361 20.18 19.56 19.301 19.441 18.874C19.44 18.854 19.411 18.849 19.402 18.866C19.3 19.048 19.152 19.151 18.995 19.259C18.457 19.549 18.538 19.945 18.283 20.381C16.686 20.945 16.088 21.381 15.175 22.91C14.999 23.196 15.329 23.244 15.426 23.024L15.422 23.027ZM21.271 14.667C21.246 14.95 21.43 15.252 21.311 15.487C21.28 15.266 21.238 15.051 21.186 14.857C21.181 14.79 21.239 14.727 21.266 14.666C21.268 14.666 21.269 14.667 21.271 14.667ZM20.43 18.704C20.432 18.709 20.434 18.715 20.435 18.722C20.357 18.807 20.241 18.873 20.143 18.934C20.169 18.862 20.189 18.79 20.204 18.719C20.234 18.732 20.267 18.74 20.302 18.74C20.349 18.74 20.392 18.727 20.43 18.704ZM19.663 19.992C19.57 20.062 19.543 20.213 19.609 20.312C19.454 20.3 19.287 20.366 19.138 20.337C19.312 20.247 19.468 20.103 19.642 19.997C19.649 19.995 19.656 19.994 19.663 19.992Z" fill="#6E8D61"/>
</svg>
