<svg width="32" height="32" viewBox="0 0 32 32" fill="none" xmlns="http://www.w3.org/2000/svg">
<path d="M1 8H31V24H1V8Z" fill="#A6222F"/>
<path d="M5 4H27C29.208 4 31 5.792 31 8V9H1V8C1 5.792 2.792 4 5 4Z" fill="#497E44"/>
<path d="M27 28L5 28C2.792 28 1 26.208 1 24V23L31 23V24C31 26.208 29.208 28 27 28Z" fill="#497E44"/>
<path d="M1 9H31V10H1V9Z" fill="white"/>
<path d="M1 22H31V23H1V22Z" fill="white"/>
<path opacity="0.15" d="M27 4H5C2.791 4 1 5.791 1 8V24C1 26.209 2.791 28 5 28H27C29.209 28 31 26.209 31 24V8C31 5.791 29.209 4 27 4ZM30 24C30 25.654 28.654 27 27 27H5C3.346 27 2 25.654 2 24V8C2 6.346 3.346 5 5 5H27C28.654 5 30 6.346 30 8V24Z" fill="black"/>
<path opacity="0.2" d="M27 5H5C3.343 5 2 6.343 2 8V9C2 7.343 3.343 6 5 6H27C28.657 6 30 7.343 30 9V8C30 6.343 28.657 5 27 5Z" fill="white"/>
<path d="M18.008 17.18L21.257 14.82H17.241L16 11L14.759 14.82H10.743L13.992 17.18L12.751 21L16 18.639L19.249 21L18.008 17.18Z" fill="#E7CB48"/>
</svg>
