<svg width="32" height="32" viewBox="0 0 32 32" fill="none" xmlns="http://www.w3.org/2000/svg">
<path d="M1 10H31V22H1V10Z" fill="#F8D448"/>
<path d="M5 4H27C29.208 4 31 5.792 31 8V11H1V8C1 5.792 2.792 4 5 4Z" fill="#439643"/>
<path d="M27 28L5 28C2.792 28 1 26.208 1 24V21L31 21V24C31 26.208 29.208 28 27 28Z" fill="#439643"/>
<path d="M2.271 26.911L15 16L2.271 5.08899C1.493 5.81899 1 6.84899 1 7.99999V24C1 25.151 1.493 26.181 2.271 26.911Z" fill="#DD4446"/>
<path opacity="0.15" d="M27 4H5C2.791 4 1 5.791 1 8V24C1 26.209 2.791 28 5 28H27C29.209 28 31 26.209 31 24V8C31 5.791 29.209 4 27 4ZM30 24C30 25.654 28.654 27 27 27H5C3.346 27 2 25.654 2 24V8C2 6.346 3.346 5 5 5H27C28.654 5 30 6.346 30 8V24Z" fill="black"/>
<path opacity="0.2" d="M27 5H5C3.343 5 2 6.343 2 8V9C2 7.343 3.343 6 5 6H27C28.657 6 30 7.343 30 9V8C30 6.343 28.657 5 27 5Z" fill="white"/>
<path d="M19.86 16.375L21.505 15.18H19.472L18.844 13.246L18.215 15.18H16.182L17.827 16.375L17.199 18.308L18.844 17.113L20.489 18.308L19.86 16.375Z" fill="black"/>
<path d="M26.298 16.375L27.943 15.18H25.91L25.281 13.246L24.653 15.18H22.62L24.265 16.375L23.636 18.308L25.281 17.113L26.926 18.308L26.298 16.375Z" fill="black"/>
</svg>
