<svg width="32" height="32" viewBox="0 0 32 32" fill="none" xmlns="http://www.w3.org/2000/svg">
<path d="M1 11H31V21H1V11Z" fill="white"/>
<path d="M5 4H27C29.208 4 31 5.792 31 8V12H1V8C1 5.792 2.792 4 5 4Z" fill="#1C44A6"/>
<path d="M27 28L5 28C2.792 28 1 26.208 1 24V20L31 20V24C31 26.208 29.208 28 27 28Z" fill="#1C44A6"/>
<path opacity="0.15" d="M27 4H5C2.791 4 1 5.791 1 8V24C1 26.209 2.791 28 5 28H27C29.209 28 31 26.209 31 24V8C31 5.791 29.209 4 27 4ZM30 24C30 25.654 28.654 27 27 27H5C3.346 27 2 25.654 2 24V8C2 6.346 3.346 5 5 5H27C28.654 5 30 6.346 30 8V24Z" fill="black"/>
<path d="M15.429 15.299L14.267 13.992C14.267 13.992 14.083 16.393 14.441 16.974L15.429 15.299Z" fill="#1C44A6"/>
<path d="M15.129 16.228L13.599 15.231C13.599 15.231 13.473 17.032 14.141 17.303L15.129 16.228Z" fill="#1C44A6"/>
<path d="M16.571 15.299L17.733 13.992C17.733 13.992 17.917 16.393 17.559 16.974L16.571 15.299Z" fill="#1C44A6"/>
<path d="M16.871 16.228L18.401 15.231C18.401 15.231 18.527 17.032 17.859 17.303L16.871 16.228Z" fill="#1C44A6"/>
<path d="M16 19.541C14.047 19.541 12.459 17.953 12.459 16C12.459 14.047 14.047 12.459 16 12.459C17.953 12.459 19.541 14.047 19.541 16C19.541 17.953 17.953 19.541 16 19.541ZM16 12.978C14.333 12.978 12.978 14.334 12.978 16C12.978 17.666 14.334 19.022 16 19.022C17.666 19.022 19.022 17.666 19.022 16C19.022 14.334 17.666 12.978 16 12.978Z" fill="#F7CF46"/>
<path d="M16 13.806L13.911 17.424H18.089L16 13.806Z" fill="white"/>
<path d="M18.538 17.684H13.463L16.001 13.289L18.538 17.684ZM14.36 17.165H17.64L16 14.325L14.36 17.165Z" fill="#F7CF46"/>
<path opacity="0.2" d="M27 5H5C3.343 5 2 6.343 2 8V9C2 7.343 3.343 6 5 6H27C28.657 6 30 7.343 30 9V8C30 6.343 28.657 5 27 5Z" fill="white"/>
</svg>
