<svg width="32" height="32" viewBox="0 0 32 32" fill="none" xmlns="http://www.w3.org/2000/svg">
<path d="M1 24C1 26.2092 2.7908 28 5 28H27C29.2092 28 31 26.2092 31 24V15H1V24Z" fill="#022588"/>
<path d="M27 4H5C2.7908 4 1 5.7908 1 8V16H31V8C31 5.7908 29.2092 4 27 4Z" fill="#DD1216"/>
<path d="M2.3157 26.9474L16 16L2.3157 5.05261C1.5128 5.78421 1 6.82821 1 8.00001V24C1 25.1718 1.5128 26.2158 2.3157 26.9474Z" fill="white"/>
<path opacity="0.15" d="M27 4H5C2.7909 4 1 5.7908 1 8V24C1 26.2092 2.7909 28 5 28H27C29.2092 28 31 26.2092 31 24V8C31 5.7908 29.2092 4 27 4ZM30 24C30 25.6543 28.6543 27 27 27H5C3.3457 27 2 25.6543 2 24V8C2 6.3457 3.3457 5 5 5H27C28.6543 5 30 6.3457 30 8V24Z" fill="black"/>
<path opacity="0.2" d="M27 5H5C3.3431 5 2 6.3431 2 8V9C2 7.3431 3.3431 6 5 6H27C28.6569 6 30 7.3431 30 9V8C30 6.3431 28.6569 5 27 5Z" fill="white"/>
<path d="M8.8178 12.488C8.8001 12.4839 8.5932 12.3622 8.6459 12.1841C8.6284 12.1857 8.4379 12.1207 8.4588 11.9107C8.4424 11.9154 8.2368 11.8869 8.2185 11.7096C8.2023 11.7166 7.9978 11.7405 7.9041 11.5662C7.8898 11.5707 7.688 11.6047 7.6342 11.4584C7.6205 11.4677 7.419 11.5259 7.3057 11.356C7.2944 11.3699 7.066 11.4353 6.9951 11.2713C6.9252 11.4348 6.6975 11.3699 6.6857 11.356C6.5735 11.5254 6.3715 11.4664 6.3572 11.4569C6.306 11.6025 6.1036 11.5698 6.0901 11.5644C5.9968 11.7387 5.7926 11.7148 5.7763 11.7077C5.7649 11.8853 5.5526 11.9118 5.5374 11.9083C5.5631 12.1191 5.3673 12.1825 5.353 12.1811C5.4068 12.3591 5.2005 12.4807 5.1825 12.4848C5.2896 12.6242 5.2133 12.776 5.205 12.7818L5.1996 12.9484C5.2095 12.9484 8.7766 12.9649 8.7857 12.9649V12.9553L8.7947 12.9555L8.7992 12.7854C8.7911 12.7798 8.7128 12.6267 8.8178 12.488Z" fill="#F9DA05"/>
<path d="M9.1936 12.1639C9.1204 12.0468 9.0274 12.0078 8.8109 12.0033C8.7723 12.0025 8.7005 11.9905 8.6096 11.9752C8.2958 11.9224 7.7136 11.8245 7.3736 12.0157C7.3525 11.9992 7.2739 11.9267 7.2169 11.8733C7.2449 11.8676 7.2691 11.8518 7.2906 11.8255C7.4624 11.8337 7.6316 11.8156 7.7941 11.7718C7.8405 11.7573 7.8681 11.7711 7.8804 11.7807C7.8934 11.7908 7.901 11.8049 7.9004 11.8177L7.8983 11.8582L7.9183 11.823C7.9462 11.7739 7.9513 11.7346 7.9334 11.7062C7.9053 11.6616 7.8323 11.6632 7.8109 11.6648C7.5037 11.6821 7.3342 11.6621 7.2209 11.6425C7.0504 11.5582 6.8522 11.6054 6.8013 11.701C6.7842 11.7332 6.761 11.8175 6.9147 11.9046L6.9954 11.9552C7.0296 11.9901 7.0415 12.0221 7.0271 12.041C7.0124 12.0604 6.9698 12.065 6.9251 12.0399C6.6661 11.8439 6.4016 11.7933 6.0929 11.8809C6.0441 11.8809 5.9951 11.8809 5.9461 11.8809C5.4934 11.8799 5.0254 11.8785 4.8014 12.1233L4.7994 12.1267C4.7976 12.1321 4.7944 12.1391 4.7908 12.1469C4.7769 12.1775 4.7579 12.2195 4.7811 12.241C4.8033 12.2617 4.8681 12.27 5.1716 12.1078C5.1684 12.1442 5.1761 12.1687 5.1948 12.1824C5.2461 12.22 5.3661 12.159 5.4931 12.0944C5.514 12.0838 5.5353 12.073 5.5562 12.0626C5.5406 12.0925 5.5502 12.1129 5.559 12.1236C5.6075 12.1825 5.8129 12.1734 5.969 12.09C5.9566 12.115 5.9549 12.1358 5.9635 12.1531C5.9899 12.206 6.1072 12.2065 6.2315 12.2071H6.2476C6.3192 12.2094 6.3635 12.2302 6.3633 12.2613C6.363 12.3239 6.2084 12.4178 5.9306 12.4236C5.9101 12.4225 5.8534 12.4426 5.8482 12.4742C5.8439 12.501 5.8733 12.5221 5.9402 12.5391C5.959 12.54 5.967 12.5478 5.9771 12.5577C6.0086 12.5884 6.0418 12.6027 6.2046 12.5209C6.2051 12.534 6.2098 12.5447 6.2186 12.5527C6.2488 12.5801 6.3256 12.5729 6.4674 12.5294C6.5422 12.5852 6.6057 12.5485 6.6671 12.513C6.6808 12.5051 6.695 12.4969 6.709 12.49C6.8714 12.5533 7.0477 12.6112 7.2028 12.6112C7.275 12.6112 7.3426 12.5987 7.4021 12.5684C7.4969 12.5201 7.5629 12.4296 7.5984 12.2992C7.8404 12.2711 7.9939 12.2411 8.0125 12.1798C8.0165 12.1665 8.014 12.1525 8.0051 12.1379C8.2425 12.2312 8.3048 12.2212 8.3322 12.2013C8.3504 12.188 8.3546 12.1668 8.3545 12.1455C8.3656 12.1497 8.3769 12.1541 8.3881 12.1584C8.536 12.2152 8.6277 12.2474 8.6556 12.215C8.6664 12.2024 8.6657 12.1834 8.653 12.1559C8.6936 12.1656 8.7352 12.1741 8.7756 12.1823C8.8945 12.2064 9.0174 12.2314 9.1178 12.2914C9.1686 12.3177 9.2017 12.3218 9.2189 12.3038C9.2529 12.2682 9.1962 12.1684 9.1936 12.1639Z" fill="#BD715F"/>
<path d="M3.9387 12.5198C4.0515 13.1597 4.1766 13.8155 4.2381 14.4854C4.372 15.4776 3.7685 16.3106 4.0161 17.2907C4.1639 17.761 4.6811 18.0344 5.1545 18.0886C5.7825 18.2073 6.5416 18.089 7 18.5587C7.4584 18.0889 8.2175 18.2073 8.8455 18.0886C9.3189 18.0344 9.8361 17.761 9.9839 17.2907C10.2315 16.3106 9.628 15.4776 9.7619 14.4854C9.8234 13.8155 9.9486 13.1597 10.0613 12.5198C8.9559 13.1199 7.8637 12.3392 7 12.8384C6.1363 12.3393 5.0441 13.12 3.9387 12.5198Z" fill="#DD1216"/>
<path d="M6.2925 13.0365C6.4923 13.0406 6.6639 13.0737 6.8141 13.1605L7.0001 13.2679L7.1861 13.1605C7.4864 12.987 7.8723 13.0282 8.3989 13.0868C8.7537 13.1263 9.1691 13.1549 9.6022 13.0673C9.5237 13.5171 9.4378 13.9627 9.3935 14.4392C9.3159 15.0208 9.4516 15.528 9.5529 15.9748C9.6532 16.4168 9.719 16.7937 9.6245 17.1845C9.5351 17.4546 9.1638 17.6775 8.8032 17.7188L8.7897 17.7206L8.7766 17.7231C8.5117 17.7732 8.1695 17.7747 7.8093 17.8234C7.5413 17.8596 7.2603 17.9606 7 18.1249C6.7397 17.9606 6.4587 17.8596 6.1907 17.8234C5.8305 17.7748 5.4887 17.7732 5.2238 17.7231L5.2103 17.7206L5.1968 17.7188C4.8364 17.6775 4.4655 17.4547 4.3758 17.1848C4.2811 16.7939 4.347 16.4169 4.4474 15.9748C4.5488 15.528 4.6845 15.0208 4.6068 14.4392C4.5625 13.9626 4.4766 13.5171 4.3981 13.0673C4.831 13.1548 5.2463 13.1263 5.601 13.0868C5.8643 13.0575 6.0927 13.0324 6.2925 13.0365Z" fill="#62B1E3"/>
<path d="M8.8097 16.9985V16.2494H8.9173V16.0299H8.6519V15.271L7.5348 14.5054V14.0137L6.9949 13.4883L6.4551 14.0137V14.5054L5.338 15.271V16.0299H5.0727V16.2494H5.1802V16.9985H4.9905V17.3219H8.9994V16.9985H8.8097Z" fill="white"/>
<path d="M11.4224 16.1116L11.4213 16.1025L11.2123 16.1176C11.1922 15.9156 11.1452 15.6619 11.0528 15.386L10.4234 15.587L10.6114 16.5934L10.7789 16.6194C10.6601 17.7759 9.8019 18.6448 8.4591 18.6585L8.47 18.7652C7.7667 19.0795 6.2332 19.0686 5.5303 18.7648L5.5414 18.6561C4.199 18.6428 3.3399 17.7729 3.2216 16.617C3.2281 16.616 3.3831 16.592 3.3891 16.591C3.3916 16.5776 3.5748 15.5966 3.5771 15.5846C3.5084 15.5627 3.0019 15.4019 2.9476 15.3837C2.8552 15.6597 2.8082 15.9133 2.7881 16.1153L2.5791 16.1002C2.3523 17.3466 3.1514 19.1782 4.7353 19.3156L4.7334 19.5292C6.4785 20.0924 7.5249 20.0946 9.2672 19.5315L9.2637 19.3182C10.8444 19.1828 11.6459 17.3549 11.4224 16.1116Z" fill="#F9DA05"/>
</svg>
