<svg width="32" height="32" viewBox="0 0 32 32" fill="none" xmlns="http://www.w3.org/2000/svg">
<path d="M27 4H5C2.79086 4 1 5.79086 1 8V24C1 26.2091 2.79086 28 5 28H27C29.2091 28 31 26.2091 31 24V8C31 5.79086 29.2091 4 27 4Z" fill="#3C5EBB"/>
<path d="M31 22V10L1 10V22H31Z" fill="#B30403"/>
<path d="M31 8H1V10H31V8Z" fill="#FFDB01"/>
<path d="M31 22H1V24H31V22Z" fill="#FFDB01"/>
<path opacity="0.15" d="M27 4H5C2.7909 4 1 5.7908 1 8V24C1 26.2092 2.7909 28 5 28H27C29.2092 28 31 26.2092 31 24V8C31 5.7908 29.2092 4 27 4ZM30 24C30 25.6543 28.6543 27 27 27H5C3.3457 27 2 25.6543 2 24V8C2 6.3457 3.3457 5 5 5H27C28.6543 5 30 6.3457 30 8V24Z" fill="black"/>
<path opacity="0.2" d="M27 5H5C3.3431 5 2 6.3431 2 8V9C2 7.3431 3.3431 6 5 6H27C28.6569 6 30 7.3431 30 9V8C30 6.3431 28.6569 5 27 5Z" fill="white"/>
<path d="M6.849 14.2247H25.0117L25.8492 14.5203L27.1068 14.0764L25.8492 13.6325L25.0099 13.9287H6.849C6.7602 13.9287 6.6882 13.9949 6.6882 14.0767C6.6882 14.1584 6.7602 14.2247 6.849 14.2247Z" fill="#FFDB01"/>
<path d="M5.64389 15.1128H23.8066L24.6441 15.4084L25.9017 14.9645L24.6441 14.5206L23.8048 14.8168H5.64389C5.55509 14.8168 5.48309 14.883 5.48309 14.9648C5.48309 15.0466 5.55509 15.1128 5.64389 15.1128Z" fill="#FFDB01"/>
<path d="M28.3576 15.7786H3.64241C3.52161 15.7786 3.42371 15.878 3.42371 16.0005C3.42371 16.123 3.52161 16.2224 3.64241 16.2224H28.3577C28.4785 16.2224 28.5764 16.123 28.5764 16.0005C28.5764 15.878 28.4784 15.7786 28.3576 15.7786Z" fill="#FFDB01"/>
<path d="M23.26 16.0002C21.7804 17.4797 19.8076 20.439 15.8618 20.439C12.4094 20.439 9.94359 17.4798 8.46359 16.0002C9.94319 14.5204 12.4091 11.5614 15.8618 11.5614C19.8073 11.5614 21.78 14.5206 23.26 16.0002Z" fill="white"/>
<path d="M15.3453 13.1053C15.7389 13.548 15.4102 13.7265 15.8269 13.7556C16.2663 13.7879 16.0172 14.2234 16.3868 14.2386C16.6452 14.2499 16.361 15.2821 16.6097 15.6228C16.8631 15.9779 17.0753 15.7269 17.0798 15.9834C17.0842 16.2488 16.3901 16.222 16.378 17.0393C16.3576 17.5104 15.7923 17.5405 15.7653 17.8436C15.7317 18.1287 16.8791 18.2887 16.8638 18.5439C16.8481 18.7983 15.625 18.7585 15.5717 19.0487C15.5444 19.3094 17.252 19.523 17.3893 20.2767C17.1345 20.36 16.4095 20.4384 15.8616 20.4389C12.4097 20.4414 9.9434 17.4795 8.4639 16C9.9435 14.5203 12.4094 11.5611 15.8621 11.5611C15.8621 11.5611 14.8368 12.4977 15.3453 13.1053Z" fill="black"/>
</svg>
