<svg width="32" height="32" viewBox="0 0 32 32" fill="none" xmlns="http://www.w3.org/2000/svg">
<path d="M1 10H31V22H1V10Z" fill="white"/>
<path d="M5 4H27C29.208 4 31 5.792 31 8V11H1V8C1 5.792 2.792 4 5 4Z" fill="#BC271A"/>
<path d="M27 28L5 28C2.792 28 1 26.208 1 24V21L31 21V24C31 26.208 29.208 28 27 28Z" fill="#2B6519"/>
<path opacity="0.15" d="M27 4H5C2.791 4 1 5.791 1 8V24C1 26.209 2.791 28 5 28H27C29.209 28 31 26.209 31 24V8C31 5.791 29.209 4 27 4ZM30 24C30 25.654 28.654 27 27 27H5C3.346 27 2 25.654 2 24V8C2 6.346 3.346 5 5 5H27C28.654 5 30 6.346 30 8V24Z" fill="black"/>
<path opacity="0.2" d="M27 5H5C3.343 5 2 6.343 2 8V9C2 7.343 3.343 6 5 6H27C28.657 6 30 7.343 30 9V8C30 6.343 28.657 5 27 5Z" fill="white"/>
<path d="M17.759 17.312C17.568 17.491 17.323 17.601 17.063 17.624C16.419 17.682 15.85 17.207 15.792 16.563V15.638C15.799 15.425 15.976 15.258 16.189 15.265C16.322 15.269 16.443 15.341 16.51 15.456C16.668 14.979 16.41 14.465 15.933 14.307C15.456 14.149 14.942 14.407 14.784 14.884C14.722 15.07 14.722 15.271 14.784 15.456C14.891 15.272 15.127 15.21 15.311 15.317C15.426 15.384 15.498 15.505 15.502 15.638V16.563C15.444 17.207 14.875 17.682 14.231 17.624C13.971 17.601 13.725 17.491 13.535 17.312C13.286 17.936 12.578 18.241 11.954 17.992C11.862 17.955 11.775 17.908 11.695 17.85C11.807 18.972 13.49 18.743 13.615 17.652C14.143 18.58 15.305 18.314 15.646 17.178H15.649C15.989 18.314 17.151 18.58 17.68 17.652C17.805 18.743 19.488 18.973 19.6 17.85C19.52 17.908 19.432 17.955 19.341 17.992C18.717 18.241 18.008 17.936 17.759 17.312Z" fill="#EFC443"/>
<path d="M14.379 18.556C14.379 18.556 14.26 18.485 14.013 18.517C13.977 18.357 13.837 18.22 13.737 18.151C13.641 18.256 13.573 18.451 13.606 18.592C13.429 18.624 13.264 18.741 13.264 18.741C13.674 19.15 14.145 19.063 14.379 18.556Z" fill="#EFC443"/>
<path d="M16.215 18.498C16.215 18.498 16.109 18.408 15.86 18.399C15.851 18.236 15.735 18.077 15.647 17.993C15.535 18.081 15.437 18.263 15.446 18.407C15.266 18.41 15.085 18.498 15.085 18.498C15.423 18.968 15.9 18.959 16.215 18.498Z" fill="#EFC443"/>
<path d="M17.558 18.15C17.433 18.219 17.307 18.382 17.293 18.526C17.115 18.5 16.922 18.557 16.922 18.557C17.179 19.076 17.652 19.145 18.037 18.74C18.037 18.74 17.947 18.634 17.703 18.585C17.721 18.422 17.631 18.247 17.558 18.15Z" fill="#EFC443"/>
<path d="M12.588 19.45L12.729 19.923C14.638 19.355 16.657 19.355 18.566 19.923L18.707 19.45C16.706 18.854 14.59 18.854 12.588 19.45Z" fill="#EFC443"/>
<path d="M15.367 12.443L15.194 12.976L15.647 12.647L16.1 12.976L15.927 12.443L16.38 12.114H15.82L15.647 11.582L15.474 12.114H14.914L15.367 12.443Z" fill="#EFC443"/>
<path d="M13.21 13.021L13.037 13.554L13.49 13.225L13.943 13.554L13.77 13.021L14.223 12.692H13.663L13.49 12.16L13.317 12.692H12.757L13.21 13.021Z" fill="#EFC443"/>
<path d="M11.631 14.6L11.458 15.133L11.911 14.804L12.364 15.133L12.191 14.6L12.644 14.271H12.084L11.911 13.739L11.738 14.271H11.178L11.631 14.6Z" fill="#EFC443"/>
<path d="M11.333 16.961L11.786 17.29L11.613 16.757L12.066 16.428H11.506L11.333 15.896L11.16 16.428H10.6L11.053 16.757L10.88 17.29L11.333 16.961Z" fill="#EFC443"/>
<path d="M17.524 13.021L17.351 13.554L17.804 13.225L18.257 13.554L18.084 13.021L18.537 12.692H17.977L17.804 12.16L17.631 12.692H17.071L17.524 13.021Z" fill="#EFC443"/>
<path d="M19.103 14.6L18.93 15.133L19.383 14.804L19.836 15.133L19.663 14.6L20.116 14.271H19.556L19.383 13.739L19.21 14.271H18.65L19.103 14.6Z" fill="#EFC443"/>
<path d="M20.241 16.757L20.694 16.428H20.134L19.961 15.896L19.788 16.428H19.228L19.681 16.757L19.508 17.29L19.961 16.961L20.414 17.29L20.241 16.757Z" fill="#EFC443"/>
</svg>
