<svg width="32" height="32" viewBox="0 0 32 32" fill="none" xmlns="http://www.w3.org/2000/svg">
<path d="M27 4H5C2.79086 4 1 5.79086 1 8V24C1 26.2091 2.79086 28 5 28H27C29.2091 28 31 26.2091 31 24V8C31 5.79086 29.2091 4 27 4Z" fill="#C93927"/>
<path d="M2.433 27.044L19 16L2.433 4.95599C1.564 5.68999 1 6.77399 1 7.99999V24C1 25.227 1.564 26.311 2.433 27.044Z" fill="#F7CB4F"/>
<path d="M2.271 26.911L15 16L2.271 5.089C1.493 5.819 1 6.849 1 8V24C1 25.151 1.493 26.181 2.271 26.911Z" fill="black"/>
<path d="M7.56901 15.973L8.88301 13.74L6.50801 14.774L4.79101 12.835L5.04001 15.413L2.66501 16.447L5.19401 17.007L5.44401 19.585L6.75701 17.352L9.28701 17.912L7.56901 15.973Z" fill="white"/>
<path opacity="0.15" d="M27 4H5C2.791 4 1 5.791 1 8V24C1 26.209 2.791 28 5 28H27C29.209 28 31 26.209 31 24V8C31 5.791 29.209 4 27 4ZM30 24C30 25.654 28.654 27 27 27H5C3.346 27 2 25.654 2 24V8C2 6.346 3.346 5 5 5H27C28.654 5 30 6.346 30 8V24Z" fill="black"/>
<path opacity="0.2" d="M27 5H5C3.343 5 2 6.343 2 8V9C2 7.343 3.343 6 5 6H27C28.657 6 30 7.343 30 9V8C30 6.343 28.657 5 27 5Z" fill="white"/>
</svg>
