<svg width="32" height="32" viewBox="0 0 32 32" fill="none" xmlns="http://www.w3.org/2000/svg">
<path d="M27 4H5C2.79086 4 1 5.79086 1 8V24C1 26.2091 2.79086 28 5 28H27C29.2091 28 31 26.2091 31 24V8C31 5.79086 29.2091 4 27 4Z" fill="#D12D24"/>
<path opacity="0.15" d="M27 4H5C2.791 4 1 5.791 1 8V24C1 26.209 2.791 28 5 28H27C29.209 28 31 26.209 31 24V8C31 5.791 29.209 4 27 4ZM30 24C30 25.654 28.654 27 27 27H5C3.346 27 2 25.654 2 24V8C2 6.346 3.346 5 5 5H27C28.654 5 30 6.346 30 8V24Z" fill="black"/>
<path opacity="0.2" d="M27 5H5C3.343 5 2 6.343 2 8V9C2 7.343 3.343 6 5 6H27C28.657 6 30 7.343 30 9V8C30 6.343 28.657 5 27 5Z" fill="white"/>
<path d="M19.807 16L21 14.358L19.069 14.985L17.876 13.342V15.373L15.945 16L17.876 16.627V18.658L19.069 17.015L21 17.642L19.807 16Z" fill="white"/>
<path d="M15.953 19.325C14.116 20.975 11.29 20.825 9.639 18.988C7.988 17.151 8.139 14.325 9.976 12.674C11.813 11.024 14.639 11.174 16.29 13.011C15.848 12.312 15.255 11.719 14.556 11.277C11.948 9.62702 8.49599 10.403 6.84499 13.011C5.19499 15.619 5.971 19.071 8.579 20.722C11.187 22.372 14.639 21.596 16.29 18.988C16.184 19.106 16.071 19.219 15.953 19.325Z" fill="white"/>
</svg>
