<svg width="32" height="32" viewBox="0 0 32 32" fill="none" xmlns="http://www.w3.org/2000/svg">
<path d="M27.0002 4H5.00021C2.79107 4 1.00021 5.79086 1.00021 8V24C1.00021 26.2091 2.79107 28 5.00021 28H27.0002C29.2094 28 31.0002 26.2091 31.0002 24V8C31.0002 5.79086 29.2094 4 27.0002 4Z" fill="#0A9DE0"/>
<path d="M5 4H16V16H1V8C1 5.7923 2.7923 4 5 4Z" fill="#001B69"/>
<path d="M6.50021 13.7737V16H10.5002V13.7728L13.5373 16H16.0002V14.7589L12.2383 12H16.0002V8H13.2602L16.0002 5.9907V4H14.5592L10.5002 6.9769V4H6.50021V6.7935L3.24361 4.4043C2.47611 4.7784 1.85411 5.3877 1.45801 6.1422L3.99011 8H1.00021V12H4.76341L1.00021 14.7599V16H3.46441L6.50021 13.7737Z" fill="white"/>
<path d="M1.8057 5.5891L5.0911 8H6.4547L2.3595 4.9953C2.1552 5.1748 1.9699 5.3718 1.8057 5.5891Z" fill="#CA0A2B"/>
<path d="M0.999786 16L6.45439 12V13L2.36349 16H0.999786Z" fill="#CA0A2B"/>
<path d="M9.50021 16H7.50021V11H1.00021V9H7.50021V4H9.50021V9H16.0002V11H9.50021V16Z" fill="#CA0A2B"/>
<path d="M16.0002 15.6667L11.0002 12V13L15.0911 16H16.0002V15.6667Z" fill="#CA0A2B"/>
<path d="M16.0002 4H15.7518L10.2913 8.0044H11.6549L16.0002 4.8179V4Z" fill="#CA0A2B"/>
<path opacity="0.15" d="M27.0002 4H5.00021C2.79111 4 1.00021 5.7908 1.00021 8V24C1.00021 26.2092 2.79111 28 5.00021 28H27.0002C29.2094 28 31.0002 26.2092 31.0002 24V8C31.0002 5.7908 29.2094 4 27.0002 4ZM30.0002 24C30.0002 25.6543 28.6545 27 27.0002 27H5.00021C3.34591 27 2.00021 25.6543 2.00021 24V8C2.00021 6.3457 3.34591 5 5.00021 5H27.0002C28.6545 5 30.0002 6.3457 30.0002 8V24Z" fill="black"/>
<path opacity="0.2" d="M27 5H5C3.3431 5 2 6.3431 2 8V9C2 7.3431 3.3431 6 5 6H27C28.6569 6 30 7.3431 30 9V8C30 6.3431 28.6569 5 27 5Z" fill="white"/>
<path d="M12.5663 24.6861L12.1658 23.4536L11.7654 24.6861H10.4694L11.5179 25.4479L11.1174 26.6804L12.1658 25.9187L13.2143 26.6804L12.8138 25.4479L13.8623 24.6861H12.5663Z" fill="#FEDE02"/>
<path d="M17.4554 18.5353L16.4069 19.2971L15.3584 18.5353L15.7589 19.7679L14.7105 20.5296H16.0064L16.4069 21.7621L16.8074 20.5296H18.1033L17.0549 19.7679L17.4554 18.5353Z" fill="#FEDE02"/>
<path d="M17.0549 24.0089L17.4554 22.7764L16.4069 23.5381L15.3584 22.7764L15.7589 24.0089L14.7105 24.7707H16.0064L16.4069 26.0032L16.8074 24.7707H18.1033L17.0549 24.0089Z" fill="#FEDE02"/>
<path d="M21.6964 12.7675L20.648 13.5292L19.5995 12.7675L20 14L18.9516 14.7617H20.2475L20.648 15.9943L21.0485 14.7617H22.3444L21.296 14L21.6964 12.7675Z" fill="#FEDE02"/>
<path d="M21.296 22.8214L21.6964 21.5889L20.648 22.3506L19.5995 21.5889L20 22.8214L18.9516 23.5832H20.2475L20.648 24.8157L21.0485 23.5832H22.3444L21.296 22.8214Z" fill="#FEDE02"/>
<path d="M25.2589 11.4103L24.2105 12.1721L23.162 11.4103L23.5625 12.6429L22.5141 13.4046H23.81L24.2105 14.6371L24.611 13.4046H25.9069L24.8585 12.6429L25.2589 11.4103Z" fill="#FEDE02"/>
<path d="M24.611 19.4272L24.2105 18.1947L23.81 19.4272H22.5141L23.5625 20.1889L23.162 21.4215L24.2105 20.6597L25.2589 21.4215L24.8585 20.1889L25.9069 19.4272H24.611Z" fill="#FEDE02"/>
<path d="M27.125 9.8407L26.7245 11.0733L27.773 10.3115L28.8214 11.0733L28.421 9.8407L29.4694 9.079H28.1735L27.773 7.8465L27.3725 9.079H26.0766L27.125 9.8407Z" fill="#FEDE02"/>
<path d="M28.1735 17.2218L27.773 15.9893L27.3725 17.2218H26.0766L27.125 17.9836L26.7245 19.2161L27.773 18.4544L28.8214 19.2161L28.421 17.9836L29.4694 17.2218H28.1735Z" fill="#FEDE02"/>
</svg>
