<svg width="32" height="32" viewBox="0 0 32 32" fill="none" xmlns="http://www.w3.org/2000/svg">
<path d="M27 4H5C2.79086 4 1 5.79086 1 8V24C1 26.2091 2.79086 28 5 28H27C29.2091 28 31 26.2091 31 24V8C31 5.79086 29.2091 4 27 4Z" fill="#E93323"/>
<path d="M5 4H16V16H1V8C1 5.792 2.792 4 5 4Z" fill="#020090"/>
<path opacity="0.15" d="M27 4H5C2.791 4 1 5.791 1 8V24C1 26.209 2.791 28 5 28H27C29.209 28 31 26.209 31 24V8C31 5.791 29.209 4 27 4ZM30 24C30 25.654 28.654 27 27 27H5C3.346 27 2 25.654 2 24V8C2 6.346 3.346 5 5 5H27C28.654 5 30 6.346 30 8V24Z" fill="black"/>
<path opacity="0.2" d="M27 5H5C3.343 5 2 6.343 2 8V9C2 7.343 3.343 6 5 6H27C28.657 6 30 7.343 30 9V8C30 6.343 28.657 5 27 5Z" fill="white"/>
<path d="M6.664 8.859L4.711 8.336L6.14 9.765C6.249 9.426 6.43 9.118 6.664 8.859Z" fill="white"/>
<path d="M8.49999 8.04401C8.67899 8.04401 8.85399 8.06401 9.02299 8.10001L8.49999 6.14801L7.97699 8.10001C8.14599 8.06401 8.32099 8.04401 8.49999 8.04401Z" fill="white"/>
<path d="M7.74101 8.16301L6.31201 6.73401L6.83501 8.68701C7.09301 8.45301 7.40101 8.27201 7.74101 8.16301Z" fill="white"/>
<path d="M10.164 8.68701L10.687 6.73401L9.258 8.16301C9.597 8.27201 9.90499 8.45301 10.164 8.68701Z" fill="white"/>
<path d="M10.86 9.76402L12.289 8.33502L10.336 8.85802C10.57 9.11602 10.751 9.42402 10.86 9.76402Z" fill="white"/>
<path d="M8.50001 12.711C9.70841 12.711 10.688 11.7314 10.688 10.523C10.688 9.31462 9.70841 8.33502 8.50001 8.33502C7.29161 8.33502 6.31201 9.31462 6.31201 10.523C6.31201 11.7314 7.29161 12.711 8.50001 12.711Z" fill="white"/>
<path d="M12.875 10.523L10.923 10C10.959 10.169 10.979 10.344 10.979 10.523C10.979 10.702 10.959 10.877 10.923 11.046L12.875 10.523Z" fill="white"/>
<path d="M9.259 12.883L10.688 14.312L10.165 12.359C9.907 12.593 9.599 12.774 9.259 12.883Z" fill="white"/>
<path d="M10.336 12.187L12.289 12.71L10.86 11.281C10.751 11.62 10.57 11.928 10.336 12.187Z" fill="white"/>
<path d="M8.49999 13.002C8.32099 13.002 8.14599 12.982 7.97699 12.946L8.49999 14.898L9.02299 12.946C8.85399 12.982 8.67899 13.002 8.49999 13.002Z" fill="white"/>
<path d="M6.83599 12.359L6.31299 14.312L7.74199 12.883C7.40299 12.774 7.09499 12.593 6.83599 12.359Z" fill="white"/>
<path d="M6.14 11.282L4.711 12.711L6.664 12.188C6.43 11.93 6.249 11.622 6.14 11.282Z" fill="white"/>
<path d="M6.021 10.523C6.021 10.344 6.041 10.169 6.077 10L4.125 10.523L6.077 11.046C6.041 10.877 6.021 10.702 6.021 10.523Z" fill="white"/>
</svg>
