<svg width="32" height="32" viewBox="0 0 32 32" fill="none" xmlns="http://www.w3.org/2000/svg">
<path d="M27 4H5C2.79086 4 1 5.79086 1 8V24C1 26.2091 2.79086 28 5 28H27C29.2091 28 31 26.2091 31 24V8C31 5.79086 29.2091 4 27 4Z" fill="white"/>
<path d="M1 19H31V22H1V19Z" fill="#1334A3"/>
<path d="M30.859 25H1.14101C1.58701 26.722 3.13801 28 5.00001 28H27C28.862 28 30.412 26.722 30.859 25Z" fill="#1334A3"/>
<path d="M15 13H31V16H15V13Z" fill="#1334A3"/>
<path d="M30.859 7H15V10H31V8C31 7.653 30.942 7.321 30.859 7Z" fill="#1334A3"/>
<path opacity="0.2" d="M27 5H5C3.343 5 2 6.343 2 8V9C2 7.343 3.343 6 5 6H27C28.657 6 30 7.343 30 9V8C30 6.343 28.657 5 27 5Z" fill="white"/>
<path d="M5 4H16V19H1V8C1 5.792 2.792 4 5 4Z" fill="white"/>
<path opacity="0.15" d="M27 4H5C2.791 4 1 5.791 1 8V24C1 26.209 2.791 28 5 28H27C29.209 28 31 26.209 31 24V8C31 5.791 29.209 4 27 4ZM30 24C30 25.654 28.654 27 27 27H5C3.346 27 2 25.654 2 24V8C2 6.346 3.346 5 5 5H27C28.654 5 30 6.346 30 8V24Z" fill="black"/>
<path d="M12.069 12.513C11.772 12.434 11.422 12.342 11.001 11.955L13.5 11.501L10.87 11.023C12.124 10.544 11.81 9.65101 13.081 9.72601C11.945 9.03401 11.76 10.053 10.589 10.054L12.035 7.96601L9.85201 9.47801C10.424 8.23001 9.52601 7.85801 10.484 7.00701C9.19201 7.32101 9.78101 8.17201 8.95401 9.00101L8.50001 6.50201L8.02401 9.12101C7.54401 7.93301 6.64301 8.16601 6.72501 6.92101C6.03301 8.05701 7.05201 8.24201 7.05301 9.41301L4.96501 7.96701L6.47401 10.147C5.22701 9.57701 4.85601 10.477 4.00601 9.51901C4.32001 10.811 5.17101 10.222 6.00001 11.049L3.50101 11.503L6.11401 11.978C4.84401 12.457 5.19701 13.351 3.92001 13.278C4.93401 13.962 5.28601 12.968 6.41201 12.95L4.96601 15.038L7.14701 13.528C6.57001 14.781 7.47601 15.144 6.51701 15.998C7.80901 15.684 7.22001 14.833 8.04701 14.004L8.50101 16.503L8.97701 13.882C9.45601 15.148 10.349 14.808 10.276 16.084C10.968 14.948 9.94901 14.763 9.94801 13.592L12.036 15.038L10.525 12.856C11.761 13.415 12.144 12.532 12.995 13.487C12.858 12.874 12.481 12.57 12.069 12.515V12.513Z" fill="#F6D44A"/>
</svg>
