<svg width="32" height="32" viewBox="0 0 32 32" fill="none" xmlns="http://www.w3.org/2000/svg">
<path d="M1 11H31V21H1V11Z" fill="white"/>
<path d="M5 4H27C29.208 4 31 5.792 31 8V12H1V8C1 5.792 2.792 4 5 4Z" fill="#4498B3"/>
<path d="M27 28L5 28C2.792 28 1 26.208 1 24V20L31 20V24C31 26.208 29.208 28 27 28Z" fill="#55B44B"/>
<path d="M1 12H31V13H1V12Z" fill="#BE2A2C"/>
<path d="M1 19H31V20H1V19Z" fill="#BE2A2C"/>
<path opacity="0.15" d="M27 4H5C2.791 4 1 5.791 1 8V24C1 26.209 2.791 28 5 28H27C29.209 28 31 26.209 31 24V8C31 5.791 29.209 4 27 4ZM30 24C30 25.654 28.654 27 27 27H5C3.346 27 2 25.654 2 24V8C2 6.346 3.346 5 5 5H27C28.654 5 30 6.346 30 8V24Z" fill="black"/>
<path opacity="0.2" d="M27 5H5C3.343 5 2 6.343 2 8V9C2 7.343 3.343 6 5 6H27C28.657 6 30 7.343 30 9V8C30 6.343 28.657 5 27 5Z" fill="white"/>
<path d="M7.417 6.50999C7.29 6.48899 7.16 6.47699 7.027 6.47699C5.736 6.47699 4.689 7.52399 4.689 8.81499C4.689 10.106 5.736 11.153 7.027 11.153C7.16 11.153 7.29 11.141 7.417 11.12C6.312 10.934 5.469 9.97399 5.469 8.81499C5.469 7.65599 6.312 6.69599 7.417 6.50999Z" fill="white"/>
<path d="M9.741 10.181L9.564 9.63501L9.387 10.181H8.813L9.277 10.518L9.1 11.063L9.564 10.726L10.028 11.063L9.851 10.518L10.315 10.181H9.741Z" fill="white"/>
<path d="M12.899 10.181L12.722 9.63501L12.544 10.181H11.971L12.435 10.518L12.258 11.063L12.722 10.726L13.186 11.063L13.009 10.518L13.473 10.181H12.899Z" fill="white"/>
<path d="M12.722 6.47699L12.544 7.02299H11.971L12.435 7.35999L12.258 7.90499L12.722 7.56799L13.186 7.90499L13.009 7.35999L13.473 7.02299H12.899L12.722 6.47699Z" fill="white"/>
</svg>
