<svg width="32" height="32" viewBox="0 0 32 32" fill="none" xmlns="http://www.w3.org/2000/svg">
<path d="M27 28L15 28L15 4L27 4C29.2077 4 31 5.7923 31 8L31 24C31 26.2077 29.2077 28 27 28Z" fill="white"/>
<path d="M5 4H16V28H5C2.7923 28 1 26.2077 1 24V8C1 5.7923 2.7923 4 5 4Z" fill="#FFF301"/>
<path opacity="0.15" d="M27 4H5C2.7909 4 1 5.7908 1 8V24C1 26.2092 2.7909 28 5 28H27C29.2092 28 31 26.2092 31 24V8C31 5.7908 29.2092 4 27 4ZM30 24C30 25.6543 28.6543 27 27 27H5C3.3457 27 2 25.6543 2 24V8C2 6.3457 3.3457 5 5 5H27C28.6543 5 30 6.3457 30 8V24Z" fill="black"/>
<path opacity="0.2" d="M27 5H5C3.3431 5 2 6.3431 2 8V9C2 7.3431 3.3431 6 5 6H27C28.6569 6 30 7.3431 30 9V8C30 6.3431 28.6569 5 27 5Z" fill="white"/>
<path d="M28.4205 13.7653C28.729 13.4823 28.1026 13.1842 28.0776 13.6015C27.9717 13.5548 27.8288 13.6121 27.7507 13.7116C27.6439 13.6842 27.5531 13.7396 27.541 13.8477C26.8233 14.3449 26.0544 15.0343 25.3589 15.5708C25.2472 15.6557 24.9157 15.9285 24.7995 16.0191C24.6698 15.9822 24.5668 16.0626 24.5741 16.1997L23.7178 16.8859C23.595 16.7935 23.4808 16.7598 23.4186 16.8096C23.3643 16.7836 23.1881 16.8689 23.2849 16.9606C23.1289 18.0663 21.2006 17.7889 21.0342 18.8741C20.9576 18.7498 20.6996 18.8864 20.7216 19.0286C20.4101 18.7966 20.3196 19.2738 20.5701 19.4188C20.1225 19.0156 19.4122 18.9414 18.89 19.2446C18.9896 19.0629 18.7298 19.0221 18.6479 19.1598C18.7627 18.3573 17.6848 19.2236 18.4921 19.284C18.3442 19.3321 18.3121 19.5945 18.5197 19.5396C18.0987 20.0045 18.0212 20.693 18.3285 21.2399C18.1504 21.138 18.1031 21.3967 18.2427 21.481C17.4454 21.3683 18.3019 22.4419 18.3692 21.6397C18.4197 21.7756 18.6477 21.8218 18.6314 21.6334C19.2125 22.2325 19.8994 22.4118 20.5658 21.9865C20.577 22.6357 21.4405 21.9535 20.8108 21.7926C21.3574 21.2728 21.3583 20.5543 20.961 19.9089C21.0622 20.171 21.4737 20.017 21.3111 19.7679C21.4646 19.8439 21.6292 19.5272 21.5319 19.4982C22.5728 19.6169 22.9316 17.506 23.8927 17.7135C24.0067 17.7634 24.0841 17.6795 24.076 17.6336C24.1381 17.5838 24.1307 17.4651 24.068 17.325L24.9279 16.6429C25.0511 16.6822 25.164 16.5981 25.1538 16.4637L25.5404 16.157C25.7886 16.4326 25.9954 16.0631 26.1436 15.8681C26.1483 16.4827 25.7755 16.7888 26.3382 17.2422C26.3463 17.2678 26.4884 17.1389 26.4998 17.1385C26.4484 17.4105 26.557 17.6731 26.8684 17.6573C26.8762 17.6431 27.546 17.1309 27.5465 17.1126C27.5293 16.9746 27.6317 16.7332 27.4007 16.7432C27.3835 16.7387 27.0168 16.2039 26.9906 16.2255C26.8748 16.295 26.7936 16.4219 26.8389 16.5591L26.7488 16.6256L26.5857 16.4354C26.8379 16.394 26.7874 15.999 26.6556 15.854L26.7993 15.7285L26.8521 15.7919C26.818 15.9106 26.8724 16.0729 26.9714 16.1453C27.0267 16.0885 27.1628 15.9304 27.1221 15.8399L27.1999 15.7734L27.319 15.9419C26.9199 16.2058 27.4785 16.7954 27.7648 16.8881C27.7903 16.8843 28.4116 16.3195 28.4258 16.3009C28.4651 16.1083 28.3819 15.8428 28.2322 15.713C28.2242 15.6858 28.0873 15.8264 28.0787 15.8261C28.1537 15.5821 27.911 15.242 27.7625 15.0724C27.7532 15.0474 27.6334 15.1659 27.6236 15.1664C27.6163 15.0941 27.6351 14.8353 27.5566 14.7914C27.7511 14.703 28.0177 14.5765 27.8427 14.3329C27.8587 14.3153 27.872 14.2959 27.8823 14.2751C27.9862 14.2883 28.0641 14.2062 28.0594 14.1001C28.1712 14.0454 28.2592 13.9285 28.2396 13.8051C28.3023 13.8213 28.3691 13.8062 28.4205 13.7653Z" fill="#FFCD19"/>
<path d="M28.0945 21.6666C28.0817 21.5094 27.8964 21.4079 27.7572 21.4811C27.8957 21.3988 27.8518 21.1392 27.6714 21.24C27.9786 20.6931 27.9011 20.0046 27.4801 19.5397C27.6878 19.5946 27.6554 19.332 27.5077 19.2841C28.3152 19.2233 27.2368 18.3576 27.3519 19.1599C27.2699 19.0221 27.0104 19.063 27.1097 19.2446C26.8746 19.1128 26.6063 19.0473 26.3333 19.0584C25.997 19.0722 25.6792 19.2011 25.4297 19.4189C25.6828 19.2728 25.5828 18.7963 25.2782 19.0286C25.3 18.8866 25.042 18.7499 24.9656 18.8743C24.8326 17.7954 22.7637 18.0434 22.7378 16.9409C22.7673 16.8271 22.6324 16.798 22.5811 16.8097C22.5189 16.7601 22.4048 16.7937 22.282 16.8861L21.4257 16.1998C21.433 16.0628 21.33 15.9823 21.2003 16.0192C21.0822 15.9271 20.7542 15.657 20.6409 15.5709C19.9453 15.0342 19.1767 14.3451 18.4588 13.8478C18.4467 13.7398 18.356 13.6843 18.2492 13.7117C18.1711 13.6122 18.0282 13.5549 17.9223 13.6016C17.7949 13.0038 17.1492 13.8162 17.76 13.8051C17.7404 13.9285 17.8285 14.0454 17.9402 14.1001C17.9355 14.2062 18.0133 14.2883 18.1173 14.2751C18.1277 14.2959 18.141 14.3152 18.1569 14.3329C17.982 14.5765 18.2485 14.703 18.443 14.7914C18.3646 14.8342 18.3831 15.0954 18.376 15.1663C18.3647 15.1663 18.2474 15.047 18.237 15.0722C18.0883 15.2423 17.8462 15.5816 17.921 15.8259C17.7468 15.5973 17.6904 15.8447 17.5762 15.9684C17.5681 15.974 17.5767 16.293 17.574 16.3007C17.5872 16.3207 18.2101 16.8822 18.235 16.8879C18.5212 16.795 19.0799 16.2058 18.6808 15.9417L18.7999 15.7732L18.8777 15.8397C18.837 15.9298 18.9731 16.0891 19.0286 16.1452C19.1273 16.0725 19.1819 15.9103 19.1476 15.7918L19.2005 15.7284L19.3442 15.8539C19.2124 15.9989 19.162 16.394 19.4141 16.4353L19.251 16.6255L19.1609 16.559C19.206 16.4216 19.1251 16.2948 19.0092 16.2254C18.9832 16.2048 18.6159 16.7382 18.5991 16.7431C18.3692 16.7333 18.4697 16.9736 18.4534 17.1125C18.4504 17.1277 19.127 17.6469 19.1315 17.6572C19.4418 17.6729 19.5518 17.4114 19.5001 17.1393C19.5103 17.1383 19.6537 17.2673 19.6614 17.2427C20.2226 16.7896 19.8558 16.4843 19.8581 15.8705C20.0058 16.0647 20.2124 16.4318 20.4596 16.1568L20.8458 16.4631C20.8362 16.5997 20.9489 16.6811 21.0722 16.6427L21.9321 17.3248C21.8693 17.465 21.8619 17.5838 21.9242 17.6335C21.9074 17.7138 22.1003 17.7871 22.1338 17.644C23.1915 17.7695 23.3909 19.5301 24.4682 19.498C24.3629 19.5949 24.5547 19.8231 24.689 19.7677C24.5264 20.0172 24.9383 20.1705 25.0392 19.9086C24.6417 20.5539 24.6427 21.2727 25.1893 21.7924C24.5593 21.9537 25.4234 22.6351 25.4343 21.9863C26.1008 22.4117 26.7875 22.2323 27.3687 21.6332C27.3518 21.8228 27.582 21.7733 27.6309 21.6395C27.5518 21.9911 28.1323 22.0249 28.0945 21.6666Z" fill="#BFC0C1"/>
<path d="M24.4661 16.316C24.5898 16.0421 24.0095 15.3433 23.9421 14.7649C23.7777 14.7843 23.5045 14.8661 23.2754 14.8625C22.9705 15.0095 23.8073 16.7851 24.0335 16.6393C24.0495 16.6888 24.4496 16.31 24.4661 16.316Z" fill="#FFCD19"/>
<path d="M21.5329 16.9714C21.5295 16.9685 21.5249 16.9683 21.5208 16.97C21.3134 16.7849 21.0361 16.5489 20.7425 16.6238C20.6244 15.6111 21.2376 13.8648 20.8998 12.803C20.4467 11.8974 19.6344 11.8767 19.0186 12.7862L19.0015 12.7694C18.926 12.7035 18.792 12.8927 18.9252 12.9406C18.8443 12.9433 18.2872 13.1357 18.5537 13.1976C18.51 13.3128 18.5605 13.3196 18.6631 13.3069C18.5533 13.4175 18.6214 13.4159 18.7366 13.4138C18.7183 13.4567 18.6603 13.5467 18.7577 13.4947C18.7728 13.571 18.7196 13.642 18.8357 13.6425C18.8147 13.7268 18.8415 13.7514 18.9256 13.7386C18.9213 13.7933 18.9076 13.8554 18.9871 13.8391C18.9689 13.9047 18.9603 13.9518 19.0471 13.9299C19.0535 14.2717 19.4976 13.6365 19.562 13.5684C19.64 13.7328 19.8691 13.5891 19.7157 13.4736C19.8227 13.3813 19.9355 13.2822 20.0969 13.1478C20.0665 14.5068 18.9978 17.3663 21.1737 17.15C21.2818 17.1505 21.7226 17.1001 21.5329 16.9714Z" fill="#FFCD19"/>
<path d="M22.838 14.869C22.5591 14.8569 22.3298 14.8331 22.0766 14.7585C21.8191 15.499 21.6363 16.0176 21.4442 16.2299C21.4835 16.29 21.8929 16.6268 21.9662 16.64C22.3815 16.5825 22.6879 15.4389 22.838 14.869Z" fill="#FFCD19"/>
<path d="M27.521 13.172C27.5102 13.0237 27.1768 12.9771 27.0757 12.9404C27.2091 12.8925 27.0747 12.7032 26.9995 12.7692L26.9633 12.8049C26.6975 12.5116 26.3396 12.0606 25.9673 12.0535C24.1267 12.6874 25.4773 15.3185 25.2582 16.6235C24.9416 16.5528 24.7036 16.7769 24.479 16.9693C24.2557 17.0845 24.7157 17.1562 24.8267 17.1498C26.9946 17.366 25.9393 14.5307 25.9065 13.1724C26.0422 13.2948 26.1559 13.4039 26.2592 13.4991C26.1574 13.6255 26.3797 13.7082 26.439 13.5682C26.5041 13.6371 26.947 14.271 26.9538 13.9297C27.0408 13.9518 27.0319 13.9042 27.0138 13.8389C27.0933 13.8554 27.0795 13.7929 27.0752 13.7384C27.1596 13.7513 27.186 13.7264 27.1651 13.6423C27.2814 13.6417 27.2279 13.5709 27.2431 13.4945C27.3406 13.5466 27.2824 13.4562 27.2642 13.4136C27.3799 13.4158 27.4472 13.4171 27.3378 13.3067C27.4408 13.3195 27.4906 13.3124 27.4472 13.1974C27.4574 13.1917 27.5355 13.1993 27.521 13.172Z" fill="#FFCD19"/>
<path d="M24.7821 12.4501C24.7526 12.4222 24.6592 12.4933 24.6194 12.4945C24.5983 12.3539 24.5556 12.3245 24.4875 12.491C24.4176 11.969 24.2183 12.0948 24.2379 11.6528C24.3369 11.6404 24.373 11.5002 24.2922 11.4417C24.3495 11.2216 24.4536 10.8566 24.2572 11.1727C24.1098 11.1267 24.011 11.0841 23.9497 11.2373C23.7505 10.9047 23.4803 10.6897 23.1874 10.6251C23.1864 10.5637 23.1738 10.465 23.1118 10.4082C23.1134 10.4069 23.0926 10.1613 23.093 10.1596C23.3141 10.206 23.3385 10.1682 23.3173 9.9503C23.3269 9.9259 23.098 9.9667 23.0931 9.9614C23.1303 9.7563 23.1168 9.7104 22.8978 9.7364C22.8737 9.7266 22.9127 9.9566 22.9075 9.9614C22.6864 9.915 22.6623 9.953 22.6833 10.1707C22.6743 10.1953 22.9023 10.1542 22.9076 10.1596C22.908 10.1609 22.8873 10.4072 22.8888 10.4081C22.8265 10.465 22.814 10.5639 22.813 10.625C22.52 10.6896 22.2498 10.9045 22.0505 11.2371C21.9897 10.9932 21.7557 11.2844 21.6824 11.0896C21.5717 10.8893 21.6644 11.3173 21.7085 11.443C21.6313 11.5019 21.6666 11.6374 21.7623 11.6518C21.7825 12.0949 21.5828 11.9677 21.513 12.4916C21.4451 12.3252 21.402 12.3533 21.3809 12.4946C21.0207 12.327 21.3811 12.7167 21.2987 12.8429C21.2392 12.9589 21.5126 12.8699 21.5485 12.9209C21.5461 13.0373 21.1836 13.5124 21.5407 13.4498C21.5433 13.4903 21.4936 13.5334 21.4702 13.5533C21.3143 13.4917 21.4427 13.6699 21.5212 13.7836C21.3824 13.8619 21.516 14.0768 21.6481 13.9862C21.6834 14.2209 21.4338 14.624 21.8823 14.4617C21.8594 14.4777 21.8415 14.4943 21.8286 14.5113C21.7205 14.5533 21.7269 14.6687 21.8399 14.6624C22.0856 14.965 23.9148 14.965 24.1605 14.6624C24.2715 14.669 24.2806 14.556 24.1751 14.5127C24.1632 14.4956 24.1462 14.4789 24.1242 14.4628C24.5687 14.6217 24.3144 14.2159 24.3525 13.9862C24.4858 14.0831 24.6239 13.8606 24.479 13.784C24.5575 13.6703 24.6864 13.4917 24.5302 13.5534C24.5068 13.5335 24.4569 13.4903 24.4596 13.4497C24.8168 13.5125 24.4551 13.0389 24.4517 12.921C24.4923 12.8805 24.672 12.9291 24.7093 12.8857C24.629 12.7378 24.798 12.6197 24.7821 12.4501Z" fill="#FFCD19"/>
</svg>
