<svg width="32" height="32" viewBox="0 0 32 32" fill="none" xmlns="http://www.w3.org/2000/svg">
<path d="M1 11H31V21H1V11Z" fill="#091E79"/>
<path d="M5 4H27C29.208 4 31 5.792 31 8V12H1V8C1 5.792 2.792 4 5 4Z" fill="#F7CF46"/>
<path d="M27 28L5 28C2.792 28 1 26.208 1 24V20L31 20V24C31 26.208 29.208 28 27 28Z" fill="#BF2C30"/>
<path opacity="0.15" d="M27 4H5C2.791 4 1 5.791 1 8V24C1 26.209 2.791 28 5 28H27C29.209 28 31 26.209 31 24V8C31 5.791 29.209 4 27 4ZM30 24C30 25.654 28.654 27 27 27H5C3.346 27 2 25.654 2 24V8C2 6.346 3.346 5 5 5H27C28.654 5 30 6.346 30 8V24Z" fill="black"/>
<path opacity="0.2" d="M27 5H5C3.343 5 2 6.343 2 8V9C2 7.343 3.343 6 5 6H27C28.657 6 30 7.343 30 9V8C30 6.343 28.657 5 27 5Z" fill="white"/>
<path d="M10.207 17.715L10.022 17.068L9.792 17.701L9.119 17.677L9.649 18.092L9.419 18.724L9.977 18.348L10.508 18.762L10.322 18.115L10.88 17.739L10.207 17.715Z" fill="white"/>
<path d="M11.463 16.039L11.557 15.373L11.089 15.857L10.484 15.561L10.8 16.156L10.331 16.639L10.994 16.523L11.31 17.118L11.404 16.451L12.068 16.335L11.463 16.039Z" fill="white"/>
<path d="M13.195 14.795L13.469 14.18L12.886 14.517L12.386 14.066L12.526 14.725L11.943 15.061L12.612 15.132L12.752 15.79L13.026 15.175L13.696 15.245L13.195 14.795Z" fill="white"/>
<path d="M15.034 13.832L14.718 13.238L14.624 13.904L13.961 14.021L14.566 14.316L14.472 14.983L14.94 14.499L15.545 14.794L15.229 14.199L15.697 13.715L15.034 13.832Z" fill="white"/>
<path d="M22.351 18.092L22.881 17.677L22.208 17.701L21.978 17.068L21.793 17.715L21.12 17.739L21.678 18.115L21.492 18.762L22.023 18.348L22.581 18.724L22.351 18.092Z" fill="white"/>
<path d="M21.006 16.523L21.669 16.639L21.2 16.156L21.516 15.561L20.911 15.857L20.443 15.373L20.537 16.039L19.932 16.335L20.596 16.451L20.69 17.118L21.006 16.523Z" fill="white"/>
<path d="M19.388 15.132L20.057 15.061L19.474 14.725L19.614 14.066L19.114 14.517L18.531 14.18L18.805 14.795L18.304 15.245L18.974 15.175L19.248 15.79L19.388 15.132Z" fill="white"/>
<path d="M17.376 13.904L17.282 13.238L16.966 13.832L16.303 13.715L16.771 14.199L16.455 14.794L17.06 14.499L17.528 14.983L17.434 14.316L18.039 14.021L17.376 13.904Z" fill="white"/>
</svg>
