<svg width="32" height="32" viewBox="0 0 32 32" fill="none" xmlns="http://www.w3.org/2000/svg">
<path d="M27 4H5C2.79086 4 1 5.79086 1 8V24C1 26.2091 2.79086 28 5 28H27C29.2091 28 31 26.2091 31 24V8C31 5.79086 29.2091 4 27 4Z" fill="#061B65"/>
<path d="M23.627 22.973C21.858 22.973 20.333 21.921 19.706 21.419C19.546 21.556 19.411 21.612 19.28 21.612C18.979 21.57 18.44 21.209 18.388 20.758C18.346 20.396 18.583 20.109 18.8 19.973C19.043 19.783 19.289 19.534 19.325 19.457C19.473 19.247 19.6 19.156 19.743 19.134C19.653 18.947 19.604 18.752 19.601 18.544L19.631 11.626H27.669V18.553C27.672 18.763 27.617 18.967 27.508 19.168C27.802 19.256 27.958 19.446 28.11 19.629C28.236 19.782 28.41 19.992 28.526 20.034L28.676 20.137C29.032 20.672 28.774 21.202 28.471 21.404C28.398 21.452 28.155 21.576 27.904 21.576C27.819 21.576 27.739 21.562 27.668 21.534C27.609 21.511 27.556 21.48 27.51 21.441C26.867 21.968 25.422 22.975 23.76 22.976L23.627 22.974V22.973Z" fill="white"/>
<path d="M6.5 13.774V16H10.5V13.773L13.537 16H16V14.759L12.238 12H16V8H13.26L16 5.991V4H14.559L10.5 6.977V4H6.5V6.794L3.243 4.405C2.476 4.779 1.854 5.388 1.457 6.143L3.989 8.001H1V12.001H4.763L1 14.761V16.001H3.464L6.5 13.774Z" fill="white"/>
<path d="M1.806 5.589L5.091 8H6.455L2.36 4.995C2.156 5.175 1.97 5.372 1.806 5.589Z" fill="#D22D32"/>
<path d="M1 16L6.454 12V13L2.363 16H1Z" fill="#D22D32"/>
<path d="M9.5 16H7.5V11H1V9H7.5V4H9.5V9H16V11H9.5V16Z" fill="#D22D32"/>
<path d="M16 15.667L11 12V13L15.091 16H16V15.667Z" fill="#D22D32"/>
<path d="M16 4H15.752L10.291 8.004H11.655L16 4.818V4Z" fill="#D22D32"/>
<path d="M23.578 21.485C21.14 20.228 19.866 19.527 19.851 18.539L19.88 11.874H27.419V18.551C27.434 19.458 26.064 20.314 23.69 21.486L23.634 21.514L23.578 21.485Z" fill="#006129"/>
<path d="M24.804 19.197C24.774 18.505 24.351 16.973 24.207 16.482C24.524 15.641 25.159 14.186 24 13.677C23.845 13.514 24.161 13.681 24.253 13.408C24.557 13.068 23.984 12.295 23.622 12.52C22.905 12.695 23.607 12.845 23.294 13.134C23.226 13.722 23.891 13.408 23.238 13.912C23.007 14.011 22.928 14.638 22.926 14.88C22.679 15.26 21.714 16.06 22.235 16.502C22.521 16.359 22.329 15.912 22.514 15.769C22.645 15.682 23.013 15.406 23.137 15.237C23.18 15.519 22.778 16.22 22.976 16.25C22.724 17.077 22.782 18.181 22.832 18.964C22.716 19.19 22.622 19.618 22.94 19.681C22.708 19.669 22.801 19.88 22.938 19.899C23.073 19.734 23.875 19.701 23.596 19.476C23.763 19.499 23.664 19.807 23.96 19.712C24.18 20.309 24.47 19.617 24.552 19.544C24.701 19.417 24.979 19.567 24.803 19.195L24.804 19.197ZM24.773 19.097C24.773 19.097 24.77 19.102 24.766 19.103C24.768 19.103 24.771 19.1 24.773 19.097ZM24.207 15.429C24.281 15.267 24.183 15.11 24.269 14.973C24.478 15.114 24.216 15.761 24.207 15.429Z" fill="white"/>
<path d="M23.631 22.723C21.737 22.723 20.121 21.452 19.692 21.083L19.639 21.142C19.546 21.243 19.408 21.362 19.279 21.362C19.109 21.337 18.673 21.051 18.635 20.73C18.596 20.404 18.897 20.207 18.931 20.185C19.163 20.005 19.521 19.677 19.56 19.536C19.659 19.409 19.735 19.378 19.82 19.378C20.016 19.378 20.203 19.544 20.224 19.563C20.251 19.593 21.762 21.3 23.437 21.3L23.585 21.296C24.595 21.268 25.41 20.878 25.917 20.556C26.458 20.212 26.776 19.871 26.812 19.823C26.862 19.724 27.111 19.39 27.393 19.39C27.625 19.437 27.754 19.592 27.916 19.788C28.078 19.984 28.26 20.205 28.44 20.269L28.518 20.331C28.751 20.698 28.512 21.074 28.331 21.194C28.269 21.235 28.075 21.325 27.902 21.325C27.848 21.325 27.799 21.317 27.756 21.3C27.661 21.263 27.596 21.188 27.571 21.089V21.059C27.17 21.419 25.587 22.726 23.758 22.726L23.63 22.724L23.631 22.723Z" fill="#FFC72C"/>
<path opacity="0.15" d="M27 4H5C2.791 4 1 5.791 1 8V24C1 26.209 2.791 28 5 28H27C29.209 28 31 26.209 31 24V8C31 5.791 29.209 4 27 4ZM30 24C30 25.654 28.654 27 27 27H5C3.346 27 2 25.654 2 24V8C2 6.346 3.346 5 5 5H27C28.654 5 30 6.346 30 8V24Z" fill="black"/>
<path opacity="0.2" d="M27 5H5C3.343 5 2 6.343 2 8V9C2 7.343 3.343 6 5 6H27C28.657 6 30 7.343 30 9V8C30 6.343 28.657 5 27 5Z" fill="white"/>
</svg>
