<svg width="32" height="32" viewBox="0 0 32 32" fill="none" xmlns="http://www.w3.org/2000/svg">
<path d="M27 4H5C2.79086 4 1 5.79086 1 8V24C1 26.2091 2.79086 28 5 28H27C29.2091 28 31 26.2091 31 24V8C31 5.79086 29.2091 4 27 4Z" fill="white"/>
<path opacity="0.15" d="M27 4H5C2.7909 4 1 5.7908 1 8V24C1 26.2092 2.7909 28 5 28H27C29.2092 28 31 26.2092 31 24V8C31 5.7908 29.2092 4 27 4ZM30 24C30 25.6543 28.6543 27 27 27H5C3.3457 27 2 25.6543 2 24V8C2 6.3457 3.3457 5 5 5H27C28.6543 5 30 6.3457 30 8V24Z" fill="black"/>
<path opacity="0.2" d="M27 5H5C3.3431 5 2 6.3431 2 8V9C2 7.3431 3.3431 6 5 6H27C28.6569 6 30 7.3431 30 9V8C30 6.3431 28.6569 5 27 5Z" fill="white"/>
<path d="M11.734 18.0786L11.7172 17.9982L11.6764 18.0695C11.675 18.0719 11.5348 18.3141 11.37 18.3934C11.3577 18.3998 11.0686 18.5537 11.0548 18.8529C11.0548 18.8533 11.0544 18.8695 11.0526 18.8936C11.0408 18.7663 11.0564 18.5682 11.1877 18.405C11.4286 18.1057 11.5198 17.8463 11.312 17.3333L11.2605 17.2062L11.2519 17.343C11.2517 17.3458 11.2322 17.6258 11.0509 17.7835L11.0393 17.7936C10.8438 17.9634 10.8224 17.9952 10.8255 18.3893C10.826 18.417 10.8203 18.4851 10.7919 18.5249C10.7502 18.4605 10.6555 18.307 10.626 18.1995L10.6251 18.1964C10.5869 18.057 10.5739 18.0097 10.7291 17.8573C10.7503 17.8429 10.8783 17.7507 10.9631 17.5712C11.0464 17.395 11.1013 17.0981 10.8905 16.6848L10.8372 16.5803L10.8316 16.6975C10.8315 16.7001 10.8173 16.9542 10.6403 17.1015C10.4562 17.2547 10.4531 17.3683 10.447 17.5945C10.4464 17.6164 10.4458 17.6396 10.445 17.664C10.4406 17.7954 10.4341 17.8565 10.4269 17.8884C10.3517 17.7277 10.1624 17.2587 10.3718 16.993C10.399 16.9585 10.425 16.9268 10.4494 16.8969C10.6723 16.6245 10.7741 16.5002 10.4983 15.9104L10.433 15.7707L10.4389 15.9248C10.439 15.9279 10.4482 16.236 10.2276 16.3856C9.9761 16.5562 10.0289 16.9393 10.0311 16.9543C10.0312 16.9553 10.039 17.0319 10.0235 17.1099C9.9495 16.9328 9.7938 16.473 10.0362 16.2062C10.3088 15.9063 10.3425 15.6891 10.1868 15.238L10.1397 15.1015L10.1263 15.2453C10.1261 15.2471 10.1076 15.4293 9.9706 15.5265C9.8088 15.6413 9.6872 15.7621 9.7151 16.1768C9.7175 16.2334 9.7195 16.3624 9.7099 16.4521C9.6656 16.3625 9.5966 16.213 9.5711 16.1038C9.5329 15.9398 9.5176 15.8467 9.6164 15.6844C9.6252 15.6699 9.6363 15.6531 9.6489 15.634C9.7849 15.4276 10.1034 14.9443 9.6399 14.2804L9.5892 14.2078L9.5832 14.2961C9.583 14.2983 9.5666 14.5208 9.4465 14.7182C9.3282 14.9126 9.364 15.1368 9.3928 15.3169C9.3962 15.3381 9.3995 15.3587 9.4024 15.3787C9.4187 15.4894 9.3901 15.5994 9.3667 15.6657C9.3106 15.5389 9.1971 15.2335 9.2311 14.8992C9.279 14.4287 9.0874 14.0513 8.6616 13.7777L8.6307 13.7578L8.6161 13.7916C8.6033 13.8212 8.3082 14.5212 8.7333 14.8891C8.7366 14.8924 9.053 15.2088 9.1547 15.5959C9.0719 15.5659 8.8886 15.4643 8.7155 15.1273C8.6109 14.9236 8.3891 14.6857 7.9275 14.7092C7.9196 14.7096 7.9139 14.71 7.9115 14.7099L7.8732 14.7062L7.8775 14.7444C7.8784 14.7519 7.9718 15.4982 8.7564 15.708L8.7592 15.7086C8.7639 15.7094 9.2341 15.7931 9.3202 16.1314L9.3208 16.1336C9.3215 16.1357 9.3792 16.3092 9.4173 16.4418C9.3611 16.405 9.2744 16.3345 9.1921 16.2129C9.1817 16.1975 9.1722 16.1832 9.1633 16.1697C9.0389 15.9822 9.0057 15.9565 8.5563 15.9118C8.5545 15.9116 8.3717 15.8887 8.277 15.7625L8.1806 15.6341L8.2219 15.7892C8.2241 15.7973 8.2758 15.9888 8.3942 16.1827C8.5538 16.4441 8.7578 16.5807 8.9857 16.5781L8.9886 16.5779C9.0062 16.5759 9.4014 16.5421 9.6619 17.0423C9.6524 17.0359 9.6423 17.0291 9.6319 17.0219C9.5502 16.9658 9.3607 16.8778 9.0092 16.9197C8.7054 16.9558 8.5959 16.9163 8.5159 16.8874C8.5044 16.8833 8.4935 16.8793 8.4827 16.8758L8.408 16.8514L8.4456 16.9204C8.4488 16.9263 8.7296 17.4313 9.1462 17.4312C9.209 17.4312 9.2748 17.4197 9.3433 17.3934C9.4544 17.3506 9.5609 17.3516 9.6599 17.3964C9.8258 17.4716 9.9397 17.6537 10.0017 17.7796C9.9854 17.7646 9.9677 17.7479 9.9491 17.7297C9.844 17.6266 9.6452 17.5271 9.2932 17.6389C9.2908 17.6398 9.0488 17.7311 8.8073 17.6576L8.7365 17.636L8.7705 17.7017C8.7731 17.7067 9.033 18.1955 9.6217 18.1125C10.0188 18.0566 10.1987 18.29 10.2682 18.4246C10.2536 18.4145 10.239 18.4037 10.226 18.3933C10.1752 18.3524 9.9753 18.2289 9.538 18.3586C9.1501 18.4736 9.005 18.3475 9.0038 18.3465L8.8597 18.2102L8.955 18.3841C8.9647 18.4018 9.1981 18.819 9.6508 18.8686L9.6527 18.8688H9.6546C9.6648 18.8686 9.9067 18.865 10.0148 18.8248C10.0875 18.7978 10.3246 18.732 10.5059 18.9333C10.4911 18.9296 10.4741 18.9241 10.4553 18.9157L10.4532 18.9149C10.4405 18.9103 10.1391 18.8044 9.9041 19.0011L9.9019 19.0032C9.9 19.0051 9.7094 19.195 9.4467 19.1589L9.3527 19.146L9.4207 19.2122C9.4246 19.216 9.5192 19.3068 9.6882 19.3598C9.7532 19.3802 9.8349 19.3963 9.9307 19.3963C10.0631 19.3963 10.2225 19.3655 10.4018 19.2726L10.4057 19.2702C10.4075 19.2689 10.5853 19.143 10.7091 19.2374C10.8654 19.3565 11.1873 19.1556 11.2235 19.1323L11.2397 19.1212L11.2376 19.102C11.2375 19.1008 11.227 18.9779 11.4725 18.8831C11.6059 18.8316 11.6974 18.7115 11.7371 18.5358C11.7676 18.4008 11.7665 18.2341 11.734 18.0786Z" fill="#51914C"/>
<path d="M22.9667 16.8224L23.3376 17.0214L21.7142 18.9226L23.1626 16.1375L23.4663 16.4448L23.9376 14.3113L22.4699 15.8622L22.8739 15.9683L22.4393 16.7967L22.3742 14.7329L21.3372 16.6318L21.7536 16.6242L21.1803 19.0601L21.4801 19.2755L21.5077 19.1564L21.5729 19.1945L21.606 19.1309L21.8054 19.3541L23.5823 17.2545L23.8127 17.626L24.7273 15.6595L22.9667 16.8224ZM21.75 18.1105L22.0747 16.7088L22.3895 16.8915L21.75 18.1105Z" fill="#387FBF"/>
<path d="M14.6547 11.8881C14.436 12.1616 14.4564 12.0646 14.2928 12.0296C14.3781 12.1386 14.5712 12.2679 14.6638 12.2398C14.5103 12.4686 14.4764 12.4606 14.3785 12.5383C14.656 12.4492 19.0516 13.2819 17.5301 11.9842C17.6415 11.9645 17.8059 11.9265 17.8631 11.827C17.5173 11.6773 17.2469 11.3338 17.1635 11.2018C17.3378 11.2132 17.4103 11.1868 17.4813 11.174C16.9954 10.5315 17.191 10.3564 17.0053 9.8002C16.6926 9.0267 15.7955 8.8853 15.3598 9.435C15.1726 9.4309 15.1156 9.5323 15.0864 9.6419C14.5594 9.511 14.2779 10.2675 14.4215 10.3787C14.6468 10.112 15.4264 10.0461 15.4027 10.5537C15.1355 10.9375 15.0258 11.5713 14.7147 11.4686C14.7816 11.5069 14.8965 11.5682 14.955 11.5749C14.8114 11.6888 14.6624 11.8782 14.6547 11.8881Z" fill="#ECC658"/>
<path d="M27.4714 9.22789C26.3126 8.90929 25.1174 10.0163 23.2181 10.2007L23.2172 10.2019C16.1639 11.7484 22.0362 12.9793 18.94 12.8845C18.9221 12.9722 18.5487 14.8013 19.0424 15.126L18.9532 15.7523C19.0132 15.8453 19.4998 16.0168 19.6853 15.7825C19.7768 15.9661 20.4235 15.8659 20.4161 15.6348C20.5549 15.7719 21.0353 15.6167 21.0243 15.3957C21.2785 15.5185 21.7988 15.0463 21.5649 14.7796C21.9109 14.8438 22.078 14.3422 21.8875 14.1619C22.1341 14.1356 23.1274 14.121 23.0234 13.5899C23.2476 13.5359 24.0246 13.3893 23.8673 12.9295C24.1639 12.8385 25.0033 12.771 24.8344 12.2245C25.0578 12.1247 26.0743 12.0047 25.9656 11.3527C26.1537 11.298 27.0644 10.9929 26.8609 10.518C27.0556 10.4705 27.3615 10.1344 27.2281 9.84769C27.381 9.78769 27.6402 9.45749 27.4714 9.22789Z" fill="#ECC658"/>
<path d="M10.4517 14.5338C10.521 14.7529 10.7133 14.7832 10.8346 14.7789C10.5993 15.0455 11.1209 15.5189 11.3748 15.3956C11.3637 15.6169 11.8444 15.7716 11.983 15.6347C11.9755 15.866 12.6226 15.9658 12.7137 15.7824C12.8987 16.0169 13.3864 15.8451 13.4458 15.7522L13.3566 15.126C13.8503 14.8011 13.477 12.9725 13.459 12.8844C10.3697 12.9794 16.227 11.7437 9.1818 10.2018L9.1809 10.2006C7.8611 10.1337 3.8248 8.0932 5.1709 9.8476C5.0373 10.134 5.3437 10.4707 5.5381 10.5179C5.3347 10.9929 6.2453 11.2979 6.4335 11.3526C6.3238 12.004 7.3424 12.1254 7.5647 12.2244C7.3964 12.7717 8.2357 12.838 8.5318 12.9294C8.3742 13.389 9.1517 13.5359 9.3757 13.5898C9.272 14.121 10.2647 14.1355 10.5116 14.1618C10.459 14.2281 10.3948 14.3539 10.4517 14.5338Z" fill="#ECC658"/>
<path d="M13.6024 18.4097C13.5125 18.1761 14.4903 17.8847 14.5771 17.4812C14.543 17.1988 13.5777 16.0494 13.4442 15.8858C13.3718 16.3637 12.9188 16.659 12.4995 17.1604C12.1577 17.5058 12.3909 18.3812 11.9467 18.5606C11.9865 18.5635 12.0208 18.5675 12.0679 18.5672C11.7642 19.1316 11.2255 18.7529 10.6755 19.0291C10.4501 19.111 10.1738 19.8714 10.4976 19.971C10.5062 20.0573 10.6226 20.1794 10.7424 20.1446C10.974 20.4434 11.7465 20.2242 11.7909 19.7821C11.8529 19.4662 11.9075 19.4346 11.9603 19.4042C12.2813 19.2443 12.5871 19.0662 12.9711 18.9252C12.9706 18.9817 12.9934 19.0615 13.0141 19.1156C13.073 18.7464 13.4183 19.0308 13.6024 18.4097Z" fill="#ECC658"/>
<path d="M18.0676 18.1343C17.8244 16.9939 16.7882 17.8141 16.4297 18.5489C16.302 18.4074 16.0978 18.4074 15.9701 18.5489C15.6111 17.813 14.5752 16.9949 14.3322 18.1343C13.4701 18.9932 12.8737 19.5676 13.4258 19.9383C13.4122 20.1699 13.621 20.3093 13.7949 20.2703C13.7685 20.4938 13.9204 20.6658 14.1006 20.6498C14.0896 20.9049 14.2654 21.0952 14.469 21.0648C14.4911 21.3492 14.726 21.4869 14.9337 21.396C14.8847 21.9627 15.5342 21.9776 15.6821 21.5619C15.672 22.5471 16.728 22.5468 16.7178 21.562C16.866 21.9781 17.5151 21.9621 17.4662 21.396C17.6741 21.4868 17.9085 21.3495 17.9309 21.0648C18.1346 21.095 18.3101 20.905 18.2992 20.6498C18.4799 20.6655 18.631 20.4939 18.6049 20.2703C18.7791 20.3092 18.9875 20.17 18.9741 19.9383C19.526 19.5677 18.9298 18.9934 18.0676 18.1343Z" fill="#ECC658"/>
<path d="M21.7537 19.0562C21.2279 18.7233 20.632 19.1501 20.3319 18.5672C20.3786 18.5675 20.4136 18.5634 20.4531 18.5606C20.0091 18.3818 20.242 17.5055 19.9002 17.1604C19.4821 16.66 19.0262 16.3625 18.9557 15.8853C18.7174 16.2896 17.1094 17.6798 18.3153 17.9345C18.959 18.2858 18.8146 18.834 19.1998 18.884C19.394 18.9707 19.3417 19.0059 19.3848 19.1189C19.4055 19.0639 19.4293 18.9824 19.4287 18.9251C19.8134 19.0667 20.1182 19.2439 20.4395 19.4041C20.4923 19.4345 20.5468 19.4661 20.6089 19.7819C20.6536 20.2245 21.4253 20.4429 21.6574 20.1446C21.7771 20.1795 21.8938 20.0572 21.9022 19.971C22.2118 19.8926 21.965 19.1287 21.7537 19.0562Z" fill="#ECC658"/>
<path d="M16.1999 18.8919C16.1999 18.8919 19.2713 17.5309 19.279 14.3823H13.1209C13.1286 17.5309 16.1999 18.8919 16.1999 18.8919Z" fill="white"/>
<path d="M13.5945 14.3822V16.394C13.5945 16.394 13.8298 16.8606 14.0682 17.1532V14.3822H13.5945ZM14.5419 14.3822V17.6985C14.5419 17.6985 14.8381 17.989 15.0156 18.129V14.3822H14.5419ZM15.4893 14.3822V18.4814C15.4893 18.4814 15.8273 18.6997 15.963 18.7713V14.3822H15.4893Z" fill="#971E35"/>
<path d="M18.8052 14.3822V16.394C18.8052 16.394 18.5699 16.8606 18.3315 17.1532V14.3822H18.8052ZM17.8578 14.3822V17.6985C17.8578 17.6985 17.5616 17.989 17.3841 18.129V14.3822H17.8578ZM16.9104 14.3822V18.4814C16.9104 18.4814 16.5724 18.6997 16.4367 18.7713V14.3822H16.9104Z" fill="#971E35"/>
<path d="M21.246 20.7293L21.311 20.6059L21.1414 20.3155L21.1958 20.093L21.3451 19.9033L21.3458 19.8937C21.3492 19.8433 21.3339 19.7996 21.3109 19.7628L21.3084 19.7587C21.3085 19.7589 21.3084 19.7586 21.3084 19.7587L21.3013 19.7473C21.2103 19.6017 21.0353 19.5996 21.0263 19.5996H21.0072L20.78 20.04L20.337 20.0386L20.153 20.3882L20.0396 20.3603L18.709 21.9166L19.4104 21.9695L19.5342 22.7019L19.9442 22.2224L19.8455 22.6393L20.4899 22.3385L20.9257 22.9239L21.4073 20.8899L21.246 20.7293Z" fill="#387FBF"/>
<path d="M11.4802 19.6848L11.4631 19.6858C11.1055 19.7067 11.1115 19.9962 11.1116 19.9991L11.1119 20.0066L11.1155 20.0131C11.1172 20.0161 11.285 20.3195 11.4597 20.6187C11.8083 21.2158 11.8546 21.2375 11.8832 21.2375H11.8865C11.9005 21.2371 11.9125 21.2291 11.9187 21.2162C11.9337 21.1846 11.9612 21.1826 11.9612 21.1826C12.3907 21.192 12.4586 21.1111 12.4692 21.086L12.476 21.0699L11.4802 19.6848Z" fill="#51914C"/>
<path d="M19.2789 12.0947C19.2789 12.0947 17.7718 12.8831 16.1998 12.0301C14.6279 12.8831 13.1207 12.0947 13.1207 12.0947V14.3822H19.2788L19.2789 12.0947Z" fill="#1A2663"/>
<path d="M6.6465 13.9669C6.7693 14.0228 6.8754 14.071 6.8767 14.1966C6.8772 14.2481 6.8617 14.3224 6.8295 14.4238L6.0923 16.734L5.3544 14.4238C5.3235 14.3268 5.3076 14.2502 5.3072 14.196C5.3063 14.0821 5.3924 14.0358 5.533 13.9697L5.6784 13.901H4.1096L4.2623 13.9646C4.3723 14.0104 4.4518 14.0435 4.4905 14.1176C4.5113 14.1575 4.556 14.2666 4.6135 14.4428L5.6156 17.5054C5.6667 17.6624 5.6776 17.7239 5.6776 17.7478C5.678 17.878 5.6015 17.9322 5.4408 17.9978L5.2936 18.0579H6.9275L6.7022 17.9966C6.4349 17.9239 6.4667 17.7645 6.4681 17.758L6.4686 17.7553C6.4758 17.7064 6.4925 17.6234 6.531 17.5055L7.5331 14.4428C7.5906 14.2663 7.6353 14.1573 7.6561 14.1176C7.6971 14.0392 7.7803 14.0059 7.8857 13.9637L8.0423 13.901H6.5027L6.6465 13.9669Z" fill="#387FBF"/>
<path d="M27.4959 17.838C27.4787 17.8102 27.4699 17.7678 27.4699 17.712V14.2444C27.4699 14.1904 27.4784 14.1488 27.4951 14.1209C27.5082 14.0989 27.5873 14.0016 27.7068 13.962L27.8905 13.9012H26.3894L26.5376 13.9613C26.6537 14.0084 26.735 14.0961 26.7515 14.1227C26.7681 14.1496 26.7765 14.1905 26.7765 14.2443V17.7119C26.7765 17.7677 26.7681 17.8097 26.7515 17.8365C26.7374 17.8594 26.657 17.9436 26.5364 17.9985L26.4054 18.0581H27.8341L27.7105 17.9988C27.5949 17.9433 27.5136 17.8667 27.4959 17.838Z" fill="#387FBF"/>
</svg>
