<svg width="32" height="32" viewBox="0 0 32 32" fill="none" xmlns="http://www.w3.org/2000/svg">
<path d="M1 24C1 26.2092 2.7908 28 5 28H27C29.2092 28 31 26.2092 31 24V15H1V24Z" fill="#009641"/>
<path d="M27 4H5C2.7908 4 1 5.7908 1 8V16H31V8C31 5.7908 29.2092 4 27 4Z" fill="#D30931"/>
<path d="M31 14H13.5L2.3157 5.05261C1.5128 5.78421 1 6.82811 1 8.00001V24C1 25.1719 1.5128 26.2158 2.3157 26.9474L13.5 18H31V14Z" fill="black"/>
<path d="M1.419 6.25549C1.2621 6.57149 1.1476 6.90889 1.0798 7.26609L11.998 16L1.0798 24.7335C1.1475 25.0906 1.262 25.4281 1.4189 25.7441L12.9747 16.5H31.0001V15.5H12.9746L1.419 6.25549Z" fill="#FDCF09"/>
<path opacity="0.15" d="M27 4H5C2.7909 4 1 5.7908 1 8V24C1 26.2092 2.7909 28 5 28H27C29.2092 28 31 26.2092 31 24V8C31 5.7908 29.2092 4 27 4ZM30 24C30 25.6543 28.6543 27 27 27H5C3.3457 27 2 25.6543 2 24V8C2 6.3457 3.3457 5 5 5H27C28.6543 5 30 6.3457 30 8V24Z" fill="black"/>
<path opacity="0.2" d="M27 5H5C3.3431 5 2 6.3431 2 8V9C2 7.3431 3.3431 6 5 6H27C28.6569 6 30 7.3431 30 9V8C30 6.3431 28.6569 5 27 5Z" fill="white"/>
<path d="M4.80401 17.7604V18.8089C5.71621 18.8089 7.50641 18.1099 7.50641 15.8593C7.50641 13.6087 5.72751 13.191 5.02571 13.191C4.22591 13.191 2.68991 13.789 2.68991 15.4416C2.68991 17.283 4.42051 17.4535 4.76141 17.4535C5.10231 17.4535 6.38111 17.1466 6.23621 15.7656C6.23621 16.1578 5.79291 16.9847 4.86371 16.9847C3.93451 16.9847 3.35481 16.2942 3.35481 15.6122C3.35481 14.9302 3.91741 14.018 4.89781 14.018C5.87821 14.018 6.59421 14.8875 6.59421 15.7656C6.59421 16.6437 5.90371 17.7604 4.80401 17.7604Z" fill="#FDCF09"/>
</svg>
