<svg width="32" height="32" viewBox="0 0 32 32" fill="none" xmlns="http://www.w3.org/2000/svg">
<path d="M27 4H5C2.79086 4 1 5.79086 1 8V24C1 26.2091 2.79086 28 5 28H27C29.2091 28 31 26.2091 31 24V8C31 5.79086 29.2091 4 27 4Z" fill="#BE2A2C"/>
<path d="M5 4H16V16H1V8C1 5.792 2.792 4 5 4Z" fill="#0C267B"/>
<path d="M9.341 13.625L8.983 12.523L8.625 13.625H7.467L8.404 14.306L8.046 15.407L8.983 14.727L9.92 15.407L9.562 14.306L10.499 13.625H9.341Z" fill="white"/>
<path d="M5.934 9.01103L5.647 8.12903L5.361 9.01103H4.434L5.184 9.55503L4.897 10.437L5.647 9.89203L6.397 10.437L6.11 9.55503L6.86 9.01103H5.934Z" fill="white"/>
<path d="M8.52 6.82602L8.233 7.70702L8.983 7.16302L9.733 7.70702L9.446 6.82602L10.196 6.28102H9.269L8.983 5.40002L8.697 6.28102H7.77L8.52 6.82602Z" fill="white"/>
<path d="M12.829 9.01099L13.532 8.50099H12.663L12.395 7.67499L12.126 8.50099H11.257L11.96 9.01099L11.692 9.83799L12.395 9.32699L13.097 9.83799L12.829 9.01099Z" fill="white"/>
<path d="M10.83 11.029L10.651 10.478L10.472 11.029H9.893L10.361 11.369L10.182 11.92L10.651 11.58L11.119 11.92L10.94 11.369L11.409 11.029H10.83Z" fill="white"/>
<path opacity="0.15" d="M27 4H5C2.791 4 1 5.791 1 8V24C1 26.209 2.791 28 5 28H27C29.209 28 31 26.209 31 24V8C31 5.791 29.209 4 27 4ZM30 24C30 25.654 28.654 27 27 27H5C3.346 27 2 25.654 2 24V8C2 6.346 3.346 5 5 5H27C28.654 5 30 6.346 30 8V24Z" fill="black"/>
<path opacity="0.2" d="M27 5H5C3.343 5 2 6.343 2 8V9C2 7.343 3.343 6 5 6H27C28.657 6 30 7.343 30 9V8C30 6.343 28.657 5 27 5Z" fill="white"/>
</svg>
