<svg width="32" height="32" viewBox="0 0 32 32" fill="none" xmlns="http://www.w3.org/2000/svg">
<path d="M5 28H27C29.209 28 31 26.209 31 24V16H1V24C1 26.209 2.791 28 5 28Z" fill="#030A85"/>
<path d="M31 8C31 5.791 29.209 4 27 4H5C2.791 4 1 5.791 1 8V17H31V8Z" fill="#D04839"/>
<path d="M2.271 26.911L15 16L2.271 5.08899C1.493 5.81899 1 6.84899 1 7.99999V24C1 25.151 1.493 26.181 2.271 26.911Z" fill="black"/>
<path d="M5.61 4H5C3.942 4 2.986 4.419 2.271 5.089L15 16L2.271 26.911C2.986 27.582 3.942 28 5 28H5.61L16.11 19H31V13H16.11L5.61 4Z" fill="white"/>
<path d="M2.271 5.08899C1.503 5.80899 1.017 6.82199 1.004 7.95499L10.39 16L1.005 24.045C1.018 25.178 1.504 26.191 2.272 26.911L15.001 16L2.271 5.08899Z" fill="#F5BD45"/>
<path d="M4.175 4.08698C2.756 4.38498 1.631 5.44098 1.201 6.80698L11.926 16L1.201 25.193C1.63 26.559 2.756 27.615 4.175 27.913L15.74 18H31V14H15.74L4.175 4.08698Z" fill="#33764C"/>
<path opacity="0.15" d="M5 28H27C29.209 28 31 26.209 31 24V8C31 5.791 29.209 4 27 4H5C2.791 4 1 5.791 1 8V24C1 26.209 2.791 28 5 28ZM2 8C2 6.346 3.346 5 5 5H27C28.654 5 30 6.346 30 8V24C30 25.654 28.654 27 27 27H5C3.346 27 2 25.654 2 24V8Z" fill="black"/>
<path opacity="0.2" d="M27 5H5C3.343 5 2 6.343 2 8V9C2 7.343 3.343 6 5 6H27C28.657 6 30 7.343 30 9V8C30 6.343 28.657 5 27 5Z" fill="white"/>
</svg>
