<svg width="32" height="32" viewBox="0 0 32 32" fill="none" xmlns="http://www.w3.org/2000/svg">
<path d="M27 4H5C2.79086 4 1 5.79086 1 8V24C1 26.2091 2.79086 28 5 28H27C29.2091 28 31 26.2091 31 24V8C31 5.79086 29.2091 4 27 4Z" fill="#408926"/>
<path d="M26 15H31V24C31 26.208 29.208 28 27 28H26V15Z" fill="#E18430"/>
<path d="M21 15H26V28H21V15Z" fill="black"/>
<path d="M16 15H21V28H16V15Z" fill="#CD3421"/>
<path opacity="0.15" d="M27 4H5C2.791 4 1 5.791 1 8V24C1 26.209 2.791 28 5 28H27C29.209 28 31 26.209 31 24V8C31 5.791 29.209 4 27 4ZM30 24C30 25.654 28.654 27 27 27H5C3.346 27 2 25.654 2 24V8C2 6.346 3.346 5 5 5H27C28.654 5 30 6.346 30 8V24Z" fill="black"/>
<path opacity="0.2" d="M27 5H5C3.343 5 2 6.343 2 8V9C2 7.343 3.343 6 5 6H27C28.657 6 30 7.343 30 9V8C30 6.343 28.657 5 27 5Z" fill="white"/>
<path d="M29.05 9.15103C29.017 9.12803 28.917 9.15803 28.712 9.24703C29.686 8.39503 29.02 8.67103 28.446 9.02603C29.582 8.00103 28.46 8.48703 27.902 8.86303C29.232 7.78803 27.442 8.79203 26.739 9.02003C27.342 8.38203 25.444 9.23603 25.164 9.18403C24.604 9.46903 23.153 9.33103 23.121 9.45503C22.846 9.07903 23.459 8.81803 23.521 9.10903C24.021 8.52203 21.909 8.15603 21.911 9.33903C21.309 9.47103 18.362 7.93703 19.509 8.98203C18.827 8.64503 16.9 7.66103 18.208 8.90503C17.5 8.54903 16.838 7.99703 17.557 8.95903C17.104 8.53303 16.935 8.77203 17.43 9.16403C16.703 8.64803 17.112 9.55603 18.351 9.79203C17.919 9.83203 18.282 10.085 18.918 10.04C17.896 10.15 19.043 10.46 19.486 10.292C18.752 10.376 19.109 10.723 20.243 10.475C19.475 10.611 19.981 10.912 20.493 10.77C20.155 10.965 20.774 10.942 20.909 10.887C20.795 10.951 20.799 10.958 20.809 10.977C20.956 11.108 21.295 10.974 21.377 10.933C21.035 11.235 21.654 11.127 21.923 11.015C21.482 11.307 22.375 11.405 22.504 11.298C22.496 11.349 22.441 11.46 22.508 11.442C22.525 11.432 22.546 11.408 22.576 11.373C22.498 11.563 22.337 12.234 22.659 11.783C22.627 12.015 22.587 12.077 22.698 12.056C22.712 12.301 21.997 12.302 22.074 12.552C21.992 12.812 22.195 12.616 22.47 12.56C22.381 12.972 22.549 13.046 22.789 12.68C23.066 13.107 23 13.039 23.126 12.649C23.21 12.781 23.258 12.721 23.224 12.597C23.262 12.606 23.331 12.609 23.406 12.543C23.419 12.708 23.384 12.888 23.597 12.922C23.611 12.82 23.528 12.793 23.672 12.706C23.768 12.592 23.639 12.257 23.83 12.569C23.993 12.598 23.929 12.625 23.942 12.725C24.411 12.72 23.81 12.024 24.192 12.332C24.315 12.399 24.213 12.124 24.082 12.133C23.86 12.109 23.916 12.145 23.897 12C24.491 12.304 23.979 11.82 23.957 11.625C24.285 11.853 24.342 11.773 24.037 11.491C24.087 11.544 24.482 11.797 24.468 11.578C24.964 11.884 25.208 11.611 24.627 11.313C24.865 11.525 25.962 11.752 25.273 11.255C25.377 11.326 25.932 11.238 25.707 11.117C25.955 11.115 26.233 11.033 25.935 10.94C26.483 10.896 26.801 10.728 26.86 10.612C28.3 10.446 29.026 9.56503 28.577 9.68303C28.867 9.43203 29.067 9.32003 29.05 9.15303V9.15103ZM23.202 12.241C23.021 12.203 23.014 12.086 23.039 11.87C23.324 12.194 23.109 11.363 23.187 11.095C23.538 11.45 23.34 12.034 23.546 11.998C23.627 12.286 23.379 12.153 23.202 12.241Z" fill="#E18430"/>
</svg>
