<svg width="32" height="32" viewBox="0 0 32 32" fill="none" xmlns="http://www.w3.org/2000/svg">
<path d="M1 10.857H31V14.286H1V10.857Z" fill="#C4291C"/>
<path d="M1 14.285H31V17.714H1V14.285Z" fill="black"/>
<path d="M1 17.714H31V21.143H1V17.714Z" fill="#C4291C"/>
<path d="M1 24C1 24.196 1.03 24.383 1.058 24.572H30.942C30.969 24.384 31 24.196 31 24V21.142H1V24Z" fill="#F8D548"/>
<path d="M1.058 7.42798C1.031 7.61598 1 7.80398 1 7.99998V10.857H31V7.99998C31 7.80398 30.97 7.61698 30.942 7.42798H1.058Z" fill="#F8D548"/>
<path d="M30.942 24.571H1.058C1.337 26.507 2.987 28 5 28H27C29.014 28 30.663 26.507 30.942 24.571Z" fill="#2A6318"/>
<path d="M1.058 7.429H30.942C30.663 5.493 29.013 4 27 4H5C2.986 4 1.337 5.493 1.058 7.429Z" fill="#2A6318"/>
<path d="M2.316 26.947L16 16L2.316 5.05298C1.513 5.78498 1 6.82898 1 7.99998V24C1 25.172 1.513 26.216 2.316 26.947Z" fill="white"/>
<path opacity="0.15" d="M27 4H5C2.791 4 1 5.791 1 8V24C1 26.209 2.791 28 5 28H27C29.209 28 31 26.209 31 24V8C31 5.791 29.209 4 27 4ZM30 24C30 25.654 28.654 27 27 27H5C3.346 27 2 25.654 2 24V8C2 6.346 3.346 5 5 5H27C28.654 5 30 6.346 30 8V24Z" fill="black"/>
<path opacity="0.2" d="M27 5H5C3.343 5 2 6.343 2 8V9C2 7.343 3.343 6 5 6H27C28.657 6 30 7.343 30 9V8C30 6.343 28.657 5 27 5Z" fill="white"/>
<path d="M8.439 16.569L10.871 14.802H7.865L6.936 11.942L6.007 14.802H3L5.432 16.569L4.503 19.428L6.936 17.661L9.368 19.428L8.439 16.569Z" fill="#C1291B"/>
<path d="M9.072 16.468C9.068 16.427 9.047 16.39 9.015 16.363C8.498 15.958 7.455 15.142 6.938 14.738C6.924 14.57 6.898 14.232 6.884 14.064C6.889 13.601 6.297 13.219 5.983 13.66C5.752 13.623 5.44 13.788 5.576 14.05C5.644 14.06 5.773 14.04 5.843 14.04C6.075 14.145 5.985 14.618 6.012 14.813L6.026 15.322C5.914 15.555 5.957 15.826 5.987 16.072C6.029 16.565 5.13 16.885 5.516 17.413C5.589 17.694 5.734 18.262 5.807 18.544C6.345 18.604 7.483 18.545 8.041 18.565C8.094 18.594 8.116 18.055 8.132 18.044C8.168 17.499 8.29 16.912 8.804 16.612C8.924 16.671 9.086 16.622 9.074 16.468H9.072Z" fill="#F7D347"/>
</svg>
